<?xml version="1.0" standalone="no"?><!DOCTYPE svg PUBLIC "-//W3C//DTD SVG 1.1//EN" "http://www.w3.org/Graphics/SVG/1.1/DTD/svg11.dtd" ><svg xmlns="http://www.w3.org/2000/svg"><metadata></metadata><defs><font id="SvetoslavSimov: Solomon Sans Normal: 2011" horiz-adv-x="1740"><font-face font-family="Solomon Sans Normal" font-weight="400" font-stretch="normal" units-per-em="1000" panose-1="2 0 0 0 0 0 0 0 0 0" ascent="750" descent="-250" x-height="0" bbox="-138 -218 1676 910" underline-thickness="50" underline-position="-125" unicode-range="U+0020-fb04" /><missing-glyph horiz-adv-x="520" d="M10 0 l0 700 l500 0 l0 -700 l-500 0 ZM260 395 l170 255 l-340 0 l170 -255 ZM290 350 l170 -255 l0 510 l-170 -255 ZM60 95 l170 255 l-170 255 l0 -510 ZM90 50 l340 0 l-170 255 l-170 -255 Z" /><glyph glyph-name="space" unicode=" " d="" /><glyph glyph-name="exclam" unicode="!" d="M201 170 l-82 0 l-5 530 l91 0 l-4 -530 ZM205 0 l-90 0 l0 103 l90 0 l0 -103 Z" /><glyph glyph-name="quotedbl" unicode="&quot;" d="M68 518 l0 193 l79 0 l0 -193 l-79 0 ZM205 518 l0 193 l79 0 l0 -193 l-79 0 Z" /><glyph glyph-name="numbersign" unicode="#" d="M551 496 l-2 -76 l-92 0 l-22 -140 l81 0 l-2 -75 l-91 0 l-32 -204 l-71 0 l31 204 l-127 0 l-33 -204 l-73 0 l31 204 l-91 0 l2 75 l101 0 l21 140 l-90 0 l2 76 l100 0 l32 204 l74 0 l-31 -204 l127 0 l32 204 l72 0 l-31 -204 l82 0 ZM384 420 l-127 0 l-21 -140 l127 0 l21 140 Z" /><glyph glyph-name="dollar" unicode="$" d="M151 522 q-2 -32 10 -55 q12 -23 38 -37.5 q26 -14.5 43.5 -20.5 q17.5 -6 48.5 -14 q37 -9 64.5 -19 q27.5 -10 58 -27.5 q30.5 -17.5 49.5 -40.5 q19 -23 30.5 -58.5 q11.5 -35.5 9.5 -79.5 q-4 -80 -57.5 -127.5 q-53.5 -47.5 -130.5 -57.5 l0 -91 l-73 0 l0 91 q-63 9 -114 47 q-51 38 -75 101 l65 34 q20 -50 63.5 -80.5 q43.5 -30.5 96.5 -30.5 q63 -1 102 30.5 q39 31.5 43 87.5 q2 30 -7.5 54 q-9.5 24 -23 38 q-13.5 14 -38.5 26 q-25 12 -41 17.5 q-16 5.5 -43 12.5 q-43 12 -72.5 24.5 q-29.5 12.5 -62.5 35 q-33 22.5 -49 59 q-16 36.5 -15 85.5 q2 79 50.5 127.5 q48.5 48.5 120.5 58.5 l0 91 l73 0 l0 -90 q59 -9 106 -43.5 q47 -34.5 68 -90.5 l-63 -31 q-19 44 -59 68.5 q-40 24.5 -85 25.5 q-52 0 -89.5 -30.5 q-37.5 -30.5 -41.5 -89.5 Z" /><glyph glyph-name="percent" unicode="%" d="M395 542 q0 -70 -50.5 -120 q-50.5 -50 -121.5 -50 q-71 0 -121.5 50 q-50.5 50 -50.5 120 q0 71 50.5 121 q50.5 50 121.5 50 q71 0 121.5 -50 q50.5 -50 50.5 -121 ZM739.5 278 q50.5 -50 50.5 -120 q0 -70 -50.5 -120 q-50.5 -50 -121.5 -50 q-71 0 -122 50 q-51 50 -51 120 q0 70 51 120 q51 50 122 50 q71 0 121.5 -50 ZM689 83.5 q29 30.5 29 74.5 q0 44 -29 75.5 q-29 31.5 -71 31.5 q-42 0 -71.5 -31.5 q-29.5 -31.5 -29.5 -75.5 q0 -44 29 -74.5 q29 -30.5 72 -30.5 q42 0 71 30.5 ZM608 742 l86 0 l-454 -779 l-85 0 l453 779 ZM325 542 q0 45 -29.5 76 q-29.5 31 -72.5 31 q-43 0 -72.5 -31.5 q-29.5 -31.5 -29.5 -75.5 q0 -44 29.5 -75 q29.5 -31 72.5 -31 q43 0 72.5 31 q29.5 31 29.5 75 Z" /><glyph glyph-name="ampersand" unicode="&amp;" d="M324 379 l136 -148 q5 9 23.5 41 q18.5 32 26.5 46 l69 -36 l-65 -113 l125 -142 l-105 0 l-65 75 q-42 -54 -89.5 -82 q-47.5 -28 -111.5 -28 q-90 0 -150 56 q-60 56 -60 148 q0 70 35.5 112.5 q35.5 42.5 104.5 85.5 q-72 86 -72 154 q0 74 52 118.5 q52 44.5 124 44.5 q64 0 112 -43.5 q48 -43.5 48 -109.5 q0 -65 -36 -104 q-36 -39 -102 -75 ZM417 160 l-168 179 q-50 -31 -80 -64 q-30 -33 -30 -77 q0 -57 39.5 -92 q39.5 -35 97.5 -35 q76 0 141 89 ZM299 635 q-38 0 -64 -24.5 q-26 -24.5 -26 -61.5 q0 -44 63 -118 q24 13 38.5 22 q14.5 9 34 25 q19.5 16 29.5 35 q10 19 10 42 q0 35 -24.5 57.5 q-24.5 22.5 -60.5 22.5 Z" /><glyph glyph-name="quotesingle" unicode="&#39;" d="M67 518 l0 193 l79 0 l0 -193 l-79 0 Z" /><glyph glyph-name="parenleft" unicode="(" d="M157 352 q0 -119 58 -235 q58 -116 157 -175 l0 -92 q-133 70 -215 210 q-82 140 -82 292 q0 153 82 293 q82 140 215 210 l0 -92 q-99 -59 -157 -175 q-58 -116 -58 -236 Z" /><glyph glyph-name="parenright" unicode=")" d="M232 352 q0 120 -58.5 236 q-58.5 116 -156.5 175 l0 92 q133 -70 214.5 -210 q81.5 -140 81.5 -293 q0 -152 -81.5 -292 q-81.5 -140 -214.5 -210 l0 92 q98 59 156.5 175 q58.5 116 58.5 235 Z" /><glyph glyph-name="asterisk" unicode="*" d="M422 538 l-139 -43 l88 -116 l-58 -41 l-83 119 l-83 -119 l-57 41 l87 116 l-138 43 l22 66 l136 -46 l-1 144 l70 0 l-3 -144 l137 46 l22 -66 Z" /><glyph glyph-name="plus" unicode="+" d="M82 290 l0 79 l210 0 l0 204 l77 0 l0 -204 l201 0 l0 -79 l-201 0 l0 -206 l-77 0 l0 206 l-210 0 Z" /><glyph glyph-name="comma" unicode="," d="M27 -109 l65 216 l92 0 l-82 -216 l-75 0 Z" /><glyph glyph-name="hyphen" unicode="-" d="M95 272 l0 79 l270 0 l0 -79 l-270 0 Z" /><glyph glyph-name="period" unicode="." d="M181 -2 l-100 0 l0 109 l100 0 l0 -109 Z" /><glyph glyph-name="slash" unicode="/" d="M404 778 l-287 -843 l-85 0 l288 843 l84 0 Z" /><glyph glyph-name="zero" unicode="0" d="M149 198 q0 -61 47 -98 q47 -37 110 -37 q62 0 109 37 q47 37 47 98 l0 307 q0 62 -48.5 98.5 q-48.5 36.5 -111.5 35.5 q-62 -1 -107.5 -37 q-45.5 -36 -45.5 -97 l0 -307 ZM67 505 q0 98 69 153 q69 55 165 56 q98 2 170.5 -53 q72.5 -55 72.5 -156 l0 -307 q0 -89 -59 -145 q-68 -65 -179 -65 q-111 -2 -181 65 q-58 56 -58 145 l0 307 Z" /><glyph glyph-name="one" unicode="1" d="M144 623 l-92 0 l0 78 l174 0 l0 -701 l-82 0 l0 623 Z" /><glyph glyph-name="two" unicode="2" d="M285 633 q-55 2 -96 -23.5 q-41 -25.5 -61 -73.5 l-68 32 q29 73 89.5 110.5 q60.5 37.5 137.5 35.5 q96 -4 154.5 -61.5 q58.5 -57.5 60.5 -137.5 q0 -87 -76 -171 l-246 -269 l327 0 l0 -75 l-429 0 l-24 60 l316 342 q56 60 55 112 q0 49 -37.5 83 q-37.5 34 -102.5 36 Z" /><glyph glyph-name="three" unicode="3" d="M44 133 l62 34 q23 -48 69 -75.5 q46 -27.5 96 -27.5 q56 0 99.5 37.5 q43.5 37.5 43.5 101.5 q0 61 -38.5 100 q-38.5 39 -93.5 39 l-56 0 l0 73 l56 0 q51 0 82.5 25.5 q31.5 25.5 31.5 78.5 q0 56 -36.5 86.5 q-36.5 30.5 -87.5 30.5 q-43 0 -84 -23 q-41 -23 -60 -63 l-59 35 q26 60 81 93.5 q55 33.5 117 33.5 q84 0 147.5 -51 q63.5 -51 63.5 -142 q0 -44 -21.5 -82 q-21.5 -38 -56.5 -54 q96 -52 96 -181 q-1 -98 -69 -156 q-68 -58 -159 -58 q-70 0 -132 38 q-62 38 -92 107 Z" /><glyph glyph-name="four" unicode="4" d="M444 701 l0 -492 l56 0 l0 -76 l-56 0 l0 -133 l-82 0 l0 133 l-281 0 l-54 73 l331 495 l86 0 ZM362 209 l2 375 l-240 -374 l238 -1 Z" /><glyph glyph-name="five" unicode="5" d="M50 133 l67 34 q22 -46 70 -73 q48 -27 98 -27 q77 0 120 49 q43 49 42 115 q0 64 -41.5 110 q-41.5 46 -117.5 46 q-99 0 -166 -39 l-44 -2 l54 354 l350 0 l0 -78 l-283 0 l-29 -181 q57 22 120 22 q113 -1 175.5 -70 q62.5 -69 62.5 -163 q0 -97 -65 -168.5 q-65 -71.5 -180 -71.5 q-74 0 -137.5 37 q-63.5 37 -95.5 106 Z" /><glyph glyph-name="six" unicode="6" d="M306 -10 q-113 0 -178 71.5 q-65 71.5 -65 168.5 q0 72 40 135 l208 335 l95 0 l-149 -241 q30 4 49 4 q118 0 180.5 -68.5 q62.5 -68.5 62.5 -164.5 q0 -97 -64.5 -168.5 q-64.5 -71.5 -178.5 -71.5 ZM306 387 q-68 0 -114.5 -44 q-46.5 -44 -47.5 -112 q0 -66 43 -115 q43 -49 119 -49 q77 0 120 49 q43 49 42 115 q0 64 -43 110 q-43 46 -119 46 Z" /><glyph glyph-name="seven" unicode="7" d="M377 622 l-337 0 l0 80 l413 0 l27 -56 l-337 -646 l-93 0 l327 622 Z" /><glyph glyph-name="eight" unicode="8" d="M451.5 44 q-68.5 -58 -160.5 -58 q-92 0 -160 58 q-68 58 -69 158 q-1 115 97 177 q-69 49 -69 145 q0 88 60 138.5 q60 50.5 141 50.5 q82 0 141.5 -50.5 q59.5 -50.5 59.5 -138.5 q0 -97 -68 -145 q98 -62 97 -177 q-1 -100 -69.5 -158 ZM380 602 q-32 35 -89 35 q-57 0 -88.5 -35 q-31.5 -35 -31 -77 q0.5 -42 32.5 -77 q32 -35 87 -35 q56 0 88 35 q32 35 32.5 77 q0.5 42 -31.5 77 ZM291 343 q-40 0 -71.5 -15.5 q-31.5 -15.5 -47.5 -40.5 q-16 -25 -24 -55 q-8 -30 -0.5 -60 q7.5 -30 24 -55 q16.5 -25 48 -40 q31.5 -15 71.5 -15 q57 1 95.5 30 q38.5 29 47.5 70 q9 41 0 82 q-9 41 -48 70 q-39 29 -95 29 Z" /><glyph glyph-name="nine" unicode="9" d="M299 709 q113 0 178 -71.5 q65 -71.5 65 -168.5 q0 -72 -40 -135 l-208 -335 l-95 0 l149 241 q-30 -4 -49 -4 q-118 0 -180.5 68.5 q-62.5 68.5 -62.5 164.5 q0 97 64.5 168.5 q64.5 71.5 178.5 71.5 ZM299 312 q68 0 114.5 44 q46.5 44 47.5 112 q0 66 -43 115 q-43 49 -119 49 q-77 0 -120 -49 q-43 -49 -42 -115 q0 -64 43 -110 q43 -46 119 -46 Z" /><glyph glyph-name="colon" unicode=":" d="M197 -2 l-100 0 l0 109 l100 0 l0 -109 ZM197 386 l-100 0 l0 109 l100 0 l0 -109 Z" /><glyph glyph-name="semicolon" unicode=";" d="M197 386 l-100 0 l0 109 l100 0 l0 -109 ZM43 -120 l65 216 l92 0 l-82 -216 l-75 0 Z" /><glyph glyph-name="less" unicode="&lt;" d="M442 529 l0 -90 l-306 -153 l306 -152 l0 -87 l-401 209 l0 60 l401 213 Z" /><glyph glyph-name="equal" unicode="=" d="M101 337 l0 79 l433 0 l0 -79 l-433 0 ZM101 142 l0 79 l433 0 l0 -79 l-433 0 Z" /><glyph glyph-name="greater" unicode="&gt;" d="M64 438 l0 91 l401 -213 l0 -60 l-401 -209 l0 90 l306 149 l-306 152 Z" /><glyph glyph-name="question" unicode="?" d="M26 620 l9 11 q33 42 85 64.5 q52 22.5 109 22.5 q92 0 160 -56 q68 -56 67 -153 q-1 -89 -54.5 -146.5 q-53.5 -57.5 -142.5 -73.5 l-7 -144 l-71 0 l-6 207 q79 1 139.5 46 q60.5 45 59.5 112 q-1 60 -45 96.5 q-44 36.5 -102 36.5 q-40 0 -78.5 -18.5 q-38.5 -18.5 -63.5 -49.5 l-59 45 ZM263 1 l-87 0 l0 93 l87 0 l0 -93 Z" /><glyph glyph-name="at" unicode="@" d="M648 473 l-2 3 q-35 44 -91 67.5 q-56 23.5 -120 23.5 q-129 0 -210.5 -92.5 q-81.5 -92.5 -83.5 -211.5 q-2 -113 65.5 -191.5 q67.5 -78.5 203.5 -78.5 q50 0 103 21 l34 -64 q-73 -28 -137 -28 q-89 0 -157.5 28.5 q-68.5 28.5 -108.5 77.5 q-40 49 -60 109 q-20 60 -19 127 q2 94 44.5 178.5 q42.5 84.5 128 140.5 q85.5 56 195.5 56 q142 0 237.5 -85 q95.5 -85 95.5 -210 q0 -118 -72 -203.5 q-72 -85.5 -160 -85.5 q-61 0 -64 62 q-18 -29 -49.5 -43.5 q-31.5 -14.5 -66.5 -14.5 q-56 0 -96 46 q-40 46 -40 103 q0 70 26.5 134 q26.5 64 80 106.5 q53.5 42.5 123.5 42.5 q31 0 60.5 -18.5 q29.5 -18.5 35.5 -49.5 l14 35 l79 -3 l-87 -270 q0 -1 -1 -4 q-15 -43 -1 -48 l8 -1 q45 0 89.5 69.5 q44.5 69.5 44.5 142.5 q0 76 -42 129 ZM294 210 q0 -34 18.5 -55 q18.5 -21 49.5 -21 q57 0 101.5 67 q44.5 67 44.5 130 q0 40 -16.5 62.5 q-16.5 22.5 -47.5 22.5 q-70 1 -110 -65.5 q-40 -66.5 -40 -140.5 Z" /><glyph glyph-name="A" unicode="a" d="M13 0 l251 705 l101 0 l254 -705 l-87 0 l-81 224 l-271 0 l-79 -224 l-88 0 ZM205 300 l219 0 l-109 318 l-110 -318 Z" /><glyph glyph-name="B" unicode="b" d="M183 410 l128 0 q61 0 95.5 33 q34.5 33 34.5 78 q0 45 -34 77 q-34 32 -96 32 l-128 0 l0 -220 ZM311 333 l-128 0 l0 -257 l128 0 q76 0 118 35 q42 35 42 90 q0 53 -42 92.5 q-42 39.5 -118 39.5 ZM517 519 q0 -86 -81 -142 q57 -28 85.5 -75 q28.5 -47 27.5 -101 q0 -101 -67 -151 q-67 -50 -172 -50 l-209 0 l0 704 l210 0 q87 0 146.5 -50.5 q59.5 -50.5 59.5 -134.5 Z" /><glyph glyph-name="C" unicode="c" d="M664 607 l-53 -55 q-85 88 -201 85 q-128 -2 -201 -87.5 q-73 -85.5 -73 -201.5 q0 -115 73.5 -199.5 q73.5 -84.5 200.5 -84.5 q62 0 119.5 27 q57.5 27 97.5 74 l58 -48 q-50 -60 -122 -94.5 q-72 -34.5 -153 -34.5 q-112 0 -195 53 q-83 53 -122.5 133 q-39.5 80 -39.5 174 q0 94 39.5 175.5 q39.5 81.5 123 135.5 q83.5 54 194.5 54 q150 0 254 -106 Z" /><glyph glyph-name="D" unicode="d" d="M317 705 q162 1 255.5 -101.5 q93.5 -102.5 95.5 -244.5 q2 -68 -20 -131.5 q-22 -63.5 -64.5 -115 q-42.5 -51.5 -111.5 -82 q-69 -30.5 -154 -30.5 l-217 0 l0 705 l216 0 ZM317 76 q130 -2 201.5 82.5 q71.5 84.5 68.5 199.5 q-2 111 -73 191 q-71 80 -195 80 l-136 0 l0 -553 l134 0 Z" /><glyph glyph-name="E" unicode="e" d="M462 704 l0 -77 l-292 0 l0 -237 l288 0 l0 -77 l-288 0 l-1 -234 l293 0 l0 -78 l-375 0 l0 703 l375 0 Z" /><glyph glyph-name="F" unicode="f" d="M476 701 l0 -77 l-292 0 l0 -238 l288 0 l0 -77 l-288 0 l0 -308 l-83 0 l0 700 l375 0 Z" /><glyph glyph-name="G" unicode="g" d="M423 713 q83 0 160 -33 q77 -33 125 -91 l-58 -50 q-38 45 -101 71.5 q-63 26.5 -126 26.5 q-127 0 -207 -88 q-80 -88 -80 -200 q0 -114 74.5 -200 q74.5 -86 200.5 -86 q95 0 174.5 61 q79.5 61 88.5 155 l-313 0 l0 76 l404 0 q0 -155 -98.5 -261.5 q-98.5 -106.5 -255.5 -106.5 q-112 0 -195 53.5 q-83 53.5 -122 134 q-39 80.5 -40 174.5 q0 93 42.5 174.5 q42.5 81.5 128.5 135.5 q86 54 198 54 Z" /><glyph glyph-name="H" unicode="h" d="M505 0 l0 312 l-321 0 l0 -312 l-83 0 l0 703 l83 0 l0 -317 l321 0 l0 317 l83 0 l0 -703 l-83 0 Z" /><glyph glyph-name="I" unicode="i" d="M101 0 l0 703 l82 0 l0 -703 l-82 0 Z" /><glyph glyph-name="J" unicode="j" d="M44 167 l76 16 q11 -55 51 -86 q40 -31 89 -32 q53 -1 91 34 q38 35 38 98 l0 433 l-147 0 l0 70 l227 0 l0 -503 q0 -99 -61 -154 q-61 -55 -146 -55 q-77 0 -138.5 46.5 q-61.5 46.5 -79.5 132.5 Z" /><glyph glyph-name="K" unicode="k" d="M101 705 l83 0 l0 -348 l321 348 l91 0 l-281 -316 l292 -389 l-97 0 l-250 335 l-76 -76 l0 -259 l-83 0 l0 705 Z" /><glyph glyph-name="L" unicode="l" d="M454 77 l0 -77 l-353 0 l0 700 l83 0 l0 -623 l270 0 Z" /><glyph glyph-name="M" unicode="m" d="M462 95 l-71 0 l-210 462 l0 -557 l-80 0 l0 704 l105 0 l220 -502 l219 502 l106 0 l0 -704 l-83 0 l0 552 l-206 -457 Z" /><glyph glyph-name="N" unicode="n" d="M658 700 l0 -700 l-116 0 l-359 586 l0 -586 l-82 0 l0 700 l99 0 l376 -610 l0 610 l82 0 Z" /><glyph glyph-name="O" unicode="o" d="M158 606 q105 108 252 108 q147 0 252 -108 q105 -108 105 -257 q0 -149 -105 -256 q-105 -107 -252 -107 q-147 0 -252 107 q-105 107 -105 256 q0 149 105 257 ZM136 349 q0 -134 81.5 -210.5 q81.5 -76.5 192.5 -76.5 q111 0 192.5 76.5 q81.5 76.5 81.5 210.5 q0 134 -82.5 212 q-82.5 78 -192.5 77 q-110 -1 -191.5 -79 q-81.5 -78 -81.5 -210 Z" /><glyph glyph-name="P" unicode="p" d="M183 256 l0 -256 l-82 0 l0 703 l210 0 q111 0 173.5 -67.5 q62.5 -67.5 62.5 -158.5 q0 -91 -62 -156 q-62 -65 -173 -65 l-129 0 ZM311 332 q73 0 113.5 43.5 q40.5 43.5 40.5 101.5 q0 59 -41 104.5 q-41 45.5 -113 45.5 l-128 0 l0 -295 l128 0 Z" /><glyph glyph-name="Q" unicode="q" d="M470 232 l55 55 l110 -111 q50 73 50 172 q0 134 -83 212 q-83 78 -193 77 q-110 0 -191 -78 q-81 -78 -81 -211 q0 -90 40.5 -157 q40.5 -67 101.5 -98.5 q61 -31.5 132 -31.5 q96 0 171 58 l-112 113 ZM689 122 l66 -66 l-55 -55 l-65 66 q-98 -82 -224 -82 q-147 0 -252 107.5 q-105 107.5 -105 255.5 q0 149 105 257 q105 108 252 108 q147 0 252 -108 q105 -108 105 -257 q0 -128 -79 -226 Z" /><glyph glyph-name="R" unicode="r" d="M351 286 l225 -286 l-103 0 l-219 285 l-70 0 l0 -285 l-83 0 l0 701 l223 0 q107 0 172.5 -51.5 q65.5 -51.5 66.5 -158.5 q1 -99 -57.5 -149.5 q-58.5 -50.5 -154.5 -55.5 ZM184 356 l141 0 q155 0 155 135 q0 134 -155 134 l-141 0 l0 -269 Z" /><glyph glyph-name="S" unicode="s" d="M143 526 q-2 -31 10 -54 q12 -23 37.5 -37.5 q25.5 -14.5 44 -21 q18.5 -6.5 48.5 -14.5 q37 -9 64.5 -19 q27.5 -10 58 -28 q30.5 -18 49.5 -40.5 q19 -22.5 30.5 -58 q11.5 -35.5 9.5 -80.5 q-4 -90 -71.5 -138.5 q-67.5 -48.5 -155.5 -48.5 q-71 0 -133.5 39.5 q-62.5 39.5 -89.5 110.5 l65 35 q20 -50 63.5 -80.5 q43.5 -30.5 96.5 -30.5 q62 -1 101.5 31 q39.5 32 43.5 87 q2 36 -10.5 62.5 q-12.5 26.5 -39.5 43 q-27 16.5 -48.5 25 q-21.5 8.5 -54.5 17.5 q-42 11 -72 23.5 q-30 12.5 -62.5 35.5 q-32.5 23 -49 59.5 q-16.5 36.5 -15.5 85.5 q3 90 64.5 139.5 q61.5 49.5 144.5 49.5 q70 0 127.5 -36 q57.5 -36 81.5 -101 l-63 -31 q-18 45 -58.5 69.5 q-40.5 24.5 -85.5 24.5 q-52 1 -89.5 -29.5 q-37.5 -30.5 -41.5 -89.5 Z" /><glyph glyph-name="T" unicode="t" d="M10 702 l431 0 l0 -80 l-174 0 l0 -622 l-83 0 l0 622 l-174 0 l0 80 Z" /><glyph glyph-name="U" unicode="u" d="M91 700 l83 0 l0 -498 q0 -66 44.5 -103 q44.5 -37 106.5 -38 q63 -1 109.5 36.5 q46.5 37.5 46.5 104.5 l0 498 l83 0 l0 -498 q0 -103 -71 -160.5 q-71 -57.5 -168 -56.5 q-95 1 -164.5 58.5 q-69.5 57.5 -69.5 158.5 l0 498 Z" /><glyph glyph-name="V" unicode="v" d="M366 -2 l-101 0 l-253 706 l89 0 l215 -615 l214 615 l87 0 l-251 -706 Z" /><glyph glyph-name="W" unicode="w" d="M519 614 l160 -521 l160 609 l85 0 l-194 -705 l-101 0 l-147 471 q-56 -180 -148 -471 l-101 0 l-194 705 l86 0 l159 -610 l162 522 l73 0 Z" /><glyph glyph-name="X" unicode="x" d="M615 700 l-239 -350 q38 -55 120 -174 q82 -119 120 -175 l-100 0 l-189 281 l-189 -281 l-101 0 l241 349 l-239 350 l99 0 l189 -277 q164 241 189 277 l99 0 Z" /><glyph glyph-name="Y" unicode="y" d="M574 705 l-240 -426 l0 -279 l-81 0 l0 279 q-34 60 -115.5 206.5 q-81.5 146.5 -123.5 219.5 l94 0 l186 -339 q13 23 81.5 148 q68.5 125 103.5 191 l95 0 Z" /><glyph glyph-name="Z" unicode="z" d="M58 0 l0 80 l273 406 l103 145 l-364 0 l0 74 l445 0 l0 -76 l-262 -392 l-116 -162 l378 0 l0 -75 l-457 0 Z" /><glyph glyph-name="bracketleft" unicode="[" d="M273 787 l0 -71 l-86 0 l-1 -732 l86 0 l0 -69 l-167 0 l1 872 l167 0 Z" /><glyph glyph-name="backslash" unicode="\" d="M307 -65 l-287 843 l84 0 l288 -843 l-85 0 Z" /><glyph glyph-name="bracketright" unicode="]" d="M36 716 l0 71 l167 0 l1 -872 l-167 0 l0 69 l86 0 l-1 732 l-86 0 Z" /><glyph glyph-name="asciicircum" unicode="^" d="M70 301 l208 399 l54 0 l207 -399 l-89 0 l-145 289 l-148 -289 l-87 0 Z" /><glyph glyph-name="underscore" unicode="_" d="M33 0 l511 0 l0 -78 l-511 0 l0 78 Z" /><glyph glyph-name="grave" unicode="`" d="M263 761 l-84 115 l93 0 l65 -115 l-74 0 Z" /><glyph glyph-name="a" unicode="a" d="M418 239 q-56 36 -128 36 q-80 -1 -122.5 -31.5 q-42.5 -30.5 -42.5 -82.5 q0 -47 40 -77.5 q40 -30.5 115 -30.5 q37 0 75.5 18 q38.5 18 62.5 46 l0 122 ZM493 0 l-61 0 l-11 45 q-57 -55 -141 -57 q-110 -1 -168.5 47.5 q-58.5 48.5 -58.5 125.5 q0 78 61.5 129 q61.5 51 174.5 50 q59 0 131 -38 l0 22 q0 127 -146 127 q-86 0 -155 -49 l-33 55 q87 63 190 63 q94 1 155.5 -47 q61.5 -48 61.5 -149 l0 -324 Z" /><glyph glyph-name="b" unicode="b" d="M267 513 q120 0 189 -72 q69 -72 69 -190 q0 -106 -64.5 -182.5 q-64.5 -76.5 -163.5 -74.5 q-31 1 -50 3.5 q-19 2.5 -46 16 q-27 13.5 -50 38.5 l-14 -52 l-56 0 l0 700 l76 0 l0 -222 q47 35 110 35 ZM290 61 q77 7 119 59 q42 52 42 134 q0 91 -54.5 140 q-54.5 49 -132.5 47 q-60 -2 -108 -31 l0 -283 q57 -76 134 -66 Z" /><glyph glyph-name="c" unicode="c" d="M481 449 l-43 -53 q-55 52 -135 52 q-72 1 -125.5 -54 q-53.5 -55 -54.5 -142 q0 -76 48 -133 q48 -57 133 -57 q77 0 138 56 l44 -53 q-75 -73 -182 -73 q-122 0 -190.5 77.5 q-68.5 77.5 -68.5 184.5 q1 107 70 185.5 q69 78.5 189 79.5 q106 0 177 -70 Z" /><glyph glyph-name="d" unicode="d" d="M307 513 q63 0 110 -35 l0 222 l76 0 l0 -700 l-56 0 l-14 52 q-23 -25 -50 -38.5 q-27 -13.5 -46 -16 q-19 -2.5 -50 -3.5 q-99 -2 -163.5 74.5 q-64.5 76.5 -64.5 182.5 q0 118 69 190 q69 72 189 72 ZM284 61 q38 -4 73.5 14 q35.5 18 60.5 52 l0 283 q-53 31 -112 31 q-76 1 -129.5 -48 q-53.5 -49 -53.5 -139 q0 -82 42 -134 q42 -52 119 -59 Z" /><glyph glyph-name="e" unicode="e" d="M304 60 q43 0 83 18 q40 18 65 52 l60 -38 q-76 -103 -208 -103 q-82 0 -142.5 40 q-60.5 40 -88.5 99 q-28 59 -27 127 q0 106 69 185 q69 79 188 80 q120 1 191 -85 q71 -86 53 -208 l-425 0 q5 -69 53.5 -118 q48.5 -49 128.5 -49 ZM123 293 l354 0 q-6 70 -53 113.5 q-47 43.5 -120 44.5 q-78 -1 -124 -46 q-46 -45 -57 -112 Z" /><glyph glyph-name="f" unicode="f" d="M284 701 l0 -65 q-55 8 -84 -14 q-29 -22 -29 -72 l0 -42 l107 0 l0 -63 l-107 0 l0 -445 l-76 0 l0 445 l-83 0 l0 63 l83 0 l0 42 q0 81 52 121 q52 40 137 30 Z" /><glyph glyph-name="g" unicode="g" d="M310 512 q72 0 110 -46 l14 41 l62 0 l0 -502 q0 -72 -33 -122.5 q-33 -50.5 -84.5 -70 q-51.5 -19.5 -110 -19.5 q-58.5 0 -114 25 q-55.5 25 -91.5 68 l47 51 q31 -36 83.5 -56 q52.5 -20 103 -19 q50.5 1 87.5 37.5 q37 36.5 37 105.5 l0 39 q-31 -32 -63.5 -41 q-32.5 -9 -77.5 -10 q-99 -2 -163.5 74.5 q-64.5 76.5 -64.5 182.5 q0 118 69 190 q69 72 189 72 ZM287 60 q77 -10 134 66 l0 269 q-49 44 -114 44 q-75 1 -128 -47.5 q-53 -48.5 -53 -138.5 q0 -82 42 -134 q42 -52 119 -59 Z" /><glyph glyph-name="h" unicode="h" d="M81 701 l78 0 l0 -229 q50 42 131 43 q107 -2 174.5 -63 q67.5 -61 67.5 -168 l0 -284 l-78 0 l0 284 q-1 71 -46 113 q-45 42 -115 47 q-77 4 -135 -38 l0 -406 l-77 0 l0 701 Z" /><glyph glyph-name="i" unicode="i" d="M160 0 l-79 0 l0 512 l79 0 l0 -512 ZM161 592 l-81 0 l0 112 l81 0 l0 -112 Z" /><glyph glyph-name="j" unicode="j" d="M-22 -198 l0 64 q48 -3 75.5 20.5 q27.5 23.5 27.5 66.5 l0 559 l79 0 l0 -559 q0 -81 -50.5 -120 q-50.5 -39 -131.5 -31 ZM159 592 l-81 0 l0 113 l81 0 l0 -113 Z" /><glyph glyph-name="k" unicode="k" d="M81 700 l76 0 l0 -431 l238 239 l95 0 l-223 -222 l231 -286 l-91 0 l-190 236 l-60 -56 l0 -180 l-76 0 l0 700 Z" /><glyph glyph-name="l" unicode="l" d="M235 67 l0 -69 q-78 -8 -119 30 q-41 38 -41 121 l0 556 l79 0 l0 -556 q0 -46 17 -66 q17 -20 64 -16 Z" /><glyph glyph-name="m" unicode="m" d="M429 303 q0 73 -48.5 111.5 q-48.5 38.5 -112.5 32.5 q-64 -6 -110 -51 l0 -396 l-77 0 l0 507 l66 0 l10 -47 q49 54 135 54 q58 0 104 -23 q46 -23 69 -64 q48 89 174 89 q87 0 148.5 -55.5 q61.5 -55.5 61.5 -167.5 l0 -293 l-77 0 l0 293 q0 81 -38.5 118 q-38.5 37 -99.5 37 q-56 0 -92.5 -37 q-36.5 -37 -37.5 -108 l-1 -303 l-74 0 l0 303 Z" /><glyph glyph-name="n" unicode="n" d="M81 507 l66 0 l10 -47 q47 52 146 54 q107 -2 172.5 -59.5 q65.5 -57.5 65.5 -164.5 l0 -290 l-78 0 l0 290 q-1 70 -44 109 q-43 39 -113 44 q-37 2 -78.5 -10.5 q-41.5 -12.5 -69.5 -39.5 l0 -393 l-77 0 l0 507 Z" /><glyph glyph-name="o" unicode="o" d="M123 253 q0 -94 52.5 -145 q52.5 -51 126.5 -51 q75 0 127.5 51 q52.5 51 52.5 145 q0 93 -52.5 143.5 q-52.5 50.5 -127.5 50.5 q-74 0 -126.5 -50.5 q-52.5 -50.5 -52.5 -143.5 ZM487.5 441.5 q72.5 -75.5 72.5 -188.5 q0 -113 -72.5 -189 q-72.5 -76 -185.5 -76 q-113 0 -185 76 q-72 76 -72 189 q0 112 72 188 q72 76 185 76 q113 0 185.5 -75.5 Z" /><glyph glyph-name="p" unicode="p" d="M272 513 q119 4 186 -67.5 q67 -71.5 67 -194.5 q0 -112 -71 -185 q-71 -73 -170 -72 q-76 0 -128 35 l0 -224 l-75 0 l0 702 l61 0 l12 -53 q20 25 52.5 41.5 q32.5 16.5 65.5 17.5 ZM290 61 q77 7 119 59 q42 52 42 134 q0 92 -50.5 141 q-50.5 49 -122.5 47 q-67 -2 -122 -55 l0 -277 q53 -59 134 -49 Z" /><glyph glyph-name="q" unicode="q" d="M301 513 q33 -1 65.5 -17.5 q32.5 -16.5 52.5 -41.5 l12 53 l61 0 l0 -702 l-75 0 l0 224 q-52 -35 -128 -35 q-99 -1 -170 72 q-71 73 -71 185 q0 123 67 194.5 q67 71.5 186 67.5 ZM283 61 q81 -10 134 49 l0 277 q-55 53 -122 55 q-72 2 -122.5 -47 q-50.5 -49 -50.5 -141 q0 -82 42 -134 q42 -52 119 -59 Z" /><glyph glyph-name="r" unicode="r" d="M81 510 l67 0 l8 -65 q24 41 68 59.5 q44 18.5 89 15 q45 -3.5 84 -22.5 l-29 -68 q-79 37 -144 -0.5 q-65 -37.5 -65 -123.5 l0 -305 l-78 0 l0 510 Z" /><glyph glyph-name="s" unicode="s" d="M231 291 q165 -33 165 -151 q0 -50 -30 -86 q-30 -36 -70 -50.5 q-40 -14.5 -83 -14.5 q-113 0 -171 83 l48 49 q51 -62 123 -62 q41 -1 74 20.5 q33 21.5 33 61.5 q-1 59 -106 79 q-158 27 -159 145 q0 70 53 111 q53 41 125 41 q93 0 150 -58 l-45 -51 q-42 36 -105 38 q-42 1 -72.5 -21 q-30.5 -22 -29.5 -60 q0 -54 100 -74 Z" /><glyph glyph-name="t" unicode="t" d="M269 64 l0 -67 q-81 -9 -131 30.5 q-50 39.5 -50 120.5 l0 297 l-83 0 l0 62 l83 0 l0 142 l78 7 l0 -149 l103 0 l0 -62 l-103 0 l0 -297 q0 -92 103 -84 Z" /><glyph glyph-name="u" unicode="u" d="M534 0 l-65 0 l-11 52 q-68 -59 -159 -59 q-92 0 -158.5 59.5 q-66.5 59.5 -66.5 159.5 l0 294 l78 0 l0 -294 q2 -69 49.5 -109 q47.5 -40 112.5 -41 q90 -2 143 63 l0 381 l77 0 l0 -506 Z" /><glyph glyph-name="v" unicode="v" d="M100 509 l120 -338 q8 -19 22 -110 l6 0 q13 88 21 110 l119 338 l84 0 l-181 -511 l-94 0 l-181 511 l84 0 Z" /><glyph glyph-name="w" unicode="w" d="M315 510 l87 0 l85 -337 q12 -39 15 -109 l5 0 q3 71 14 110 l95 336 l80 0 l-151 -510 l-92 0 l-85 339 q-1 4 -4.5 35.5 q-3.5 31.5 -3.5 32.5 l-4 0 l-4 -33 q-3 -34 -3 -35 l-84 -339 l-92 0 l-152 510 l80 0 l95 -336 q7 -20 16 -110 l5 0 q3 81 12 109 l86 337 Z" /><glyph glyph-name="x" unicode="x" d="M255 311 l131 199 l97 0 l-178 -256 l180 -254 l-97 0 l-133 197 l-133 -197 l-97 0 l179 254 l-177 256 l97 0 l131 -199 Z" /><glyph glyph-name="y" unicode="y" d="M89 -190 l0 65 q42 -5 64 8.5 q22 13.5 33 41.5 l28 73 l-207 509 l84 0 l164 -420 l156 420 l84 0 l-235 -607 q-39 -103 -171 -90 Z" /><glyph glyph-name="z" unicode="z" d="M46 0 l0 73 l277 366 l-266 -1 l0 70 l365 0 l0 -51 l-294 -388 l294 0 l0 -69 l-376 0 Z" /><glyph glyph-name="braceleft" unicode="{" d="M277 781 l0 -71 q-4 0 -16 0 q-12 0 -15.5 0 q-3.5 0 -12 -1 q-8.5 -1 -11 -3 q-2.5 -2 -7.5 -5.5 q-5 -3.5 -6.5 -9 q-1.5 -5.5 -3 -13 q-1.5 -7.5 -1.5 -18.5 l0 -162 q0 -111 -54 -149 q54 -38 54 -149 l0 -161 q0 -11 1.5 -19 q1.5 -8 3 -13.5 q1.5 -5.5 6.5 -9 q5 -3.5 7.5 -5.5 q2.5 -2 11 -3 q8.5 -1 12 -1 q3.5 0 15.5 0 q12 0 16 0 l0 -71 l-47 0 q-51 0 -79.5 31.5 q-28.5 31.5 -28.5 84.5 l0 148 q0 131 -67 131 l0 74 q67 0 67 131 l0 148 q0 53 28.5 84.5 q28.5 31.5 79.5 31.5 l47 0 Z" /><glyph glyph-name="bar" unicode="|" d="M104 -159 l0 951 l77 0 l0 -951 l-77 0 Z" /><glyph glyph-name="braceright" unicode="}" d="M35 710 l0 71 l47 0 q51 0 79.5 -31.5 q28.5 -31.5 28.5 -84.5 l0 -148 q0 -131 67 -131 l0 -74 q-67 0 -67 -131 l0 -148 q0 -53 -28.5 -84.5 q-28.5 -31.5 -79.5 -31.5 l-47 0 l0 71 q4 0 16 0 q12 0 15.5 0 q3.5 0 12 1 q8.5 1 11 3 q2.5 2 7.5 5.5 q5 3.5 6.5 9 q1.5 5.5 3 13.5 q1.5 8 1.5 19 l0 161 q0 111 54 149 q-54 38 -54 149 l0 162 q0 11 -1.5 18.5 q-1.5 7.5 -3 13 q-1.5 5.5 -6.5 9 q-5 3.5 -7.5 5.5 q-2.5 2 -11 3 q-8.5 1 -12 1 q-3.5 0 -15.5 0 q-12 0 -16 0 Z" /><glyph glyph-name="asciitilde" unicode="~" d="M478 391 l53 -43 q-38 -84 -107.5 -101 q-69.5 -17 -142.5 32 q-61 38 -92.5 29 q-31.5 -9 -74.5 -74 l-52 43 q97 179 262 67 q35 -24 63 -24 q28 0 47.5 17 q19.5 17 43.5 54 Z" /><glyph glyph-name="nonbreakingspace" unicode=" " d="" /><glyph glyph-name="exclamdown" unicode="¡" d="M105 336 l82 0 l5 -530 l-91 0 l4 530 ZM101 506 l90 0 l0 -103 l-90 0 l0 103 Z" /><glyph glyph-name="cent" unicode="¢" d="M290 1 l0 85 q-74 6 -127.5 45.5 q-53.5 39.5 -78.5 95 q-25 55.5 -25 120.5 q1 100 62 176.5 q61 76.5 169 86.5 l0 90 l61 0 l0 -90 q83 -9 144 -68 l-43 -53 q-55 52 -135 52 q-72 1 -125.5 -54 q-53.5 -55 -54.5 -142 q0 -76 48 -133 q48 -57 133 -57 q77 0 138 56 l44 -53 q-62 -61 -149 -71 l0 -86 l-61 0 Z" /><glyph glyph-name="sterling" unicode="£" d="M543 533 l-76 -15 q-9 46 -39.5 76.5 q-30.5 30.5 -68 37 q-37.5 6.5 -74.5 -2.5 q-37 -9 -61.5 -42.5 q-24.5 -33.5 -24.5 -82.5 l0 -128 l220 0 l0 -60 l-220 0 l0 -243 l349 0 l0 -73 l-487 0 l0 73 l57 0 l0 243 l-55 0 l0 60 l55 0 l0 128 q0 64 28 111.5 q28 47.5 70.5 70.5 q42.5 23 94.5 26 q52 3 99 -15 q47 -18 84 -60.5 q37 -42.5 49 -103.5 Z" /><glyph glyph-name="yen" unicode="¥" d="M591 700 l-170 -304 l85 0 l0 -60 l-119 0 l-35 -63 l0 -12 l154 0 l0 -60 l-154 0 l0 -201 l-82 0 l0 201 l-153 0 l0 60 l153 0 l0 12 q-11 21 -35 63 l-118 0 l0 60 l84 0 q-167 298 -170 304 l95 0 l186 -339 q30 56 92 170 q62 114 92 169 l95 0 Z" /><glyph glyph-name="brokenbar" unicode="¦" d="M104 -159 l0 410 l77 0 l0 -410 l-77 0 ZM181 792 l0 -407 l-77 0 l0 407 l77 0 Z" /><glyph glyph-name="section" unicode="§" d="M235 286 q33 -6 63 -18 q42 23 42 67 q-1 34 -33 53 q-32 19 -73 26 q-28 4 -55 14 q-45 -24 -44 -69 q0 -24 18.5 -40 q18.5 -16 36.5 -22 q18 -6 45 -11 ZM125 455 q-50 38 -50 104 q0 70 53 111.5 q53 41.5 125 41.5 q93 0 149 -59 l-44 -54 q-46 39 -107 41 q-41 1 -71 -21 q-30 -22 -29 -60 q0 -23 18.5 -39.5 q18.5 -16.5 36 -21.5 q17.5 -5 45.5 -11 q165 -33 165 -152 q0 -71 -67 -94 q51 -39 51 -107 q0 -50 -30 -86 q-30 -36 -70 -50.5 q-40 -14.5 -83 -14.5 q-114 0 -172 83 l49 48 q51 -61 123 -61 q41 -1 74 20 q33 21 32 61 q0 60 -105 80 q-159 27 -159 145 q0 32 18 57.5 q18 25.5 48 38.5 Z" /><glyph glyph-name="dieresis" unicode="¨" d="M215 782 l-90 0 l0 98 l90 0 l0 -98 ZM388 782 l-90 0 l0 98 l90 0 l0 -98 Z" /><glyph glyph-name="copyright" unicode="©" d="M162.5 91.5 q-103.5 106.5 -103.5 258.5 q0 152 103.5 258.5 q103.5 106.5 251.5 106.5 q149 0 253.5 -106.5 q104.5 -106.5 104.5 -258.5 q0 -152 -104.5 -258.5 q-104.5 -106.5 -253.5 -106.5 q-148 0 -251.5 106.5 ZM423 222 q-68 0 -101 55 q-22 35 -19.5 79.5 q2.5 44.5 27.5 76.5 q26 34 64 43 q32 8 65 -1.5 q33 -9.5 57 -33.5 l44 52 q-55 56 -137 56 q-116 0 -169 -97 q-26 -47 -26 -102.5 q0 -55.5 26 -102.5 q53 -95 169 -95 q79 0 137 56 l-45 51 q-39 -37 -92 -37 ZM213.5 561 q-81.5 -86 -81.5 -211 q0 -125 81.5 -211 q81.5 -86 200.5 -86 q121 0 203 86 q82 86 82 211 q0 125 -82 211 q-82 86 -203 86 q-119 0 -200.5 -86 Z" /><glyph glyph-name="ordfeminine" unicode="ª" d="M345 331 l-6 43 q-44 -60 -128 -43 q-67 13 -109.5 64 q-42.5 51 -42.5 125 q0 80 57 137.5 q57 57.5 137 59.5 q82 3 151 -30 l4 -2 l0 -354 l-63 0 ZM409 279 l0 -57 l-332 0 l0 57 l332 0 ZM337 433 l1 217 q-36 12 -83 9 q-53 -5 -89.5 -44.5 q-36.5 -39.5 -36.5 -94.5 q0 -45 27.5 -81.5 q27.5 -36.5 70.5 -46.5 q70 -15 110 41 Z" /><glyph glyph-name="guillemotleft" unicode="«" d="M250 282 l164 206 l90 0 l-164 -206 l164 -205 l-90 0 l-164 205 ZM213 77 l-164 205 l164 206 l90 0 l-164 -206 l164 -205 l-90 0 Z" /><glyph glyph-name="logicalnot" unicode="¬" d="M65 345 l0 73 l477 0 l0 -267 l-72 0 l0 194 l-405 0 Z" /><glyph glyph-name="uni00AD" unicode="­" d="M75 247 l0 74 l292 0 l0 -74 l-292 0 Z" /><glyph glyph-name="registered" unicode="®" d="M464 308 q47 9 73 39.5 q26 30.5 26 79.5 q-1 62 -39.5 93.5 q-38.5 31.5 -101.5 31.5 l-130 0 l0 -397 l71 0 l0 150 l25 0 l114 -150 l83 0 l-121 153 ZM163.5 89.5 q-103.5 106.5 -103.5 258.5 q0 152 103.5 258.5 q103.5 106.5 251.5 106.5 q149 0 253.5 -106.5 q104.5 -106.5 104.5 -258.5 q0 -152 -104.5 -258.5 q-104.5 -106.5 -253.5 -106.5 q-148 0 -251.5 106.5 ZM214.5 559 q-81.5 -86 -81.5 -211 q0 -125 81.5 -211 q81.5 -86 200.5 -86 q121 0 203 86 q82 86 82 211 q0 125 -82 211 q-82 86 -203 86 q-119 0 -200.5 -86 ZM363 365 l0 126 l59 0 q33 0 53 -20 q20 -20 21 -44 q1 -24 -20 -43 q-21 -19 -54 -19 l-59 0 Z" /><glyph glyph-name="macron" unicode="¯" d="M127 757 l0 67 l255 0 l0 -67 l-255 0 Z" /><glyph glyph-name="degree" unicode="°" d="M298 477 q-41 -40 -99 -40 q-58 0 -98.5 40 q-40.5 40 -40.5 96 q0 56 40.5 96 q40.5 40 98.5 40 q58 0 99 -40 q41 -40 41 -96 q0 -56 -41 -96 ZM146.5 520.5 q21.5 -21.5 52.5 -21.5 q31 0 52.5 21.5 q21.5 21.5 21.5 52.5 q0 31 -21.5 53 q-21.5 22 -52.5 22 q-31 0 -52.5 -22 q-21.5 -22 -21.5 -53 q0 -31 21.5 -52.5 Z" /><glyph glyph-name="plusminus" unicode="±" d="M105 69 l481 0 l0 -69 l-481 0 l0 69 ZM98 340 l0 79 l210 0 l0 204 l77 0 l0 -204 l201 0 l0 -79 l-201 0 l0 -206 l-77 0 l0 206 l-210 0 Z" /><glyph glyph-name="twosuperior" unicode="²" d="M310 526 l-166 -147 l221 0 l0 -64 l-307 0 l-22 48 l224 211 q43 43 32 79 q-7 25 -31.5 36.5 q-24.5 11.5 -53.5 12.5 q-73 3 -101 -53 l-63 26 q15 35 45 59 q22 18 55 28 q33 9 65 8 q53 -2 96 -27.5 q43 -25.5 56 -72.5 q11 -38 -3.5 -76 q-14.5 -38 -46.5 -68 Z" /><glyph glyph-name="threesuperior" unicode="³" d="M309 558 q67 -35 67 -111 q-1 -64 -50.5 -101.5 q-49.5 -37.5 -115.5 -37.5 q-52 0 -96.5 24.5 q-44.5 24.5 -66.5 69.5 l59 28 q15 -27 44.5 -42.5 q29.5 -15.5 61.5 -15.5 q36 0 63 20.5 q27 20.5 27 55.5 q0 33 -24.5 54.5 q-24.5 21.5 -57.5 21.5 l-45 0 l0 60 l45 0 q30 0 49.5 14 q19.5 14 19.5 43 q0 30 -22.5 46.5 q-22.5 16.5 -54.5 16.5 q-27 0 -53 -13 q-26 -13 -38 -36 l-57 30 q20 39 60 61 q40 22 85 22 q62 0 108 -34 q46 -34 46 -93 q0 -26 -15 -49.5 q-15 -23.5 -39 -33.5 Z" /><glyph glyph-name="acute" unicode="´" d="M334 876 l-84 -115 l-74 0 l65 115 l93 0 Z" /><glyph glyph-name="mu" unicode="µ&#x3bc;" d="M470 509 l0 -509 l-65 0 l-8 73 q-20 -34 -58.5 -53 q-38.5 -19 -80.5 -19 q-60 0 -99 52 l0 -248 l-75 0 l0 704 l81 0 l0 -312 q0 -122 93 -122 q57 0 94.5 41 q37.5 41 37.5 118 l0 275 l80 0 Z" /><glyph glyph-name="paragraph" unicode="¶" d="M255 -80 l0 356 q-98 4 -153 66.5 q-55 62.5 -55 144.5 q0 89 62 153 q62 64 173 64 l220 0 l0 -784 l-79 0 l0 715 l-88 0 l0 -715 l-80 0 Z" /><glyph glyph-name="periodcentered" unicode="·" d="M93 247 l0 95 l92 0 l0 -95 l-92 0 Z" /><glyph glyph-name="cedilla" unicode="¸" d="M298 15 l-32 -57 q27 -1 52 -24.5 q25 -23.5 24 -52.5 q-2 -43 -31 -65.5 q-29 -22.5 -67 -22.5 q-35 0 -85 25 l15 44 q34 -19 64 -19 q27 0 39 16.5 q12 16.5 1.5 34 q-10.5 17.5 -38.5 18.5 q-16 0 -27 -6 l-24 20 l51 89 l58 0 Z" /><glyph glyph-name="onesuperior" unicode="¹" d="M118 311 l0 385 l-64 0 l0 65 l9 0 l120 0 l9 0 l0 -450 l-74 0 Z" /><glyph glyph-name="ordmasculine" unicode="º" d="M354 437 q-47 -45 -116 -45 q-69 0 -116 45 q-47 45 -47 115 q0 67 47 112 q47 45 115 45 q69 0 116.5 -45 q47.5 -45 47.5 -112 q0 -70 -47 -115 ZM238 448 q41 0 69.5 29.5 q28.5 29.5 28.5 74.5 q0 44 -28.5 72.5 q-28.5 28.5 -69.5 28.5 q-42 0 -70.5 -28.5 q-28.5 -28.5 -28.5 -72.5 q0 -45 28.5 -74.5 q28.5 -29.5 70.5 -29.5 ZM83 257 l0 65 l312 0 l0 -65 l-312 0 Z" /><glyph glyph-name="guillemotright" unicode="»" d="M256 77 l164 205 l-164 206 l89 0 l164 -206 l-164 -205 l-89 0 ZM54 77 l164 205 l-164 206 l89 0 l164 -206 l-164 -205 l-89 0 Z" /><glyph glyph-name="onequarter" unicode="¼" d="M311 -32 l-75 0 l375 786 l75 0 l-375 -786 ZM840 144 l0 299 l-72 0 l-234 -310 l44 -53 l189 0 l0 -80 l73 0 l0 80 l39 0 l0 64 l-39 0 ZM767 144 l-145 1 l146 199 l-1 -200 ZM161 636 l0 -347 l74 0 l0 412 l-9 0 l-120 0 l-9 0 l0 -65 l64 0 Z" /><glyph glyph-name="onehalf" unicode="½" d="M274 -30 l-75 0 l376 780 l75 0 l-376 -780 ZM144 636 l0 -347 l74 0 l0 412 l-9 0 l-120 0 l-9 0 l0 -65 l64 0 ZM677 64 l166 147 q32 30 46.5 68 q14.5 38 3.5 76 q-13 47 -56 72.5 q-43 25.5 -96 27.5 q-32 1 -65 -8 q-33 -10 -55 -28 q-30 -24 -45 -59 l63 -26 q28 56 101 53 q29 -1 53.5 -12.5 q24.5 -11.5 31.5 -36.5 q11 -36 -32 -79 l-224 -211 l22 -48 l307 0 l0 64 l-221 0 Z" /><glyph glyph-name="threequarters" unicode="¾" d="M371 -36 l-75 0 l381 786 l75 0 l-381 -786 ZM886 144 l0 299 l-72 0 l-234 -310 l44 -53 l189 0 l0 -80 l73 0 l0 80 l39 0 l0 64 l-39 0 ZM813 144 l-145 1 l146 199 l-1 -200 ZM306 505 q24 10 39 33.5 q15 23.5 15 49.5 q0 59 -46 93 q-46 34 -108 34 q-45 0 -85 -22 q-40 -22 -60 -61 l57 -30 q12 23 38 36 q26 13 53 13 q32 0 54.5 -16.5 q22.5 -16.5 22.5 -46.5 q0 -29 -19.5 -43 q-19.5 -14 -49.5 -14 l-45 0 l0 -60 l45 0 q33 0 57.5 -21.5 q24.5 -21.5 24.5 -54.5 q0 -35 -27 -55.5 q-27 -20.5 -63 -20.5 q-32 0 -61.5 15.5 q-29.5 15.5 -44.5 42.5 l-59 -28 q22 -45 66.5 -69.5 q44.5 -24.5 96.5 -24.5 q66 0 115.5 37.5 q49.5 37.5 50.5 101.5 q0 76 -67 111 Z" /><glyph glyph-name="questiondown" unicode="¿" d="M480 -113 l-9 -11 q-33 -42 -85 -64.5 q-52 -22.5 -109 -22.5 q-92 0 -160 56 q-68 56 -67 153 q1 89 54.5 146.5 q53.5 57.5 142.5 73.5 l7 144 l71 0 l6 -207 q-79 -1 -139.5 -46 q-60.5 -45 -59.5 -112 q1 -60 45 -96.5 q44 -36.5 102 -36.5 q40 0 78.5 18.5 q38.5 18.5 63.5 49.5 l59 -45 ZM243 506 l87 0 l0 -93 l-87 0 l0 93 Z" /><glyph glyph-name="Agrave" unicode="à" d="M13 0 l251 705 l101 0 l254 -705 l-87 0 l-81 224 l-271 0 l-79 -224 l-88 0 ZM205 300 l219 0 l-109 318 l-110 -318 ZM278 747 l-84 115 l93 0 l65 -115 l-74 0 Z" /><glyph glyph-name="Aacute" unicode="á" d="M13 0 l251 705 l101 0 l254 -705 l-87 0 l-81 224 l-271 0 l-79 -224 l-88 0 ZM205 300 l219 0 l-109 318 l-110 -318 ZM436 866 l-84 -115 l-74 0 l65 115 l93 0 Z" /><glyph glyph-name="Acircumflex" unicode="â" d="M13 0 l251 705 l101 0 l254 -705 l-87 0 l-81 224 l-271 0 l-79 -224 l-88 0 ZM205 300 l219 0 l-109 318 l-110 -318 ZM175 741 l88 117 l101 0 l88 -117 l-74 0 l-64 81 l-2 0 l-63 -81 l-74 0 Z" /><glyph glyph-name="Atilde" unicode="ã" d="M13 0 l251 705 l101 0 l254 -705 l-87 0 l-81 224 l-271 0 l-79 -224 l-88 0 ZM205 300 l219 0 l-109 318 l-110 -318 ZM429 854 l45 -33 q-23 -52 -71 -65 q-48 -13 -95 18 q-62 40 -104 -25 l-48 31 q30 56 79.5 68.5 q49.5 12.5 100.5 -22.5 q54 -36 93 28 Z" /><glyph glyph-name="Adieresis" unicode="ä" d="M13 0 l251 705 l101 0 l254 -705 l-87 0 l-81 224 l-271 0 l-79 -224 l-88 0 ZM205 300 l219 0 l-109 318 l-110 -318 ZM275 750 l-84 0 l0 89 l84 0 l0 -89 ZM438 750 l-85 0 l0 89 l85 0 l0 -89 Z" /><glyph glyph-name="Aring" unicode="å" d="M13 0 l251 705 l101 0 l254 -705 l-87 0 l-81 224 l-271 0 l-79 -224 l-88 0 ZM205 300 l219 0 l-109 318 l-110 -318 ZM373 761.5 q-25 -20.5 -60 -20.5 q-35 0 -60 20.5 q-25 20.5 -25 53.5 q0 34 25 54.5 q25 20.5 60 20.5 q35 0 60 -20.5 q25 -20.5 25 -54.5 q0 -33 -25 -53.5 ZM313 782 q14 0 23.5 9.5 q9.5 9.5 9.5 23.5 q0 16 -9.5 25.5 q-9.5 9.5 -23.5 9.5 q-15 0 -24 -9.5 q-9 -9.5 -9 -25.5 q0 -14 9 -23.5 q9 -9.5 24 -9.5 Z" /><glyph glyph-name="AE" unicode="æ" d="M11 1 l358 705 l442 0 l0 -76 l-291 0 l0 -240 l288 0 l0 -77 l-288 0 l-1 -234 l292 0 l0 -78 l-374 0 l0 236 l-218 0 l-120 -236 l-88 0 ZM437 315 l0 332 l-13 0 l-166 -332 l179 0 Z" /><glyph glyph-name="Ccedilla" unicode="ç" d="M664 607 l-53 -55 q-85 88 -201 85 q-128 -2 -201 -87.5 q-73 -85.5 -73 -201.5 q0 -115 73.5 -199.5 q73.5 -84.5 200.5 -84.5 q62 0 119.5 27 q57.5 27 97.5 74 l58 -48 q-97 -116 -249 -128 l-23 -42 q27 -1 52 -24.5 q25 -23.5 24 -52.5 q-2 -43 -31 -65.5 q-29 -22.5 -67 -22.5 q-35 0 -85 25 l15 44 q34 -19 64 -19 q27 0 39 16.5 q12 16.5 1.5 34 q-10.5 17.5 -38.5 18.5 q-16 0 -27 -6 l-24 20 l42 75 q-152 11 -238.5 115 q-86.5 104 -86.5 243 q0 94 39.5 175.5 q39.5 81.5 123 135.5 q83.5 54 194.5 54 q150 0 254 -106 Z" /><glyph glyph-name="Egrave" unicode="è" d="M476 704 l0 -77 l-292 0 l0 -237 l288 0 l0 -77 l-288 0 l-1 -234 l293 0 l0 -78 l-375 0 l0 703 l375 0 ZM285 773 l-84 115 l93 0 l65 -115 l-74 0 Z" /><glyph glyph-name="Eacute" unicode="é" d="M476 704 l0 -77 l-292 0 l0 -237 l288 0 l0 -77 l-288 0 l-1 -234 l293 0 l0 -78 l-375 0 l0 703 l375 0 ZM404 893 l-84 -115 l-74 0 l65 115 l93 0 Z" /><glyph glyph-name="Ecircumflex" unicode="ê" d="M476 704 l0 -77 l-292 0 l0 -237 l288 0 l0 -77 l-288 0 l-1 -234 l293 0 l0 -78 l-375 0 l0 703 l375 0 ZM154 750 l88 117 l101 0 l88 -117 l-74 0 l-64 81 l-2 0 l-63 -81 l-74 0 Z" /><glyph glyph-name="Edieresis" unicode="ë" d="M467 701 l0 -74 l-292 0 l0 -237 l288 0 l0 -75 l-288 0 l-1 -240 l293 0 l0 -74 l-375 0 l0 700 l375 0 ZM253 769 l-85 0 l0 75 l85 0 l0 -75 ZM416 769 l-85 0 l0 75 l85 0 l0 -75 Z" /><glyph glyph-name="Igrave" unicode="ì" d="M101 0 l0 703 l82 0 l0 -703 l-82 0 ZM103 750 l-84 115 l93 0 l65 -115 l-74 0 Z" /><glyph glyph-name="Iacute" unicode="í" d="M101 0 l0 703 l82 0 l0 -703 l-82 0 ZM260 866 l-84 -115 l-74 0 l65 115 l93 0 Z" /><glyph glyph-name="Icircumflex" unicode="î" d="M101 0 l0 703 l82 0 l0 -703 l-82 0 ZM1 741 l88 117 l101 0 l88 -117 l-74 0 l-64 81 l-2 0 l-63 -81 l-74 0 Z" /><glyph glyph-name="Idieresis" unicode="ï" d="M101 0 l0 703 l82 0 l0 -703 l-82 0 ZM101 750 l-86 0 l0 86 l86 0 l0 -86 ZM267 750 l-86 0 l0 86 l86 0 l0 -86 Z" /><glyph glyph-name="Eth" unicode="ð" d="M46 311 l0 76 l61 0 l0 318 l216 0 q162 1 255.5 -101.5 q93.5 -102.5 95.5 -244.5 q2 -68 -20 -131.5 q-22 -63.5 -64.5 -115 q-42.5 -51.5 -111.5 -82 q-69 -30.5 -154 -30.5 l-217 0 l0 311 l-61 0 ZM323 76 q130 -2 201.5 82.5 q71.5 84.5 68.5 199.5 q-2 111 -73 191 q-71 80 -195 80 l-136 0 l0 -242 l132 0 l0 -76 l-132 0 l0 -235 l134 0 Z" /><glyph glyph-name="Ntilde" unicode="ñ" d="M101 704 l88 0 l360 -588 l0 588 l83 0 l0 -704 l-105 0 l-344 564 l0 -564 l-82 0 l0 704 ZM480 851 l45 -33 q-23 -52 -71 -65 q-48 -13 -95 18 q-62 40 -104 -25 l-48 31 q30 56 79.5 68.5 q49.5 12.5 100.5 -22.5 q54 -36 93 28 Z" /><glyph glyph-name="Ograve" unicode="ò" d="M158 606 q105 108 252 108 q147 0 252 -108 q105 -108 105 -257 q0 -149 -105 -256 q-105 -107 -252 -107 q-147 0 -252 107 q-105 107 -105 256 q0 149 105 257 ZM136 349 q0 -134 81.5 -210.5 q81.5 -76.5 192.5 -76.5 q111 0 192.5 76.5 q81.5 76.5 81.5 210.5 q0 134 -82.5 212 q-82.5 78 -192.5 77 q-110 -1 -191.5 -79 q-81.5 -78 -81.5 -210 ZM395 776 l-84 115 l93 0 l65 -115 l-74 0 Z" /><glyph glyph-name="Oacute" unicode="ó" d="M158 606 q105 108 252 108 q147 0 252 -108 q105 -108 105 -257 q0 -149 -105 -256 q-105 -107 -252 -107 q-147 0 -252 107 q-105 107 -105 256 q0 149 105 257 ZM136 349 q0 -134 81.5 -210.5 q81.5 -76.5 192.5 -76.5 q111 0 192.5 76.5 q81.5 76.5 81.5 210.5 q0 134 -82.5 212 q-82.5 78 -192.5 77 q-110 -1 -191.5 -79 q-81.5 -78 -81.5 -210 ZM522 910 l-84 -115 l-74 0 l65 115 l93 0 Z" /><glyph glyph-name="Ocircumflex" unicode="ô" d="M158 606 q105 108 252 108 q147 0 252 -108 q105 -108 105 -257 q0 -149 -105 -256 q-105 -107 -252 -107 q-147 0 -252 107 q-105 107 -105 256 q0 149 105 257 ZM136 349 q0 -134 81.5 -210.5 q81.5 -76.5 192.5 -76.5 q111 0 192.5 76.5 q81.5 76.5 81.5 210.5 q0 134 -82.5 212 q-82.5 78 -192.5 77 q-110 -1 -191.5 -79 q-81.5 -78 -81.5 -210 ZM294 774 l88 117 l101 0 l88 -117 l-74 0 l-64 81 l-2 0 l-63 -81 l-74 0 Z" /><glyph glyph-name="Otilde" unicode="õ" d="M158 606 q105 108 252 108 q147 0 252 -108 q105 -108 105 -257 q0 -149 -105 -256 q-105 -107 -252 -107 q-147 0 -252 107 q-105 107 -105 256 q0 149 105 257 ZM136 349 q0 -134 81.5 -210.5 q81.5 -76.5 192.5 -76.5 q111 0 192.5 76.5 q81.5 76.5 81.5 210.5 q0 134 -82.5 212 q-82.5 78 -192.5 77 q-110 -1 -191.5 -79 q-81.5 -78 -81.5 -210 ZM531 895 l45 -33 q-23 -52 -71 -65 q-48 -13 -95 18 q-62 40 -104 -25 l-48 31 q30 56 79.5 68.5 q49.5 12.5 100.5 -22.5 q54 -36 93 28 Z" /><glyph glyph-name="Odieresis" unicode="ö" d="M158 606 q105 108 252 108 q147 0 252 -108 q105 -108 105 -257 q0 -149 -105 -256 q-105 -107 -252 -107 q-147 0 -252 107 q-105 107 -105 256 q0 149 105 257 ZM136 349 q0 -134 81.5 -210.5 q81.5 -76.5 192.5 -76.5 q111 0 192.5 76.5 q81.5 76.5 81.5 210.5 q0 134 -82.5 212 q-82.5 78 -192.5 77 q-110 -1 -191.5 -79 q-81.5 -78 -81.5 -210 ZM367 790 l-91 0 l0 84 l91 0 l0 -84 ZM542 790 l-91 0 l0 84 l91 0 l0 -84 Z" /><glyph glyph-name="multiply" unicode="×" d="M65 434 l55 56 l149 -149 l144 144 l55 -54 l-145 -144 l143 -143 l-56 -55 l-142 142 l-146 -146 l-55 55 l146 145 l-148 149 Z" /><glyph glyph-name="Oslash" unicode="ø" d="M410 714 q84 0 159 -39 l46 76 l77 0 l-67 -112 q66 -52 104 -128.5 q38 -76.5 38 -161.5 q0 -149 -105 -256 q-105 -107 -252 -107 q-81 0 -155 36 l-43 -72 l-78 0 l64 107 q-67 51 -106 127.5 q-39 76.5 -39 164.5 q0 149 105 257 q105 108 252 108 ZM136 349 q0 -147 101 -228 l293 489 q-56 28 -121 28 q-110 -1 -191.5 -79 q-81.5 -78 -81.5 -210 ZM684 349 q0 144 -98 225 l-292 -488 q56 -24 116 -24 q111 0 192.5 76.5 q81.5 76.5 81.5 210.5 Z" /><glyph glyph-name="Ugrave" unicode="ù" d="M91 700 l83 0 l0 -498 q0 -66 44.5 -103 q44.5 -37 106.5 -38 q63 -1 109.5 36.5 q46.5 37.5 46.5 104.5 l0 498 l83 0 l0 -498 q0 -103 -71 -160.5 q-71 -57.5 -168 -56.5 q-95 1 -164.5 58.5 q-69.5 57.5 -69.5 158.5 l0 498 ZM308 774 l-84 115 l93 0 l65 -115 l-74 0 Z" /><glyph glyph-name="Uacute" unicode="ú" d="M91 700 l83 0 l0 -498 q0 -66 44.5 -103 q44.5 -37 106.5 -38 q63 -1 109.5 36.5 q46.5 37.5 46.5 104.5 l0 498 l83 0 l0 -498 q0 -103 -71 -160.5 q-71 -57.5 -168 -56.5 q-95 1 -164.5 58.5 q-69.5 57.5 -69.5 158.5 l0 498 ZM446 883 l-84 -115 l-74 0 l65 115 l93 0 Z" /><glyph glyph-name="Ucircumflex" unicode="û" d="M91 700 l83 0 l0 -498 q0 -66 44.5 -103 q44.5 -37 106.5 -38 q63 -1 109.5 36.5 q46.5 37.5 46.5 104.5 l0 498 l83 0 l0 -498 q0 -103 -71 -160.5 q-71 -57.5 -168 -56.5 q-95 1 -164.5 58.5 q-69.5 57.5 -69.5 158.5 l0 498 ZM193 763 l88 117 l101 0 l88 -117 l-74 0 l-64 81 l-2 0 l-63 -81 l-74 0 Z" /><glyph glyph-name="Udieresis" unicode="ü" d="M91 700 l83 0 l0 -498 q0 -66 44.5 -103 q44.5 -37 106.5 -38 q63 -1 109.5 36.5 q46.5 37.5 46.5 104.5 l0 498 l83 0 l0 -498 q0 -103 -71 -160.5 q-71 -57.5 -168 -56.5 q-95 1 -164.5 58.5 q-69.5 57.5 -69.5 158.5 l0 498 ZM294 772 l-90 0 l0 98 l90 0 l0 -98 ZM467 772 l-90 0 l0 98 l90 0 l0 -98 Z" /><glyph glyph-name="Yacute" unicode="ý" d="M574 705 l-240 -426 l0 -279 l-81 0 l0 279 q-34 60 -115.5 206.5 q-81.5 146.5 -123.5 219.5 l94 0 l186 -339 q13 23 81.5 148 q68.5 125 103.5 191 l95 0 ZM411 860 l-84 -115 l-74 0 l65 115 l93 0 Z" /><glyph glyph-name="Thorn" unicode="þ" d="M183 143 l0 -143 l-82 0 l0 700 l82 0 l0 -114 l127 0 q111 0 173.5 -67 q62.5 -67 62.5 -157 q0 -91 -62 -155 q-62 -64 -173 -64 l-128 0 ZM310 219 q73 0 113.5 42.5 q40.5 42.5 40.5 100.5 q0 59 -41 106 q-41 47 -113 47 l-127 0 l0 -296 l127 0 Z" /><glyph glyph-name="germandbls" unicode="ß" d="M162 525 l0 -448 l0 -77 l-83 0 l0 525 q0 83 60.5 133.5 q60.5 50.5 143.5 50.5 q83 0 141.5 -49 q58.5 -49 58.5 -131 q0 -42 -21.5 -82 q-21.5 -40 -61.5 -65 q58 -22 93 -72.5 q35 -50.5 34 -108.5 q1 -53 -18.5 -94.5 q-19.5 -41.5 -52.5 -66 q-33 -24.5 -75.5 -37 q-42.5 -12.5 -88.5 -10.5 q-46 2 -89 17 l0 76 q39 -22 86 -22 q50 0 86 20.5 q36 20.5 52.5 50.5 q16.5 30 16.5 66 q0 36 -16.5 66 q-16.5 30 -53 50.5 q-36.5 20.5 -85.5 20.5 l-59 0 l0 77 l59 0 q55 0 87 35.5 q32 35.5 29 80.5 q-4 47 -39.5 74.5 q-35.5 27.5 -83.5 27.5 q-47 0 -83.5 -30.5 q-36.5 -30.5 -36.5 -77.5 Z" /><glyph glyph-name="agrave" unicode="à" d="M418 239 q-56 36 -128 36 q-80 -1 -122.5 -31.5 q-42.5 -30.5 -42.5 -82.5 q0 -47 40 -77.5 q40 -30.5 115 -30.5 q37 0 75.5 18 q38.5 18 62.5 46 l0 122 ZM493 0 l-61 0 l-11 45 q-57 -55 -141 -57 q-110 -1 -168.5 47.5 q-58.5 48.5 -58.5 125.5 q0 78 61.5 129 q61.5 51 174.5 50 q59 0 131 -38 l0 22 q0 127 -146 127 q-86 0 -155 -49 l-33 55 q87 63 190 63 q94 1 155.5 -47 q61.5 -48 61.5 -149 l0 -324 ZM278 587 l-84 115 l93 0 l65 -115 l-74 0 Z" /><glyph glyph-name="aacute" unicode="á" d="M418 239 q-56 36 -128 36 q-80 -1 -122.5 -31.5 q-42.5 -30.5 -42.5 -82.5 q0 -47 40 -77.5 q40 -30.5 115 -30.5 q37 0 75.5 18 q38.5 18 62.5 46 l0 122 ZM493 0 l-61 0 l-11 45 q-57 -55 -141 -57 q-110 -1 -168.5 47.5 q-58.5 48.5 -58.5 125.5 q0 78 61.5 129 q61.5 51 174.5 50 q59 0 131 -38 l0 22 q0 127 -146 127 q-86 0 -155 -49 l-33 55 q87 63 190 63 q94 1 155.5 -47 q61.5 -48 61.5 -149 l0 -324 ZM395 701 l-84 -115 l-74 0 l65 115 l93 0 Z" /><glyph glyph-name="acircumflex" unicode="â" d="M418 239 q-56 36 -128 36 q-80 -1 -122.5 -31.5 q-42.5 -30.5 -42.5 -82.5 q0 -47 40 -77.5 q40 -30.5 115 -30.5 q37 0 75.5 18 q38.5 18 62.5 46 l0 122 ZM493 0 l-61 0 l-11 45 q-57 -55 -141 -57 q-110 -1 -168.5 47.5 q-58.5 48.5 -58.5 125.5 q0 78 61.5 129 q61.5 51 174.5 50 q59 0 131 -38 l0 22 q0 127 -146 127 q-86 0 -155 -49 l-33 55 q87 63 190 63 q94 1 155.5 -47 q61.5 -48 61.5 -149 l0 -324 ZM154 585 l88 117 l101 0 l88 -117 l-74 0 l-64 81 l-2 0 l-63 -81 l-74 0 Z" /><glyph glyph-name="atilde" unicode="ã" d="M418 239 q-56 36 -128 36 q-80 -1 -122.5 -31.5 q-42.5 -30.5 -42.5 -82.5 q0 -47 40 -77.5 q40 -30.5 115 -30.5 q37 0 75.5 18 q38.5 18 62.5 46 l0 122 ZM493 0 l-61 0 l-11 45 q-57 -55 -141 -57 q-110 -1 -168.5 47.5 q-58.5 48.5 -58.5 125.5 q0 78 61.5 129 q61.5 51 174.5 50 q59 0 131 -38 l0 22 q0 127 -146 127 q-86 0 -155 -49 l-33 55 q87 63 190 63 q94 1 155.5 -47 q61.5 -48 61.5 -149 l0 -324 ZM404 712 l45 -33 q-23 -52 -71 -65 q-48 -13 -95 18 q-62 40 -104 -25 l-48 31 q30 56 79.5 68.5 q49.5 12.5 100.5 -22.5 q54 -36 93 28 Z" /><glyph glyph-name="adieresis" unicode="ä" d="M418 239 q-56 36 -128 36 q-80 -1 -122.5 -31.5 q-42.5 -30.5 -42.5 -82.5 q0 -47 40 -77.5 q40 -30.5 115 -30.5 q37 0 75.5 18 q38.5 18 62.5 46 l0 122 ZM493 0 l-61 0 l-11 45 q-57 -55 -141 -57 q-110 -1 -168.5 47.5 q-58.5 48.5 -58.5 125.5 q0 78 61.5 129 q61.5 51 174.5 50 q59 0 131 -38 l0 22 q0 127 -146 127 q-86 0 -155 -49 l-33 55 q87 63 190 63 q94 1 155.5 -47 q61.5 -48 61.5 -149 l0 -324 ZM250 614 l-89 0 l0 87 l89 0 l0 -87 ZM422 614 l-89 0 l0 87 l89 0 l0 -87 Z" /><glyph glyph-name="aring" unicode="å" d="M418 239 q-56 36 -128 36 q-80 -1 -122.5 -31.5 q-42.5 -30.5 -42.5 -82.5 q0 -47 40 -77.5 q40 -30.5 115 -30.5 q37 0 75.5 18 q38.5 18 62.5 46 l0 122 ZM493 0 l-61 0 l-11 45 q-57 -55 -141 -57 q-110 -1 -168.5 47.5 q-58.5 48.5 -58.5 125.5 q0 78 61.5 129 q61.5 51 174.5 50 q59 0 131 -38 l0 22 q0 127 -146 127 q-86 0 -155 -49 l-33 55 q87 63 190 63 q94 1 155.5 -47 q61.5 -48 61.5 -149 l0 -324 ZM289 578 q-35 0 -59.5 20.5 q-24.5 20.5 -24.5 53.5 q0 34 24.5 54.5 q24.5 20.5 59.5 20.5 q35 0 59.5 -20.5 q24.5 -20.5 24.5 -54.5 q0 -33 -25 -53.5 q-25 -20.5 -59 -20.5 ZM289 620 q14 0 23.5 9 q9.5 9 9.5 23 q0 16 -9 25 q-9 9 -24 9 q-15 0 -24 -9 q-9 -9 -9 -25 q0 -14 9 -23 q9 -9 24 -9 Z" /><glyph glyph-name="ae" unicode="æ" d="M663 58 q94 0 146 70 l63 -38 q-75 -101 -209 -101 q-124 0 -196 85 q-38 -40 -91 -62.5 q-53 -22.5 -104 -20.5 q-143 -1 -200.5 85.5 q-57.5 86.5 3.5 173.5 q61 87 206 85 q60 0 127 -35 q1 1 1 2 l0 8 q0 78 -57 116 q-57 38 -128 29.5 q-71 -8.5 -116 -52.5 l-40 46 q54 53 138 67 q84 14 157 -19 q73 -33 94 -105 q30 58 83 91.5 q53 33.5 122 34.5 q120 1 191.5 -87 q71.5 -88 53.5 -210 l-426 0 q5 -68 53.5 -115.5 q48.5 -47.5 128.5 -47.5 ZM272 60 q101 0 159 70 q-24 54 -26 111 q-50 29 -123 29 q-99 0 -141.5 -52.5 q-42.5 -52.5 -4 -105 q38.5 -52.5 135.5 -52.5 ZM480 287 l356 0 q-6 70 -53.5 115.5 q-47.5 45.5 -119.5 46.5 q-78 -1 -125 -47.5 q-47 -46.5 -58 -114.5 Z" /><glyph glyph-name="ccedilla" unicode="ç" d="M481 449 l-43 -53 q-55 52 -135 52 q-72 1 -125.5 -54 q-53.5 -55 -54.5 -142 q0 -76 48 -133 q48 -57 133 -57 q77 0 138 56 l44 -53 q-72 -70 -173 -73 l-17 -30 q27 -1 52 -24.5 q25 -23.5 24 -52.5 q-2 -43 -31 -65.5 q-29 -22.5 -67 -22.5 q-35 0 -85 25 l15 44 q34 -19 64 -19 q27 0 39 16.5 q12 16.5 1.5 34 q-10.5 17.5 -38.5 18.5 q-16 0 -27 -6 l-24 20 l37 66 q-100 15 -155.5 89 q-55.5 74 -55.5 169 q1 107 70 185.5 q69 78.5 189 79.5 q106 0 177 -70 Z" /><glyph glyph-name="egrave" unicode="è" d="M304 60 q43 0 83 18 q40 18 65 52 l60 -38 q-76 -103 -208 -103 q-82 0 -142.5 40 q-60.5 40 -88.5 99 q-28 59 -27 127 q0 106 69 185 q69 79 188 80 q120 1 191 -85 q71 -86 53 -208 l-425 0 q5 -69 53.5 -118 q48.5 -49 128.5 -49 ZM123 293 l354 0 q-6 70 -53 113.5 q-47 43.5 -120 44.5 q-78 -1 -124 -46 q-46 -45 -57 -112 ZM290 595 l-84 115 l93 0 l65 -115 l-74 0 Z" /><glyph glyph-name="eacute" unicode="é" d="M304 60 q43 0 83 18 q40 18 65 52 l60 -38 q-76 -103 -208 -103 q-82 0 -142.5 40 q-60.5 40 -88.5 99 q-28 59 -27 127 q0 106 69 185 q69 79 188 80 q120 1 191 -85 q71 -86 53 -208 l-425 0 q5 -69 53.5 -118 q48.5 -49 128.5 -49 ZM123 293 l354 0 q-6 70 -53 113.5 q-47 43.5 -120 44.5 q-78 -1 -124 -46 q-46 -45 -57 -112 ZM415 707 l-84 -115 l-74 0 l65 115 l93 0 Z" /><glyph glyph-name="ecircumflex" unicode="ê" d="M304 60 q43 0 83 18 q40 18 65 52 l60 -38 q-76 -103 -208 -103 q-82 0 -142.5 40 q-60.5 40 -88.5 99 q-28 59 -27 127 q0 106 69 185 q69 79 188 80 q120 1 191 -85 q71 -86 53 -208 l-425 0 q5 -69 53.5 -118 q48.5 -49 128.5 -49 ZM123 293 l354 0 q-6 70 -53 113.5 q-47 43.5 -120 44.5 q-78 -1 -124 -46 q-46 -45 -57 -112 ZM165 591 l88 117 l101 0 l88 -117 l-74 0 l-64 81 l-2 0 l-63 -81 l-74 0 Z" /><glyph glyph-name="edieresis" unicode="ë" d="M304 60 q43 0 83 18 q40 18 65 52 l60 -38 q-76 -103 -208 -103 q-82 0 -142.5 40 q-60.5 40 -88.5 99 q-28 59 -27 127 q0 106 69 185 q69 79 188 80 q120 1 191 -85 q71 -86 53 -208 l-425 0 q5 -69 53.5 -118 q48.5 -49 128.5 -49 ZM123 293 l354 0 q-6 70 -53 113.5 q-47 43.5 -120 44.5 q-78 -1 -124 -46 q-46 -45 -57 -112 ZM262 616 l-91 0 l0 81 l91 0 l0 -81 ZM437 616 l-91 0 l0 81 l91 0 l0 -81 Z" /><glyph glyph-name="igrave" unicode="ì" d="M160 0 l-79 0 l0 512 l79 0 l0 -512 ZM95 592 l-84 115 l93 0 l65 -115 l-74 0 Z" /><glyph glyph-name="iacute" unicode="í" d="M160 0 l-79 0 l0 512 l79 0 l0 -512 ZM226 707 l-84 -115 l-74 0 l65 115 l93 0 Z" /><glyph glyph-name="icircumflex" unicode="î" d="M160 0 l-79 0 l0 512 l79 0 l0 -512 ZM-19 590 l88 117 l101 0 l88 -117 l-74 0 l-64 81 l-2 0 l-63 -81 l-74 0 Z" /><glyph glyph-name="idieresis" unicode="ï" d="M160 0 l-79 0 l0 512 l79 0 l0 -512 ZM81 610 l-82 0 l0 88 l82 0 l0 -88 ZM237 610 l-81 0 l0 88 l81 0 l0 -88 Z" /><glyph glyph-name="eth" unicode="ð" d="M209 498 l-29 41 l106 64 q-67 29 -152 29 l7 68 q127 0 221 -50 l101 61 l26 -42 l-81 -49 q156 -119 148 -382 q-1 -102 -66.5 -173 q-65.5 -71 -188.5 -71 q-122 0 -189 72.5 q-67 72.5 -65 169.5 q2 94 69.5 163 q67.5 69 184.5 68 q118 -2 179 -90 q-33 130 -142 200 l-129 -79 ZM301 396 q-82 0 -126.5 -47 q-44.5 -47 -46.5 -114 q-2 -68 43 -118 q45 -50 130 -50 q86 0 131.5 50.5 q45.5 50.5 43.5 118.5 q-2 66 -47 113 q-45 47 -128 47 Z" /><glyph glyph-name="ntilde" unicode="ñ" d="M81 507 l66 0 l10 -47 q47 52 146 54 q107 -2 172.5 -59.5 q65.5 -57.5 65.5 -164.5 l0 -290 l-78 0 l0 290 q-1 70 -44 109 q-43 39 -113 44 q-37 2 -78.5 -10.5 q-41.5 -12.5 -69.5 -39.5 l0 -393 l-77 0 l0 507 ZM411 711 l45 -33 q-23 -52 -71 -65 q-48 -13 -95 18 q-62 40 -104 -25 l-48 31 q30 56 79.5 68.5 q49.5 12.5 100.5 -22.5 q54 -36 93 28 Z" /><glyph glyph-name="ograve" unicode="ò" d="M123 253 q0 -94 52.5 -145 q52.5 -51 126.5 -51 q75 0 127.5 51 q52.5 51 52.5 145 q0 93 -52.5 143.5 q-52.5 50.5 -127.5 50.5 q-74 0 -126.5 -50.5 q-52.5 -50.5 -52.5 -143.5 ZM487.5 441.5 q72.5 -75.5 72.5 -188.5 q0 -113 -72.5 -189 q-72.5 -76 -185.5 -76 q-113 0 -185 76 q-72 76 -72 189 q0 112 72 188 q72 76 185 76 q113 0 185.5 -75.5 ZM288 592 l-84 115 l93 0 l65 -115 l-74 0 Z" /><glyph glyph-name="oacute" unicode="ó" d="M123 253 q0 -94 52.5 -145 q52.5 -51 126.5 -51 q75 0 127.5 51 q52.5 51 52.5 145 q0 93 -52.5 143.5 q-52.5 50.5 -127.5 50.5 q-74 0 -126.5 -50.5 q-52.5 -50.5 -52.5 -143.5 ZM487.5 441.5 q72.5 -75.5 72.5 -188.5 q0 -113 -72.5 -189 q-72.5 -76 -185.5 -76 q-113 0 -185 76 q-72 76 -72 189 q0 112 72 188 q72 76 185 76 q113 0 185.5 -75.5 ZM414 705 l-84 -115 l-74 0 l65 115 l93 0 Z" /><glyph glyph-name="ocircumflex" unicode="ô" d="M123 253 q0 -94 52.5 -145 q52.5 -51 126.5 -51 q75 0 127.5 51 q52.5 51 52.5 145 q0 93 -52.5 143.5 q-52.5 50.5 -127.5 50.5 q-74 0 -126.5 -50.5 q-52.5 -50.5 -52.5 -143.5 ZM487.5 441.5 q72.5 -75.5 72.5 -188.5 q0 -113 -72.5 -189 q-72.5 -76 -185.5 -76 q-113 0 -185 76 q-72 76 -72 189 q0 112 72 188 q72 76 185 76 q113 0 185.5 -75.5 ZM170 590 l88 117 l101 0 l88 -117 l-74 0 l-64 81 l-2 0 l-63 -81 l-74 0 Z" /><glyph glyph-name="otilde" unicode="õ" d="M123 253 q0 -94 52.5 -145 q52.5 -51 126.5 -51 q75 0 127.5 51 q52.5 51 52.5 145 q0 93 -52.5 143.5 q-52.5 50.5 -127.5 50.5 q-74 0 -126.5 -50.5 q-52.5 -50.5 -52.5 -143.5 ZM487.5 441.5 q72.5 -75.5 72.5 -188.5 q0 -113 -72.5 -189 q-72.5 -76 -185.5 -76 q-113 0 -185 76 q-72 76 -72 189 q0 112 72 188 q72 76 185 76 q113 0 185.5 -75.5 ZM428 715 l45 -33 q-23 -52 -71 -65 q-48 -13 -95 18 q-62 40 -104 -25 l-48 31 q30 56 79.5 68.5 q49.5 12.5 100.5 -22.5 q54 -36 93 28 Z" /><glyph glyph-name="odieresis" unicode="ö" d="M123 253 q0 -94 52.5 -145 q52.5 -51 126.5 -51 q75 0 127.5 51 q52.5 51 52.5 145 q0 93 -52.5 143.5 q-52.5 50.5 -127.5 50.5 q-74 0 -126.5 -50.5 q-52.5 -50.5 -52.5 -143.5 ZM487.5 441.5 q72.5 -75.5 72.5 -188.5 q0 -113 -72.5 -189 q-72.5 -76 -185.5 -76 q-113 0 -185 76 q-72 76 -72 189 q0 112 72 188 q72 76 185 76 q113 0 185.5 -75.5 ZM266 618 l-89 0 l0 87 l89 0 l0 -87 ZM439 618 l-90 0 l0 87 l90 0 l0 -87 Z" /><glyph glyph-name="divide" unicode="÷" d="M255 482 l0 91 l90 0 l0 -91 l-90 0 ZM70 293 l0 78 l472 0 l0 -78 l-472 0 ZM255 91 l0 91 l91 0 l0 -91 l-91 0 Z" /><glyph glyph-name="oslash" unicode="ø" d="M560 253 q0 -113 -72.5 -189 q-72.5 -76 -185.5 -76 q-58 0 -115 25 l-39 -63 l-68 0 l58 94 q-93 77 -93 209 q0 112 72 188 q72 76 185 76 q62 0 114 -25 l41 66 l67 0 l-60 -96 q96 -77 96 -209 ZM429.5 108 q52.5 51 52.5 145 q0 94 -56 147 l-202 -327 q35 -16 78 -16 q75 0 127.5 51 ZM123 253 q0 -94 54 -146 l201 324 q-35 16 -76 16 q-74 0 -126.5 -50.5 q-52.5 -50.5 -52.5 -143.5 Z" /><glyph glyph-name="ugrave" unicode="ù" d="M534 0 l-65 0 l-11 52 q-68 -59 -159 -59 q-92 0 -158.5 59.5 q-66.5 59.5 -66.5 159.5 l0 294 l78 0 l0 -294 q2 -69 49.5 -109 q47.5 -40 112.5 -41 q90 -2 143 63 l0 381 l77 0 l0 -506 ZM279 595 l-84 115 l93 0 l65 -115 l-74 0 Z" /><glyph glyph-name="uacute" unicode="ú" d="M534 0 l-65 0 l-11 52 q-68 -59 -159 -59 q-92 0 -158.5 59.5 q-66.5 59.5 -66.5 159.5 l0 294 l78 0 l0 -294 q2 -69 49.5 -109 q47.5 -40 112.5 -41 q90 -2 143 63 l0 381 l77 0 l0 -506 ZM411 707 l-84 -115 l-74 0 l65 115 l93 0 Z" /><glyph glyph-name="ucircumflex" unicode="û" d="M534 0 l-65 0 l-11 52 q-68 -59 -159 -59 q-92 0 -158.5 59.5 q-66.5 59.5 -66.5 159.5 l0 294 l78 0 l0 -294 q2 -69 49.5 -109 q47.5 -40 112.5 -41 q90 -2 143 63 l0 381 l77 0 l0 -506 ZM173 596 l88 117 l101 0 l88 -117 l-74 0 l-64 81 l-2 0 l-63 -81 l-74 0 Z" /><glyph glyph-name="udieresis" unicode="ü" d="M534 0 l-65 0 l-11 52 q-68 -59 -159 -59 q-92 0 -158.5 59.5 q-66.5 59.5 -66.5 159.5 l0 294 l78 0 l0 -294 q2 -69 49.5 -109 q47.5 -40 112.5 -41 q90 -2 143 63 l0 381 l77 0 l0 -506 ZM260 620 l-88 0 l0 80 l88 0 l0 -80 ZM430 620 l-89 0 l0 80 l89 0 l0 -80 Z" /><glyph glyph-name="yacute" unicode="ý" d="M89 -190 l0 65 q42 -5 64 8.5 q22 13.5 33 41.5 l28 73 l-207 509 l84 0 l164 -420 l156 420 l84 0 l-235 -607 q-39 -103 -171 -90 ZM369 703 l-84 -115 l-74 0 l65 115 l93 0 Z" /><glyph glyph-name="thorn" unicode="þ" d="M81 -195 l0 894 l75 0 l0 -239 q43 51 116 53 q119 4 186 -67.5 q67 -71.5 67 -194.5 q0 -112 -71 -185 q-71 -73 -170 -72 q-76 0 -128 35 l0 -224 l-75 0 ZM290 61 q77 7 119 59 q42 52 42 134 q0 92 -50.5 141 q-50.5 49 -122.5 47 q-67 -2 -122 -55 l0 -277 q53 -59 134 -49 Z" /><glyph glyph-name="ydieresis" unicode="ÿ" d="M89 -190 l0 65 q42 -5 64 8.5 q22 13.5 33 41.5 l28 73 l-207 509 l84 0 l164 -420 l156 420 l84 0 l-235 -607 q-39 -103 -171 -90 ZM210 625 l-91 0 l0 78 l91 0 l0 -78 ZM385 625 l-91 0 l0 78 l91 0 l0 -78 Z" /><glyph glyph-name="Amacron" unicode="&#x100;" d="M13 0 l251 705 l101 0 l254 -705 l-87 0 l-81 224 l-271 0 l-79 -224 l-88 0 ZM205 300 l219 0 l-109 318 l-110 -318 ZM188 762 l0 67 l252 0 l0 -67 l-252 0 Z" /><glyph glyph-name="amacron" unicode="&#x101;" d="M410 239 q-51 33 -128 33 q-101 0 -144.5 -52.5 q-43.5 -52.5 -4 -105 q39.5 -52.5 138.5 -52.5 q92 0 138 55 l0 122 ZM485 0 l-61 0 l-11 45 q-52 -50 -141 -52 q-135 -1 -196 79 q-49 63 -23 138 q26 77 115 109 q50 19 113 18 q62 0 129 -35 l0 10 q0 61 -31.5 97 q-31.5 36 -77 42 q-45.5 6 -95 -5.5 q-49.5 -11.5 -87.5 -38.5 l-40 46 q52 43 122.5 58.5 q70.5 15.5 133 1.5 q62.5 -14 106.5 -66.5 q44 -52.5 44 -134.5 l0 -312 ZM150 604 l0 61 l245 0 l0 -61 l-245 0 Z" /><glyph glyph-name="Abreve" unicode="&#x102;" d="M13 0 l251 705 l101 0 l254 -705 l-87 0 l-81 224 l-271 0 l-79 -224 l-88 0 ZM205 300 l219 0 l-109 318 l-110 -318 ZM313 748 q-55 0 -93.5 31 q-38.5 31 -38.5 86 l64 0 q0 -29 20.5 -44 q20.5 -15 47.5 -15 q25 0 45 14.5 q20 14.5 20 44.5 l66 0 q0 -55 -38.5 -86 q-38.5 -31 -92.5 -31 Z" /><glyph glyph-name="abreve" unicode="&#x103;" d="M410 239 q-51 33 -128 33 q-101 0 -144.5 -52.5 q-43.5 -52.5 -4 -105 q39.5 -52.5 138.5 -52.5 q92 0 138 55 l0 122 ZM485 0 l-61 0 l-11 45 q-52 -50 -141 -52 q-135 -1 -196 79 q-49 63 -23 138 q26 77 115 109 q50 19 113 18 q62 0 129 -35 l0 10 q0 61 -31.5 97 q-31.5 36 -77 42 q-45.5 6 -95 -5.5 q-49.5 -11.5 -87.5 -38.5 l-40 46 q52 43 122.5 58.5 q70.5 15.5 133 1.5 q62.5 -14 106.5 -66.5 q44 -52.5 44 -134.5 l0 -312 ZM275 568 q-55 0 -93.5 31 q-38.5 31 -38.5 86 l64 0 q0 -29 20.5 -44 q20.5 -15 47.5 -15 q25 0 45 14.5 q20 14.5 20 44.5 l66 0 q0 -55 -38.5 -86 q-38.5 -31 -92.5 -31 Z" /><glyph glyph-name="Aogonek" unicode="&#x104;" d="M470 -116 q-6 37 17 67 q23 30 55 49 l-7 0 l-81 224 l-271 0 l-79 -224 l-88 0 l251 705 l101 0 l254 -705 q-9 -6 -23 -16 q-14 -10 -37 -35.5 q-23 -25.5 -23 -45.5 q0 -17 17.5 -29 q17.5 -12 35.5 -16 l17 -4 l-24 -44 q-1 1 -11 -0.5 q-10 -1.5 -26 2.5 q-16 4 -32 10.5 q-16 6.5 -29.5 22.5 q-13.5 16 -16.5 39 ZM208 300 l219 0 l-109 318 l-110 -318 Z" /><glyph glyph-name="aogonek" unicode="&#x105;" d="M353 -112 q-6 39 17 67.5 q23 28.5 53 44.5 l-10 44 q-52 -50 -141 -52 q-135 -1 -196 79 q-49 63 -23 138 q26 77 115 109 q50 19 113 18 q62 0 129 -35 l0 10 q0 61 -31.5 97 q-31.5 36 -77 42 q-45.5 6 -95 -5.5 q-49.5 -11.5 -87.5 -38.5 l-40 46 q52 43 122.5 58.5 q70.5 15.5 133 1.5 q62.5 -14 106.5 -66.5 q44 -52.5 44 -134.5 l0 -310 l1 0 l-1 -1 l0 -1 l-2 0 q-9 -7 -20.5 -18 q-11.5 -11 -26 -33.5 q-14.5 -22.5 -14.5 -40.5 q0 -17 17.5 -29 q17.5 -12 34.5 -16 l18 -4 l-24 -44 q-1 1 -11 -0.5 q-10 -1.5 -26 2.5 q-16 4 -32 10.5 q-16 6.5 -29.5 22.5 q-13.5 16 -16.5 39 ZM410 238 q-51 33 -128 33 q-101 0 -144.5 -52.5 q-43.5 -52.5 -4 -105 q39.5 -52.5 138.5 -52.5 q92 0 138 55 l0 122 Z" /><glyph glyph-name="Cacute" unicode="&#x106;" d="M664 607 l-53 -55 q-85 88 -201 85 q-128 -2 -201 -87.5 q-73 -85.5 -73 -201.5 q0 -115 73.5 -199.5 q73.5 -84.5 200.5 -84.5 q62 0 119.5 27 q57.5 27 97.5 74 l58 -48 q-50 -60 -122 -94.5 q-72 -34.5 -153 -34.5 q-112 0 -195 53 q-83 53 -122.5 133 q-39.5 80 -39.5 174 q0 94 39.5 175.5 q39.5 81.5 123 135.5 q83.5 54 194.5 54 q150 0 254 -106 ZM527 876 l-84 -115 l-74 0 l65 115 l93 0 Z" /><glyph glyph-name="cacute" unicode="&#x107;" d="M481 449 l-43 -53 q-55 52 -135 52 q-72 1 -125.5 -54 q-53.5 -55 -54.5 -142 q0 -76 48 -133 q48 -57 133 -57 q77 0 138 56 l44 -53 q-75 -73 -182 -73 q-122 0 -190.5 77.5 q-68.5 77.5 -68.5 184.5 q1 107 70 185.5 q69 78.5 189 79.5 q106 0 177 -70 ZM410 702 l-84 -115 l-74 0 l65 115 l93 0 Z" /><glyph glyph-name="Ccircumflex" unicode="&#x108;" d="M664 607 l-53 -55 q-85 88 -201 85 q-128 -2 -201 -87.5 q-73 -85.5 -73 -201.5 q0 -115 73.5 -199.5 q73.5 -84.5 200.5 -84.5 q62 0 119.5 27 q57.5 27 97.5 74 l58 -48 q-50 -60 -122 -94.5 q-72 -34.5 -153 -34.5 q-112 0 -195 53 q-83 53 -122.5 133 q-39.5 80 -39.5 174 q0 94 39.5 175.5 q39.5 81.5 123 135.5 q83.5 54 194.5 54 q150 0 254 -106 ZM266 756 l88 117 l101 0 l88 -117 l-74 0 l-64 81 l-2 0 l-63 -81 l-74 0 Z" /><glyph glyph-name="ccircumflex" unicode="&#x109;" d="M481 449 l-43 -53 q-55 52 -135 52 q-72 1 -125.5 -54 q-53.5 -55 -54.5 -142 q0 -76 48 -133 q48 -57 133 -57 q77 0 138 56 l44 -53 q-75 -73 -182 -73 q-122 0 -190.5 77.5 q-68.5 77.5 -68.5 184.5 q1 107 70 185.5 q69 78.5 189 79.5 q106 0 177 -70 ZM162 579 l88 117 l101 0 l88 -117 l-74 0 l-64 81 l-2 0 l-63 -81 l-74 0 Z" /><glyph glyph-name="Cdotaccent" unicode="&#x10a;" d="M361 784 l0 88 l87 0 l0 -88 l-87 0 ZM664 607 l-53 -55 q-85 88 -201 85 q-128 -2 -201 -87.5 q-73 -85.5 -73 -201.5 q0 -115 73.5 -199.5 q73.5 -84.5 200.5 -84.5 q62 0 119.5 27 q57.5 27 97.5 74 l58 -48 q-50 -60 -122 -94.5 q-72 -34.5 -153 -34.5 q-112 0 -195 53 q-83 53 -122.5 133 q-39.5 80 -39.5 174 q0 94 39.5 175.5 q39.5 81.5 123 135.5 q83.5 54 194.5 54 q150 0 254 -106 Z" /><glyph glyph-name="cdotaccent" unicode="&#x10b;" d="M254 608 l0 85 l87 0 l0 -85 l-87 0 ZM481 449 l-43 -53 q-55 52 -135 52 q-72 1 -125.5 -54 q-53.5 -55 -54.5 -142 q0 -76 48 -133 q48 -57 133 -57 q77 0 138 56 l44 -53 q-75 -73 -182 -73 q-122 0 -190.5 77.5 q-68.5 77.5 -68.5 184.5 q1 107 70 185.5 q69 78.5 189 79.5 q106 0 177 -70 Z" /><glyph glyph-name="Ccaron" unicode="&#x10c;" d="M664 607 l-53 -55 q-85 88 -201 85 q-128 -2 -201 -87.5 q-73 -85.5 -73 -201.5 q0 -115 73.5 -199.5 q73.5 -84.5 200.5 -84.5 q62 0 119.5 27 q57.5 27 97.5 74 l58 -48 q-50 -60 -122 -94.5 q-72 -34.5 -153 -34.5 q-112 0 -195 53 q-83 53 -122.5 133 q-39.5 80 -39.5 174 q0 94 39.5 175.5 q39.5 81.5 123 135.5 q83.5 54 194.5 54 q150 0 254 -106 ZM543 874 l-88 -120 l-101 0 l-88 120 l74 0 l64 -81 l2 0 l63 81 l74 0 Z" /><glyph glyph-name="ccaron" unicode="&#x10d;" d="M481 449 l-43 -53 q-55 52 -135 52 q-72 1 -125.5 -54 q-53.5 -55 -54.5 -142 q0 -76 48 -133 q48 -57 133 -57 q77 0 138 56 l44 -53 q-75 -73 -182 -73 q-122 0 -190.5 77.5 q-68.5 77.5 -68.5 184.5 q1 107 70 185.5 q69 78.5 189 79.5 q106 0 177 -70 ZM435 698 l-88 -120 l-101 0 l-88 120 l74 0 l64 -81 l2 0 l63 81 l74 0 Z" /><glyph glyph-name="Dcaron" unicode="&#x10e;" d="M317 705 q162 1 255.5 -101.5 q93.5 -102.5 95.5 -244.5 q2 -68 -20 -131.5 q-22 -63.5 -64.5 -115 q-42.5 -51.5 -111.5 -82 q-69 -30.5 -154 -30.5 l-217 0 l0 705 l216 0 ZM317 76 q130 -2 201.5 82.5 q71.5 84.5 68.5 199.5 q-2 111 -73 191 q-71 80 -195 80 l-136 0 l0 -553 l134 0 ZM474 872 l-88 -120 l-101 0 l-88 120 l74 0 l64 -81 l2 0 l63 81 l74 0 Z" /><glyph glyph-name="dcaron" unicode="&#x10f;" d="M565 703 l73 0 q21 -79 -31 -145 l-49 0 q16 46 18.5 72.5 q2.5 26.5 -11.5 72.5 ZM309 513 q63 0 110 -35 l0 222 l76 0 l0 -700 l-56 0 l-14 52 q-23 -25 -50 -38.5 q-27 -13.5 -46 -16 q-19 -2.5 -50 -3.5 q-99 -2 -163.5 74.5 q-64.5 76.5 -64.5 182.5 q0 118 69 190 q69 72 189 72 ZM286 61 q77 -10 134 66 l0 283 q-45 26 -96.5 29.5 q-51.5 3.5 -95.5 -14 q-44 -17.5 -73.5 -62.5 q-29.5 -45 -29.5 -109 q0 -82 42 -134 q42 -52 119 -59 Z" /><glyph glyph-name="Dcroat" unicode="&#x110;" d="M46 311 l0 76 l61 0 l0 318 l216 0 q162 1 255.5 -101.5 q93.5 -102.5 95.5 -244.5 q2 -68 -20 -131.5 q-22 -63.5 -64.5 -115 q-42.5 -51.5 -111.5 -82 q-69 -30.5 -154 -30.5 l-217 0 l0 311 l-61 0 ZM323 76 q130 -2 201.5 82.5 q71.5 84.5 68.5 199.5 q-2 111 -73 191 q-71 80 -195 80 l-136 0 l0 -242 l132 0 l0 -76 l-132 0 l0 -235 l134 0 Z" /><glyph glyph-name="dcroat" unicode="&#x111;" d="M304 584 l0 53 l113 0 l0 63 l76 0 l0 -63 l72 0 l0 -53 l-72 0 l0 -584 l-56 0 l-14 52 q-23 -25 -50 -38.5 q-27 -13.5 -46 -16 q-19 -2.5 -50 -3.5 q-99 -2 -163.5 74.5 q-64.5 76.5 -64.5 182.5 q0 118 69 190 q69 72 189 72 q63 0 110 -35 l0 106 l-113 0 ZM284 61 q77 -10 134 66 l0 283 q-45 26 -96.5 29.5 q-51.5 3.5 -95.5 -14 q-44 -17.5 -73.5 -62.5 q-29.5 -45 -29.5 -109 q0 -82 42 -134 q42 -52 119 -59 Z" /><glyph glyph-name="Emacron" unicode="&#x112;" d="M476 704 l0 -77 l-292 0 l0 -237 l288 0 l0 -77 l-288 0 l-1 -234 l293 0 l0 -78 l-375 0 l0 703 l375 0 ZM180 764 l0 67 l252 0 l0 -67 l-252 0 Z" /><glyph glyph-name="emacron" unicode="&#x113;" d="M304 60 q94 0 146 70 l63 -38 q-75 -101 -209 -101 q-122 0 -190.5 79 q-68.5 79 -67.5 185 q0 106 69 185 q69 79 188 80 q120 1 191.5 -87 q71.5 -88 53.5 -210 l-426 0 q5 -68 53.5 -115.5 q48.5 -47.5 128.5 -47.5 ZM123 289 l354 0 q-6 70 -53.5 115.5 q-47.5 45.5 -119.5 46.5 q-78 -1 -124 -47.5 q-46 -46.5 -57 -114.5 ZM174 608 l0 67 l252 0 l0 -67 l-252 0 Z" /><glyph glyph-name="Ebreve" unicode="&#x114;" d="M476 704 l0 -77 l-292 0 l0 -237 l288 0 l0 -77 l-288 0 l-1 -234 l293 0 l0 -78 l-375 0 l0 703 l375 0 ZM297 748 q-55 0 -93.5 31 q-38.5 31 -38.5 86 l64 0 q0 -29 20.5 -44 q20.5 -15 47.5 -15 q25 0 45 14.5 q20 14.5 20 44.5 l66 0 q0 -55 -38.5 -86 q-38.5 -31 -92.5 -31 Z" /><glyph glyph-name="ebreve" unicode="&#x115;" d="M304 60 q94 0 146 70 l63 -38 q-75 -101 -209 -101 q-122 0 -190.5 79 q-68.5 79 -67.5 185 q0 106 69 185 q69 79 188 80 q120 1 191.5 -87 q71.5 -88 53.5 -210 l-426 0 q5 -68 53.5 -115.5 q48.5 -47.5 128.5 -47.5 ZM123 289 l354 0 q-6 70 -53.5 115.5 q-47.5 45.5 -119.5 46.5 q-78 -1 -124 -47.5 q-46 -46.5 -57 -114.5 ZM302 578 q-55 0 -93.5 31 q-38.5 31 -38.5 86 l64 0 q0 -29 20.5 -44 q20.5 -15 47.5 -15 q25 0 45 14.5 q20 14.5 20 44.5 l66 0 q0 -55 -38.5 -86 q-38.5 -31 -92.5 -31 Z" /><glyph glyph-name="Edotaccent" unicode="&#x116;" d="M253 771 l0 88 l87 0 l0 -88 l-87 0 ZM476 704 l0 -77 l-292 0 l0 -237 l288 0 l0 -77 l-288 0 l-1 -234 l293 0 l0 -78 l-375 0 l0 703 l375 0 Z" /><glyph glyph-name="edotaccent" unicode="&#x117;" d="M258 602 l0 81 l87 0 l0 -81 l-87 0 ZM304 60 q94 0 146 70 l63 -38 q-75 -101 -209 -101 q-122 0 -190.5 79 q-68.5 79 -67.5 185 q0 106 69 185 q69 79 188 80 q120 1 191.5 -87 q71.5 -88 53.5 -210 l-426 0 q5 -68 53.5 -115.5 q48.5 -47.5 128.5 -47.5 ZM123 289 l354 0 q-6 70 -53.5 115.5 q-47.5 45.5 -119.5 46.5 q-78 -1 -124 -47.5 q-46 -46.5 -57 -114.5 Z" /><glyph glyph-name="Eogonek" unicode="&#x118;" d="M476 704 l0 -77 l-292 0 l0 -237 l288 0 l0 -77 l-288 0 l-1 -234 l293 0 l0 -78 l-2 0 q-69 -46 -69 -87 q0 -17 17.5 -29 q17.5 -12 35.5 -16 l17 -4 l-24 -44 q-1 1 -11 -0.5 q-10 -1.5 -27 2.5 q-17 4 -33.5 10.5 q-16.5 6.5 -30.5 22.5 q-14 16 -17 39 q-8 55 62 106 l-293 0 l0 703 l375 0 Z" /><glyph glyph-name="eogonek" unicode="&#x119;" d="M305 -76 q-6 36 27 69 q-18 -2 -28 -2 q-122 0 -190.5 79 q-68.5 79 -67.5 185 q0 106 69 185 q69 79 188 80 q120 1 191.5 -87 q71.5 -88 53.5 -210 l-426 0 q5 -68 53.5 -115.5 q48.5 -47.5 128.5 -47.5 q94 0 146 70 l63 -38 q-29 -38 -68 -63 q-66 -52 -66 -86 q0 -17 17.5 -29 q17.5 -12 35.5 -16 l17 -4 l-24 -44 q-4 0 -11.5 0 q-7.5 0 -26.5 3.5 q-19 3.5 -34.5 10 q-15.5 6.5 -29.5 22.5 q-14 16 -18 38 ZM123 289 l354 0 q-6 70 -53.5 115.5 q-47.5 45.5 -119.5 46.5 q-78 -1 -124 -47.5 q-46 -46.5 -57 -114.5 Z" /><glyph glyph-name="Ecaron" unicode="&#x11a;" d="M476 704 l0 -77 l-292 0 l0 -237 l288 0 l0 -77 l-288 0 l-1 -234 l293 0 l0 -78 l-375 0 l0 703 l375 0 ZM442 874 l-88 -120 l-101 0 l-88 120 l74 0 l64 -81 l2 0 l63 81 l74 0 Z" /><glyph glyph-name="ecaron" unicode="&#x11b;" d="M304 60 q94 0 146 70 l63 -38 q-75 -101 -209 -101 q-122 0 -190.5 79 q-68.5 79 -67.5 185 q0 106 69 185 q69 79 188 80 q120 1 191.5 -87 q71.5 -88 53.5 -210 l-426 0 q5 -68 53.5 -115.5 q48.5 -47.5 128.5 -47.5 ZM123 289 l354 0 q-6 70 -53.5 115.5 q-47.5 45.5 -119.5 46.5 q-78 -1 -124 -47.5 q-46 -46.5 -57 -114.5 ZM433 698 l-88 -120 l-101 0 l-88 120 l74 0 l64 -81 l2 0 l63 81 l74 0 Z" /><glyph glyph-name="Gcircumflex" unicode="&#x11c;" d="M411 713 q81 0 152.5 -34 q71.5 -34 121.5 -93 l-58 -49 q-39 47 -97 73.5 q-58 26.5 -119 26.5 q-126 0 -200.5 -87 q-74.5 -87 -74.5 -201 q0 -114 74.5 -200 q74.5 -86 200.5 -86 q95 0 174.5 61 q79.5 61 88.5 155 l-313 0 l0 76 l404 0 q0 -155 -98.5 -261.5 q-98.5 -106.5 -255.5 -106.5 q-112 0 -195 53.5 q-83 53.5 -122 134 q-39 80.5 -40 174.5 q0 93 39.5 174.5 q39.5 81.5 123 135.5 q83.5 54 194.5 54 ZM266 756 l88 117 l101 0 l88 -117 l-74 0 l-64 81 l-2 0 l-63 -81 l-74 0 Z" /><glyph glyph-name="gcircumflex" unicode="&#x11d;" d="M152 584 l88 117 l101 0 l88 -117 l-74 0 l-64 81 l-2 0 l-63 -81 l-74 0 ZM309 512 q72 0 110 -46 l14 41 l62 0 l0 -502 q0 -72 -33 -122.5 q-33 -50.5 -84 -70 q-51 -19.5 -109 -19 q-58 0.5 -113.5 25.5 q-55.5 25 -91.5 68 l43 50 q31 -36 83.5 -56 q52.5 -20 103.5 -19 q51 1 88.5 37.5 q37.5 36.5 37.5 105.5 l0 39 q-32 -32 -64 -41 q-32 -9 -77 -10 q-99 -2 -163.5 74.5 q-64.5 76.5 -64.5 182.5 q0 118 69 190 q69 72 189 72 ZM286 60 q77 -10 134 66 l0 269 q-49 44 -114 44 q-75 1 -128 -47.5 q-53 -48.5 -53 -138.5 q0 -82 42 -134 q42 -52 119 -59 Z" /><glyph glyph-name="Gbreve" unicode="&#x11e;" d="M411 713 q81 0 152.5 -34 q71.5 -34 121.5 -93 l-58 -49 q-39 47 -97 73.5 q-58 26.5 -119 26.5 q-126 0 -200.5 -87 q-74.5 -87 -74.5 -201 q0 -114 74.5 -200 q74.5 -86 200.5 -86 q95 0 174.5 61 q79.5 61 88.5 155 l-313 0 l0 76 l404 0 q0 -155 -98.5 -261.5 q-98.5 -106.5 -255.5 -106.5 q-112 0 -195 53.5 q-83 53.5 -122 134 q-39 80.5 -40 174.5 q0 93 39.5 174.5 q39.5 81.5 123 135.5 q83.5 54 194.5 54 ZM407 750 q-55 0 -93.5 31 q-38.5 31 -38.5 86 l64 0 q0 -29 20.5 -44 q20.5 -15 47.5 -15 q25 0 45 14.5 q20 14.5 20 44.5 l66 0 q0 -55 -38.5 -86 q-38.5 -31 -92.5 -31 Z" /><glyph glyph-name="gbreve" unicode="&#x11f;" d="M299 580 q-55 0 -92.5 29.5 q-37.5 29.5 -37.5 84.5 l62 0 q0 -29 21 -45 q21 -16 47 -16 q25 0 45 15.5 q20 15.5 20 45.5 l63 0 q0 -55 -37 -84.5 q-37 -29.5 -91 -29.5 ZM310 512 q72 0 110 -46 l14 41 l62 0 l0 -502 q0 -72 -33 -122.5 q-33 -50.5 -84 -70 q-51 -19.5 -109 -19 q-58 0.5 -113.5 25.5 q-55.5 25 -91.5 68 l43 50 q31 -36 83.5 -56 q52.5 -20 103.5 -19 q51 1 88.5 37.5 q37.5 36.5 37.5 105.5 l0 39 q-31 -32 -63.5 -41 q-32.5 -9 -77.5 -10 q-99 -2 -163.5 74.5 q-64.5 76.5 -64.5 182.5 q0 118 69 190 q69 72 189 72 ZM287 60 q77 -10 134 66 l0 269 q-49 44 -114 44 q-75 1 -128 -47.5 q-53 -48.5 -53 -138.5 q0 -82 42 -134 q42 -52 119 -59 Z" /><glyph glyph-name="Gdotaccent" unicode="&#x120;" d="M360 784 l0 90 l87 0 l0 -90 l-87 0 ZM411 713 q81 0 152.5 -34 q71.5 -34 121.5 -93 l-58 -49 q-39 47 -97 73.5 q-58 26.5 -119 26.5 q-126 0 -200.5 -87 q-74.5 -87 -74.5 -201 q0 -114 74.5 -200 q74.5 -86 200.5 -86 q95 0 174.5 61 q79.5 61 88.5 155 l-313 0 l0 76 l404 0 q0 -155 -98.5 -261.5 q-98.5 -106.5 -255.5 -106.5 q-112 0 -195 53.5 q-83 53.5 -122 134 q-39 80.5 -40 174.5 q0 93 39.5 174.5 q39.5 81.5 123 135.5 q83.5 54 194.5 54 Z" /><glyph glyph-name="gdotaccent" unicode="&#x121;" d="M259 608 l0 89 l87 0 l0 -89 l-87 0 ZM309 512 q72 0 110 -46 l14 41 l62 0 l0 -502 q0 -72 -33 -122.5 q-33 -50.5 -84 -70 q-51 -19.5 -109 -19 q-58 0.5 -113.5 25.5 q-55.5 25 -91.5 68 l43 50 q31 -36 83.5 -56 q52.5 -20 103.5 -19 q51 1 88.5 37.5 q37.5 36.5 37.5 105.5 l0 39 q-32 -32 -64 -41 q-32 -9 -77 -10 q-99 -2 -163.5 74.5 q-64.5 76.5 -64.5 182.5 q0 118 69 190 q69 72 189 72 ZM286 60 q77 -10 134 66 l0 269 q-49 44 -114 44 q-75 1 -128 -47.5 q-53 -48.5 -53 -138.5 q0 -82 42 -134 q42 -52 119 -59 Z" /><glyph glyph-name="Gcommaaccent" unicode="&#x122;" d="M357 -59 l85 0 q26 -86 -25 -146 l-67 1 q16 46 18.5 72.5 q2.5 26.5 -11.5 72.5 ZM411 713 q81 0 152.5 -34 q71.5 -34 121.5 -93 l-58 -49 q-39 47 -97 73.5 q-58 26.5 -119 26.5 q-126 0 -200.5 -87 q-74.5 -87 -74.5 -201 q0 -114 74.5 -200 q74.5 -86 200.5 -86 q95 0 174.5 61 q79.5 61 88.5 155 l-313 0 l0 76 l404 0 q0 -155 -98.5 -261.5 q-98.5 -106.5 -255.5 -106.5 q-112 0 -195 53.5 q-83 53.5 -122 134 q-39 80.5 -40 174.5 q0 93 39.5 174.5 q39.5 81.5 123 135.5 q83.5 54 194.5 54 Z" /><glyph glyph-name="gcommaaccent" unicode="&#x123;" d="M348 565 l-84 0 q-10 42 -5.5 71.5 q4.5 29.5 23.5 69.5 l69 0 q-28 -79 -3 -141 ZM310 512 q72 0 110 -46 l14 41 l62 0 l0 -502 q0 -72 -33 -122.5 q-33 -50.5 -84 -70 q-51 -19.5 -109 -19 q-58 0.5 -113.5 25.5 q-55.5 25 -91.5 68 l43 50 q31 -36 83.5 -56 q52.5 -20 103.5 -19 q51 1 88.5 37.5 q37.5 36.5 37.5 105.5 l0 39 q-31 -32 -63.5 -41 q-32.5 -9 -77.5 -10 q-99 -2 -163.5 74.5 q-64.5 76.5 -64.5 182.5 q0 118 69 190 q69 72 189 72 ZM287 60 q77 -10 134 66 l0 269 q-49 44 -114 44 q-75 1 -128 -47.5 q-53 -48.5 -53 -138.5 q0 -82 42 -134 q42 -52 119 -59 Z" /><glyph glyph-name="Hcircumflex" unicode="&#x124;" d="M505 0 l0 312 l-321 0 l0 -312 l-83 0 l0 703 l83 0 l0 -317 l321 0 l0 317 l83 0 l0 -703 l-83 0 ZM205 756 l88 117 l101 0 l88 -117 l-74 0 l-64 81 l-2 0 l-63 -81 l-74 0 Z" /><glyph glyph-name="hcircumflex" unicode="&#x125;" d="M-16 752 l88 117 l101 0 l88 -117 l-74 0 l-64 81 l-2 0 l-63 -81 l-74 0 ZM81 701 l78 0 l0 -229 q50 42 131 43 q107 -2 174.5 -63 q67.5 -61 67.5 -168 l0 -284 l-78 0 l0 284 q-1 71 -46 113 q-45 42 -115 47 q-77 4 -135 -38 l0 -406 l-77 0 l0 701 Z" /><glyph glyph-name="Hbar" unicode="&#x126;" d="M42 518 l0 64 l59 0 l0 121 l83 0 l0 -121 l321 0 l0 121 l83 0 l0 -121 l61 0 l0 -64 l-61 0 l0 -518 l-83 0 l0 312 l-321 0 l0 -312 l-83 0 l0 518 l-59 0 ZM184 386 l321 0 l0 132 l-321 0 l0 -132 Z" /><glyph glyph-name="hbar" unicode="&#x127;" d="M11 576 l0 55 l70 0 l0 70 l78 0 l0 -70 l124 0 l0 -55 l-124 0 l0 -104 q50 42 131 43 q107 -2 174.5 -63 q67.5 -61 67.5 -168 l0 -284 l-78 0 l0 284 q-1 71 -46 113 q-45 42 -115 47 q-77 4 -135 -38 l0 -406 l-77 0 l0 576 l-70 0 Z" /><glyph glyph-name="Itilde" unicode="&#x128;" d="M101 0 l0 703 l82 0 l0 -703 l-82 0 ZM253 851 l42 -31 q-22 -48 -67 -60.5 q-45 -12.5 -88 16.5 q-58 36 -98 -23 l-44 29 q28 52 74 63.5 q46 11.5 94 -20.5 q50 -34 87 26 Z" /><glyph glyph-name="itilde" unicode="&#x129;" d="M160 0 l-79 0 l0 511 l79 0 l0 -511 ZM228 692 l42 -31 q-22 -48 -67 -60.5 q-45 -12.5 -88 16.5 q-58 36 -98 -23 l-44 29 q28 52 74 63.5 q46 11.5 94 -20.5 q50 -34 87 26 Z" /><glyph glyph-name="Imacron" unicode="&#x12a;" d="M21 784 l0 64 l255 0 l0 -64 l-255 0 ZM101 0 l0 703 l82 0 l0 -703 l-82 0 Z" /><glyph glyph-name="imacron" unicode="&#x12b;" d="M3 614 l0 64 l255 0 l0 -64 l-255 0 ZM160 0 l-79 0 l0 512 l79 0 l0 -512 Z" /><glyph glyph-name="Ibreve" unicode="&#x12c;" d="M101 0 l0 703 l82 0 l0 -703 l-82 0 ZM143 752 q-55 0 -93.5 31 q-38.5 31 -38.5 86 l64 0 q0 -29 20.5 -44 q20.5 -15 47.5 -15 q25 0 45 14.5 q20 14.5 20 44.5 l66 0 q0 -55 -38.5 -86 q-38.5 -31 -92.5 -31 Z" /><glyph glyph-name="ibreve" unicode="&#x12d;" d="M160 0 l-79 0 l0 512 l79 0 l0 -512 ZM123 575 q-55 0 -93.5 31 q-38.5 31 -38.5 86 l64 0 q0 -29 20.5 -44 q20.5 -15 47.5 -15 q25 0 45 14.5 q20 14.5 20 44.5 l66 0 q0 -55 -38.5 -86 q-38.5 -31 -92.5 -31 Z" /><glyph glyph-name="Iogonek" unicode="&#x12e;" d="M101 0 l0 703 l82 0 l0 -703 q-67 -54 -67 -87 q0 -17 17.5 -29 q17.5 -12 34.5 -16 l18 -4 l-24 -44 q-1 1 -11 -0.5 q-10 -1.5 -27 2.5 q-17 4 -33.5 10.5 q-16.5 6.5 -30 22.5 q-13.5 16 -16.5 39 q-9 57 60 106 l-3 0 Z" /><glyph glyph-name="iogonek" unicode="&#x12f;" d="M37 -106 q-8 57 50 106 l-6 0 l0 512 l79 0 l-1 -513 q-20 -16 -36 -41 q-16 -25 -16 -45 q0 -17 14 -29 q14 -12 28 -16 l14 -4 l-24 -44 q-1 1 -9.5 -0.5 q-8.5 -1.5 -23 2.5 q-14.5 4 -28.5 10.5 q-14 6.5 -26 22.5 q-12 16 -15 39 ZM80 607 l0 99 l86 0 l0 -99 l-86 0 Z" /><glyph glyph-name="Idotaccent" unicode="&#x130;" d="M98 774 l0 98 l87 0 l0 -98 l-87 0 ZM101 0 l0 703 l82 0 l0 -703 l-82 0 Z" /><glyph glyph-name="dotlessi" unicode="&#x131;" d="M160 0 l-79 0 l0 512 l79 0 l0 -512 Z" /><glyph glyph-name="IJ" unicode="&#x132;" d="M100 0 l0 703 l82 0 l0 -703 l-82 0 ZM267 -14 l0 79 q160 -6 160 131 l0 426 l-132 0 l0 78 l215 0 l0 -504 q0 -104 -66 -157 q-66 -53 -177 -53 Z" /><glyph glyph-name="ij" unicode="&#x133;" d="M84 607 l0 99 l84 0 l0 -99 l-84 0 ZM164 0 l-79 0 l0 512 l79 0 l0 -512 ZM230 -198 l0 69 q49 -3 76 18 q27 21 27 64 l0 559 l79 0 l0 -559 q0 -81 -50.5 -120 q-50.5 -39 -131.5 -31 ZM416 607 l0 98 l-86 0 l0 -98 l86 0 Z" /><glyph glyph-name="Jcircumflex" unicode="&#x134;" d="M34 166 l76 16 q9 -46 39.5 -76.5 q30.5 -30.5 68 -37 q37.5 -6.5 73.5 2 q36 8.5 60.5 42.5 q24.5 34 24.5 83 l0 426 l-132 0 l0 78 l215 0 l0 -504 q0 -64 -28 -111.5 q-28 -47.5 -70.5 -71 q-42.5 -23.5 -94.5 -26.5 q-52 -3 -99 15 q-47 18 -84 60.5 q-37 42.5 -49 103.5 ZM179 752 l88 117 l101 0 l88 -117 l-74 0 l-64 81 l-2 0 l-63 -81 l-74 0 Z" /><glyph glyph-name="jcircumflex" unicode="&#x135;" d="M-22 -198 l0 69 q49 -3 76 18 q27 21 27 64 l0 559 l79 0 l0 -559 q0 -81 -50.5 -120 q-50.5 -39 -131.5 -31 ZM-12 584 l88 117 l101 0 l88 -117 l-74 0 l-64 81 l-2 0 l-63 -81 l-74 0 Z" /><glyph glyph-name="Kcommaaccent" unicode="&#x136;" d="M296 -49 l78 0 q22 -82 -28 -145 l-63 0 q13 37 17.5 52 q4.5 15 5 41.5 q0.5 26.5 -9.5 51.5 ZM101 705 l83 0 l0 -348 l321 348 l91 0 l-281 -316 l292 -389 l-97 0 l-250 335 l-76 -76 l0 -259 l-83 0 l0 705 Z" /><glyph glyph-name="kcommaaccent" unicode="&#x137;" d="M238 -40 l79 0 q24 -80 -23 -145 l-63 0 q19 54 19 84 q0 30 -12 61 ZM81 700 l76 0 l0 -431 l238 239 l95 0 l-223 -222 l231 -286 l-91 0 l-190 236 l-60 -56 l0 -180 l-76 0 l0 700 Z" /><glyph glyph-name="kgreenlandic" unicode="&#x138;" d="M81 507 l76 0 l0 -238 l238 239 l95 0 l-223 -222 l231 -286 l-91 0 l-190 236 l-60 -56 l0 -180 l-76 0 l0 507 Z" /><glyph glyph-name="Lacute" unicode="&#x139;" d="M454 77 l0 -77 l-353 0 l0 700 l83 0 l0 -623 l270 0 ZM265 870 l-84 -115 l-74 0 l65 115 l93 0 Z" /><glyph glyph-name="lacute" unicode="&#x13a;" d="M235 67 l0 -69 q-78 -8 -119 30 q-41 38 -41 121 l0 556 l79 0 l0 -556 q0 -46 17 -66 q17 -20 64 -16 ZM236 869 l-84 -115 l-74 0 l65 115 l93 0 Z" /><glyph glyph-name="Lcommaaccent" unicode="&#x13b;" d="M270 -59 l85 0 q7 -27 7 -51 q0 -41 -25 -94 l-74 0 q19 54 19 84 q0 30 -12 61 ZM454 77 l0 -77 l-353 0 l0 700 l83 0 l0 -623 l270 0 Z" /><glyph glyph-name="lcommaaccent" unicode="&#x13c;" d="M115 -59 l81 0 q20 -77 -18 -140 l-70 0 q16 42 18.5 69.5 q2.5 27.5 -11.5 70.5 ZM235 67 l0 -69 q-78 -8 -119 30 q-41 38 -41 121 l0 556 l79 0 l0 -556 q0 -46 17 -66 q17 -20 64 -16 Z" /><glyph glyph-name="Lcaron" unicode="&#x13d;" d="M285 706 l77 0 q21 -75 -20 -145 l-64 0 q19 54 19 84 q0 30 -12 61 ZM454 77 l0 -77 l-353 0 l0 700 l83 0 l0 -623 l270 0 Z" /><glyph glyph-name="lcaron" unicode="&#x13e;" d="M233 706 l74 0 q10 -42 5 -71 q-5 -29 -26 -70 l-60 0 q30 83 7 141 ZM235 -2 l0 69 q-47 -4 -64 16 q-17 20 -17 66 l0 556 l-79 0 l0 -556 q0 -83 41 -121 q41 -38 119 -30 Z" /><glyph glyph-name="Ldot" unicode="&#x13f;" d="M278 330 l0 101 l93 0 l0 -101 l-93 0 ZM454 77 l0 -77 l-353 0 l0 700 l83 0 l0 -623 l270 0 Z" /><glyph glyph-name="ldot" unicode="&#x140;" d="M210 332 l0 99 l87 0 l0 -99 l-87 0 ZM235 67 l0 -69 q-78 -8 -119 30 q-41 38 -41 121 l0 556 l79 0 l0 -556 q0 -46 17 -66 q17 -20 64 -16 Z" /><glyph glyph-name="Lslash" unicode="&#x141;" d="M42 268 l0 75 l59 34 l0 323 l83 0 l0 -275 l118 68 l0 -77 l-118 -67 l0 -272 l270 0 l0 -77 l-353 0 l0 301 l-59 -33 Z" /><glyph glyph-name="lslash" unicode="&#x142;" d="M75 290 l-42 -24 l0 71 l42 24 l0 344 l79 0 l0 -298 l83 49 l0 -73 l-83 -48 l0 -186 q0 -46 17 -66 q17 -20 64 -16 l0 -69 q-78 -8 -119 30 q-41 38 -41 121 l0 141 Z" /><glyph glyph-name="Nacute" unicode="&#x143;" d="M496 865 l-84 -115 l-74 0 l65 115 l93 0 ZM658 700 l0 -700 l-116 0 l-359 586 l0 -586 l-82 0 l0 700 l99 0 l376 -610 l0 610 l82 0 Z" /><glyph glyph-name="nacute" unicode="&#x144;" d="M414 691 l-84 -115 l-65 0 l59 115 l90 0 ZM81 507 l66 0 l10 -47 q48 53 135 54 q108 -2 178.5 -62.5 q70.5 -60.5 70.5 -167.5 l0 -284 l-78 0 l0 284 q-1 70 -50 112 q-49 42 -120 47 q-80 4 -135 -50 l0 -393 l-77 0 l0 507 Z" /><glyph glyph-name="Ncommaaccent" unicode="&#x145;" d="M331 -35 l84 0 q19 -70 -18 -145 l-73 0 q16 46 18.5 72.5 q2.5 26.5 -11.5 72.5 ZM658 700 l0 -700 l-116 0 l-359 586 l0 -586 l-82 0 l0 700 l99 0 l376 -610 l0 610 l82 0 Z" /><glyph glyph-name="ncommaaccent" unicode="&#x146;" d="M272 -26 l75 0 q19 -70 -18 -145 l-64 0 q16 46 18.5 72.5 q2.5 26.5 -11.5 72.5 ZM81 507 l66 0 l10 -47 q48 53 133 54 q108 -2 179.5 -62.5 q71.5 -60.5 71.5 -167.5 l0 -284 l-78 0 l0 284 q-1 70 -50 112 q-49 42 -120 47 q-80 4 -135 -50 l0 -393 l-77 0 l0 507 Z" /><glyph glyph-name="Ncaron" unicode="&#x147;" d="M534 868 l-88 -120 l-101 0 l-88 120 l74 0 l64 -81 l2 0 l63 81 l74 0 ZM658 0 l0 700 l-82 0 l0 -610 l-376 610 l-99 0 l0 -700 l82 0 l0 586 l359 -586 l116 0 Z" /><glyph glyph-name="ncaron" unicode="&#x148;" d="M443 696 l-88 -120 l-101 0 l-88 120 l74 0 l64 -81 l2 0 l63 81 l74 0 ZM81 507 l66 0 l10 -47 q48 53 133 54 q108 -2 179.5 -62.5 q71.5 -60.5 71.5 -167.5 l0 -284 l-78 0 l0 284 q-1 70 -50 112 q-49 42 -120 47 q-80 4 -135 -50 l0 -393 l-77 0 l0 507 Z" /><glyph glyph-name="napostrophe" unicode="&#x149;" d="M0 706 l77 0 q19 -70 -18 -145 l-66 0 q16 46 18.5 72.5 q2.5 26.5 -11.5 72.5 ZM76 507 l66 0 l10 -47 q48 53 133 54 q108 -2 179.5 -62.5 q71.5 -60.5 71.5 -167.5 l0 -284 l-78 0 l0 284 q-1 70 -50 112 q-49 42 -120 47 q-80 4 -135 -50 l0 -393 l-77 0 l0 507 Z" /><glyph glyph-name="Eng" unicode="&#x14a;" d="M576 700 l82 0 l0 -733 q0 -84 -54 -126 q-54 -42 -154 -35 l0 74 q115 -10 115 87 l0 33 l-20 0 l-362 586 l0 -586 l-82 0 l0 700 l99 0 l376 -610 l0 610 Z" /><glyph glyph-name="eng" unicode="&#x14b;" d="M81 507 l66 0 l10 -47 q48 53 133 54 q108 -2 179.5 -62.5 q71.5 -60.5 71.5 -167.5 l0 -330 q0 -81 -47.5 -119 q-47.5 -38 -127.5 -30 l0 61 q98 -6 98 88 l0 330 q-1 70 -50.5 112 q-49.5 42 -120.5 47 q-80 4 -135 -50 l0 -393 l-77 0 l0 507 Z" /><glyph glyph-name="Omacron" unicode="&#x14c;" d="M281 784 l0 63 l255 0 l0 -63 l-255 0 ZM158 606 q105 108 252 108 q147 0 252 -108 q105 -108 105 -257 q0 -149 -105 -256 q-105 -107 -252 -107 q-147 0 -252 107 q-105 107 -105 256 q0 149 105 257 ZM136 349 q0 -134 81.5 -210.5 q81.5 -76.5 192.5 -76.5 q111 0 192.5 76.5 q81.5 76.5 81.5 210.5 q0 134 -82.5 212 q-82.5 78 -192.5 77 q-110 -1 -191.5 -79 q-81.5 -78 -81.5 -210 Z" /><glyph glyph-name="omacron" unicode="&#x14d;" d="M172 605 l0 62 l255 0 l0 -62 l-255 0 ZM123 253 q0 -94 52.5 -145 q52.5 -51 126.5 -51 q75 0 127.5 51 q52.5 51 52.5 145 q0 93 -52.5 143.5 q-52.5 50.5 -127.5 50.5 q-74 0 -126.5 -50.5 q-52.5 -50.5 -52.5 -143.5 ZM487.5 441.5 q72.5 -75.5 72.5 -188.5 q0 -113 -72.5 -189 q-72.5 -76 -185.5 -76 q-113 0 -185 76 q-72 76 -72 189 q0 112 72 188 q72 76 185 76 q113 0 185.5 -75.5 Z" /><glyph glyph-name="Obreve" unicode="&#x14e;" d="M158 606 q105 108 252 108 q147 0 252 -108 q105 -108 105 -257 q0 -149 -105 -256 q-105 -107 -252 -107 q-147 0 -252 107 q-105 107 -105 256 q0 149 105 257 ZM136 349 q0 -134 81.5 -210.5 q81.5 -76.5 192.5 -76.5 q111 0 192.5 76.5 q81.5 76.5 81.5 210.5 q0 134 -82.5 212 q-82.5 78 -192.5 77 q-110 -1 -191.5 -79 q-81.5 -78 -81.5 -210 ZM411 754 q-55 0 -93.5 31 q-38.5 31 -38.5 86 l64 0 q0 -29 20.5 -44 q20.5 -15 47.5 -15 q25 0 45 14.5 q20 14.5 20 44.5 l66 0 q0 -55 -38.5 -86 q-38.5 -31 -92.5 -31 Z" /><glyph glyph-name="obreve" unicode="&#x14f;" d="M123 253 q0 -94 52.5 -145 q52.5 -51 126.5 -51 q75 0 127.5 51 q52.5 51 52.5 145 q0 93 -52.5 143.5 q-52.5 50.5 -127.5 50.5 q-74 0 -126.5 -50.5 q-52.5 -50.5 -52.5 -143.5 ZM487.5 441.5 q72.5 -75.5 72.5 -188.5 q0 -113 -72.5 -189 q-72.5 -76 -185.5 -76 q-113 0 -185 76 q-72 76 -72 189 q0 112 72 188 q72 76 185 76 q113 0 185.5 -75.5 ZM301 574 q-55 0 -93.5 31 q-38.5 31 -38.5 86 l64 0 q0 -29 20.5 -44 q20.5 -15 47.5 -15 q25 0 45 14.5 q20 14.5 20 44.5 l66 0 q0 -55 -38.5 -86 q-38.5 -31 -92.5 -31 Z" /><glyph glyph-name="Ohungarumlaut" unicode="&#x150;" d="M158 606 q105 108 252 108 q147 0 252 -108 q105 -108 105 -257 q0 -149 -105 -256 q-105 -107 -252 -107 q-147 0 -252 107 q-105 107 -105 256 q0 149 105 257 ZM136 349 q0 -134 81.5 -210.5 q81.5 -76.5 192.5 -76.5 q111 0 192.5 76.5 q81.5 76.5 81.5 210.5 q0 134 -82.5 212 q-82.5 78 -192.5 77 q-110 -1 -191.5 -79 q-81.5 -78 -81.5 -210 ZM447 755 l68 113 l89 0 l-87 -113 l-70 0 ZM293 755 l63 113 l82 0 l-76 -113 l-69 0 Z" /><glyph glyph-name="ohungarumlaut" unicode="&#x151;" d="M123 253 q0 -94 52.5 -145 q52.5 -51 126.5 -51 q75 0 127.5 51 q52.5 51 52.5 145 q0 93 -52.5 143.5 q-52.5 50.5 -127.5 50.5 q-74 0 -126.5 -50.5 q-52.5 -50.5 -52.5 -143.5 ZM487.5 441.5 q72.5 -75.5 72.5 -188.5 q0 -113 -72.5 -189 q-72.5 -76 -185.5 -76 q-113 0 -185 76 q-72 76 -72 189 q0 112 72 188 q72 76 185 76 q113 0 185.5 -75.5 ZM326 584 l66 107 l86 0 l-84 -107 l-68 0 ZM177 584 l61 107 l79 0 l-73 -107 l-67 0 Z" /><glyph glyph-name="OE" unicode="&#x152;" d="M410 714 q46 0 95 -13 l374 0 l0 -77 l-291 0 l0 -234 l288 0 l0 -77 l-288 0 l-1 -234 l292 0 l0 -78 l-368 0 q-48 -15 -101 -15 q-147 0 -252 107.5 q-105 107.5 -105 255.5 q0 149 105 257 q105 108 252 108 ZM505 72 l0 554 q-76 27 -157 7.5 q-81 -19.5 -137 -79.5 q-75 -82 -75 -205 q0 -117 68 -196 q55 -62 134 -85.5 q79 -23.5 167 4.5 Z" /><glyph glyph-name="oe" unicode="&#x153;" d="M123 255 q0 -93 52.5 -144 q52.5 -51 126.5 -51 q75 0 127.5 50.5 q52.5 50.5 52.5 144.5 q0 94 -52.5 145 q-52.5 51 -127.5 51 q-74 0 -126.5 -51 q-52.5 -51 -52.5 -145 ZM740 64 q94 0 147 70 l63 -38 q-75 -101 -210 -101 q-71 0 -129 34 q-58 34 -90 96 q-32 -62 -90.5 -98 q-58.5 -36 -128.5 -36 q-113 0 -185 76 q-72 76 -72 188 q0 113 72.5 189.5 q72.5 76.5 184.5 76.5 q69 0 130 -34.5 q61 -34.5 90 -95.5 q31 59 87 94 q56 35 131 36 q75 0 136 -41 q129 -81 114 -256 l-431 0 q0 -1 -1 -1 q11 -67 58.5 -113 q47.5 -46 123.5 -46 ZM559 290 l355 0 q-6 70 -53.5 115 q-47.5 45 -119.5 46 q-77 0 -124 -46.5 q-47 -46.5 -58 -114.5 Z" /><glyph glyph-name="Racute" unicode="&#x154;" d="M351 286 l225 -286 l-99 0 l-219 285 l-74 0 l0 -285 l-83 0 l0 701 l223 0 q107 0 172.5 -51.5 q65.5 -51.5 66.5 -158.5 q1 -99 -57.5 -149.5 q-58.5 -50.5 -154.5 -55.5 ZM184 356 l141 0 q155 0 155 135 q0 134 -155 134 l-141 0 l0 -269 ZM413 865 l-84 -115 l-74 0 l65 115 l93 0 Z" /><glyph glyph-name="racute" unicode="&#x155;" d="M81 510 l67 0 l8 -65 q24 41 68 59.5 q44 18.5 89 15 q45 -3.5 84 -22.5 l-29 -68 q-79 37 -144 -0.5 q-65 -37.5 -65 -123.5 l0 -305 l-78 0 l0 510 ZM343 698 l-84 -115 l-74 0 l65 115 l93 0 Z" /><glyph glyph-name="Rcommaaccent" unicode="&#x156;" d="M288 -44 l78 0 q7 -27 7 -51 q0 -41 -25 -94 l-67 0 q19 54 19 84 q0 30 -12 61 ZM351 286 l225 -286 l-99 0 l-219 285 l-74 0 l0 -285 l-83 0 l0 701 l223 0 q107 0 172.5 -51.5 q65.5 -51.5 66.5 -158.5 q1 -99 -57.5 -149.5 q-58.5 -50.5 -154.5 -55.5 ZM184 356 l141 0 q155 0 155 135 q0 134 -155 134 l-141 0 l0 -269 Z" /><glyph glyph-name="rcommaaccent" unicode="&#x157;" d="M86 -55 l77 0 q19 -74 -18 -142 l-66 0 q17 42 19 71 q2 29 -12 71 ZM81 510 l67 0 l8 -65 q24 41 68 59.5 q44 18.5 89 15 q45 -3.5 84 -22.5 l-29 -68 q-79 37 -144 -0.5 q-65 -37.5 -65 -123.5 l0 -305 l-78 0 l0 510 Z" /><glyph glyph-name="Rcaron" unicode="&#x158;" d="M351 286 l225 -286 l-99 0 l-219 285 l-74 0 l0 -285 l-83 0 l0 701 l223 0 q107 0 172.5 -51.5 q65.5 -51.5 66.5 -158.5 q1 -99 -57.5 -149.5 q-58.5 -50.5 -154.5 -55.5 ZM184 356 l141 0 q155 0 155 135 q0 134 -155 134 l-141 0 l0 -269 ZM442 872 l-88 -120 l-101 0 l-88 120 l74 0 l64 -81 l2 0 l63 81 l74 0 Z" /><glyph glyph-name="rcaron" unicode="&#x159;" d="M81 510 l67 0 l8 -65 q24 41 68 59.5 q44 18.5 89 15 q45 -3.5 84 -22.5 l-29 -68 q-79 37 -144 -0.5 q-65 -37.5 -65 -123.5 l0 -305 l-78 0 l0 510 ZM372 694 l-88 -113 l-101 0 l-88 113 l74 0 l64 -80 l2 0 l63 80 l74 0 Z" /><glyph glyph-name="Sacute" unicode="&#x15a;" d="M143 526 q-2 -31 10 -54 q12 -23 37.5 -37.5 q25.5 -14.5 44 -21 q18.5 -6.5 48.5 -14.5 q37 -9 64.5 -19 q27.5 -10 58 -28 q30.5 -18 49.5 -40.5 q19 -22.5 30.5 -58 q11.5 -35.5 9.5 -80.5 q-4 -90 -71.5 -138.5 q-67.5 -48.5 -155.5 -48.5 q-71 0 -133.5 39.5 q-62.5 39.5 -89.5 110.5 l65 35 q20 -50 63.5 -80.5 q43.5 -30.5 96.5 -30.5 q62 -1 101.5 31 q39.5 32 43.5 87 q2 36 -10.5 62.5 q-12.5 26.5 -39.5 43 q-27 16.5 -48.5 25 q-21.5 8.5 -54.5 17.5 q-42 11 -72 23.5 q-30 12.5 -62.5 35.5 q-32.5 23 -49 59.5 q-16.5 36.5 -15.5 85.5 q3 90 64.5 139.5 q61.5 49.5 144.5 49.5 q70 0 127.5 -36 q57.5 -36 81.5 -101 l-63 -31 q-18 45 -58.5 69.5 q-40.5 24.5 -85.5 24.5 q-52 1 -89.5 -29.5 q-37.5 -30.5 -41.5 -89.5 ZM396 871 l-84 -115 l-74 0 l65 115 l93 0 Z" /><glyph glyph-name="sacute" unicode="&#x15b;" d="M231 291 q165 -33 165 -151 q0 -50 -30 -86 q-30 -36 -70 -50.5 q-40 -14.5 -83 -14.5 q-113 0 -171 83 l48 49 q51 -62 123 -62 q41 -1 74 20.5 q33 21.5 33 61.5 q-1 59 -106 79 q-158 27 -159 145 q0 70 53 111 q53 41 125 41 q93 0 150 -58 l-45 -51 q-42 36 -105 38 q-42 1 -72.5 -21 q-30.5 -22 -29.5 -60 q0 -54 100 -74 ZM345 691 l-85 -115 l-71 0 l65 115 l91 0 Z" /><glyph glyph-name="Scircumflex" unicode="&#x15c;" d="M143 526 q-2 -31 10 -54 q12 -23 37.5 -37.5 q25.5 -14.5 44 -21 q18.5 -6.5 48.5 -14.5 q37 -9 64.5 -19 q27.5 -10 58 -28 q30.5 -18 49.5 -40.5 q19 -22.5 30.5 -58 q11.5 -35.5 9.5 -80.5 q-4 -90 -71.5 -138.5 q-67.5 -48.5 -155.5 -48.5 q-71 0 -133.5 39.5 q-62.5 39.5 -89.5 110.5 l65 35 q20 -50 63.5 -80.5 q43.5 -30.5 96.5 -30.5 q62 -1 101.5 31 q39.5 32 43.5 87 q2 36 -10.5 62.5 q-12.5 26.5 -39.5 43 q-27 16.5 -48.5 25 q-21.5 8.5 -54.5 17.5 q-42 11 -72 23.5 q-30 12.5 -62.5 35.5 q-32.5 23 -49 59.5 q-16.5 36.5 -15.5 85.5 q3 90 64.5 139.5 q61.5 49.5 144.5 49.5 q70 0 127.5 -36 q57.5 -36 81.5 -101 l-63 -31 q-18 45 -58.5 69.5 q-40.5 24.5 -85.5 24.5 q-52 1 -89.5 -29.5 q-37.5 -30.5 -41.5 -89.5 ZM140 756 l88 114 l101 0 l88 -114 l-74 0 l-64 78 l-2 0 l-63 -78 l-74 0 Z" /><glyph glyph-name="scircumflex" unicode="&#x15d;" d="M231 291 q165 -33 165 -151 q0 -50 -30 -86 q-30 -36 -70 -50.5 q-40 -14.5 -83 -14.5 q-113 0 -171 83 l48 49 q51 -62 123 -62 q41 -1 74 20.5 q33 21.5 33 61.5 q-1 59 -106 79 q-158 27 -159 145 q0 70 53 111 q53 41 125 41 q93 0 150 -58 l-45 -51 q-42 36 -105 38 q-42 1 -72.5 -21 q-30.5 -22 -29.5 -60 q0 -54 100 -74 ZM95 570 l88 114 l101 0 l88 -114 l-74 0 l-64 78 l-2 0 l-63 -78 l-74 0 Z" /><glyph glyph-name="Scedilla" unicode="&#x15e;" d="M143 526 q-2 -31 10 -54 q12 -23 37.5 -37.5 q25.5 -14.5 44 -21 q18.5 -6.5 48.5 -14.5 q37 -9 64.5 -19 q27.5 -10 58 -28 q30.5 -18 49.5 -40.5 q19 -22.5 30.5 -58 q11.5 -35.5 9.5 -80.5 q-4 -79 -57 -126 q-53 -47 -129 -58 l-22 -37 q27 -1 52 -22.5 q25 -21.5 24 -48.5 q-2 -40 -31 -61 q-29 -21 -67 -21 q-36 0 -85 23 l15 41 q35 -18 64 -18 q27 0 39 15.5 q12 15.5 1.5 32 q-10.5 16.5 -38.5 16.5 q-16 0 -27 -5 l-24 18 l40 65 q-68 6 -124.5 44 q-56.5 38 -80.5 105 l65 35 q20 -50 63.5 -80.5 q43.5 -30.5 96.5 -30.5 q62 -1 101.5 31 q39.5 32 43.5 87 q2 36 -10.5 62.5 q-12.5 26.5 -39.5 43 q-27 16.5 -48.5 25 q-21.5 8.5 -54.5 17.5 q-42 11 -72 23.5 q-30 12.5 -62.5 35.5 q-32.5 23 -49 59.5 q-16.5 36.5 -15.5 85.5 q3 90 64.5 139.5 q61.5 49.5 144.5 49.5 q70 0 127.5 -36 q57.5 -36 81.5 -101 l-63 -31 q-18 45 -58.5 69.5 q-40.5 24.5 -85.5 24.5 q-52 1 -89.5 -29.5 q-37.5 -30.5 -41.5 -89.5 Z" /><glyph glyph-name="scedilla" unicode="&#x15f;" d="M231 291 q165 -33 165 -151 q0 -68 -49 -106 q-49 -38 -115 -44 l-14 -24 q23 -1 44.5 -20 q21.5 -19 20.5 -43 q-1 -36 -25.5 -54.5 q-24.5 -18.5 -55.5 -18.5 q-29 0 -71 20 l13 37 q28 -16 53 -16 q22 0 32 14 q10 14 1.5 28.5 q-8.5 14.5 -32.5 14.5 q-10 0 -19 -5 l-20 16 l29 52 q-97 10 -146 81 l48 49 q51 -62 123 -62 q41 -1 74 20.5 q33 21.5 33 61.5 q-1 59 -106 79 q-158 27 -159 145 q0 70 53 111 q53 41 125 41 q93 0 150 -58 l-45 -51 q-42 36 -105 38 q-42 1 -72.5 -21 q-30.5 -22 -29.5 -60 q0 -54 100 -74 Z" /><glyph glyph-name="Scaron" unicode="&#x160;" d="M143 526 q-2 -31 10 -54 q12 -23 37.5 -37.5 q25.5 -14.5 44 -21 q18.5 -6.5 48.5 -14.5 q37 -9 64.5 -19 q27.5 -10 58 -28 q30.5 -18 49.5 -40.5 q19 -22.5 30.5 -58 q11.5 -35.5 9.5 -80.5 q-4 -90 -71.5 -138.5 q-67.5 -48.5 -155.5 -48.5 q-71 0 -133.5 39.5 q-62.5 39.5 -89.5 110.5 l65 35 q20 -50 63.5 -80.5 q43.5 -30.5 96.5 -30.5 q62 -1 101.5 31 q39.5 32 43.5 87 q2 36 -10.5 62.5 q-12.5 26.5 -39.5 43 q-27 16.5 -48.5 25 q-21.5 8.5 -54.5 17.5 q-42 11 -72 23.5 q-30 12.5 -62.5 35.5 q-32.5 23 -49 59.5 q-16.5 36.5 -15.5 85.5 q3 90 64.5 139.5 q61.5 49.5 144.5 49.5 q70 0 127.5 -36 q57.5 -36 81.5 -101 l-63 -31 q-18 45 -58.5 69.5 q-40.5 24.5 -85.5 24.5 q-52 1 -89.5 -29.5 q-37.5 -30.5 -41.5 -89.5 ZM420 896 l-88 -106 l-101 0 l-88 106 l74 0 l65 -66 l2 0 l62 66 l74 0 Z" /><glyph glyph-name="scaron" unicode="&#x161;" d="M231 292 q165 -33 165 -152 q0 -50 -30 -86 q-30 -36 -70 -50.5 q-40 -14.5 -83 -14.5 q-113 0 -171 83 l48 49 q51 -62 123 -62 q41 -1 74 20.5 q33 21.5 33 61.5 q-1 59 -106 79 q-158 27 -159 145 q0 70 53 111 q53 41 125 41 q93 0 150 -58 l-45 -51 q-42 36 -105 38 q-42 1 -72.5 -21 q-30.5 -22 -29.5 -60 q0 -24 18.5 -40 q18.5 -16 36.5 -22 q18 -6 45 -11 ZM363 691 l-88 -120 l-101 0 l-88 120 l74 0 l64 -81 l2 0 l63 81 l74 0 Z" /><glyph glyph-name="Tcommaaccent" unicode="&#x162;" d="M10 702 l431 0 l0 -80 l-174 0 l0 -622 l-19 0 l-8 -42 q45 -4 68 -30.5 q23 -26.5 20.5 -56.5 q-2.5 -30 -28 -54 q-25.5 -24 -66.5 -24 q-35 0 -85 25 l15 44 q34 -19 64 -19 q28 0 41 16.5 q13 16.5 1.5 34 q-11.5 17.5 -40.5 18.5 q-23 0 -30 -4 l-21 18 l13 74 l-8 0 l0 622 l-174 0 l0 80 Z" /><glyph glyph-name="tcommaaccent" unicode="&#x163;" d="M219 -3 l-14 -39 q45 -4 68 -30.5 q23 -26.5 20.5 -56.5 q-2.5 -30 -28 -54 q-25.5 -24 -66.5 -24 q-35 0 -85 25 l15 44 q34 -19 64 -19 q28 0 41 16.5 q13 16.5 1.5 34 q-11.5 17.5 -40.5 18.5 q-23 0 -30 -4 l-21 18 l26 83 q-82 37 -82 139 l0 291 l-52 0 l0 68 l52 0 l0 192 l78 0 l0 -192 l103 0 l0 -68 l-103 0 l0 -291 q0 -43 27 -64.5 q27 -21.5 76 -17.5 l0 -69 q-26 -3 -50 0 Z" /><glyph glyph-name="Tcaron" unicode="&#x164;" d="M10 702 l431 0 l0 -80 l-174 0 l0 -622 l-83 0 l0 622 l-174 0 l0 80 ZM363 869 l-88 -118 l-101 0 l-88 118 l74 0 l64 -79 l2 0 l63 79 l74 0 Z" /><glyph glyph-name="tcaron" unicode="&#x165;" d="M245 707 l72 0 q19 -69 -18 -142 l-62 0 q11 32 15.5 50 q4.5 18 3.5 42 q-1 24 -11 50 ZM269 -3 l0 69 q-49 -4 -76 17.5 q-27 21.5 -27 64.5 l0 291 l103 0 l0 68 l-103 0 l0 192 l-78 0 l0 -192 l-52 0 l0 -68 l52 0 l0 -291 q0 -81 50 -120.5 q50 -39.5 131 -30.5 Z" /><glyph glyph-name="Tbar" unicode="&#x166;" d="M53 320 l0 58 l131 0 l0 244 l-174 0 l0 80 l431 0 l0 -80 l-174 0 l0 -244 l132 0 l0 -58 l-132 0 l0 -320 l-83 0 l0 320 l-131 0 Z" /><glyph glyph-name="tbar" unicode="&#x167;" d="M39 240 l0 60 l49 0 l0 139 l-52 0 l0 68 l52 0 l0 192 l78 0 l0 -192 l103 0 l0 -68 l-103 0 l0 -139 l103 0 l0 -60 l-103 0 l0 -92 q0 -43 27.5 -66 q27.5 -23 75.5 -19 l0 -66 q-81 -9 -131 30.5 q-50 39.5 -50 120.5 l0 92 l-49 0 Z" /><glyph glyph-name="Utilde" unicode="&#x168;" d="M91 700 l83 0 l0 -498 q0 -45 22.5 -78 q22.5 -33 57 -48 q34.5 -15 74 -15 q39.5 0 74 15 q34.5 15 57 48 q22.5 33 22.5 78 l0 498 l83 0 l0 -498 q0 -52 -20.5 -94.5 q-20.5 -42.5 -53.5 -68.5 q-33 -26 -75.5 -40 q-42.5 -14 -87 -14 q-44.5 0 -87 14 q-42.5 14 -75.5 40 q-33 26 -53.5 68.5 q-20.5 42.5 -20.5 94.5 l0 498 ZM438 864 l44 -31 q-22 -50 -69 -62.5 q-47 -12.5 -93 17.5 q-60 38 -101 -24 l-47 30 q29 53 77.5 65 q48.5 12 97.5 -22 q53 -34 91 27 Z" /><glyph glyph-name="utilde" unicode="&#x169;" d="M417 692 l42 -32 q-24 -48 -70.5 -58.5 q-46.5 -10.5 -90.5 20.5 q-56 41 -100 -18 l-45 31 q31 51 79 60.5 q48 9.5 95 -25.5 q50 -36 90 22 ZM534 0 l-65 0 l-11 52 q-54 -60 -133 -61 q-112 2 -181.5 55.5 q-69.5 53.5 -69.5 165.5 l0 295 l78 0 l0 -295 q2 -73 54.5 -113.5 q52.5 -40.5 122.5 -36.5 q70 3 128 63 l0 382 l77 0 l0 -507 Z" /><glyph glyph-name="Umacron" unicode="&#x16a;" d="M203 778 l0 65 l255 0 l0 -65 l-255 0 ZM91 700 l83 0 l0 -498 q0 -45 22.5 -78 q22.5 -33 57 -48 q34.5 -15 74 -15 q39.5 0 74 15 q34.5 15 57 48 q22.5 33 22.5 78 l0 498 l83 0 l0 -498 q0 -52 -20.5 -94.5 q-20.5 -42.5 -53.5 -68.5 q-33 -26 -75.5 -40 q-42.5 -14 -87 -14 q-44.5 0 -87 14 q-42.5 14 -75.5 40 q-33 26 -53.5 68.5 q-20.5 42.5 -20.5 94.5 l0 498 Z" /><glyph glyph-name="umacron" unicode="&#x16b;" d="M181 626 l0 62 l251 0 l0 -62 l-251 0 ZM534 0 l-65 0 l-11 52 q-54 -60 -133 -61 q-112 2 -181.5 55.5 q-69.5 53.5 -69.5 165.5 l0 295 l78 0 l0 -295 q2 -73 54.5 -113.5 q52.5 -40.5 122.5 -36.5 q70 3 128 63 l0 382 l77 0 l0 -507 Z" /><glyph glyph-name="Ubreve" unicode="&#x16c;" d="M91 700 l83 0 l0 -498 q0 -45 22.5 -78 q22.5 -33 57 -48 q34.5 -15 74 -15 q39.5 0 74 15 q34.5 15 57 48 q22.5 33 22.5 78 l0 498 l83 0 l0 -498 q0 -52 -20.5 -94.5 q-20.5 -42.5 -53.5 -68.5 q-33 -26 -75.5 -40 q-42.5 -14 -87 -14 q-44.5 0 -87 14 q-42.5 14 -75.5 40 q-33 26 -53.5 68.5 q-20.5 42.5 -20.5 94.5 l0 498 ZM332 744 q-55 0 -93.5 31 q-38.5 31 -38.5 86 l64 0 q0 -29 21 -44.5 q21 -15.5 47 -15.5 q25 0 45 15 q20 15 20 45 l66 0 q0 -55 -38.5 -86 q-38.5 -31 -92.5 -31 Z" /><glyph glyph-name="ubreve" unicode="&#x16d;" d="M310 576 q-55 0 -93.5 31 q-38.5 31 -38.5 86 l64 0 q0 -29 21 -44.5 q21 -15.5 47 -15.5 q25 0 45 15 q20 15 20 45 l66 0 q0 -55 -38.5 -86 q-38.5 -31 -92.5 -31 ZM534 0 l-65 0 l-11 52 q-54 -60 -133 -61 q-112 2 -181.5 55.5 q-69.5 53.5 -69.5 165.5 l0 295 l78 0 l0 -295 q2 -73 54.5 -113.5 q52.5 -40.5 122.5 -36.5 q70 3 128 63 l0 382 l77 0 l0 -507 Z" /><glyph glyph-name="Uring" unicode="&#x16e;" d="M91 700 l83 0 l0 -498 q0 -45 22.5 -78 q22.5 -33 57 -48 q34.5 -15 74 -15 q39.5 0 74 15 q34.5 15 57 48 q22.5 33 22.5 78 l0 498 l83 0 l0 -498 q0 -52 -20.5 -94.5 q-20.5 -42.5 -53.5 -68.5 q-33 -26 -75.5 -40 q-42.5 -14 -87 -14 q-44.5 0 -87 14 q-42.5 14 -75.5 40 q-33 26 -53.5 68.5 q-20.5 42.5 -20.5 94.5 l0 498 ZM337 738 q-35 0 -59.5 20.5 q-24.5 20.5 -24.5 53.5 q0 34 24.5 54.5 q24.5 20.5 59.5 20.5 q35 0 59.5 -20.5 q24.5 -20.5 24.5 -54.5 q0 -33 -25 -53.5 q-25 -20.5 -59 -20.5 ZM337 780 q14 0 23.5 9 q9.5 9 9.5 23 q0 16 -9 25 q-9 9 -24 9 q-15 0 -24 -9 q-9 -9 -9 -25 q0 -14 9 -23 q9 -9 24 -9 Z" /><glyph glyph-name="uring" unicode="&#x16f;" d="M304 556 q-35 0 -59.5 20.5 q-24.5 20.5 -24.5 53.5 q0 34 24.5 54.5 q24.5 20.5 59.5 20.5 q35 0 59.5 -20.5 q24.5 -20.5 24.5 -54.5 q0 -33 -25 -53.5 q-25 -20.5 -59 -20.5 ZM304 598 q14 0 23.5 9 q9.5 9 9.5 23 q0 16 -9.5 25 q-9.5 9 -23.5 9 q-15 0 -24 -9 q-9 -9 -9 -25 q0 -14 9 -23 q9 -9 24 -9 ZM534 0 l-65 0 l-11 52 q-54 -60 -133 -61 q-112 2 -181.5 55.5 q-69.5 53.5 -69.5 165.5 l0 295 l78 0 l0 -295 q2 -73 54.5 -113.5 q52.5 -40.5 122.5 -36.5 q70 3 128 63 l0 382 l77 0 l0 -507 Z" /><glyph glyph-name="Uhungarumlaut" unicode="&#x170;" d="M91 700 l83 0 l0 -498 q0 -45 22.5 -78 q22.5 -33 57 -48 q34.5 -15 74 -15 q39.5 0 74 15 q34.5 15 57 48 q22.5 33 22.5 78 l0 498 l83 0 l0 -498 q0 -52 -20.5 -94.5 q-20.5 -42.5 -53.5 -68.5 q-33 -26 -75.5 -40 q-42.5 -14 -87 -14 q-44.5 0 -87 14 q-42.5 14 -75.5 40 q-33 26 -53.5 68.5 q-20.5 42.5 -20.5 94.5 l0 498 ZM368 755 l66 107 l86 0 l-84 -107 l-68 0 ZM219 755 l61 107 l79 0 l-73 -107 l-67 0 Z" /><glyph glyph-name="uhungarumlaut" unicode="&#x171;" d="M333 585 l66 107 l86 0 l-84 -107 l-68 0 ZM184 585 l61 107 l79 0 l-73 -107 l-67 0 ZM534 0 l-65 0 l-11 52 q-54 -60 -133 -61 q-112 2 -181.5 55.5 q-69.5 53.5 -69.5 165.5 l0 295 l78 0 l0 -295 q2 -73 54.5 -113.5 q52.5 -40.5 122.5 -36.5 q70 3 128 63 l0 382 l77 0 l0 -507 Z" /><glyph glyph-name="Uogonek" unicode="&#x172;" d="M91 700 l83 0 l0 -498 q0 -45 22.5 -78 q22.5 -33 57 -48 q34.5 -15 74 -15 q39.5 0 74 15 q34.5 15 57 48 q22.5 33 22.5 78 l0 498 l83 0 l0 -498 q0 -115 -91 -175 q-1 -1 -7.5 -6 q-6.5 -5 -9.5 -7.5 q-3 -2.5 -9 -7.5 q-6 -5 -9.5 -9 q-3.5 -4 -8.5 -9.5 q-5 -5.5 -8 -10 q-3 -4.5 -6 -10 q-3 -5.5 -4.5 -11 q-1.5 -5.5 -1.5 -11.5 q0 -18 16.5 -34.5 q16.5 -16.5 32.5 -23.5 l16 -7 l-23 -62 q-5 1 -12.5 3 q-7.5 2 -27 10.5 q-19.5 8.5 -34.5 19.5 q-15 11 -27 31 q-12 20 -12 44 q0 31 29 62 q-67 -9 -129 11 q-62 20 -104.5 73 q-42.5 53 -42.5 130 l0 498 Z" /><glyph glyph-name="uogonek" unicode="&#x173;" d="M534 0 q-59 -31 -60 -67 q-1 -20 14.5 -34.5 q15.5 -14.5 31.5 -18.5 l15 -4 l-22 -46 q-4 0 -11 1 q-7 1 -24.5 6.5 q-17.5 5.5 -31 14 q-13.5 8.5 -24.5 25.5 q-11 17 -11 40 q0 50 58 83 l-11 52 q-54 -60 -133 -61 q-112 2 -181.5 55.5 q-69.5 53.5 -69.5 165.5 l0 295 l78 0 l0 -295 q2 -73 54.5 -113.5 q52.5 -40.5 122.5 -36.5 q70 3 128 63 l0 382 l77 0 l0 -507 Z" /><glyph glyph-name="Wcircumflex" unicode="&#x174;" d="M519 614 l160 -521 l159 609 l85 0 l-193 -705 l-101 0 l-147 471 q-56 -180 -148 -471 l-101 0 l-194 705 l86 0 l159 -610 l162 522 l73 0 ZM344 754 l88 117 l101 0 l88 -117 l-74 0 l-64 81 l-2 0 l-63 -81 l-74 0 Z" /><glyph glyph-name="wcircumflex" unicode="&#x175;" d="M221 579 l88 117 l101 0 l88 -117 l-74 0 l-64 81 l-2 0 l-63 -81 l-74 0 ZM318 510 l87 0 l85 -337 q13 -41 15 -97 l5 0 q2 58 14 98 l95 336 l80 0 l-151 -510 l-92 0 l-85 339 q-1 4 -4.5 35.5 q-3.5 31.5 -3.5 32.5 l-4 0 l-3 -33 q-4 -34 -4 -35 l-84 -339 l-92 0 l-152 510 l80 0 l95 -336 q8 -26 16 -98 l5 0 q2 68 12 97 l86 337 Z" /><glyph glyph-name="Ycircumflex" unicode="&#x176;" d="M571 705 l-240 -426 l0 -279 l-81 0 l0 279 q-34 60 -115.5 206.5 q-81.5 146.5 -123.5 219.5 l94 0 l186 -339 q13 23 81.5 148 q68.5 125 103.5 191 l95 0 ZM157 754 l88 117 l101 0 l88 -117 l-74 0 l-64 81 l-2 0 l-63 -81 l-74 0 Z" /><glyph glyph-name="ycircumflex" unicode="&#x177;" d="M115 578 l88 117 l101 0 l88 -117 l-74 0 l-64 81 l-2 0 l-63 -81 l-74 0 ZM90 -190 l0 65 q42 -5 64 8.5 q22 13.5 33 41.5 l28 73 l-207 509 l84 0 l164 -419 l156 419 l84 0 l-235 -607 q-39 -103 -171 -90 Z" /><glyph glyph-name="Ydieresis" unicode="&#x178;" d="M574 705 l-240 -426 l0 -279 l-81 0 l0 279 q-34 60 -115.5 206.5 q-81.5 146.5 -123.5 219.5 l94 0 l186 -339 q13 23 81.5 148 q68.5 125 103.5 191 l95 0 ZM253 775 l-90 0 l0 98 l90 0 l0 -98 ZM426 775 l-90 0 l0 98 l90 0 l0 -98 Z" /><glyph glyph-name="Zacute" unicode="&#x179;" d="M415 873 l-84 -115 l-74 0 l65 115 l93 0 ZM58 0 l0 80 l273 406 l103 145 l-364 0 l0 74 l445 0 l0 -76 l-262 -392 l-116 -162 l378 0 l0 -75 l-457 0 Z" /><glyph glyph-name="zacute" unicode="&#x17a;" d="M342 692 l-84 -115 l-74 0 l65 115 l93 0 ZM46 0 l0 73 l277 366 l-266 -1 l0 70 l365 0 l0 -51 l-294 -388 l294 0 l0 -69 l-376 0 Z" /><glyph glyph-name="Zdotaccent" unicode="&#x17b;" d="M258 769 l0 89 l87 0 l0 -89 l-87 0 ZM58 0 l0 80 l273 406 l103 145 l-364 0 l0 74 l445 0 l0 -76 l-262 -392 l-116 -162 l378 0 l0 -75 l-457 0 Z" /><glyph glyph-name="zdotaccent" unicode="&#x17c;" d="M202 596 l0 83 l87 0 l0 -83 l-87 0 ZM46 0 l0 73 l277 366 l-266 -1 l0 70 l365 0 l0 -51 l-294 -388 l294 0 l0 -69 l-376 0 Z" /><glyph glyph-name="Zcaron" unicode="&#x17d;" d="M441 892 l-88 -120 l-101 0 l-88 120 l76 0 l62 -78 l2 0 l62 78 l75 0 ZM52 0 l0 80 l273 406 l103 145 l-364 0 l0 74 l445 0 l0 -76 l-262 -392 l-116 -162 l378 0 l0 -75 l-457 0 Z" /><glyph glyph-name="zcaron" unicode="&#x17e;" d="M391 726 l-88 -120 l-101 0 l-88 120 l74 0 l64 -81 l2 0 l63 81 l74 0 ZM46 0 l0 73 l277 366 l-266 -1 l0 70 l365 0 l0 -51 l-294 -388 l294 0 l0 -69 l-376 0 Z" /><glyph glyph-name="longs" unicode="&#x17f;" d="M277 701 l0 -69 q-50 3 -77 -18 q-27 -21 -27 -64 l0 -550 l-78 0 l0 432 l-55 0 l0 72 l55 0 l0 46 q0 81 50.5 120.5 q50.5 39.5 131.5 30.5 Z" /><glyph glyph-name="florin" unicode="&#x192;" d="M518 712 l-12 -72 q-35 3 -60.5 -8 q-25.5 -11 -40 -36 q-14.5 -25 -22 -49 q-7.5 -24 -13.5 -59 l108 0 l-13 -76 l-108 0 l-88 -461 q-16 -80 -62 -123.5 q-46 -43.5 -139 -43.5 q-31 0 -50 6 l11 65 q76 -11 109.5 15.5 q33.5 26.5 47.5 94.5 l86 447 l-95 0 l14 76 l96 0 l6 32 q15 83 69 138.5 q54 55.5 139 55.5 q7 0 17 -2 Z" /><glyph glyph-name="Scommaaccent" unicode="&#x218;" d="M237 -56 l78 0 q18 -68 -18 -140 l-67 0 q16 42 18.5 69.5 q2.5 27.5 -11.5 70.5 ZM143 526 q-2 -31 10 -54 q12 -23 37.5 -37.5 q25.5 -14.5 44 -21 q18.5 -6.5 48.5 -14.5 q37 -9 64.5 -19 q27.5 -10 58 -28 q30.5 -18 49.5 -40.5 q19 -22.5 30.5 -58 q11.5 -35.5 9.5 -80.5 q-4 -90 -71.5 -138.5 q-67.5 -48.5 -155.5 -48.5 q-71 0 -133.5 39.5 q-62.5 39.5 -89.5 110.5 l65 35 q20 -50 63.5 -80.5 q43.5 -30.5 96.5 -30.5 q62 -1 101.5 31 q39.5 32 43.5 87 q2 36 -10.5 62.5 q-12.5 26.5 -39.5 43 q-27 16.5 -48.5 25 q-21.5 8.5 -54.5 17.5 q-42 11 -72 23.5 q-30 12.5 -62.5 35.5 q-32.5 23 -49 59.5 q-16.5 36.5 -15.5 85.5 q3 90 64.5 139.5 q61.5 49.5 144.5 49.5 q70 0 127.5 -36 q57.5 -36 81.5 -101 l-63 -31 q-18 45 -58.5 69.5 q-40.5 24.5 -85.5 24.5 q-52 1 -89.5 -29.5 q-37.5 -30.5 -41.5 -89.5 Z" /><glyph glyph-name="scommaaccent" unicode="&#x219;" d="M182 -56 l75 0 q17 -69 -18 -136 l-64 0 q17 40 18.5 67.5 q1.5 27.5 -11.5 68.5 ZM231 291 q165 -33 165 -151 q0 -50 -30 -86 q-30 -36 -70 -50.5 q-40 -14.5 -83 -14.5 q-113 0 -171 83 l48 49 q51 -62 123 -62 q41 -1 74 20.5 q33 21.5 33 61.5 q-1 59 -106 79 q-158 27 -159 145 q0 70 53 111 q53 41 125 41 q93 0 150 -58 l-45 -51 q-42 36 -105 38 q-42 1 -72.5 -21 q-30.5 -22 -29.5 -60 q0 -54 100 -74 Z" /><glyph glyph-name="uni021A" unicode="&#x21a;" d="M189 -47 l80 0 q19 -72 -18 -147 l-69 0 q16 46 18.5 73.5 q2.5 27.5 -11.5 73.5 ZM10 702 l431 0 l0 -80 l-174 0 l0 -622 l-83 0 l0 622 l-174 0 l0 80 Z" /><glyph glyph-name="uni021B" unicode="&#x21b;" d="M166 -57 l77 0 q19 -70 -18 -145 l-66 0 q16 46 18.5 72.5 q2.5 26.5 -11.5 72.5 ZM270 66 l0 -69 q-81 -9 -131 30.5 q-50 39.5 -50 120.5 l0 291 l-52 0 l0 68 l52 0 l0 192 l78 0 l0 -192 l103 0 l0 -68 l-103 0 l0 -291 q0 -43 27 -64.5 q27 -21.5 76 -17.5 Z" /><glyph glyph-name="circumflex" unicode="&#x2c6;" d="M117 763 l88 117 l101 0 l88 -117 l-74 0 l-64 81 l-2 0 l-63 -81 l-74 0 Z" /><glyph glyph-name="caron" unicode="&#x2c7;" d="M393 879 l-88 -120 l-101 0 l-88 120 l74 0 l64 -81 l2 0 l63 81 l74 0 Z" /><glyph glyph-name="breve" unicode="&#x2d8;" d="M255 751 q-55 0 -93.5 31 q-38.5 31 -38.5 86 l64 0 q0 -29 20.5 -44 q20.5 -15 47.5 -15 q25 0 45 14.5 q20 14.5 20 44.5 l66 0 q0 -55 -38.5 -86 q-38.5 -31 -92.5 -31 Z" /><glyph glyph-name="dotaccent" unicode="&#x2d9;" d="M211 784 l0 89 l87 0 l0 -89 l-87 0 Z" /><glyph glyph-name="ring" unicode="&#x2da;" d="M255 743 q-35 0 -59.5 20.5 q-24.5 20.5 -24.5 53.5 q0 34 24.5 54.5 q24.5 20.5 59.5 20.5 q35 0 59.5 -20.5 q24.5 -20.5 24.5 -54.5 q0 -33 -25 -53.5 q-25 -20.5 -59 -20.5 ZM255 785 q14 0 23.5 9 q9.5 9 9.5 23 q0 15 -9 24.5 q-9 9.5 -24 9.5 q-15 0 -24 -9 q-9 -9 -9 -25 q0 -14 9 -23 q9 -9 24 -9 Z" /><glyph glyph-name="ogonek" unicode="&#x2db;" d="M175 -106 q-3 22 6 43.5 q9 21.5 24 36.5 q15 15 30.5 26.5 q15.5 11.5 26.5 17.5 l12 5 l58 -11 q-10 -6 -24 -16 q-14 -10 -37.5 -36.5 q-23.5 -26.5 -23.5 -46.5 q0 -17 17.5 -29 q17.5 -12 35.5 -16 l17 -4 l-24 -44 q-1 1 -11 -0.5 q-10 -1.5 -27 2.5 q-17 4 -33.5 10.5 q-16.5 6.5 -30 22.5 q-13.5 16 -16.5 39 Z" /><glyph glyph-name="tilde" unicode="&#x2dc;" d="M359 858 l45 -33 q-23 -52 -71 -65 q-48 -13 -95 18 q-62 40 -104 -25 l-48 31 q30 56 79.5 68.5 q49.5 12.5 100.5 -22.5 q54 -36 93 28 Z" /><glyph glyph-name="hungarumlaut" unicode="&#x2dd;" d="M245 755 l68 113 l89 0 l-87 -113 l-70 0 ZM91 755 l63 113 l82 0 l-76 -113 l-69 0 Z" /><glyph glyph-name="tonos" unicode="&#x384;" d="M328 876 l-84 -115 l-68 0 l65 115 l87 0 Z" /><glyph glyph-name="dieresistonos" unicode="&#x385;" d="M241 765 l77 113 l-85 0 l-52 -113 l60 0 ZM155 791 l-81 0 l0 89 l81 0 l0 -89 ZM429 791 l-81 0 l0 89 l81 0 l0 -89 Z" /><glyph glyph-name="Alphatonos" unicode="&#x386;" d="M13 0 l251 705 l101 0 l254 -705 l-87 0 l-81 224 l-271 0 l-79 -224 l-88 0 ZM205 300 l219 0 l-109 318 l-110 -318 ZM65 590 l84 115 l-87 0 l-65 -115 l68 0 Z" /><glyph glyph-name="Epsilontonos" unicode="&#x388;" d="M501 704 l0 -77 l-292 0 l0 -237 l288 0 l0 -77 l-288 0 l-1 -234 l293 0 l0 -78 l-375 0 l0 703 l375 0 ZM98 705 l-84 -115 l-68 0 l65 115 l87 0 Z" /><glyph glyph-name="Etatonos" unicode="&#x389;" d="M530 0 l0 312 l-321 0 l0 -312 l-83 0 l0 703 l83 0 l0 -317 l321 0 l0 317 l83 0 l0 -703 l-83 0 ZM102 705 l-84 -115 l-68 0 l65 115 l87 0 Z" /><glyph glyph-name="Iotatonos" unicode="&#x38a;" d="M124 0 l0 703 l82 0 l0 -703 l-82 0 ZM98 705 l-84 -115 l-68 0 l65 115 l87 0 Z" /><glyph glyph-name="Omicrontonos" unicode="&#x38c;" d="M158 606 q105 108 252 108 q147 0 252 -108 q105 -108 105 -257 q0 -149 -105 -256 q-105 -107 -252 -107 q-147 0 -252 107 q-105 107 -105 256 q0 149 105 257 ZM136 349 q0 -134 81.5 -210.5 q81.5 -76.5 192.5 -76.5 q111 0 192.5 76.5 q81.5 76.5 81.5 210.5 q0 134 -82.5 212 q-82.5 78 -192.5 77 q-110 -1 -191.5 -79 q-81.5 -78 -81.5 -210 ZM40 590 l84 115 l-87 0 l-65 -115 l68 0 Z" /><glyph glyph-name="Upsilontonos" unicode="&#x38e;" d="M675 705 l-240 -426 l0 -279 l-81 0 l0 279 q-34 60 -115.5 206.5 q-81.5 146.5 -123.5 219.5 l94 0 l186 -339 q13 23 81.5 148 q68.5 125 103.5 191 l95 0 ZM18 590 l84 115 l-87 0 l-65 -115 l68 0 Z" /><glyph glyph-name="Omegatonos" unicode="&#x38f;" d="M604.5 556.5 q-78.5 80.5 -199.5 80.5 q-121 0 -199.5 -80.5 q-78.5 -80.5 -78.5 -200.5 q0 -106 54 -179.5 q54 -73.5 149 -111.5 l-17 -65 l-284 0 l0 67 l183 0 q-75 31 -119 112 q-44 81 -44 177 q0 154 100 254.5 q100 100.5 256 100.5 q157 0 256 -100.5 q99 -100.5 99 -254.5 q0 -92 -46.5 -176.5 q-46.5 -84.5 -115.5 -113.5 l184 0 l0 -66 l-278 0 l-13 66 q94 44 143 113 q49 69 49 177 q0 120 -78.5 200.5 ZM117 705 l-84 -115 l-68 0 l65 115 l87 0 Z" /><glyph glyph-name="iotadieresistonos" unicode="&#x390;" d="M220 66 l0 -67 q-75 1 -108 22.5 q-33 21.5 -33 93.5 l0 392 l79 0 l0 -392 q0 -28 13 -38.5 q13 -10.5 49 -10.5 ZM205 697 l-74 -108 l-56 0 l49 108 l81 0 ZM59 612 l-77 0 l0 85 l77 0 l0 -85 ZM302 612 l-77 0 l0 85 l77 0 l0 -85 Z" /><glyph glyph-name="Alpha" unicode="&#x391;" d="M13 0 l251 705 l101 0 l254 -705 l-87 0 l-81 224 l-271 0 l-79 -224 l-88 0 ZM205 300 l219 0 l-109 318 l-110 -318 Z" /><glyph glyph-name="Beta" unicode="&#x392;" d="M183 410 l128 0 q49 0 83 22.5 q34 22.5 42 55 q8 32.5 0 65 q-8 32.5 -41.5 55 q-33.5 22.5 -83.5 22.5 l-128 0 l0 -220 ZM311 333 l-128 0 l0 -257 l128 0 q44 0 78.5 14 q34.5 14 52 37 q17.5 23 26 50 q8.5 27 0 54.5 q-8.5 27.5 -26.5 50.5 q-18 23 -52 37 q-34 14 -78 14 ZM517 519 q0 -86 -81 -142 q57 -28 85.5 -75 q28.5 -47 27.5 -101 q0 -100 -67.5 -150.5 q-67.5 -50.5 -171.5 -50.5 l-209 0 l0 704 l210 0 q87 0 146.5 -50.5 q59.5 -50.5 59.5 -134.5 Z" /><glyph glyph-name="Gamma" unicode="&#x393;" d="M473 700 l0 -71 l-291 0 l0 -629 l-80 0 l0 700 l371 0 Z" /><glyph glyph-name="Delta" unicode="&#x394;" d="M619 0 l-606 0 l251 705 l101 0 l254 -705 ZM315 618 l-191 -550 l384 0 l-193 550 Z" /><glyph glyph-name="Epsilon" unicode="&#x395;" d="M462 704 l0 -77 l-292 0 l0 -237 l288 0 l0 -77 l-288 0 l-1 -234 l293 0 l0 -78 l-375 0 l0 703 l375 0 Z" /><glyph glyph-name="Zeta" unicode="&#x396;" d="M58 0 l0 80 l273 406 l103 145 l-364 0 l0 74 l445 0 l0 -76 l-262 -392 l-116 -162 l378 0 l0 -75 l-457 0 Z" /><glyph glyph-name="Eta" unicode="&#x397;" d="M505 0 l0 312 l-321 0 l0 -312 l-83 0 l0 703 l83 0 l0 -317 l321 0 l0 317 l83 0 l0 -703 l-83 0 Z" /><glyph glyph-name="Theta" unicode="&#x398;" d="M158 606 q105 108 252 108 q147 0 252 -108 q105 -108 105 -257 q0 -149 -105 -256 q-105 -107 -252 -107 q-147 0 -252 107 q-105 107 -105 256 q0 149 105 257 ZM136 349 q0 -134 81.5 -210.5 q81.5 -76.5 192.5 -76.5 q111 0 192.5 76.5 q81.5 76.5 81.5 210.5 q0 134 -82.5 212 q-82.5 78 -192.5 77 q-110 -1 -191.5 -79 q-81.5 -78 -81.5 -210 ZM203 314 l0 71 l409 0 l0 -71 l-409 0 Z" /><glyph glyph-name="Iota" unicode="&#x399;" d="M101 0 l0 703 l82 0 l0 -703 l-82 0 Z" /><glyph glyph-name="Kappa" unicode="&#x39a;" d="M101 705 l83 0 l0 -348 l321 348 l91 0 l-281 -316 l292 -389 l-97 0 l-250 335 l-76 -76 l0 -259 l-83 0 l0 705 Z" /><glyph glyph-name="Lambda" unicode="&#x39b;" d="M262 705 l101 0 l253 -706 l-89 0 l-215 620 l-214 -620 l-87 0 l251 706 Z" /><glyph glyph-name="Mu" unicode="&#x39c;" d="M462 95 l-71 0 l-210 462 l0 -557 l-80 0 l0 704 l105 0 l220 -502 l219 502 l106 0 l0 -704 l-83 0 l0 552 l-206 -457 Z" /><glyph glyph-name="Nu" unicode="&#x39d;" d="M658 700 l0 -700 l-116 0 l-359 586 l0 -586 l-82 0 l0 700 l99 0 l376 -610 l0 610 l82 0 Z" /><glyph glyph-name="Xi" unicode="&#x39e;" d="M37 74 l462 0 l0 -74 l-462 0 l0 74 ZM493 627 l-450 0 l0 73 l450 0 l0 -73 ZM78 319 l0 69 l377 0 l0 -69 l-377 0 Z" /><glyph glyph-name="Omicron" unicode="&#x39f;" d="M158 606 q105 108 252 108 q147 0 252 -108 q105 -108 105 -257 q0 -149 -105 -256 q-105 -107 -252 -107 q-147 0 -252 107 q-105 107 -105 256 q0 149 105 257 ZM136 349 q0 -134 81.5 -210.5 q81.5 -76.5 192.5 -76.5 q111 0 192.5 76.5 q81.5 76.5 81.5 210.5 q0 134 -82.5 212 q-82.5 78 -192.5 77 q-110 -1 -191.5 -79 q-81.5 -78 -81.5 -210 Z" /><glyph glyph-name="Pi" unicode="&#x3a0;" d="M557 0 l-78 0 l0 633 l-297 0 l0 -633 l-80 0 l0 700 l455 0 l0 -700 Z" /><glyph glyph-name="Rho" unicode="&#x3a1;" d="M183 256 l0 -256 l-82 0 l0 703 l210 0 q111 0 173.5 -67.5 q62.5 -67.5 62.5 -158.5 q0 -91 -62 -156 q-62 -65 -173 -65 l-129 0 ZM311 332 q73 0 113.5 43.5 q40.5 43.5 40.5 101.5 q0 59 -41 104.5 q-41 45.5 -113 45.5 l-128 0 l0 -295 l128 0 Z" /><glyph glyph-name="Sigma" unicode="&#x3a3;" d="M329 374 l0 -29 l-187 -275 l367 0 l0 -70 l-437 0 l-36 44 l211 315 l-202 297 l31 44 l426 0 l0 -67 l-356 0 l183 -259 Z" /><glyph glyph-name="Tau" unicode="&#x3a4;" d="M10 702 l431 0 l0 -80 l-174 0 l0 -622 l-83 0 l0 622 l-174 0 l0 80 Z" /><glyph glyph-name="Upsilon" unicode="&#x3a5;" d="M574 705 l-240 -426 l0 -279 l-81 0 l0 279 q-34 60 -115.5 206.5 q-81.5 146.5 -123.5 219.5 l94 0 l186 -339 q13 23 81.5 148 q68.5 125 103.5 191 l95 0 Z" /><glyph glyph-name="Phi" unicode="&#x3a6;" d="M361 639 l0 64 l79 0 l0 -64 q74 -1 133.5 -26 q59.5 -25 96 -65 q36.5 -40 56.5 -91.5 q20 -51.5 19.5 -105 q-0.5 -53.5 -20.5 -104.5 q-20 -51 -56.5 -91.5 q-36.5 -40.5 -96 -66 q-59.5 -25.5 -132.5 -26.5 l0 -66 l-79 0 l0 66 q-75 1 -135 26 q-60 25 -97.5 65.5 q-37.5 40.5 -57.5 92 q-20 51.5 -20 104.5 q0 53 20.5 104.5 q20.5 51.5 57.5 92 q37 40.5 97 65.5 q60 25 135 26 ZM440 572 l0 -443 q72 2 125 35 q53 33 76.5 81.5 q23.5 48.5 23.5 105 q0 56.5 -24 105.5 q-24 49 -76.5 82 q-52.5 33 -124.5 34 ZM193 505.5 q-61 -66.5 -61 -153.5 q0 -87 62 -155 q62 -68 167 -68 l0 443 q-107 0 -168 -66.5 Z" /><glyph glyph-name="Chi" unicode="&#x3a7;" d="M615 700 l-239 -350 q38 -55 120 -174 q82 -119 120 -175 l-100 0 l-189 281 l-189 -281 l-101 0 l241 349 l-239 350 l99 0 l189 -277 q164 241 189 277 l99 0 Z" /><glyph glyph-name="Psi" unicode="&#x3a8;" d="M338 213 l0 487 l81 0 l0 -487 q103 9 153 68.5 q50 59.5 51 150.5 l0 268 l80 0 l0 -268 q0 -55 -16 -104 q-16 -49 -48 -90.5 q-32 -41.5 -88.5 -67 q-56.5 -25.5 -131.5 -28.5 l0 -142 l-81 0 l0 142 q-98 6 -164 49.5 q-66 43.5 -93 104.5 q-27 61 -28 135 l0 269 l80 0 l0 -268 q1 -87 52 -148 q51 -61 153 -71 Z" /><glyph glyph-name="Omega" unicode="&#x3a9;" d="M604.5 556.5 q-78.5 80.5 -199.5 80.5 q-121 0 -199.5 -80.5 q-78.5 -80.5 -78.5 -200.5 q0 -106 54 -179.5 q54 -73.5 149 -111.5 l-17 -65 l-284 0 l0 67 l183 0 q-75 31 -119 112 q-44 81 -44 177 q0 154 100 254.5 q100 100.5 256 100.5 q157 0 256 -100.5 q99 -100.5 99 -254.5 q0 -92 -46.5 -176.5 q-46.5 -84.5 -115.5 -113.5 l184 0 l0 -66 l-278 0 l-13 66 q94 44 143 113 q49 69 49 177 q0 120 -78.5 200.5 Z" /><glyph glyph-name="Iotadieresis" unicode="&#x3aa;" d="M101 0 l0 703 l82 0 l0 -703 l-82 0 ZM102 747 l-90 0 l0 83 l90 0 l0 -83 ZM275 747 l-90 0 l0 83 l90 0 l0 -83 Z" /><glyph glyph-name="Upsilondieresis" unicode="&#x3ab;" d="M574 705 l-240 -426 l0 -279 l-81 0 l0 279 q-34 60 -115.5 206.5 q-81.5 146.5 -123.5 219.5 l94 0 l186 -339 q13 23 81.5 148 q68.5 125 103.5 191 l95 0 ZM257 751 l-87 0 l0 81 l87 0 l0 -81 ZM424 751 l-87 0 l0 81 l87 0 l0 -81 Z" /><glyph glyph-name="alphatonos" unicode="&#x3ac;" d="M303 513 q35 -1 68.5 -17.5 q33.5 -16.5 49.5 -43.5 l12 55 l61 0 l0 -507 l-60 0 l-12 58 q-43 -64 -131 -64 q-105 0 -174.5 72 q-69.5 72 -69.5 185 q0 122 68.5 194 q68.5 72 187.5 68 ZM286 66 q49 -3 80.5 13.5 q31.5 16.5 53.5 55.5 l-1 252 q-55 53 -122 55 q-72 2 -123 -47 q-51 -49 -51 -141 q0 -82 42 -133 q42 -51 121 -55 ZM398 694 l-84 -115 l-60 0 l59 115 l85 0 Z" /><glyph glyph-name="epsilontonos" unicode="&#x3ad;" d="M61 371 q0 70 58 106.5 q58 36.5 131 36.5 q85 2 169 -62 l-37 -54 q-62 42 -132 42 q-43 -1 -77 -17.5 q-34 -16.5 -35 -51.5 q-1 -43 39 -60 q40 -17 97 -17 l49 0 l0 -63 l-46 0 q-143 0 -155 -81 q1 -40 37 -62.5 q36 -22.5 85 -21.5 q76 0 147 49 l42 -55 q-93 -67 -190 -67 q-83 0 -142.5 39.5 q-59.5 39.5 -56.5 119.5 q2 38 25 67 q23 29 65 44 q-37 12 -55 43 q-18 31 -18 65 ZM351 694 l-84 -115 l-60 0 l59 115 l85 0 Z" /><glyph glyph-name="etatonos" unicode="&#x3ae;" d="M81 507 l66 0 l10 -47 q48 53 133 54 q108 -2 179.5 -62.5 q71.5 -60.5 71.5 -167.5 l0 -284 l-78 0 l0 284 q-1 70 -50 112 q-49 42 -120 47 q-80 4 -135 -50 l0 -393 l-77 0 l0 507 ZM399 696 l-84 -115 l-60 0 l59 115 l85 0 Z" /><glyph glyph-name="iotatonos" unicode="&#x3af;" d="M220 66 l0 -67 q-75 1 -108 22.5 q-33 21.5 -33 93.5 l0 392 l79 0 l0 -392 q0 -28 13 -38.5 q13 -10.5 49 -10.5 ZM221 694 l-84 -115 l-60 0 l59 115 l85 0 Z" /><glyph glyph-name="upsilondieresistonos" unicode="&#x3b0;" d="M291 65 q61 0 100.5 38 q39.5 38 39.5 106 l0 298 l77 0 l0 -298 q1 -97 -60 -156.5 q-61 -59.5 -157 -59.5 q-92 0 -151 60.5 q-59 60.5 -58 155.5 l0 298 l77 0 l0 -298 q0 -67 37.5 -105.5 q37.5 -38.5 94.5 -38.5 ZM362 697 l-74 -108 l-56 0 l49 108 l81 0 ZM216 612 l-77 0 l0 85 l77 0 l0 -85 ZM459 612 l-77 0 l0 85 l77 0 l0 -85 Z" /><glyph glyph-name="alpha" unicode="&#x3b1;" d="M297 513 q37 -1 73 -16.5 q36 -15.5 51 -44.5 l12 55 l61 0 l0 -507 l-60 0 l-12 58 q-43 -64 -131 -64 q-105 0 -174.5 72 q-69.5 72 -69.5 185 q0 116 66.5 191 q66.5 75 183.5 71 ZM286 63 q49 -3 80.5 14.5 q31.5 17.5 53.5 57.5 l-1 252 q-39 55 -122 57 q-72 2 -123.5 -47.5 q-51.5 -49.5 -51.5 -141.5 q0 -83 43 -135.5 q43 -52.5 121 -56.5 Z" /><glyph glyph-name="beta" unicode="&#x3b2;" d="M160 525 l0 -448 l0 -273 l-81 0 l0 721 q0 83 60.5 133.5 q60.5 50.5 143.5 50.5 q83 0 141.5 -49 q58.5 -49 58.5 -131 q0 -42 -21.5 -82 q-21.5 -40 -61.5 -65 q58 -22 93 -72.5 q35 -50.5 34 -108.5 q1 -66 -28 -114.5 q-29 -48.5 -77 -70 q-48 -21.5 -108.5 -25.5 q-60.5 -4 -120.5 19 l0 76 q36 -20 96 -22 q63 -1 104.5 27 q41.5 28 50 69 q8.5 41 -2 82.5 q-10.5 41.5 -52 70.5 q-41.5 29 -100.5 29 l-59 0 l0 69 l59 0 q55 0 87 37.5 q32 37.5 29 82.5 q-4 47 -39.5 76 q-35.5 29 -83.5 29 q-49 0 -85.5 -29 q-36.5 -29 -36.5 -82 Z" /><glyph glyph-name="gamma" unicode="&#x3b3;" d="M16 437 l0 70 q62 2 88.5 -13.5 q26.5 -15.5 44.5 -65.5 l108 -327 l137 406 l79 0 l-180 -496 l2 -205 l-76 0 l2 205 l-147 397 l0 -1 q-7 16 -19 23.5 q-12 7.5 -39 6.5 Z" /><glyph glyph-name="delta" unicode="&#x3b4;" d="M557 238 q0 -60 -21 -102 q-34 -67 -95.5 -104.5 q-61.5 -37.5 -139.5 -37.5 q-53 1 -97 17 l1 0 q-74 29 -117 86 q-43 57 -43 141 q0 70 44.5 128.5 q44.5 58.5 122.5 78.5 q-52 11 -80.5 43.5 q-28.5 32.5 -28.5 68.5 q0 53 35 88.5 q35 35.5 80 48.5 q45 13 94 12 q94 -2 182 -52 l-39 -52 q-25 16 -70 26 q-45 10 -91 10.5 q-46 0.5 -79.5 -20 q-33.5 -20.5 -33.5 -61.5 q0 -62 131 -75 q95 -9 164 -71 q81 -72 81 -173 ZM480 238 q0 70 -51 122 q-51 52 -128 52 q-73 0 -125.5 -50 q-52.5 -50 -52.5 -124 q0 -75 49.5 -124.5 q49.5 -49.5 128.5 -49.5 q82 0 130.5 48 q48.5 48 48.5 126 Z" /><glyph glyph-name="epsilon" unicode="&#x3b5;" d="M382 107 l36 -57 q-86 -57 -175 -57 q-83 0 -142.5 39.5 q-59.5 39.5 -56.5 119.5 q2 38 25 67 q23 29 65 44 q-37 12 -55 43 q-18 31 -18 65 q0 70 58 106.5 q58 36.5 131 36.5 q75 2 153 -51 l-33 -55 q-31 27 -86 35 q-55 8 -100 -10.5 q-45 -18.5 -46 -61.5 q-1 -43 39 -60 q40 -17 97 -17 l49 0 l0 -63 l-46 0 q-32 0 -54.5 -2.5 q-22.5 -2.5 -48 -10.5 q-25.5 -8 -39 -26 q-13.5 -18 -13.5 -45 q0 -29 12 -47 q12 -18 33.5 -25 q21.5 -7 38 -8.5 q16.5 -1.5 39.5 -1.5 q69 0 137 42 Z" /><glyph glyph-name="zeta" unicode="&#x3b6;" d="M448 700 l0 -55 q-47 -41 -79.5 -71.5 q-32.5 -30.5 -84 -84 q-51.5 -53.5 -83.5 -97.5 q-32 -44 -56.5 -98 q-24.5 -54 -24.5 -99 q0 -64 65 -96 q45 -23 152 -57 q41 -13 63 -48 q22 -35 12 -75 q-6 -24 -63 -110 l-59 36 q43 61 46 88 q2 14 -6 25.5 q-8 11.5 -23 16.5 q-41 17 -61 23 q-75 23 -109 42 l1 0 q-95 55 -95 152 q0 70 49.5 156.5 q49.5 86.5 114.5 156 q65 69.5 142 131.5 l-290 0 l0 64 l389 0 Z" /><glyph glyph-name="eta" unicode="&#x3b7;" d="M81 507 l66 0 l10 -47 q48 53 133 54 q108 -2 179.5 -62.5 q71.5 -60.5 71.5 -167.5 l0 -284 l-78 0 l0 284 q-1 70 -50 112 q-49 42 -120 47 q-80 4 -135 -50 l0 -393 l-77 0 l0 507 Z" /><glyph glyph-name="theta" unicode="&#x3b8;" d="M561 347 q0 -74 -19 -145 q-38 -129 -137 -183 q-100 -55 -201 1 q-95 55 -134 185 l0 -1 q-21 60 -21 143 q0 143 75 255 q35 49 80 75 q49 26 101 26 q54 0 100 -26 q80 -46 118 -135.5 q38 -89.5 38 -194.5 ZM484 333 l-356 0 q-1 -42 8.5 -87 q9.5 -45 30 -86 q20.5 -41 56.5 -67.5 q36 -26.5 82 -26.5 q62 0 103.5 41.5 q41.5 41.5 57.5 98 q16 56.5 18 127.5 ZM130 399 l352 0 q-3 51 -22 102.5 q-19 51.5 -60 92 q-41 40.5 -95 40.5 q-52 0 -92 -39.5 q-40 -39.5 -59.5 -91 q-19.5 -51.5 -23.5 -104.5 Z" /><glyph glyph-name="iota" unicode="&#x3b9;" d="M220 66 l0 -67 q-75 1 -108 22.5 q-33 21.5 -33 93.5 l0 392 l79 0 l0 -392 q0 -28 13 -38.5 q13 -10.5 49 -10.5 Z" /><glyph glyph-name="kappa" unicode="&#x3ba;" d="M81 507 l76 0 l0 -241 l239 242 l94 0 l-223 -222 l231 -286 l-91 0 l-190 234 l-60 -54 l0 -180 l-76 0 l0 507 Z" /><glyph glyph-name="lambda" unicode="&#x3bb;" d="M89 632 l0 68 l34 0 q88 3 116 -78 l197 -522 q1 -2 3.5 -8 q2.5 -6 3 -7.5 q0.5 -1.5 2.5 -6 q2 -4.5 3.5 -5.5 q1.5 -1 4 -4 q2.5 -3 5 -3.5 q2.5 -0.5 6 -2.5 q3.5 -2 8 -2 q4.5 0 9.5 -0.5 q5 -0.5 12 -0.5 l0 -60 q-60 -1 -84.5 14.5 q-24.5 15.5 -40.5 62.5 l-118 315 q-31 -75 -88.5 -221.5 q-57.5 -146.5 -66.5 -170.5 l-83 0 l198 481 l-37 116 q-20 39 -84 35 Z" /><glyph glyph-name="nu" unicode="&#x3bd;" d="M100 509 l120 -338 q11 -28 22 -96 l6 0 q9 65 21 96 l119 338 l84 0 l-181 -511 l-94 0 l-181 511 l84 0 Z" /><glyph glyph-name="xi" unicode="&#x3be;" d="M310 -31 l-35 12 q-41 14 -66 24 q-25 10 -60 29.5 q-35 19.5 -55 40.5 q-20 21 -34.5 54 q-14.5 33 -14.5 72 q0 52 27.5 98 q27.5 46 84.5 70 q-47 17 -71 57.5 q-24 40.5 -24 84.5 q1 85 59.5 141 q58.5 56 150.5 56 q77 0 156 -51 l-39 -48 q-53 33 -116 33 q-60 0 -97.5 -36.5 q-37.5 -36.5 -36.5 -94.5 q2 -45 36 -76 q34 -31 82 -32 l106 0 l0 -64 l-106 0 q-60 -1 -98.5 -39.5 q-38.5 -38.5 -38.5 -95.5 q0 -35 17 -62 q17 -27 50 -46.5 q33 -19.5 61.5 -31 q28.5 -11.5 71.5 -24.5 q23 -8 36 -14 q13 -6 29.5 -16.5 q16.5 -10.5 24.5 -25 q8 -14.5 8 -32.5 q0 -23 -12.5 -49.5 q-12.5 -26.5 -23 -40.5 q-10.5 -14 -33.5 -42 l-52 36 q4 5 12.5 15 q8.5 10 12 14.5 q3.5 4.5 9.5 13 q6 8.5 8 13 q2 4.5 4 12 q2 7.5 0 12.5 q-2 5 -5 11 q-3 6 -10.5 11.5 q-7.5 5.5 -17.5 10.5 Z" /><glyph glyph-name="omicron" unicode="&#x3bf;" d="M123 253 q0 -94 52.5 -145 q52.5 -51 126.5 -51 q75 0 127.5 51 q52.5 51 52.5 145 q0 93 -52.5 143.5 q-52.5 50.5 -127.5 50.5 q-74 0 -126.5 -50.5 q-52.5 -50.5 -52.5 -143.5 ZM487.5 441.5 q72.5 -75.5 72.5 -188.5 q0 -113 -72.5 -189 q-72.5 -76 -185.5 -76 q-113 0 -185 76 q-72 76 -72 189 q0 112 72 188 q72 76 185 76 q113 0 185.5 -75.5 Z" /><glyph glyph-name="pi" unicode="&#x3c0;" d="M82 507 l410 0 l0 -507 l-79 0 l0 441 l-253 0 l0 -441 l-78 0 l0 507 Z" /><glyph glyph-name="rho" unicode="&#x3c1;" d="M318 -5 q-55 2 -93 21.5 q-38 19.5 -72 78.5 l1 -290 l-75 0 l0 454 q2 103 64.5 179 q62.5 76 174.5 77 q112 -1 174.5 -75.5 q62.5 -74.5 63.5 -180.5 q2 -110 -60 -186.5 q-62 -76.5 -178 -77.5 ZM324 444 l-15 0 q-69 0 -113 -62.5 q-44 -62.5 -41 -131.5 l0 -4 q1 -68 46 -123.5 q45 -55.5 122 -55.5 q68 0 111.5 52.5 q43.5 52.5 44.5 126.5 q2 80 -39.5 139 q-41.5 59 -115.5 59 Z" /><glyph glyph-name="sigma1" unicode="&#x3c2;" d="M481 449 l-43 -53 q-55 52 -135 52 q-72 1 -125.5 -54 q-53.5 -55 -54.5 -142 q0 -76 48 -133 q48 -57 133 -57 q77 0 138 56 l44 -53 q-75 -73 -182 -73 q-122 0 -190.5 77.5 q-68.5 77.5 -68.5 184.5 q1 107 70 185.5 q69 78.5 189 79.5 q106 0 177 -70 Z" /><glyph glyph-name="sigma" unicode="&#x3c3;" d="M563 254 q0 -116 -72 -190.5 q-72 -74.5 -186 -74.5 q-115 0 -188.5 74 q-73.5 74 -73.5 191 q0 112 74.5 186.5 q74.5 74.5 187.5 74.5 l291 0 l0 -62 l-146 0 q60 -27 86.5 -81 q26.5 -54 26.5 -118 ZM121 254 q0 -63 27 -109 q27 -46 67.5 -67 q40.5 -21 87.5 -21 q47 0 87.5 20.5 q40.5 20.5 67.5 67 q27 46.5 27 109.5 q0 61 -27 105.5 q-27 44.5 -67.5 65 q-40.5 20.5 -87.5 20.5 q-47 0 -87.5 -20 q-40.5 -20 -67.5 -65 q-27 -45 -27 -106 Z" /><glyph glyph-name="tau" unicode="&#x3c4;" d="M302 62 l0 -63 q-85 -2 -128 30.5 q-43 32.5 -46 107.5 l0 310 l-107 0 l0 60 l309 0 l0 -60 l-123 0 l0 -310 q0 -39 23 -56.5 q23 -17.5 72 -18.5 Z" /><glyph glyph-name="upsilon" unicode="&#x3c5;" d="M291 65 q61 0 100.5 38 q39.5 38 39.5 106 l0 298 l77 0 l0 -298 q1 -97 -60 -156.5 q-61 -59.5 -157 -59.5 q-92 0 -151 60.5 q-59 60.5 -58 155.5 l0 298 l77 0 l0 -298 q0 -67 37.5 -105.5 q37.5 -38.5 94.5 -38.5 Z" /><glyph glyph-name="phi" unicode="&#x3c6;" d="M124 254 q0 -79 49.5 -135 q49.5 -56 125.5 -62 l0 456 q315 7 328 -259 q-2 -151 -118 -222 q-48 -29 -133 -38 l0 -172 l-77 0 l0 171 q-111 3 -181.5 77 q-70.5 74 -70.5 184 q0 155 160 245 l34 -54 q-117 -69 -117 -191 ZM376 444 l0 -386 q81 6 127 57 q46 51 46 139 q0 82 -46.5 133.5 q-46.5 51.5 -126.5 56.5 Z" /><glyph glyph-name="chi" unicode="&#x3c7;" d="M255 306 l133 202 l95 0 l-178 -255 l180 -254 l-88 0 l-142 206 l-141 -206 l-89 0 l179 254 l-177 255 l95 0 l133 -202 Z" /><glyph glyph-name="psi" unicode="&#x3c8;" d="M323 60 l0 462 l75 0 l0 -462 q77 3 127 59 q50 56 49 134 l0 254 l76 0 l0 -253 q-2 -150 -116 -221 q-42 -28 -136 -37 l0 -182 l-75 0 l0 182 q-90 9 -134 37 q-59 35 -88.5 93 q-29.5 58 -29.5 128 l0 253 l77 0 l0 -253 q-1 -80 48 -136 q49 -56 127 -58 Z" /><glyph glyph-name="omega" unicode="&#x3c9;" d="M509 452 l16 62 q92 -15 138 -89 q46 -74 46 -170 q0 -104 -51 -181.5 q-51 -77.5 -143 -78.5 q-22 0 -44 5 q-30 9 -55 34 q-25 25 -37 62 q-11 -38 -37 -63 q-26 -25 -56 -33 q-20 -5 -43 -5 q-92 1 -142 77 q-50 76 -50 183 q0 98 46.5 169 q46.5 71 135.5 90 l15 -63 q-45 -10 -74 -44.5 q-29 -34.5 -38.5 -72 q-9.5 -37.5 -9.5 -81.5 q0 -79 30.5 -131.5 q30.5 -52.5 86.5 -53.5 q46 0 73.5 34 q27.5 34 27.5 81 l0 196 l71 0 l0 -196 q3 -51 28 -82.5 q25 -31.5 73 -31.5 l-1 0 q57 1 87.5 53 q30.5 52 30.5 131 q0 44 -10.5 82.5 q-10.5 38.5 -39.5 72.5 q-29 34 -74 44 ZM5 161 l0 1 l0 -1 Z" /><glyph glyph-name="iotadieresis" unicode="&#x3ca;" d="M220 -1 l0 67 q-36 0 -49 10.5 q-13 10.5 -13 38.5 l0 392 l-79 0 l0 -392 q0 -72 33 -93.5 q33 -21.5 108 -22.5 ZM84 623 l-81 0 l0 71 l81 0 l0 -71 ZM239 623 l-81 0 l0 71 l81 0 l0 -71 Z" /><glyph glyph-name="upsilondieresis" unicode="&#x3cb;" d="M291 65 q-57 0 -94.5 38.5 q-37.5 38.5 -37.5 105.5 l0 298 l-77 0 l0 -298 q-1 -95 58 -155.5 q59 -60.5 151 -60.5 q96 0 157 59.5 q61 59.5 60 156.5 l0 298 l-77 0 l0 -298 q0 -68 -39.5 -106 q-39.5 -38 -100.5 -38 ZM263 623 l-81 0 l0 71 l81 0 l0 -71 ZM418 623 l-81 0 l0 71 l81 0 l0 -71 Z" /><glyph glyph-name="omicrontonos" unicode="&#x3cc;" d="M123 253 q0 -94 52.5 -145 q52.5 -51 126.5 -51 q75 0 127.5 51 q52.5 51 52.5 145 q0 93 -52.5 143.5 q-52.5 50.5 -127.5 50.5 q-74 0 -126.5 -50.5 q-52.5 -50.5 -52.5 -143.5 ZM487.5 441.5 q72.5 -75.5 72.5 -188.5 q0 -113 -72.5 -189 q-72.5 -76 -185.5 -76 q-113 0 -185 76 q-72 76 -72 189 q0 112 72 188 q72 76 185 76 q113 0 185.5 -75.5 ZM414 694 l-75 -112 l-67 0 l59 112 l83 0 Z" /><glyph glyph-name="upsilontonos" unicode="&#x3cd;" d="M291 65 q61 0 100.5 38 q39.5 38 39.5 106 l0 298 l77 0 l0 -298 q1 -97 -60 -156.5 q-61 -59.5 -157 -59.5 q-92 0 -151 60.5 q-59 60.5 -58 155.5 l0 298 l77 0 l0 -298 q0 -67 37.5 -105.5 q37.5 -38.5 94.5 -38.5 ZM404 693 l-82 -112 l-65 0 l63 112 l84 0 Z" /><glyph glyph-name="omegatonos" unicode="&#x3ce;" d="M509 452 l16 62 q92 -15 138 -89 q46 -74 46 -170 q0 -104 -51 -181.5 q-51 -77.5 -143 -78.5 q-22 0 -44 5 q-30 9 -55 34 q-25 25 -37 62 q-11 -38 -37 -63 q-26 -25 -56 -33 q-20 -5 -43 -5 q-92 1 -142 77 q-50 76 -50 183 q0 98 46.5 169 q46.5 71 135.5 90 l15 -63 q-45 -10 -74 -44.5 q-29 -34.5 -38.5 -72 q-9.5 -37.5 -9.5 -81.5 q0 -79 30.5 -131.5 q30.5 -52.5 86.5 -53.5 q46 0 73.5 34 q27.5 34 27.5 81 l0 196 l71 0 l0 -196 q3 -51 28 -82.5 q25 -31.5 73 -31.5 l-1 0 q57 1 87.5 53 q30.5 52 30.5 131 q0 44 -10.5 82.5 q-10.5 38.5 -39.5 72.5 q-29 34 -74 44 ZM496 696 l-79 -108 l-69 0 l61 108 l87 0 Z" /><glyph glyph-name="afii10023" unicode="&#x401;" d="M467 701 l0 -74 l-292 0 l0 -237 l288 0 l0 -75 l-288 0 l-1 -240 l293 0 l0 -74 l-375 0 l0 700 l375 0 ZM253 769 l-85 0 l0 75 l85 0 l0 -75 ZM416 769 l-85 0 l0 75 l85 0 l0 -75 Z" /><glyph glyph-name="afii10051" unicode="&#x402;" d="M375 -1 l0 64 q79 7 118 39.5 q39 32.5 39 112.5 l0 72 q4 54 -22.5 94 q-26.5 40 -67 56.5 q-40.5 16.5 -88.5 10.5 q-48 -6 -85 -37 l0 -411 l-80 0 l0 635 l-175 0 l0 65 l430 0 l0 -65 l-174 0 l0 -152 q43 25 93 31 q50 6 95 -9 q45 -15 81.5 -43.5 q36.5 -28.5 56.5 -74.5 q20 -46 17 -100 l0 -72 q1 -107 -61 -160 q-62 -53 -177 -56 Z" /><glyph glyph-name="afii10052" unicode="&#x403;" d="M473 700 l0 -71 l-291 0 l0 -629 l-80 0 l0 700 l371 0 ZM402 862 l-84 -115 l-60 0 l59 115 l85 0 Z" /><glyph glyph-name="afii10053" unicode="&#x404;" d="M486 384 l0 -66 l-350 0 q11 -107 86 -179.5 q75 -72.5 187 -72.5 q57 0 114.5 29 q57.5 29 99.5 80 l56 -45 q-54 -65 -124 -101.5 q-70 -36.5 -146 -36.5 q-160 0 -257.5 103 q-97.5 103 -97.5 252 q0 96 40 176.5 q40 80.5 122.5 132 q82.5 51.5 192.5 51.5 q145 0 255 -118 l-54 -47 q-89 92 -201 92 q-111 0 -186 -69 q-75 -69 -86 -181 l349 0 Z" /><glyph glyph-name="afii10054" unicode="&#x405;" d="M143 526 q-2 -31 10 -54 q12 -23 37.5 -37.5 q25.5 -14.5 44 -21 q18.5 -6.5 48.5 -14.5 q37 -9 64.5 -19 q27.5 -10 58 -28 q30.5 -18 49.5 -40.5 q19 -22.5 30.5 -58 q11.5 -35.5 9.5 -80.5 q-4 -90 -71.5 -138.5 q-67.5 -48.5 -155.5 -48.5 q-71 0 -133.5 39.5 q-62.5 39.5 -89.5 110.5 l65 35 q20 -50 63.5 -80.5 q43.5 -30.5 96.5 -30.5 q62 -1 101.5 31 q39.5 32 43.5 87 q2 36 -10.5 62.5 q-12.5 26.5 -39.5 43 q-27 16.5 -48.5 25 q-21.5 8.5 -54.5 17.5 q-42 11 -72 23.5 q-30 12.5 -62.5 35.5 q-32.5 23 -49 59.5 q-16.5 36.5 -15.5 85.5 q3 90 64.5 139.5 q61.5 49.5 144.5 49.5 q70 0 127.5 -36 q57.5 -36 81.5 -101 l-63 -31 q-18 45 -58.5 69.5 q-40.5 24.5 -85.5 24.5 q-52 1 -89.5 -29.5 q-37.5 -30.5 -41.5 -89.5 Z" /><glyph glyph-name="afii10055" unicode="&#x406;" d="M101 0 l0 701 l82 0 l0 -701 l-82 0 Z" /><glyph glyph-name="afii10056" unicode="&#x407;" d="M101 0 l0 701 l82 0 l0 -701 l-82 0 ZM102 749 l-85 0 l0 75 l85 0 l0 -75 ZM265 749 l-85 0 l0 75 l85 0 l0 -75 Z" /><glyph glyph-name="afii10057" unicode="&#x408;" d="M34 166 l76 16 q9 -46 39.5 -76.5 q30.5 -30.5 68 -37 q37.5 -6.5 73.5 2 q36 8.5 60.5 42.5 q24.5 34 24.5 83 l0 426 l-132 0 l0 78 l215 0 l0 -504 q0 -64 -28 -111.5 q-28 -47.5 -70.5 -71 q-42.5 -23.5 -94.5 -26.5 q-52 -3 -99 15 q-47 18 -84 60.5 q-37 42.5 -49 103.5 Z" /><glyph glyph-name="afii10058" unicode="&#x409;" d="M502 700 l0 -282 l117 0 q107 0 167.5 -62.5 q60.5 -62.5 60.5 -146.5 q0 -84 -60.5 -146.5 q-60.5 -62.5 -168.5 -62.5 l-197 0 l0 635 l-197 0 l-6 -284 q-3 -125 -14 -174 q-31 -126 -160 -194 l-34 60 q43 27 69.5 55.5 q26.5 28.5 38.5 67 q12 38.5 15.5 69.5 q3.5 31 5.5 88 l8 377 l355 0 ZM618 354 l-116 0 l0 -290 l116 0 q69 0 108.5 44.5 q39.5 44.5 39.5 101.5 q0 57 -39.5 100.5 q-39.5 43.5 -108.5 43.5 Z" /><glyph glyph-name="afii10059" unicode="&#x40a;" d="M516 700 l0 -300 l118 0 q108 0 167.5 -58 q59.5 -58 59.5 -139 q0 -82 -60 -142.5 q-60 -60.5 -168 -60.5 l-197 0 l0 331 l-255 0 l0 -331 l-81 0 l0 700 l81 0 l0 -300 l255 0 l0 300 l80 0 ZM633 331 l-117 0 l0 -267 l117 0 q68 0 108.5 42.5 q40.5 42.5 40.5 96.5 q0 52 -40 90 q-40 38 -109 38 Z" /><glyph glyph-name="afii10060" unicode="&#x40b;" d="M613 0 l-81 0 l0 287 q4 53 -22.5 92.5 q-26.5 39.5 -67 55 q-40.5 15.5 -88.5 9.5 q-48 -6 -85 -37 l0 -407 l-80 0 l0 635 l-175 0 l0 65 l430 0 l0 -65 l-174 0 l0 -152 q43 25 93 31 q50 6 95 -9 q45 -15 81.5 -43.5 q36.5 -28.5 56.5 -74.5 q20 -46 17 -100 l0 -287 Z" /><glyph glyph-name="afii10061" unicode="&#x40c;" d="M101 701 l83 0 l0 -344 l314 344 l98 0 l-281 -312 l292 -389 l-97 0 l-250 335 l-76 -76 l0 -259 l-83 0 l0 701 ZM442 862 l-84 -115 l-60 0 l59 115 l85 0 Z" /><glyph glyph-name="afii10062" unicode="&#x40e;" d="M96 700 l190 -399 l170 399 l86 0 l-268 -608 q-28 -61 -61.5 -76.5 q-33.5 -15.5 -122.5 -15.5 l-1 67 l39 0 q30 0 46 12 q16 12 31 42 l40 93 l-236 486 l87 0 ZM380 773 q-37 -30 -90 -30 q-53 0 -89.5 30 q-36.5 30 -36.5 83 l61 0 q0 -28 20 -42.5 q20 -14.5 45 -14.5 q24 0 43.5 14.5 q19.5 14.5 19.5 42.5 l64 0 q0 -53 -37 -83 Z" /><glyph glyph-name="afii10145" unicode="&#x40f;" d="M290 -120 l0 120 l-189 0 l0 700 l80 0 l0 -633 l295 0 l0 633 l80 0 l0 -700 l-191 0 l0 -120 l-75 0 Z" /><glyph glyph-name="bgA" unicode="&#x410;" d="M13 0 l251 705 l101 0 l254 -705 l-87 0 l-81 224 l-271 0 l-79 -224 l-88 0 ZM205 300 l219 0 l-109 318 l-110 -318 Z" /><glyph glyph-name="afii10018" unicode="&#x411;" d="M182 632 l0 -202 l118 0 q50 0 91.5 -14.5 q41.5 -14.5 68 -39.5 q26.5 -25 45 -57 q18.5 -32 22.5 -68 q4 -36 0 -71.5 q-4 -35.5 -23 -67.5 q-19 -32 -45.5 -57 q-26.5 -25 -68 -40 q-41.5 -15 -90.5 -15 l-200 0 l0 700 l380 0 l0 -68 l-298 0 ZM300 358 l-118 0 l0 -288 l118 0 q47 1 82 22.5 q35 21.5 51 53.5 q16 32 16.5 69 q0.5 37 -15 68.5 q-15.5 31.5 -51 53 q-35.5 21.5 -83.5 21.5 Z" /><glyph glyph-name="afii10019" unicode="&#x412;" d="M183 410 l128 0 q49 0 83 22.5 q34 22.5 42 55 q8 32.5 0 65 q-8 32.5 -41.5 55 q-33.5 22.5 -83.5 22.5 l-128 0 l0 -220 ZM311 333 l-128 0 l0 -257 l128 0 q44 0 78.5 14 q34.5 14 52 37 q17.5 23 26 50 q8.5 27 0 54.5 q-8.5 27.5 -26.5 50.5 q-18 23 -52 37 q-34 14 -78 14 ZM517 519 q0 -86 -81 -142 q57 -28 85.5 -75 q28.5 -47 27.5 -101 q0 -100 -67.5 -150.5 q-67.5 -50.5 -171.5 -50.5 l-209 0 l0 704 l210 0 q87 0 146.5 -50.5 q59.5 -50.5 59.5 -134.5 Z" /><glyph glyph-name="afii10020" unicode="&#x413;" d="M473 700 l0 -71 l-291 0 l0 -629 l-80 0 l0 700 l371 0 Z" /><glyph glyph-name="afii10021" unicode="&#x414;" d="M580 68 l45 0 l0 -217 l-71 0 l0 149 l-455 0 l0 -149 l-69 0 l0 207 l48 10 q26 21 42.5 62.5 q16.5 41.5 21.5 74 q5 32.5 9 81.5 l0 -1 l27 415 l402 0 l0 -632 ZM161 68 l340 0 l0 567 l-251 0 l-16 -280 q-3 -61 -5.5 -92 q-2.5 -31 -9.5 -74.5 q-7 -43.5 -21.5 -72 q-14.5 -28.5 -36.5 -48.5 Z" /><glyph glyph-name="afii10022" unicode="&#x415;" d="M472 702 l0 -75 l-292 0 l0 -240 l288 0 l0 -74 l-288 0 l-1 -237 l293 0 l0 -75 l-375 0 l0 701 l375 0 Z" /><glyph glyph-name="afii10024" unicode="&#x416;" d="M387 700 l75 0 l0 -313 l271 313 l96 0 l-277 -314 l286 -386 l-93 0 l-247 336 l-36 -41 l0 -295 l-75 0 l0 294 l-36 42 l-250 -336 l-93 0 l290 386 l-278 314 l97 0 l270 -313 l0 313 Z" /><glyph glyph-name="afii10025" unicode="&#x417;" d="M26 125 l59 39 q34 -57 74.5 -79 q40.5 -22 95.5 -22 q65 0 106 37.5 q41 37.5 41 106.5 q0 53 -40 92 q-40 39 -93 40 l-104 0 l0 63 l104 0 q44 0 80.5 35 q36.5 35 36.5 82 q-2 55 -38 87 q-36 32 -82 36 q-46 4 -92.5 -17.5 q-46.5 -21.5 -69.5 -63.5 l-54 35 q74 113 203 113 q85 0 148.5 -50 q63.5 -50 63.5 -140 q0 -46 -25.5 -89 q-25.5 -43 -74.5 -60 q57 -16 87 -61 q30 -45 30 -103 q0 -98 -66 -157.5 q-66 -59.5 -162 -58.5 q-158 2 -228 135 Z" /><glyph glyph-name="afii10026" unicode="&#x418;" d="M88 0 l0 700 l82 0 l0 -610 l376 610 l99 0 l0 -700 l-82 0 l0 586 l-359 -586 l-116 0 Z" /><glyph glyph-name="afii10027" unicode="&#x419;" d="M88 0 l0 700 l82 0 l0 -610 l376 610 l99 0 l0 -700 l-82 0 l0 586 l-359 -586 l-116 0 ZM459 773 q-37 -30 -90 -30 q-53 0 -89.5 30 q-36.5 30 -36.5 83 l61 0 q0 -28 20 -42.5 q20 -14.5 45 -14.5 q24 0 43.5 14.5 q19.5 14.5 19.5 42.5 l64 0 q0 -53 -37 -83 Z" /><glyph glyph-name="afii10028" unicode="&#x41a;" d="M101 701 l83 0 l0 -344 l314 344 l98 0 l-281 -312 l292 -389 l-97 0 l-250 335 l-76 -76 l0 -259 l-83 0 l0 701 Z" /><glyph glyph-name="afii10029" unicode="&#x41b;" d="M134 328 l16 373 l383 0 l0 -701 l-79 0 l0 635 l-231 0 l-11 -305 q-1 -46 -3.5 -75.5 q-2.5 -29.5 -12.5 -72.5 q-10 -43 -27.5 -73.5 q-17.5 -30.5 -50.5 -63.5 q-33 -33 -80 -58 l-36 59 q36 22 61 48.5 q25 26.5 38 49 q13 22.5 20.5 58 q7.5 35.5 9 58.5 q1.5 23 3.5 68 Z" /><glyph glyph-name="afii10030" unicode="&#x41c;" d="M462 95 l-71 0 l-210 462 l0 -557 l-80 0 l0 704 l105 0 l220 -502 l219 502 l106 0 l0 -704 l-83 0 l0 552 l-206 -457 Z" /><glyph glyph-name="afii10031" unicode="&#x41d;" d="M505 0 l0 312 l-321 0 l0 -312 l-83 0 l0 703 l83 0 l0 -317 l321 0 l0 317 l83 0 l0 -703 l-83 0 Z" /><glyph glyph-name="afii10032" unicode="&#x41e;" d="M158 606 q105 108 252 108 q147 0 252 -108 q105 -108 105 -257 q0 -149 -105 -256 q-105 -107 -252 -107 q-147 0 -252 107 q-105 107 -105 256 q0 149 105 257 ZM136 349 q0 -134 81.5 -210.5 q81.5 -76.5 192.5 -76.5 q111 0 192.5 76.5 q81.5 76.5 81.5 210.5 q0 134 -82.5 212 q-82.5 78 -192.5 77 q-110 -1 -191.5 -79 q-81.5 -78 -81.5 -210 Z" /><glyph glyph-name="afii10033" unicode="&#x41f;" d="M557 0 l-80 0 l0 633 l-295 0 l0 -633 l-80 0 l0 700 l455 0 l0 -700 Z" /><glyph glyph-name="afii10034" unicode="&#x420;" d="M183 256 l0 -256 l-82 0 l0 703 l210 0 q111 0 173.5 -67.5 q62.5 -67.5 62.5 -158.5 q0 -91 -62 -156 q-62 -65 -173 -65 l-129 0 ZM311 332 q73 0 113.5 43.5 q40.5 43.5 40.5 101.5 q0 59 -41 104.5 q-41 45.5 -113 45.5 l-128 0 l0 -295 l128 0 Z" /><glyph glyph-name="afii10035" unicode="&#x421;" d="M664 607 l-53 -55 q-85 88 -201 85 q-128 -2 -201 -87.5 q-73 -85.5 -73 -201.5 q0 -115 73.5 -199.5 q73.5 -84.5 200.5 -84.5 q62 0 119.5 27 q57.5 27 97.5 74 l58 -48 q-50 -60 -122 -94.5 q-72 -34.5 -153 -34.5 q-112 0 -195 53 q-83 53 -122.5 133 q-39.5 80 -39.5 174 q0 94 39.5 175.5 q39.5 81.5 123 135.5 q83.5 54 194.5 54 q150 0 254 -106 Z" /><glyph glyph-name="afii10036" unicode="&#x422;" d="M10 702 l431 0 l0 -80 l-174 0 l0 -622 l-83 0 l0 622 l-174 0 l0 80 Z" /><glyph glyph-name="afii10037" unicode="&#x423;" d="M96 700 l190 -399 l170 399 l86 0 l-268 -608 q-28 -61 -61.5 -76.5 q-33.5 -15.5 -122.5 -15.5 l-1 67 l39 0 q30 0 46 12 q16 12 31 42 l40 93 l-236 486 l87 0 Z" /><glyph glyph-name="afii10038" unicode="&#x424;" d="M361 639 l0 64 l79 0 l0 -64 q74 -1 133.5 -26 q59.5 -25 96 -65 q36.5 -40 56.5 -91.5 q20 -51.5 19.5 -105 q-0.5 -53.5 -20.5 -104.5 q-20 -51 -56.5 -91.5 q-36.5 -40.5 -96 -66 q-59.5 -25.5 -132.5 -26.5 l0 -66 l-79 0 l0 66 q-75 1 -135 26 q-60 25 -97.5 65.5 q-37.5 40.5 -57.5 92 q-20 51.5 -20 104.5 q0 53 20.5 104.5 q20.5 51.5 57.5 92 q37 40.5 97 65.5 q60 25 135 26 ZM440 572 l0 -443 q72 2 125 35 q53 33 76.5 81.5 q23.5 48.5 23.5 105 q0 56.5 -24 105.5 q-24 49 -76.5 82 q-52.5 33 -124.5 34 ZM193 505.5 q-61 -66.5 -61 -153.5 q0 -87 62 -155 q62 -68 167 -68 l0 443 q-107 0 -168 -66.5 Z" /><glyph glyph-name="afii10039" unicode="&#x425;" d="M615 700 l-239 -350 l240 -349 l-95 0 l-194 289 l-195 -289 l-95 0 l241 349 l-239 350 l96 0 l192 -286 l193 286 l95 0 Z" /><glyph glyph-name="afii10040" unicode="&#x426;" d="M556 68 l46 0 l0 -216 l-74 0 l0 148 l-427 0 l0 700 l80 0 l0 -632 l293 0 l0 632 l82 0 l0 -632 Z" /><glyph glyph-name="afii10041" unicode="&#x427;" d="M523 700 l0 -700 l-79 0 l0 265 q-51 -16 -116 -16 q-111 0 -186.5 55 q-75.5 55 -75.5 163 l0 233 l80 0 l0 -233 q0 -72 54.5 -111.5 q54.5 -39.5 130.5 -39.5 q54 0 113 19 l0 365 l79 0 Z" /><glyph glyph-name="afii10042" unicode="&#x428;" d="M106 700 l81 0 l0 -632 l271 0 l0 632 l81 0 l0 -632 l271 0 l0 632 l81 0 l0 -700 l-785 0 l0 700 Z" /><glyph glyph-name="afii10043" unicode="&#x429;" d="M101 700 l80 0 l0 -632 l271 0 l0 632 l81 0 l0 -632 l271 0 l0 632 l82 0 l0 -632 l52 0 l0 -216 l-78 0 l0 148 l-759 0 l0 700 Z" /><glyph glyph-name="afii10044" unicode="&#x42a;" d="M350 356 l-115 0 l0 -288 l115 0 q48 1 83 22.5 q35 21.5 50.5 53 q15.5 31.5 15.5 68 q0 36.5 -16 68 q-16 31.5 -51 53.5 q-35 22 -82 23 ZM235 700 l0 -278 l116 0 q107 0 166.5 -62.5 q59.5 -62.5 59.5 -148.5 q0 -86 -59.5 -148.5 q-59.5 -62.5 -167.5 -62.5 l-195 0 l0 635 l-139 0 l0 65 l219 0 Z" /><glyph glyph-name="afii10045" unicode="&#x42b;" d="M298 350 l-115 0 l0 -278 l115 0 q69 1 107.5 42 q38.5 41 38.5 97 q0 56 -38.5 97 q-38.5 41 -107.5 42 ZM183 700 l0 -278 l116 0 q106 0 166 -63 q60 -63 60 -148 q0 -85 -60 -148 q-60 -63 -167 -63 l-196 0 l0 700 l81 0 ZM638 0 l0 700 l83 0 l0 -700 l-83 0 Z" /><glyph glyph-name="afii10046" unicode="&#x42c;" d="M296 354 l-116 0 l0 -285 l116 0 q69 1 107.5 43.5 q38.5 42.5 38.5 98.5 q0 56 -39 99 q-39 43 -107 44 ZM180 700 l0 -278 l117 0 q106 0 166 -63 q60 -63 60 -148 q0 -85 -60 -148 q-60 -63 -167 -63 l-197 0 l0 700 l81 0 Z" /><glyph glyph-name="afii10047" unicode="&#x42d;" d="M230 318 l0 66 l349 0 q-11 112 -86 181 q-75 69 -186 69 q-112 0 -201 -92 l-54 47 q110 118 255 118 q110 0 192.5 -51.5 q82.5 -51.5 122.5 -132 q40 -80.5 40 -176.5 q0 -149 -97.5 -252 q-97.5 -103 -257.5 -103 q-76 0 -146 36.5 q-70 36.5 -124 101.5 l56 45 q42 -51 99.5 -80 q57.5 -29 114.5 -29 q112 0 187 72.5 q75 72.5 86 179.5 l-350 0 Z" /><glyph glyph-name="afii10048" unicode="&#x42e;" d="M640 710 q158 -2 257 -103.5 q99 -101.5 99 -258.5 q0 -57 -12 -110 q-12 -40 -43 -90 q-21 -34 -61 -72 q-48 -36 -73 -49 q-31 -16 -83 -30 q-38 -9 -84 -9 q-51 0 -99 15 q-75 22 -139.5 81 q-64.5 59 -93.5 132 q-15 36 -20 97 l-106 0 l0 -313 l-81 0 l0 700 l81 0 l0 -315 l106 0 q20 140 102 227 q101 98 250 98 ZM640 637 q-113 0 -193 -80 q-77 -79 -79 -209 q2 -61 17 -102 q21 -61 68.5 -106.5 q47.5 -45.5 109.5 -66.5 l-1 0 q37 -11 78 -11 q42 0 79 11 l-1 0 q45 14 76 36 l-1 0 q42 28 64 55 q28 35 43 78 q15 53 15 106 q0 124 -76.5 206 q-76.5 82 -198.5 83 Z" /><glyph glyph-name="afii10049" unicode="&#x42f;" d="M44 0 l208 290 q-101 7 -149 60 q-48 53 -47 145 q1 98 63 151.5 q62 53.5 164 53.5 l212 0 l0 -700 l-80 0 l0 287 l-80 0 l-198 -287 l-93 0 ZM288 355 l127 0 l0 275 l-131 0 q-67 0 -108.5 -35 q-41.5 -35 -41.5 -100 q0 -140 154 -140 Z" /><glyph glyph-name="bga" unicode="&#x430;" d="M418 239 q-51 33 -128 33 q-101 0 -144.5 -53.5 q-43.5 -53.5 -4.5 -107 q39 -53.5 139 -53.5 q37 0 75.5 17.5 q38.5 17.5 62.5 45.5 l0 118 ZM493 0 l-61 0 l-11 49 q-56 -54 -141 -56 q-135 -1 -196 79 q-49 63 -23 138 q26 77 115 109 q50 19 113 18 q62 0 129 -35 l0 10 q0 61 -31.5 97 q-31.5 36 -77 42 q-45.5 6 -95 -5.5 q-49.5 -11.5 -87.5 -38.5 l-40 46 q52 43 122.5 58.5 q70.5 15.5 133 1.5 q62.5 -14 106.5 -66.5 q44 -52.5 44 -134.5 l0 -312 Z" /><glyph glyph-name="afii10066" unicode="&#x431;" d="M112 389 q60 120 196 120 q104 -1 179 -66 q75 -65 76 -190 q0 -113 -73.5 -189 q-73.5 -76 -184.5 -72 q-78 1 -139.5 41 q-61.5 40 -93.5 113 q-16 39 -23 129 q-1 12 -1 41 q-4 177 92 272 q96 95 263 95 q40 0 41 43 l67 0 q1 -60 -31 -86.5 q-32 -26.5 -74 -26.5 q-245 0 -294 -224 ZM126 253 q0 -30 10 -70 l0 1 q20 -58 66 -90 q46 -32 104 -32 q78 0 127.5 53.5 q49.5 53.5 49.5 137.5 q-1 90 -52.5 138 q-51.5 48 -123.5 49 q-72 1 -126.5 -49.5 q-54.5 -50.5 -54.5 -137.5 Z" /><glyph glyph-name="afii10067" unicode="&#x432;" d="M89 0 l0 507 l201 0 q78 0 130.5 -32.5 q52.5 -32.5 53.5 -103.5 q0 -35 -23 -68.5 q-23 -33.5 -57 -39.5 q42 -8 70.5 -41.5 q28.5 -33.5 30.5 -69.5 q3 -81 -54.5 -116.5 q-57.5 -35.5 -142.5 -35.5 l-209 0 ZM290 442 l-125 0 l0 -147 l130 0 q107 0 104 76 q-3 71 -109 71 ZM286 231 l-121 0 l0 -166 l133 0 q54 0 88 20.5 q34 20.5 33 63.5 q-3 45 -43 64 q-40 19 -90 18 Z" /><glyph glyph-name="afii10068" unicode="&#x433;" d="M86 0 l0 507 l334 0 l0 -68 l-256 0 l0 -439 l-78 0 Z" /><glyph glyph-name="afii10069" unicode="&#x434;" d="M510 507 l0 -441 l44 0 l0 -186 l-71 0 l0 120 l-393 0 l0 -120 l-70 0 l0 186 l50 0 q43 29 43 162 l0 279 l397 0 ZM147 66 l285 0 l0 378 l-243 0 l0 -216 q0 -1 0 -13.5 q0 -12.5 0 -16.5 q0 -4 -0.5 -16.5 q-0.5 -12.5 -1 -18.5 q-0.5 -6 -2 -17.5 q-1.5 -11.5 -3.5 -18.5 q-2 -7 -5.5 -17 q-3.5 -10 -7.5 -17 q-4 -7 -9.5 -14 q-5.5 -7 -12.5 -13 Z" /><glyph glyph-name="afii10070" unicode="&#x435;" d="M304 60 q94 0 146 70 l63 -38 q-75 -101 -209 -101 q-122 0 -190.5 79 q-68.5 79 -67.5 185 q0 106 69 185 q69 79 188 80 q120 1 191.5 -87 q71.5 -88 53.5 -210 l-426 0 q5 -68 53.5 -115.5 q48.5 -47.5 128.5 -47.5 ZM123 289 l354 0 q-6 70 -53.5 115.5 q-47.5 45.5 -119.5 46.5 q-78 -1 -124 -47.5 q-46 -46.5 -57 -114.5 Z" /><glyph glyph-name="afii10072" unicode="&#x436;" d="M323 507 l74 0 l0 -221 l209 222 l91 0 l-211 -227 l221 -281 l-89 0 l-186 239 l-35 -32 l0 -207 l-74 0 l0 206 l-33 33 l-189 -239 l-86 0 l222 281 l-213 226 l94 0 l205 -218 l0 218 Z" /><glyph glyph-name="afii10073" unicode="&#x437;" d="M386 373 q0 -33 -18.5 -64 q-18.5 -31 -53.5 -43 q41 -15 64.5 -48.5 q23.5 -33.5 23.5 -65.5 q1 -83 -56 -122.5 q-57 -39.5 -140 -39.5 q-95 0 -188 70 l40 56 q31 -35 94.5 -52 q63.5 -17 117.5 3.5 q54 20.5 54 81.5 q0 82 -151 82 l-46 0 l0 65 l49 0 q60 -1 97 15 q37 16 36 62 q-1 35 -32 54.5 q-31 19.5 -74 19.5 q-81 0 -127 -45 l-43 48 q72 67 168 67 q75 0 129.5 -37 q54.5 -37 55.5 -107 Z" /><glyph glyph-name="afii10074" unicode="&#x438;" d="M434 384 l-281 -384 l-69 0 l0 507 l78 0 l0 -386 l281 386 l68 0 l0 -507 l-77 0 l0 384 Z" /><glyph glyph-name="afii10075" unicode="&#x439;" d="M434 384 l-281 -384 l-69 0 l0 507 l78 0 l0 -386 l281 386 l68 0 l0 -507 l-77 0 l0 384 ZM306 580 q-54 0 -91.5 29.5 q-37.5 29.5 -37.5 81.5 l63 0 q0 -27 20 -41 q20 -14 46 -14 q25 0 44.5 13.5 q19.5 13.5 19.5 41.5 l64 0 q0 -52 -37.5 -81.5 q-37.5 -29.5 -90.5 -29.5 Z" /><glyph glyph-name="afii10076" unicode="&#x43a;" d="M81 507 l76 0 l0 -238 l238 239 l93 0 l-221 -222 l231 -286 l-91 0 l-190 236 l-60 -56 l0 -180 l-76 0 l0 507 Z" /><glyph glyph-name="afii10077" unicode="&#x43b;" d="M181 230 q0 -40 -4 -67.5 q-4 -27.5 -17 -60.5 q-13 -33 -41.5 -61 q-28.5 -28 -73.5 -52 l-35 53 q34 19 54.5 42.5 q20.5 23.5 28.5 56 q8 32.5 9.5 53 q1.5 20.5 1.5 61.5 l0 252 l363 0 l0 -507 l-79 0 l0 439 l-207 0 l0 -209 Z" /><glyph glyph-name="afii10078" unicode="&#x43c;" d="M81 507 l77 0 l170 -325 l170 325 l75 0 l0 -507 l-74 0 l0 354 l-141 -260 l-62 0 l-142 259 l0 -353 l-73 0 l0 507 Z" /><glyph glyph-name="afii10079" unicode="&#x43d;" d="M82 507 l78 0 l0 -221 l253 0 l0 221 l79 0 l0 -507 l-79 0 l0 221 l-253 0 l0 -221 l-78 0 l0 507 Z" /><glyph glyph-name="afii10080" unicode="&#x43e;" d="M127 253 q0 -94 52.5 -145 q52.5 -51 126.5 -51 q75 0 127.5 51 q52.5 51 52.5 145 q0 93 -52.5 143.5 q-52.5 50.5 -127.5 50.5 q-74 0 -126.5 -50.5 q-52.5 -50.5 -52.5 -143.5 ZM491.5 441.5 q72.5 -75.5 72.5 -188.5 q0 -113 -72.5 -189 q-72.5 -76 -185.5 -76 q-113 0 -185 76 q-72 76 -72 189 q0 112 72 188 q72 76 185 76 q113 0 185.5 -75.5 Z" /><glyph glyph-name="afii10081" unicode="&#x43f;" d="M82 507 l410 0 l0 -507 l-79 0 l0 441 l-253 0 l0 -441 l-78 0 l0 507 Z" /><glyph glyph-name="afii10082" unicode="&#x440;" d="M272 513 q119 4 186 -67.5 q67 -71.5 67 -194.5 q0 -112 -71 -185 q-71 -73 -170 -72 q-76 0 -128 35 l0 -224 l-75 0 l0 702 l61 0 l12 -53 q20 25 52.5 41.5 q32.5 16.5 65.5 17.5 ZM290 61 q77 7 119 59 q42 52 42 134 q0 92 -50.5 141 q-50.5 49 -122.5 47 q-67 -2 -122 -55 l0 -277 q53 -59 134 -49 Z" /><glyph glyph-name="afii10083" unicode="&#x441;" d="M481 449 l-43 -53 q-55 52 -135 52 q-72 1 -125.5 -54 q-53.5 -55 -54.5 -142 q0 -76 48 -133 q48 -57 133 -57 q77 0 138 56 l44 -53 q-75 -73 -182 -73 q-122 0 -190.5 77.5 q-68.5 77.5 -68.5 184.5 q1 107 70 185.5 q69 78.5 189 79.5 q106 0 177 -70 Z" /><glyph glyph-name="afii10084" unicode="&#x442;" d="M22 441 l0 66 l405 0 l0 -66 l-163 0 l0 -441 l-80 0 l0 441 l-162 0 Z" /><glyph glyph-name="afii10085" unicode="&#x443;" d="M89 -190 l0 65 q42 -5 64 8.5 q22 13.5 33 41.5 l28 73 l-207 509 l84 0 l164 -420 l156 420 l84 0 l-235 -607 q-39 -103 -171 -90 Z" /><glyph glyph-name="afii10086" unicode="&#x444;" d="M134 253 q-3 -76 47 -130 q50 -54 126 -61 l0 383 q-76 -8 -125.5 -62.5 q-49.5 -54.5 -47.5 -129.5 ZM385 445 l0 -383 q78 5 125 58 q47 53 47 133 q0 76 -48.5 130.5 q-48.5 54.5 -123.5 61.5 ZM307 700 l78 0 l0 -186 q111 -7 181 -80 q70 -73 70 -181 q0 -110 -68.5 -181.5 q-68.5 -71.5 -182.5 -78.5 l0 -186 l-78 0 l0 186 q-111 7 -182.5 79.5 q-71.5 72.5 -68.5 180.5 q-1 106 69.5 178.5 q70.5 72.5 181.5 81.5 l0 187 Z" /><glyph glyph-name="afii10087" unicode="&#x445;" d="M255 308 l137 202 l91 0 l-178 -256 l180 -254 l-91 0 l-139 200 l-142 -200 l-88 0 l179 254 l-177 256 l95 0 l133 -202 Z" /><glyph glyph-name="afii10088" unicode="&#x446;" d="M419 507 l78 0 l0 -440 l41 0 l-1 -187 l-71 0 l0 120 l-381 0 l0 507 l79 0 l0 -440 l255 0 l0 440 Z" /><glyph glyph-name="afii10089" unicode="&#x447;" d="M462 0 l-79 0 l0 169 q-46 -15 -105 -15 q-97 0 -162.5 55 q-65.5 55 -65.5 160 l0 138 l77 0 l0 -138 q0 -71 45 -110 q45 -39 110 -39 q58 0 101 17 l0 270 l79 0 l0 -507 Z" /><glyph glyph-name="afii10090" unicode="&#x448;" d="M467 66 l227 0 l0 441 l78 0 l0 -507 l-688 0 l0 507 l79 0 l0 -441 l228 0 l0 441 l76 0 l0 -441 Z" /><glyph glyph-name="afii10091" unicode="&#x449;" d="M466 67 l225 0 l0 440 l80 0 l0 -439 l46 0 l-1 -188 l-73 0 l0 120 l-661 0 l0 507 l80 0 l0 -440 l226 0 l0 440 l78 0 l0 -440 Z" /><glyph glyph-name="afii10092" unicode="&#x44a;" d="M221 507 l0 -193 l134 0 q80 0 134 -38.5 q54 -38.5 54 -119.5 q0 -80 -54 -118 q-54 -38 -134 -38 l-211 0 l0 443 l-125 0 l0 64 l202 0 ZM355 248 l-134 0 l0 -184 l134 0 q45 0 78.5 24 q33.5 24 33.5 68 q0 46 -32.5 68.5 q-32.5 22.5 -79.5 23.5 Z" /><glyph glyph-name="afii10093" unicode="&#x44b;" d="M159 507 l0 -196 l134 0 q81 0 135 -37 q54 -37 54 -118 q0 -80 -54.5 -118 q-54.5 -38 -134.5 -38 l-211 0 l0 507 l77 0 ZM293 247 l-134 0 l0 -185 l134 0 q45 0 78.5 25 q33.5 25 33.5 69 q0 46 -32.5 68 q-32.5 22 -79.5 23 ZM573 0 l0 507 l76 0 l0 -507 l-76 0 Z" /><glyph glyph-name="afii10094" unicode="&#x44c;" d="M158 507 l0 -199 l134 0 q82 0 135 -35.5 q53 -35.5 53 -116.5 q0 -80 -53.5 -118 q-53.5 -38 -134.5 -38 l-210 0 l0 507 l76 0 ZM292 246 l-134 0 l0 -183 l134 0 q46 0 79.5 24.5 q33.5 24.5 33.5 68.5 q0 46 -32.5 67.5 q-32.5 21.5 -80.5 22.5 Z" /><glyph glyph-name="afii10095" unicode="&#x44d;" d="M213 446 q-73 0 -137 -57 l-42 45 q80 82 178 80 q111 -1 181 -75.5 q70 -74.5 70 -188.5 q0 -110 -69.5 -183 q-69.5 -73 -180.5 -74 q-93 0 -188 78 l45 52 q70 -59 143 -59 q75 1 123.5 43.5 q48.5 42.5 51.5 114.5 l-262 0 l0 63 l261 0 q0 67 -54 114 q-54 47 -120 47 Z" /><glyph glyph-name="afii10096" unicode="&#x44e;" d="M314 252 q0 -74 39 -123 l-1 0 q27 -29 64.5 -47 q37.5 -18 75.5 -18 q49 0 98 28 q39 25 59.5 67.5 q20.5 42.5 20.5 92.5 q0 85 -53 137 q-52 52 -125 52 q-51 0 -98 -30 q-49 -30 -70 -89 q-10 -33 -10 -70 ZM156 219 l0 -219 l-75 0 l0 507 l75 0 l0 -219 l81 0 q4 34 20 70 q31 71 97 115 q64 40 138 40 q105 0 178 -70 q77 -79 77 -191 q0 -68 -30 -126.5 q-30 -58.5 -87 -95.5 q-62 -38 -138 -38 q-123 2 -199 92 q-49 62 -56 135 l-81 0 Z" /><glyph glyph-name="bgq" unicode="&#x44f;" d="M441 507 l0 -507 l-76 0 l0 212 l-82 0 l-168 -212 l-85 0 l164 214 q-147 17 -147 144 q0 149 183 149 l211 0 ZM230 275 l135 0 l0 166 l-135 0 q-107 -2 -107 -83 q0 -44 30 -63.5 q30 -19.5 77 -19.5 Z" /><glyph glyph-name="afii10071" unicode="&#x451;" d="M304 60 q94 0 146 70 l63 -38 q-75 -101 -209 -101 q-122 0 -190.5 79 q-68.5 79 -67.5 185 q0 106 69 185 q69 79 188 80 q120 1 191.5 -87 q71.5 -88 53.5 -210 l-426 0 q5 -68 53.5 -115.5 q48.5 -47.5 128.5 -47.5 ZM123 289 l354 0 q-6 70 -53.5 115.5 q-47.5 45.5 -119.5 46.5 q-78 -1 -124 -47.5 q-46 -46.5 -57 -114.5 ZM258 608 l-89 0 l0 81 l89 0 l0 -81 ZM430 608 l-89 0 l0 81 l89 0 l0 -81 Z" /><glyph glyph-name="afii10099" unicode="&#x452;" d="M85 701 l78 0 l0 -70 l132 0 l0 -58 l-132 0 l0 -99 q47 40 131 41 q107 -2 174.5 -63 q67.5 -61 67.5 -168 l0 -75 q0 -111 -45.5 -162.5 q-45.5 -51.5 -157.5 -47.5 l0 66 q74 0 99.5 28.5 q25.5 28.5 25.5 115.5 l0 75 q-1 71 -46 113 q-45 42 -115 47 q-77 4 -135 -38 l0 -406 l-77 0 l0 573 l-64 0 l0 58 l64 0 l0 70 Z" /><glyph glyph-name="afii10100" unicode="&#x453;" d="M86 0 l0 507 l334 0 l0 -68 l-256 0 l0 -439 l-78 0 ZM353 698 l-84 -115 l-60 0 l59 115 l85 0 Z" /><glyph glyph-name="afii10101" unicode="&#x454;" d="M294 446 q-66 0 -120 -47 q-54 -47 -54 -114 l261 0 l0 -63 l-262 0 q3 -72 51.5 -114.5 q48.5 -42.5 123.5 -43.5 q73 0 143 59 l45 -52 q-95 -78 -188 -78 q-111 1 -180.5 74 q-69.5 73 -69.5 183 q0 114 70 188.5 q70 74.5 181 75.5 q98 2 178 -80 l-42 -45 q-64 57 -137 57 Z" /><glyph glyph-name="afii10102" unicode="&#x455;" d="M231 291 q165 -33 165 -151 q0 -50 -30 -86 q-30 -36 -70 -50.5 q-40 -14.5 -83 -14.5 q-113 0 -171 83 l48 49 q51 -62 123 -62 q41 -1 74 20.5 q33 21.5 33 61.5 q-1 59 -106 79 q-158 27 -159 145 q0 70 53 111 q53 41 125 41 q93 0 150 -58 l-45 -51 q-42 36 -105 38 q-42 1 -72.5 -21 q-30.5 -22 -29.5 -60 q0 -54 100 -74 Z" /><glyph glyph-name="afii10103" unicode="&#x456;" d="M160 0 l-79 0 l0 512 l79 0 l0 -512 ZM161 592 l-81 0 l0 112 l81 0 l0 -112 Z" /><glyph glyph-name="afii10104" unicode="&#x457;" d="M160 0 l-79 0 l0 512 l79 0 l0 -512 ZM85 623 l-83 0 l0 78 l83 0 l0 -78 ZM245 623 l-83 0 l0 78 l83 0 l0 -78 Z" /><glyph glyph-name="afii10105" unicode="&#x458;" d="M-22 -198 l0 69 q49 -3 76 18 q27 21 27 64 l0 559 l79 0 l0 -559 q0 -81 -50.5 -120 q-50.5 -39 -131.5 -31 ZM159 592 l-81 0 l0 113 l81 0 l0 -113 Z" /><glyph glyph-name="afii10106" unicode="&#x459;" d="M87 507 l329 0 l0 -199 l134 0 q84 0 137.5 -35 q53.5 -35 53.5 -117 q0 -79 -55 -117.5 q-55 -38.5 -136 -38.5 l-210 0 l0 443 l-176 0 l0 -213 q0 -32 -1.5 -54 q-1.5 -22 -9 -50.5 q-7.5 -28.5 -21.5 -49.5 q-14 -21 -39 -44 q-25 -23 -61 -42 l-37 56 q33 18 53 38 q20 20 28 47 q8 27 9.5 45.5 q1.5 18.5 1.5 55.5 q0 7 0 11 l0 264 ZM550 245 l-134 0 l0 -181 l134 0 q47 0 81 24 q34 24 34 68 q0 45 -33.5 67 q-33.5 22 -81.5 22 Z" /><glyph glyph-name="afii10107" unicode="&#x45a;" d="M379 507 l78 0 l0 -206 l133 0 q191 0 191 -147 q0 -80 -54.5 -117 q-54.5 -37 -136.5 -37 l-211 0 l0 238 l-218 0 l0 -238 l-79 0 l0 507 l79 0 l0 -206 l218 0 l0 206 ZM590 239 l-133 0 l0 -177 l133 0 q48 0 83 23.5 q35 23.5 35 68.5 q0 44 -34 64 q-34 20 -84 21 Z" /><glyph glyph-name="afii10108" unicode="&#x45b;" d="M11 576 l0 55 l70 0 l0 70 l78 0 l0 -70 l124 0 l0 -55 l-124 0 l0 -104 q50 42 131 43 q107 -2 174.5 -63 q67.5 -61 67.5 -168 l0 -284 l-78 0 l0 284 q-1 71 -46 113 q-45 42 -115 47 q-77 4 -135 -38 l0 -406 l-77 0 l0 576 l-70 0 Z" /><glyph glyph-name="afii10109" unicode="&#x45c;" d="M81 507 l76 0 l0 -238 l238 239 l93 0 l-221 -222 l231 -286 l-91 0 l-190 236 l-60 -56 l0 -180 l-76 0 l0 507 ZM376 698 l-84 -115 l-60 0 l59 115 l85 0 Z" /><glyph glyph-name="afii10110" unicode="&#x45e;" d="M89 -190 l0 65 q42 -5 64 8.5 q22 13.5 33 41.5 l28 73 l-207 509 l84 0 l164 -420 l156 420 l84 0 l-235 -607 q-39 -103 -171 -90 ZM252 582 q-54 0 -91.5 29.5 q-37.5 29.5 -37.5 81.5 l63 0 q0 -27 20 -41 q20 -14 46 -14 q25 0 44.5 13.5 q19.5 13.5 19.5 41.5 l64 0 q0 -52 -37.5 -81.5 q-37.5 -29.5 -90.5 -29.5 Z" /><glyph glyph-name="afii10193" unicode="&#x45f;" d="M254 -103 l0 103 l-172 0 l0 506 l79 0 l0 -440 l253 0 l0 440 l78 0 l0 -506 l-165 0 l0 -103 l-73 0 Z" /><glyph glyph-name="afii10050" unicode="&#x490;" d="M473 801 l0 -172 l-291 0 l0 -629 l-80 0 l0 700 l303 0 l0 101 l68 0 Z" /><glyph glyph-name="afii10098" unicode="&#x491;" d="M86 0 l0 507 l264 0 l0 87 l70 0 l0 -155 l-256 0 l0 -439 l-78 0 Z" /><glyph glyph-name="uni1E9E" unicode="&#x1e9e;" d="M176 525 l0 -448 l0 -77 l-83 0 l0 525 q0 83 60.5 133.5 q60.5 50.5 143.5 50.5 q83 0 141.5 -49 q58.5 -49 58.5 -131 q0 -42 -21.5 -82 q-21.5 -40 -61.5 -65 q58 -22 93 -72.5 q35 -50.5 34 -108.5 q1 -53 -18.5 -94.5 q-19.5 -41.5 -52.5 -66 q-33 -24.5 -75.5 -37 q-42.5 -12.5 -88.5 -10.5 q-46 2 -89 17 l0 76 q39 -22 86 -22 q50 0 86 20.5 q36 20.5 52.5 50.5 q16.5 30 16.5 66 q0 36 -16.5 66 q-16.5 30 -53 50.5 q-36.5 20.5 -85.5 20.5 l-59 0 l0 77 l59 0 q55 0 87 35.5 q32 35.5 29 80.5 q-4 47 -39.5 74.5 q-35.5 27.5 -83.5 27.5 q-47 0 -83.5 -30.5 q-36.5 -30.5 -36.5 -77.5 Z" /><glyph glyph-name="thinspace" unicode="&#x2009;" d="" /><glyph glyph-name="endash" unicode="&#x2013;" d="M95 246 l0 77 l509 0 l0 -77 l-509 0 Z" /><glyph glyph-name="emdash" unicode="&#x2014;" d="M95 246 l0 78 l688 0 l0 -78 l-688 0 Z" /><glyph glyph-name="quoteleft" unicode="&#x2018;" d="M193 717 l-55 -211 l-89 0 l78 211 l66 0 Z" /><glyph glyph-name="quoteright" unicode="&#x2019;" d="M49 507 l55 211 l89 0 l-78 -211 l-66 0 Z" /><glyph glyph-name="quotesinglbase" unicode="&#x201a;" d="M27 -109 l65 216 l92 0 l-82 -216 l-75 0 Z" /><glyph glyph-name="quotedblleft" unicode="&#x201c;" d="M193 717 l-55 -211 l-89 0 l78 211 l66 0 ZM334 717 l-55 -211 l-89 0 l78 211 l66 0 Z" /><glyph glyph-name="quotedblright" unicode="&#x201d;" d="M49 507 l55 211 l87 0 l-76 -211 l-66 0 ZM191 507 l55 211 l87 0 l-76 -211 l-66 0 Z" /><glyph glyph-name="quotedblbase" unicode="&#x201e;" d="M27 -109 l65 216 l89 0 l-82 -216 l-72 0 ZM185 -109 l65 216 l88 0 l-81 -216 l-72 0 Z" /><glyph glyph-name="dagger" unicode="&#x2020;" d="M168 -50 l0 486 l-133 0 l0 70 l133 0 l0 200 l73 0 l0 -200 l139 0 l0 -70 l-139 0 l0 -486 l-73 0 Z" /><glyph glyph-name="daggerdbl" unicode="&#x2021;" d="M52 171 l0 66 l134 0 l0 201 l-134 0 l0 68 l134 0 l0 200 l72 0 l0 -200 l138 0 l0 -68 l-138 0 l0 -201 l138 0 l0 -66 l-138 0 l0 -221 l-72 0 l0 221 l-134 0 Z" /><glyph glyph-name="bullet" unicode="&#x2022;" d="M305.5 196 q-38.5 -39 -94.5 -39 q-56 0 -95 39 q-39 39 -39 95 q0 56 39 95 q39 39 95 39 q56 0 94.5 -39 q38.5 -39 38.5 -95 q0 -56 -38.5 -95 Z" /><glyph glyph-name="ellipsis" unicode="&#x2026;" d="M181 -2 l-100 0 l0 109 l100 0 l0 -109 ZM395 -2 l-100 0 l0 109 l100 0 l0 -109 ZM616 -2 l-100 0 l0 109 l100 0 l0 -109 Z" /><glyph glyph-name="perthousand" unicode="&#x2030;" d="M395 542 q0 -70 -50.5 -120 q-50.5 -50 -121.5 -50 q-71 0 -121.5 50 q-50.5 50 -50.5 120 q0 71 50.5 121 q50.5 50 121.5 50 q71 0 121.5 -50 q50.5 -50 50.5 -121 ZM739.5 278 q50.5 -50 50.5 -120 q0 -70 -50.5 -120 q-50.5 -50 -121.5 -50 q-71 0 -122 50 q-51 50 -51 120 q0 70 51 120 q51 50 122 50 q71 0 121.5 -50 ZM689 83.5 q29 30.5 29 74.5 q0 44 -29 75.5 q-29 31.5 -71 31.5 q-42 0 -71.5 -31.5 q-29.5 -31.5 -29.5 -75.5 q0 -44 29 -74.5 q29 -30.5 72 -30.5 q42 0 71 30.5 ZM599 742 l95 0 l-454 -779 l-94 0 l453 779 ZM1128.5 278 q50.5 -50 50.5 -120 q0 -70 -50.5 -120 q-50.5 -50 -121.5 -50 q-71 0 -122 50 q-51 50 -51 120 q0 70 51 120 q51 50 122 50 q71 0 121.5 -50 ZM1077 83.5 q29 30.5 29 74.5 q0 44 -29 75.5 q-29 31.5 -71 31.5 q-42 0 -71.5 -31.5 q-29.5 -31.5 -29.5 -75.5 q0 -44 29 -74.5 q29 -30.5 72 -30.5 q42 0 71 30.5 ZM293 466.5 q29 30.5 29 74.5 q0 44 -29 75.5 q-29 31.5 -71 31.5 q-42 0 -71.5 -31.5 q-29.5 -31.5 -29.5 -75.5 q0 -44 29 -74.5 q29 -30.5 72 -30.5 q42 0 71 30.5 Z" /><glyph glyph-name="guilsinglleft" unicode="&#x2039;" d="M213 77 l-164 205 l164 206 l94 0 l-164 -206 l164 -205 l-94 0 Z" /><glyph glyph-name="guilsinglright" unicode="&#x203a;" d="M52 77 l161 205 l-163 206 l93 0 l164 -206 l-164 -205 l-91 0 Z" /><glyph glyph-name="fraction" unicode="&#x2044;" d="M-66 -47 l-72 0 l363 761 l72 0 l-363 -761 Z" /><glyph glyph-name="zerosuperior" unicode="&#x2070;" d="M104 579 q0 -53 36 -83 q36 -30 79 -30 q43 0 79 30 q36 30 36 83 l0 122 q0 52 -36 82.5 q-36 30.5 -79 30.5 q-43 0 -79 -30 q-36 -30 -36 -83 l0 -122 ZM37 701 q0 54 27 94 q27 40 67.5 58 q40.5 18 87.5 18 q47 0 87.5 -18 q40.5 -18 67.5 -58 q27 -40 27 -94 l0 -122 q0 -72 -48 -118 q-56 -53 -134 -53.5 q-78 -0.5 -134 53.5 q-48 46 -48 118 l0 122 Z" /><glyph glyph-name="foursuperior" unicode="&#x2074;" d="M323 860 l0 -302 l39 0 l0 -61 l-39 0 l0 -80 l-73 0 l0 80 l-189 0 l-44 53 l234 310 l72 0 ZM101 559 l149 -1 l1 203 l-150 -202 Z" /><glyph glyph-name="fivesuperior" unicode="&#x2075;" d="M359 799 l-202 0 l-16 -102 q130 38 201 -25 q49 -46 49 -109 q0 -62 -45 -107 q-50 -49 -133 -49 q-53 0 -99.5 24 q-46.5 24 -69.5 68 l-3 7 l60 27 l3 -6 q14 -27 45.5 -43 q31.5 -16 64.5 -16 q33 -5 60 11 q27 16 39 41.5 q12 25.5 8.5 55.5 q-3.5 30 -26.5 51 q-41 36 -120 21 q-37 -6 -71 -23 l-1 -1 l-41 -2 l40 240 l257 0 l0 -63 Z" /><glyph glyph-name="sixsuperior" unicode="&#x2076;" d="M298 866 l-110 -160 q75 24 138 -16.5 q63 -40.5 63 -118.5 q0 -62 -44 -106 q-48 -48 -128 -48 q-80 0 -128 48 q-44 44 -44 106 q0 47 28 87 l144 208 l81 0 ZM217 660 q-41 0 -72 -24.5 q-31 -24.5 -31 -63.5 q0 -43 30.5 -71 q30.5 -28 72.5 -28 q40 0 71.5 29 q31.5 29 31.5 70 q-1 41 -31 64.5 q-30 23.5 -72 23.5 Z" /><glyph glyph-name="sevensuperior" unicode="&#x2077;" d="M52 416 l199 380 l-199 0 l0 64 l263 0 l23 -41 l-210 -403 l-76 0 Z" /><glyph glyph-name="eightsuperior" unicode="&#x2078;" d="M101 654 q-40 31 -40 89 q0 58 41 90.5 q41 32.5 100 32.5 q60 0 101 -32.5 q41 -32.5 41 -90.5 q0 -58 -40 -89 q59 -40 59 -110 q-1 -63 -48.5 -101 q-47.5 -38 -112.5 -38 q-64 0 -111.5 38 q-47.5 38 -48.5 101 q-1 69 59 110 ZM202 805 q-32 0 -52 -15.5 q-20 -15.5 -20 -46.5 q0 -62 72 -62 q73 0 73 62 q0 31 -20 46.5 q-20 15.5 -53 15.5 ZM268 605 q-26 21 -66 21 q-40 0 -66 -21 q-26 -21 -26 -60 q0 -36 27.5 -57.5 q27.5 -21.5 64.5 -21.5 q37 0 64.5 21.5 q27.5 21.5 27.5 57.5 q0 39 -26 60 Z" /><glyph glyph-name="ninesuperior" unicode="&#x2079;" d="M136 419 l110 160 q-75 -24 -138 16.5 q-63 40.5 -63 118.5 q0 62 44 106 q48 48 128 48 q80 0 128 -48 q44 -44 44 -106 q0 -47 -28 -87 l-144 -208 l-81 0 ZM217 625 q41 0 72 24.5 q31 24.5 31 63.5 q0 43 -30.5 71 q-30.5 28 -72.5 28 q-40 0 -71.5 -29 q-31.5 -29 -31.5 -70 q1 -41 31 -64.5 q30 -23.5 72 -23.5 Z" /><glyph glyph-name="zeroinferior" unicode="&#x2080;" d="M104 1 q0 -53 36 -83 q36 -30 79 -30 q43 0 79 30 q36 30 36 83 l0 122 q0 52 -36 82.5 q-36 30.5 -79 30.5 q-43 0 -79 -30 q-36 -30 -36 -83 l0 -122 ZM37 123 q0 54 27 94 q27 40 67.5 58 q40.5 18 87.5 18 q47 0 87.5 -18 q40.5 -18 67.5 -58 q27 -40 27 -94 l0 -122 q0 -72 -48 -118 q-56 -53 -134 -53.5 q-78 -0.5 -134 53.5 q-48 46 -48 118 l0 122 Z" /><glyph glyph-name="oneinferior" unicode="&#x2081;" d="M130 -157 l0 367 l-64 0 l0 65 l9 0 l120 0 l9 0 l0 -432 l-74 0 Z" /><glyph glyph-name="twoinferior" unicode="&#x2082;" d="M312 51 l-166 -147 l221 0 l0 -64 l-307 0 l-22 48 l224 211 q43 43 32 79 q-7 25 -31.5 36.5 q-24.5 11.5 -53.5 12.5 q-73 3 -101 -53 l-63 26 q15 35 45 59 q22 18 55 28 q33 9 65 8 q53 -2 96 -27.5 q43 -25.5 56 -72.5 q11 -38 -3.5 -76 q-14.5 -38 -46.5 -68 Z" /><glyph glyph-name="threeinferior" unicode="&#x2083;" d="M296 78 q67 -35 67 -111 q-1 -64 -50.5 -101.5 q-49.5 -37.5 -115.5 -37.5 q-52 0 -96.5 24.5 q-44.5 24.5 -66.5 69.5 l59 28 q15 -27 44.5 -42.5 q29.5 -15.5 61.5 -15.5 q36 0 63 20.5 q27 20.5 27 55.5 q0 33 -24.5 54.5 q-24.5 21.5 -57.5 21.5 l-45 0 l0 60 l45 0 q30 0 49.5 14 q19.5 14 19.5 43 q0 30 -22.5 46.5 q-22.5 16.5 -54.5 16.5 q-27 0 -53 -13 q-26 -13 -38 -36 l-57 30 q20 39 60 61 q40 22 85 22 q62 0 108 -34 q46 -34 46 -93 q0 -26 -15 -49.5 q-15 -23.5 -39 -33.5 Z" /><glyph glyph-name="fourinferior" unicode="&#x2084;" d="M323 286 l0 -302 l39 0 l0 -61 l-39 0 l0 -80 l-73 0 l0 80 l-189 0 l-44 53 l234 310 l72 0 ZM101 -15 l149 -1 l1 203 l-150 -202 Z" /><glyph glyph-name="fiveinferior" unicode="&#x2085;" d="M359 222 l-202 0 l-16 -102 q130 38 201 -25 q49 -46 49 -109 q0 -62 -45 -107 q-50 -49 -133 -49 q-53 0 -99.5 24 q-46.5 24 -69.5 68 l-3 7 l60 27 l3 -6 q14 -27 45.5 -43 q31.5 -16 64.5 -16 q33 -5 60 11 q27 16 39 41.5 q12 25.5 8.5 55.5 q-3.5 30 -26.5 51 q-41 36 -120 21 q-37 -6 -71 -23 l-1 -1 l-41 -2 l40 240 l257 0 l0 -63 Z" /><glyph glyph-name="sixinferior" unicode="&#x2086;" d="M298 283 l-110 -160 q75 24 138 -16.5 q63 -40.5 63 -118.5 q0 -62 -44 -106 q-48 -48 -128 -48 q-80 0 -128 48 q-44 44 -44 106 q0 47 28 87 l144 208 l81 0 ZM217 77 q-41 0 -72 -24.5 q-31 -24.5 -31 -63.5 q0 -43 30.5 -71 q30.5 -28 72.5 -28 q40 0 71.5 29 q31.5 29 31.5 70 q-1 41 -31 64.5 q-30 23.5 -72 23.5 Z" /><glyph glyph-name="seveninferior" unicode="&#x2087;" d="M52 -168 l199 380 l-208 0 l0 64 l272 0 l23 -41 l-210 -403 l-76 0 Z" /><glyph glyph-name="eightinferior" unicode="&#x2088;" d="M101 79 q-40 31 -40 89 q0 58 41 90.5 q41 32.5 100 32.5 q60 0 101 -32.5 q41 -32.5 41 -90.5 q0 -58 -40 -89 q59 -40 59 -110 q-1 -63 -48.5 -101 q-47.5 -38 -112.5 -38 q-64 0 -111.5 38 q-47.5 38 -48.5 101 q-1 69 59 110 ZM202 230 q-32 0 -52 -15.5 q-20 -15.5 -20 -46.5 q0 -62 72 -62 q73 0 73 62 q0 31 -20 46.5 q-20 15.5 -53 15.5 ZM268 30 q-26 21 -66 21 q-40 0 -66 -21 q-26 -21 -26 -60 q0 -36 27.5 -57.5 q27.5 -21.5 64.5 -21.5 q37 0 64.5 21.5 q27.5 21.5 27.5 57.5 q0 39 -26 60 Z" /><glyph glyph-name="nineinferior" unicode="&#x2089;" d="M136 -158 l110 160 q-75 -24 -138 16.5 q-63 40.5 -63 118.5 q0 62 44 106 q48 48 128 48 q80 0 128 -48 q44 -44 44 -106 q0 -47 -28 -87 l-144 -208 l-81 0 ZM217 48 q41 0 72 24.5 q31 24.5 31 63.5 q0 43 -30.5 71 q-30.5 28 -72.5 28 q-40 0 -71.5 -29 q-31.5 -29 -31.5 -70 q1 -41 31 -64.5 q30 -23.5 72 -23.5 Z" /><glyph glyph-name="Euro" unicode="&#x20ac;" d="M49 447 l58 0 q29 116 119 192 q90 76 227 76 q80 0 151 -34 l-33 -69 q-54 27 -118 27 q-99 -1 -166.5 -55 q-67.5 -54 -93.5 -137 l291 0 l-14 -69 l-290 0 q-1 -9 -1 -28 l0 -14 l277 0 l-13 -67 l-254 0 q23 -90 92 -148.5 q69 -58.5 172 -58.5 q69 0 134 35 l37 -67 q-80 -44 -171 -44 q-142 0 -233 81 q-91 81 -116 202 l-73 0 l15 67 l50 0 q-1 4 -1 14 q0 4 0.5 13.5 q0.5 9.5 0.5 14.5 l-61 0 l14 69 Z" /><glyph glyph-name="afii61352" unicode="&#x2116;" d="M101 704 l88 0 l360 -588 l0 588 l83 0 l0 -704 l-105 0 l-344 564 l0 -564 l-82 0 l0 704 ZM846 253 q0 -94 52.5 -145 q52.5 -51 126.5 -51 q75 0 127.5 51 q52.5 51 52.5 145 q0 93 -52.5 143.5 q-52.5 50.5 -127.5 50.5 q-74 0 -126.5 -50.5 q-52.5 -50.5 -52.5 -143.5 ZM1210.5 441.5 q72.5 -75.5 72.5 -188.5 q0 -113 -72.5 -189 q-72.5 -76 -185.5 -76 q-113 0 -185 76 q-72 76 -72 189 q0 112 72 188 q72 76 185 76 q113 0 185.5 -75.5 Z" /><glyph glyph-name="trademark" unicode="&#x2122;" d="M320 637 l-111 0 l0 -317 l-68 0 l0 317 l-111 0 l0 61 l290 0 l0 -61 ZM573 368 l-120 222 l2 -270 l-69 0 l0 377 l75 0 l139 -246 l142 246 l72 0 l0 -377 l-69 0 l3 270 l-120 -222 l-55 0 Z" /><glyph glyph-name="minus" unicode="&#x2212;" d="M57 246 l0 69 l513 0 l0 -69 l-513 0 Z" /><glyph glyph-name="infinity" unicode="&#x221e;" d="M238 184 q-68 0 -116.5 48.5 q-48.5 48.5 -48.5 116.5 q0 69 48 116.5 q48 47.5 117 47.5 q69 0 117 -47.5 q48 -47.5 48 -116.5 q0 -68 -48 -116.5 q-48 -48.5 -117 -48.5 Z" /><glyph glyph-name="approxequal" unicode="&#x2248;" d="M103 331 l-41 49 q69 73 151 73 q50 0 107.5 -35 q57.5 -35 90.5 -35 q68 0 111 46 l40 -50 q-66 -68 -151 -68 q-50 0 -107.5 34.5 q-57.5 34.5 -90.5 34.5 q-63 0 -110 -49 ZM103 155 l-41 49 q69 73 151 73 q50 0 107.5 -35 q57.5 -35 90.5 -35 q68 0 111 46 l40 -50 q-66 -68 -151 -68 q-50 0 -107.5 34.5 q-57.5 34.5 -90.5 34.5 q-63 0 -110 -49 Z" /><glyph glyph-name="notequal" unicode="&#x2260;" d="M136 69 l55 82 l-103 0 l0 67 l149 0 l98 132 l-247 0 l0 68 l291 0 l78 110 l43 -30 l-58 -80 l95 0 l0 -68 l-138 0 l-98 -132 l236 0 l0 -67 l-279 0 l-79 -112 l-43 30 Z" /><glyph glyph-name="lessequal" unicode="&#x2264;" d="M42 62 l414 0 l0 -68 l-414 0 l0 68 ZM442 611 l0 -90 l-306 -153 l306 -152 l0 -87 l-401 209 l0 60 l401 213 Z" /><glyph glyph-name="greaterequal" unicode="&#x2265;" d="M74 70 l414 0 l0 -73 l-414 0 l0 73 ZM85 521 l0 90 l401 -213 l0 -60 l-401 -209 l0 87 l306 152 l-306 153 Z" /><glyph glyph-name="f_f" unicode="&#xfb00;" d="M583 701 l0 -69 q-50 3 -77 -18 q-27 -21 -27 -64 l0 -52 l100 0 l0 -67 l-100 0 l0 -431 l-78 0 l0 431 l-226 0 l0 -431 l-78 0 l0 431 l-50 0 l0 67 l50 0 l0 52 q0 81 50.5 120.5 q50.5 39.5 131.5 30.5 l0 -69 q-50 3 -77 -18 q-27 -21 -27 -64 l0 -52 l226 0 l0 52 q0 81 50.5 120.5 q50.5 39.5 131.5 30.5 Z" /><glyph glyph-name="fi" unicode="&#xfb01;" d="M441 0 l-79 0 l0 435 l-189 0 l0 -435 l-78 0 l0 435 l-50 0 l0 72 l50 0 l0 43 q0 81 50.5 120.5 q50.5 39.5 131.5 30.5 l0 -69 q-50 3 -77 -18 q-27 -21 -27 -64 l0 -43 l268 0 l0 -507 ZM442 612 l0 92 l-81 0 l0 -92 l81 0 Z" /><glyph glyph-name="fl" unicode="&#xfb02;" d="M277 701 l0 -69 q-50 3 -77 -18 q-27 -21 -27 -64 l0 -46 l100 0 l0 -72 l-100 0 l0 -432 l-78 0 l0 432 l-50 0 l0 72 l50 0 l0 46 q0 81 50.5 120.5 q50.5 39.5 131.5 30.5 ZM516 -2 l0 69 q-47 -4 -64 16 q-17 20 -17 66 l0 556 l-79 0 l0 -556 q0 -83 41 -121 q41 -38 119 -30 Z" /><glyph glyph-name="f_f_i" unicode="&#xfb03;" d="M473 433 l0 -433 l-78 0 l0 433 l-221 0 l0 -433 l-78 0 l0 433 l-50 0 l0 67 l50 0 l0 50 q0 81 50.5 120.5 q50.5 39.5 131.5 30.5 l0 -69 q-50 3 -77 -18 q-27 -21 -27 -64 l0 -50 l221 0 l0 50 q0 81 50.5 120.5 q50.5 39.5 131.5 30.5 l0 -69 q-50 3 -77 -18 q-27 -21 -27 -64 l0 -50 l274 0 l0 -500 l-79 0 l0 433 l-195 0 ZM748 612 l0 92 l-81 0 l0 -92 l81 0 Z" /><glyph glyph-name="f_f_l" unicode="&#xfb04;" d="M571 500 l0 -67 l-98 0 l0 -433 l-78 0 l0 433 l-221 0 l0 -433 l-78 0 l0 433 l-50 0 l0 67 l50 0 l0 50 q0 81 50.5 120.5 q50.5 39.5 131.5 30.5 l0 -69 q-50 3 -77 -18 q-27 -21 -27 -64 l0 -50 l221 0 l0 50 q0 81 50.5 120.5 q50.5 39.5 131.5 30.5 l0 -69 q-50 3 -77 -18 q-27 -21 -27 -64 l0 -50 l98 0 ZM828 -2 l0 69 q-47 -4 -64 16 q-17 20 -17 66 l0 556 l-79 0 l0 -556 q0 -83 41 -121 q41 -38 119 -30 Z" /></font>
</defs>
</svg>
