<?xml version="1.0" standalone="no"?><!DOCTYPE svg PUBLIC "-//W3C//DTD SVG 1.1//EN" "http://www.w3.org/Graphics/SVG/1.1/DTD/svg11.dtd" ><svg xmlns="http://www.w3.org/2000/svg"><metadata></metadata><defs><font id="SvetoslavSimov: Solomon Sans Black: 2011" horiz-adv-x="1730"><font-face font-family="Solomon Sans Black" font-weight="900" font-stretch="normal" units-per-em="1000" panose-1="2 0 0 0 0 0 0 0 0 0" ascent="750" descent="-250" x-height="0" bbox="-188 -234 1671 937" underline-thickness="50" underline-position="-125" unicode-range="U+0020-fb04" /><missing-glyph horiz-adv-x="585" d="M3 0 l0 700 l537 0 l0 -700 l-537 0 ZM271 456 l77 114 l-152 0 l75 -114 ZM346 349 l62 -92 l0 188 l-62 -96 ZM348 132 l-77 114 l-75 -114 l152 0 ZM137 257 l62 92 l-62 96 l0 -188 Z" /><glyph glyph-name="space" unicode=" " d="" /><glyph glyph-name="exclam" unicode="!" d="M212 169 l-167 0 l-6 531 l178 0 l-5 -531 ZM211 0 l-167 0 l0 132 l167 0 l0 -132 Z" /><glyph glyph-name="quotedbl" unicode="&quot;" d="M1 441 l0 263 l152 0 l0 -263 l-152 0 ZM211 441 l0 263 l152 0 l0 -263 l-152 0 Z" /><glyph glyph-name="numbersign" unicode="#" d="M538 510 l0 -144 l-81 0 l-7 -49 l57 0 l1 -148 l-80 0 l-26 -169 l-157 0 l26 169 l-49 0 l-27 -169 l-156 0 l26 169 l-66 0 l-1 148 l88 0 l8 49 l-67 0 l1 144 l89 0 l29 191 l158 0 l-30 -191 l47 0 l31 191 l158 0 l-30 -191 l58 0 ZM308 372 l-60 0 l-9 -60 l59 0 l10 60 Z" /><glyph glyph-name="dollar" unicode="$" d="M172 -73 l0 71 q-116 27 -179 141 l115 84 q55 -77 135 -77 q29 -1 48.5 16 q19.5 17 21.5 42 q2 34 -23.5 53 q-25.5 19 -65.5 30 l1 0 q-215 55 -213 216 q1 80 45.5 129.5 q44.5 49.5 114.5 67.5 l0 75 l139 0 l0 -73 q102 -25 159 -125 l-116 -73 q-40 52 -98 52 q-66 0 -69 -53 q-1 -19 14.5 -33 q15.5 -14 29 -18.5 q13.5 -4.5 37.5 -11.5 q48 -13 83 -28.5 q35 -15.5 70.5 -43 q35.5 -27.5 53 -71.5 q17.5 -44 15.5 -102 q-4 -81 -54 -131.5 q-50 -50.5 -125 -66.5 l0 -70 l-139 0 Z" /><glyph glyph-name="percent" unicode="%" d="M359 534 q0 -71 -51.5 -122.5 q-51.5 -51.5 -121.5 -51.5 q-70 0 -119 51.5 q-49 51.5 -49 122.5 q0 73 49 125 q49 52 119 52 q70 0 121.5 -52 q51.5 -52 51.5 -125 ZM525 706 l184 0 l-436 -737 l-182 0 l434 737 ZM231 535 q0 29 -20.5 42 q-20.5 13 -41.5 1 q-21 -12 -21 -43 q0 -27 21 -38.5 q21 -11.5 41.5 -0.5 q20.5 11 20.5 39 ZM796 165 q0 -72 -49 -123 q-49 -51 -118 -51 q-70 0 -120.5 51.5 q-50.5 51.5 -50.5 122.5 q0 73 50.5 125 q50.5 52 120.5 52 q70 0 118.5 -51.5 q48.5 -51.5 48.5 -125.5 ZM668 166 q0 29 -20 42 q-20 13 -40 1 q-20 -12 -20 -43 q0 -27 20 -38.5 q20 -11.5 40 -0.5 q20 11 20 39 Z" /><glyph glyph-name="ampersand" unicode="&amp;" d="M672 10 l-1 -10 l-185 0 l-55 67 q-72 -77 -183 -77 q-100 0 -164 65 q-64 65 -65 152 q-2 128 113 189 q-24 15 -42.5 53 q-18.5 38 -18.5 69 q0 93 59 140 q59 47 141 47 q78 0 135 -46 q57 -46 57 -135 q0 -92 -90 -157 l71 -82 l54 56 l96 -91 l-67 -68 l145 -172 ZM331 175 l-102 120 q-20 -10 -35 -30.5 q-15 -20.5 -17 -42.5 q-4 -31 19.5 -57 q23.5 -26 56.5 -25 q43 2 78 35 ZM316 537 q0 28 -25 38.5 q-25 10.5 -49 -3 q-24 -13.5 -21 -43.5 q4 -44 39 -72 q56 33 56 80 Z" /><glyph glyph-name="quotesingle" unicode="&#39;" d="M14 441 l0 263 l152 0 l0 -263 l-152 0 Z" /><glyph glyph-name="parenleft" unicode="(" d="M360 653 q-85 -35 -133 -117 q-48 -82 -50 -188 q-4 -242 183 -321 l0 -175 q-92 32 -160.5 87 q-68.5 55 -106 122 q-37.5 67 -55.5 136 q-18 69 -18 141 q0 71 19.5 143 q19.5 72 58.5 140.5 q39 68.5 106.5 123 q67.5 54.5 155.5 79.5 l0 -171 Z" /><glyph glyph-name="parenright" unicode=")" d="M3 653 l0 171 q88 -25 155.5 -79.5 q67.5 -54.5 106.5 -123 q39 -68.5 58.5 -140.5 q19.5 -72 19.5 -143 q0 -72 -18 -141 q-18 -69 -55.5 -136 q-37.5 -67 -106 -122 q-68.5 -55 -160.5 -87 l0 175 q187 79 183 321 q-2 106 -50 188 q-48 82 -133 117 Z" /><glyph glyph-name="asterisk" unicode="*" d="M370 532 l-99 -22 l73 -77 l-109 -80 l-54 85 l-53 -86 l-107 82 l72 74 l-101 23 l38 122 l95 -38 l-11 96 l135 0 l-13 -96 l94 38 l40 -121 Z" /><glyph glyph-name="plus" unicode="+" d="M25 241 l0 151 l162 0 l0 169 l166 0 l0 -169 l162 0 l0 -151 l-162 0 l0 -173 l-166 0 l0 173 l-162 0 Z" /><glyph glyph-name="comma" unicode="," d="M223 138 l4 -9 l-113 -241 l-148 0 l81 250 l176 0 Z" /><glyph glyph-name="hyphen" unicode="-" d="M26 257 l0 152 l322 0 l0 -152 l-322 0 Z" /><glyph glyph-name="period" unicode="." d="M195 -2 l-173 0 l0 163 l173 0 l0 -163 Z" /><glyph glyph-name="slash" unicode="/" d="M402 734 l-265 -787 l-166 0 l267 787 l164 0 Z" /><glyph glyph-name="zero" unicode="0" d="M197 198 q0 -30 20.5 -47 q20.5 -17 51.5 -17 q31 0 53.5 17 q22.5 17 22.5 47 l0 299 q0 30 -22.5 47 q-22.5 17 -52.5 17 q-30 0 -51.5 -17 q-21.5 -17 -21.5 -47 l0 -299 ZM26 487 q0 102 71 159.5 q71 57.5 170 57.5 q100 2 174 -55.5 q74 -57.5 74 -161.5 l0 -278 q0 -100 -75.5 -159.5 q-75.5 -59.5 -172.5 -59.5 q-99 0 -170 56.5 q-71 56.5 -71 162.5 l0 278 Z" /><glyph glyph-name="one" unicode="1" d="M76 555 l-73 0 l0 145 l245 0 l0 -700 l-172 0 l0 555 Z" /><glyph glyph-name="two" unicode="2" d="M290 202 l-62 -52 l256 1 l0 -151 l-429 0 l-52 106 l281 319 q38 53 18.5 88 q-19.5 35 -66.5 37 q-63 2 -92 -64 l-124 65 q78 158 235 153 q98 -2 159.5 -62.5 q61.5 -60.5 63.5 -144.5 q0 -94 -79 -178 l-109 -117 Z" /><glyph glyph-name="three" unicode="3" d="M4 133 l111 77 q24 -42 51.5 -55.5 q27.5 -13.5 61.5 -13.5 q51 0 72 38 q21 38 2.5 76.5 q-18.5 38.5 -64.5 38.5 l-84 0 l0 133 l83 0 q33 0 49.5 31 q16.5 31 1.5 62.5 q-15 31.5 -60 32.5 q-27 1 -51 -12 q-24 -13 -37 -38 l-113 67 q73 133 206 133 q73 0 134.5 -34 q61.5 -34 83.5 -102 q21 -59 2.5 -116.5 q-18.5 -57.5 -74.5 -88.5 q50 -22 77.5 -66 q27.5 -44 27.5 -87 q-1 -108 -76.5 -162 q-75.5 -54 -175.5 -54 q-146 0 -228 140 Z" /><glyph glyph-name="four" unicode="4" d="M492 700 l0 -444 l76 0 l0 -141 l-76 0 l0 -115 l-156 0 l0 115 l-248 0 l-85 108 l308 477 l181 0 ZM369 549 l-6 2 l-178 -293 l156 0 l0 158 l28 133 Z" /><glyph glyph-name="five" unicode="5" d="M10 131 l123 83 q22 -40 57 -58 q35 -18 66.5 -12 q31.5 6 54.5 31.5 q23 25.5 23 64.5 q0 51 -36.5 77.5 q-36.5 26.5 -83.5 18 q-47 -8.5 -75 -48.5 l-108 0 l55 413 l373 0 l0 -149 l-254 0 l-12 -94 q134 34 220.5 -30.5 q86.5 -64.5 86.5 -192.5 q0 -97 -69 -169 q-69 -72 -186 -72 q-155 0 -235 138 Z" /><glyph glyph-name="six" unicode="6" d="M270 -9 q-117 1 -183 73 q-66 72 -66 170 q0 72 41 135 l193 331 l192 0 l-167 -278 q25 9 53 9 q87 0 137.5 -57.5 q50.5 -57.5 52.5 -138.5 q2 -96 -68.5 -170.5 q-70.5 -74.5 -184.5 -73.5 ZM352 234 q0 38 -22.5 60 q-22.5 22 -54.5 23 q-34 2 -60 -20.5 q-26 -22.5 -26 -62.5 q0 -42 24.5 -65.5 q24.5 -23.5 57.5 -23.5 q33 0 57 23.5 q24 23.5 24 65.5 Z" /><glyph glyph-name="seven" unicode="7" d="M256 549 l-262 0 l0 151 l473 0 l0 -97 l-293 -603 l-189 0 l271 549 Z" /><glyph glyph-name="eight" unicode="8" d="M399 371 q43 -19 67.5 -61.5 q24.5 -42.5 24.5 -89 q0 -46.5 -12 -92.5 q-22 -66 -81.5 -101 q-59.5 -35 -136.5 -35 q-82 0 -145 34.5 q-63 34.5 -87 102.5 q-25 66 -1.5 133 q23.5 67 86.5 106 q-37 19 -56.5 59 q-19.5 40 -19.5 72 q0 99 62 155 q62 56 149 56 q89 0 154 -54.5 q65 -54.5 65 -156.5 q0 -34 -18.5 -70.5 q-18.5 -36.5 -50.5 -57.5 ZM253 568 q-28 0 -46 -20.5 q-18 -20.5 -18 -44.5 q0 -43 31.5 -61 q31.5 -18 63 0 q31.5 18 31.5 61 q0 23 -17.5 44 q-17.5 21 -44.5 21 ZM253 297 q-48 0 -69.5 -41 q-21.5 -41 -1.5 -81 q20 -40 71 -39 q38 0 58.5 25 q20.5 25 20 55.5 q-0.5 30.5 -21.5 55.5 q-21 25 -57 25 Z" /><glyph glyph-name="nine" unicode="9" d="M266 706 q73 0 130.5 -34.5 q57.5 -34.5 87.5 -88 q30 -53.5 28.5 -122.5 q-1.5 -69 -39.5 -133 l-196 -328 l-191 0 l162 267 q-42 -12 -94 1 q-52 13 -86 50 q-52 56 -52 145 q0 98 66 170.5 q66 72.5 184 72.5 ZM266 382 q39 0 61 26 q22 26 21.5 58 q-0.5 32 -22.5 58 q-22 26 -60 26 q-39 0 -62 -26 q-23 -26 -23.5 -58 q-0.5 -32 22 -58 q22.5 -26 63.5 -26 Z" /><glyph glyph-name="colon" unicode=":" d="M215 -2 l-172 0 l0 163 l172 0 l0 -163 ZM215 339 l-172 0 l0 164 l172 0 l0 -164 Z" /><glyph glyph-name="semicolon" unicode=";" d="M225 340 l-173 0 l0 164 l173 0 l0 -164 ZM228 138 l4 -9 l-113 -241 l-143 0 l81 250 l171 0 Z" /><glyph glyph-name="less" unicode="&lt;" d="M398 552 l6 -4 l0 -181 l-202 -88 l202 -88 l0 -178 l-5 -2 l-394 216 l0 106 l393 219 Z" /><glyph glyph-name="equal" unicode="=" d="M30 115 l0 143 l410 0 l0 -143 l-410 0 ZM30 307 l0 144 l410 0 l0 -144 l-410 0 Z" /><glyph glyph-name="greater" unicode="&gt;" d="M20 548 l6 4 l393 -219 l0 -106 l-394 -216 l-5 2 l0 178 l202 88 l-202 88 l0 181 Z" /><glyph glyph-name="question" unicode="?" d="M96 499 l-107 86 q44 70 94 95 q50 25 114 25 q102 0 178 -59 q76 -59 75 -175 q-1 -78 -47.5 -135 q-46.5 -57 -133.5 -61 l-6 -104 l-153 0 l-5 193 q170 -11 172 108 q1 44 -36.5 64.5 q-37.5 20.5 -82 9.5 q-44.5 -11 -62.5 -47 ZM269 0 l-167 0 l0 132 l167 0 l0 -132 Z" /><glyph glyph-name="at" unicode="@" d="M597 294 q3 90 -60 134.5 q-63 44.5 -156 44.5 q-127 0 -197 -107 q-59 -90 -48 -199 q10 -108 84 -154 q72 -44 181 -8 l50 -94 q-77 -31 -141 -31 q-166 -1 -245 125 q-68 107 -45 253 q23 147 124 240 q98 91 237 91 q94 0 171 -33.5 q77 -33.5 124 -103.5 q47 -70 43 -163 q-9 -130 -78 -205 q-69 -75 -160 -75 q-57 0 -77 41 q-37 -37 -82 -37 q-68 0 -113.5 49 q-45.5 49 -47.5 124 q-2 76 35 141 q37 65 100 96 q25 13 55.5 15.5 q30.5 2.5 59 -10 q28.5 -12.5 40.5 -40.5 l19 34 l81 -24 l-48 -283 q46 9 69.5 62 q23.5 53 24.5 117 ZM294 180 q2 -15 12 -25 q10 -10 21 -12 q30 -5 55.5 33.5 q25.5 38.5 24.5 104.5 q-2 38 -26 39 q-44 4 -69 -42.5 q-25 -46.5 -18 -97.5 Z" /><glyph glyph-name="A" unicode="a" d="M477 0 l-56 171 l-223 0 l-53 -171 l-190 0 l239 707 l232 0 l242 -707 l-191 0 ZM314 579 l-7 0 l-18 -98 l-44 -151 l129 0 l-42 151 l-18 98 Z" /><glyph glyph-name="B" unicode="b" d="M217 431 l66 0 q42 0 58.5 30.5 q16.5 30.5 0 60.5 q-16.5 30 -56.5 30 l-68 0 l0 -121 ZM285 303 l-68 0 l0 -148 l68 0 q40 0 62.5 23 q22.5 23 22 51 q-0.5 28 -23 51 q-22.5 23 -61.5 23 ZM512 539 q8 -54 -13 -98 q-21 -44 -71 -66 q55 -15 85 -65 q30 -50 29 -90 q0 -111 -73.5 -165.5 q-73.5 -54.5 -181.5 -54.5 l-236 0 l0 701 l238 0 q88 0 149.5 -42 q61.5 -42 73.5 -120 Z" /><glyph glyph-name="C" unicode="c" d="M649 574 l-107 -100 q-80 84 -169 80 q-86 -2 -135 -61.5 q-49 -59.5 -49 -144.5 q0 -85 49.5 -144 q49.5 -59 134.5 -59 q107 0 179 93 l113 -94 q-130 -158 -292 -158 q-167 0 -263.5 106.5 q-96.5 106.5 -96.5 255.5 q0 96 40 177.5 q40 81.5 124 134.5 q84 53 196 53 q81 0 147.5 -32 q66.5 -32 128.5 -107 Z" /><glyph glyph-name="D" unicode="d" d="M293 703 q169 1 263.5 -103 q94.5 -104 94.5 -248 q0 -67 -22.5 -129.5 q-22.5 -62.5 -65.5 -112.5 q-43 -50 -113 -80 q-70 -30 -156 -30 l-240 0 l0 703 l239 0 ZM293 153 q85 0 132.5 59 q47.5 59 47.5 137 q0 79 -47.5 139.5 q-47.5 60.5 -131.5 62.5 l-63 0 l0 -398 l62 0 Z" /><glyph glyph-name="E" unicode="e" d="M464 700 l0 -150 l-258 0 l0 -110 l247 0 l0 -150 l-247 0 l0 -138 l258 0 l0 -152 l-430 0 l0 700 l430 0 Z" /><glyph glyph-name="F" unicode="f" d="M466 707 l0 -155 l-254 0 l0 -138 l247 0 l0 -153 l-247 0 l0 -261 l-176 0 l0 707 l430 0 Z" /><glyph glyph-name="G" unicode="g" d="M375 716 q93 0 162 -33.5 q69 -33.5 137 -117.5 l-122 -89 q-36 43 -84 64 q-48 21 -95 16 q-47 -5 -88 -27.5 q-41 -22.5 -66 -70 q-25 -47.5 -25 -109.5 q0 -78 50.5 -140.5 q50.5 -62.5 133.5 -62.5 q155 0 175 114 l-265 0 l0 143 l431 0 q3 -34 3 -53 q0 -171 -94.5 -266.5 q-94.5 -95.5 -252.5 -95.5 q-84 0 -153.5 30.5 q-69.5 30.5 -113.5 82 q-44 51.5 -68 115.5 q-24 64 -24 133 q0 71 24 136 q24 65 68 117 q44 52 113.5 83 q69.5 31 153.5 31 Z" /><glyph glyph-name="H" unicode="h" d="M424 0 l0 271 l-192 0 l0 -271 l-180 0 l0 700 l180 0 l0 -273 l192 0 l0 273 l179 0 l0 -700 l-179 0 Z" /><glyph glyph-name="I" unicode="i" d="M33 0 l0 703 l178 0 l0 -703 l-178 0 Z" /><glyph glyph-name="J" unicode="j" d="M-15 220 l154 37 q16 -103 80 -108 q33 0 55 18.5 q22 18.5 22 52.5 l0 338 l-116 0 l0 142 l292 0 l0 -480 q0 -108 -71.5 -169 q-71.5 -61 -166.5 -61 q-226 0 -249 230 Z" /><glyph glyph-name="K" unicode="k" d="M39 0 l0 700 l177 0 l0 -276 l41 73 l156 203 l207 0 l-262 -320 l269 -380 l-205 0 l-186 261 l-20 -21 l0 -240 l-177 0 Z" /><glyph glyph-name="L" unicode="l" d="M439 160 l0 -160 l-410 0 l0 700 l179 0 l0 -540 l231 0 Z" /><glyph glyph-name="M" unicode="m" d="M436 311 l151 393 l237 0 l0 -704 l-175 0 l0 295 l27 192 l-6 2 l-73 -191 l-88 -196 l-146 0 l-88 196 l-73 191 l-6 -2 l27 -192 l0 -295 l-175 0 l0 704 l240 0 l148 -393 Z" /><glyph glyph-name="N" unicode="n" d="M210 533 l-9 -2 l31 -153 l0 -378 l-179 0 l0 701 l236 0 l186 -384 l63 -167 l7 2 l-27 172 l0 377 l177 0 l0 -701 l-251 0 l-180 382 l-54 151 Z" /><glyph glyph-name="O" unicode="o" d="M375 712 q151 0 256.5 -102 q105.5 -102 105.5 -261 q0 -161 -105 -261.5 q-105 -100.5 -257 -100.5 q-153 0 -258 100 q-105 100 -105 262 q0 161 105.5 262 q105.5 101 257.5 101 ZM245 498 q-53 -53 -53 -149 q0 -96 54.5 -148.5 q54.5 -52.5 128.5 -52.5 q77 0 129.5 48 q52.5 48 52.5 153 q0 101 -53.5 151.5 q-53.5 50.5 -129.5 50.5 q-76 0 -129 -53 Z" /><glyph glyph-name="P" unicode="p" d="M224 198 l0 -198 l-176 0 l0 700 l233 0 q129 -1 199 -76 q70 -75 68 -178 q-2 -101 -72.5 -174.5 q-70.5 -73.5 -193.5 -73.5 l-58 0 ZM281 340 q44 0 69 31 q25 31 26 74 q1 43 -24 74.5 q-25 31.5 -71 31.5 l-60 0 l0 -211 l60 0 Z" /><glyph glyph-name="Q" unicode="q" d="M378 712 q151 0 256.5 -102 q105.5 -102 105.5 -261 q0 -115 -70 -209 l60 -60 l-97 -95 l-62 62 q-91 -60 -193 -60 q-153 0 -258 100 q-105 100 -105 262 q0 161 105.5 262 q105.5 101 257.5 101 ZM364 254 l97 98 l88 -89 q14 30 14 86 q0 101 -55 151.5 q-55 50.5 -131 50.5 q-76 0 -129 -53 q-53 -53 -53 -149 q0 -96 54.5 -148.5 q54.5 -52.5 128.5 -52.5 q46 0 78 13 l-92 93 Z" /><glyph glyph-name="R" unicode="r" d="M405 275 l174 -275 l-200 0 l-140 245 l-23 0 l0 -245 l-179 0 l0 701 l245 0 q167 0 228 -104 q34 -57 32 -128 q-2 -65 -37 -117.5 q-35 -52.5 -100 -76.5 ZM211 394 l72 0 q40 0 62.5 24 q22.5 24 21.5 56 q-1 30 -23 52 q-22 22 -61 22 l-72 0 l0 -154 Z" /><glyph glyph-name="S" unicode="s" d="M5 139 l115 84 q55 -77 135 -77 q29 -1 48.5 16 q19.5 17 21.5 42 q2 34 -23.5 53 q-25.5 19 -65.5 30 l1 0 q-215 55 -213 216 q2 103 72 155 q70 52 165 52 q66 0 124.5 -33 q58.5 -33 96.5 -100 l-116 -73 q-40 52 -98 52 q-66 0 -69 -53 q-1 -19 14.5 -33 q15.5 -14 29 -18.5 q13.5 -4.5 37.5 -11.5 q48 -13 83 -28.5 q35 -15.5 70.5 -43 q35.5 -27.5 53 -71.5 q17.5 -44 15.5 -102 q-5 -100 -79 -153 q-74 -53 -171 -53 q-68 0 -135 35 q-67 35 -112 115 Z" /><glyph glyph-name="T" unicode="t" d="M-24 700 l503 0 l0 -154 l-163 0 l0 -546 l-179 0 l0 546 l-161 0 l0 154 Z" /><glyph glyph-name="U" unicode="u" d="M42 700 l180 0 l0 -474 q0 -40 26.5 -62 q26.5 -22 62.5 -21 q36 1 62 23 q26 22 26 60 l0 474 l179 0 l0 -474 q0 -111 -80 -173 q-80 -62 -189 -62 q-69 0 -128.5 25.5 q-59.5 25.5 -99 80 q-39.5 54.5 -39.5 129.5 l0 474 Z" /><glyph glyph-name="V" unicode="v" d="M331 100 l7 0 l23 120 l146 480 l187 0 l-236 -704 l-247 0 l-240 704 l190 0 l148 -481 l22 -119 Z" /><glyph glyph-name="W" unicode="w" d="M523 438 l-7 0 l-16 -115 l-85 -326 l-251 0 l-181 704 l186 0 l105 -430 l20 -150 l6 0 l18 150 l105 355 l195 0 l105 -355 l21 -151 l7 0 l21 151 l106 430 l187 0 l-180 -704 l-261 0 l-85 327 l-16 114 Z" /><glyph glyph-name="X" unicode="x" d="M641 0 l0 5 l0 -5 ZM638 694 l0 6 l0 -6 ZM-43 695 l0 5 l205 0 l102 -170 l34 -69 l33 69 l103 170 l204 0 l0 -6 l-171 -272 l-50 -72 l54 -79 l170 -266 l0 -5 l-206 0 l-102 170 l-35 74 l-37 -75 l-99 -169 l-207 0 l0 5 l173 271 l53 74 l-52 73 l-172 272 Z" /><glyph glyph-name="Y" unicode="y" d="M273 417 l-2 0 l2 0 ZM271 417 l2 0 l44 113 l89 170 l201 0 l-171 -304 l-78 -126 l0 -270 l-177 0 l0 271 l-80 131 l-166 298 l199 0 l93 -173 l44 -110 Z" /><glyph glyph-name="Z" unicode="z" d="M496 700 l0 -141 l-287 -401 l115 3 l180 0 l0 -161 l-498 0 l0 131 l287 418 l-112 -3 l-162 0 l0 154 l477 0 Z" /><glyph glyph-name="bracketleft" unicode="[" d="M274 780 l0 -134 l-73 0 l0 -615 l73 0 l0 -136 l-239 0 l1 885 l238 0 Z" /><glyph glyph-name="backslash" unicode="\" d="M221 -53 l-266 779 l170 0 l266 -779 l-170 0 Z" /><glyph glyph-name="bracketright" unicode="]" d="M-17 646 l0 134 l238 0 l0 -885 l-238 0 l0 147 l73 0 l0 604 l-73 0 Z" /><glyph glyph-name="asciicircum" unicode="^" d="M-7 350 l-3 10 l205 341 l104 0 l203 -342 l-5 -9 l-172 0 l-79 149 l-80 -149 l-173 0 Z" /><glyph glyph-name="underscore" unicode="_" d="M-3 12 l517 0 l0 -143 l-517 0 l0 143 Z" /><glyph glyph-name="grave" unicode="`" d="M13 789 l5 7 l185 0 l76 -148 l-156 0 l-110 141 Z" /><glyph glyph-name="a" unicode="a" d="M234 219 q-36 0 -52 -23 q-16 -23 -2 -46 q14 -23 51 -23 q50 0 77 24 l0 55 q-27 13 -74 13 ZM474 0 l-135 0 l-17 51 q-44 -58 -122 -58 q-90 0 -140 50.5 q-50 50.5 -50 122.5 q0 75 58.5 117.5 q58.5 42.5 138.5 44.5 q57 2 98 -16 l0 16 q0 27 -24 42 q-24 15 -67 15 q-74 0 -124 -34 l-50 93 q91 73 206 73 q47 0 85.5 -9.5 q38.5 -9.5 72 -30.5 q33.5 -21 52 -60 q18.5 -39 18.5 -93 l0 -324 Z" /><glyph glyph-name="b" unicode="b" d="M524 251 q0 -101 -60 -178 q-60 -77 -164 -77 q-85 0 -119 59 l-13 -55 l-130 0 l0 700 l168 0 l0 -216 q51 26 102 26 q100 0 158 -74 q58 -74 58 -185 ZM206 359 l0 -199 q25 -22 50 -22 q99 0 101 118 q1 52 -24 84.5 q-25 32.5 -69 32.5 q-25 0 -58 -14 Z" /><glyph glyph-name="c" unicode="c" d="M468 424 l-94 -95 q-45 41 -97 41 q-45 0 -74.5 -29 q-29.5 -29 -29.5 -89 q0 -50 31 -82 q31 -32 74 -32 q55 0 103 51 l97 -92 q-47 -58 -95 -81.5 q-48 -23.5 -110 -23.5 q-124 0 -195.5 76.5 q-71.5 76.5 -71.5 184.5 q1 107 73 182.5 q72 75.5 194 76.5 q57 0 100 -18 q43 -18 95 -70 Z" /><glyph glyph-name="d" unicode="d" d="M71 69.5 q-58 72.5 -58 181.5 q0 109 60 184 q60 75 159 75 q61 2 99 -26 l0 216 l168 0 l0 -700 l-130 0 l-13 55 q-60 -60 -137 -58 q-90 0 -148 72.5 ZM331 160 l0 199 q-27 13 -51 15 q-45 2 -73 -32.5 q-28 -34.5 -27 -86.5 q1 -117 101 -117 q25 0 50 22 Z" /><glyph glyph-name="e" unicode="e" d="M520 200 l-334 0 q6 -36 34.5 -53.5 q28.5 -17.5 63.5 -17.5 q34 0 56 10 q22 10 48 35 l89 -78 q-53 -57 -98.5 -80.5 q-45.5 -23.5 -101.5 -23.5 q-124 0 -193 78.5 q-69 78.5 -68 184.5 q0 107 68 185.5 q68 78.5 192 78.5 q128 0 200 -92.5 q72 -92.5 44 -226.5 ZM184 311 l182 0 q-5 35 -32.5 54.5 q-27.5 19.5 -59 18.5 q-31.5 -1 -58.5 -20 q-27 -19 -32 -53 Z" /><glyph glyph-name="f" unicode="f" d="M286 701 l0 -120 q-44 7 -64 -9.5 q-20 -16.5 -20 -36.5 l0 -28 l84 0 l0 -126 l-84 0 l0 -381 l-168 0 l0 381 l-69 0 l0 126 l69 0 l0 27 q-1 104 76 148.5 q77 44.5 176 18.5 Z" /><glyph glyph-name="g" unicode="g" d="M102 -7 q70 -46 138 -45 q82 0 88 71 q-132 -51 -226 22 q-94 73 -94 212 q0 97 53.5 171 q53.5 74 136.5 85 q116 16 159 -55 l8 53 l129 0 l0 -495 q0 -101 -68 -154.5 q-68 -53.5 -167 -55.5 q-65 -1 -125 21 q-60 22 -100 64 l68 106 ZM330 146 l0 207 q-27 23 -68 17 q-34 -5 -56.5 -31 q-22.5 -26 -27.5 -60.5 q-5 -34.5 1.5 -68 q6.5 -33.5 31.5 -56.5 q25 -23 61 -24 q35 0 58 16 Z" /><glyph glyph-name="h" unicode="h" d="M37 700 l168 0 l0 -215 q47 25 100 25 q91 0 154 -59.5 q63 -59.5 63 -161.5 l0 -289 l-168 0 l0 290 q0 38 -23.5 60 q-23.5 22 -59.5 24 q-33 2 -66 -14 l0 -360 l-168 0 l0 700 Z" /><glyph glyph-name="i" unicode="i" d="M185 548 l-166 0 l0 155 l166 0 l0 -155 ZM18 505 l168 0 l0 -505 l-168 0 l0 505 Z" /><glyph glyph-name="j" unicode="j" d="M189 548 l-166 0 l0 155 l166 0 l0 -155 ZM-60 -185 l0 133 q44 -7 63 7 q19 14 19 34 l0 514 l168 0 l0 -514 q1 -104 -75.5 -152 q-76.5 -48 -174.5 -22 Z" /><glyph glyph-name="k" unicode="k" d="M518 12 l0 -12 l-183 0 l-122 203 l-22 -19 l0 -184 l-167 0 l0 700 l167 0 l0 -364 q10 36 60 96 l67 75 l190 0 l0 -12 l-180 -185 l190 -298 Z" /><glyph glyph-name="l" unicode="l" d="M252 121 l0 -119 q-39 -7 -67 -7 q-76 0 -121 42.5 q-45 42.5 -45 131.5 l0 531 l168 0 l0 -531 q0 -25 13 -38.5 q13 -13.5 52 -9.5 Z" /><glyph glyph-name="m" unicode="m" d="M200 452 q20 38 67 53 q47 15 94.5 0.5 q47.5 -14.5 66.5 -51.5 q37 47 109 56.5 q72 9.5 127 -19.5 q109 -52 109 -189 l0 -302 l-162 0 l0 304 q0 33 -17 50 q-17 17 -43 17 q-25 0 -40.5 -17.5 q-15.5 -17.5 -15.5 -49.5 l0 -304 l-159 0 l0 301 q0 30 -16.5 49.5 q-16.5 19.5 -41.5 21.5 q-37 2 -63 -23 l0 -349 l-164 0 l0 507 l135 0 l14 -55 Z" /><glyph glyph-name="n" unicode="n" d="M37 507 l139 0 l11 -55 q46 80 173 53 q71 -16 121 -73.5 q50 -57.5 50 -137.5 l0 -294 l-167 0 l0 294 q0 43 -27.5 66 q-27.5 23 -64.5 21.5 q-37 -1.5 -67 -24.5 l0 -357 l-168 0 l0 507 Z" /><glyph glyph-name="o" unicode="o" d="M175 253 q0 -57 30.5 -88.5 q30.5 -31.5 72.5 -31.5 q42 0 73 31.5 q31 31.5 31 88.5 q0 57 -31 88.5 q-31 31.5 -73 31.5 q-42 0 -72.5 -32 q-30.5 -32 -30.5 -88 ZM550 253 q0 -118 -77.5 -191.5 q-77.5 -73.5 -194.5 -73.5 q-117 0 -194 72 q-77 72 -77 193 q0 118 77.5 193 q77.5 75 193.5 75 q117 0 194.5 -74 q77.5 -74 77.5 -194 Z" /><glyph glyph-name="p" unicode="p" d="M524 256 q0 -105 -59 -181.5 q-59 -76.5 -157 -76.5 q-63 0 -102 31 l0 -218 l-168 0 l0 696 l130 0 l13 -55 q34 61 123 59 q98 0 159 -71.5 q61 -71.5 61 -183.5 ZM206 347 l0 -199 q29 -15 60 -13 q43 2 67 31 q24 29 24 85 q0 57 -26.5 87.5 q-26.5 30.5 -74.5 30.5 q-25 0 -50 -22 Z" /><glyph glyph-name="q" unicode="q" d="M10 256 q0 105 60 180 q60 75 158 75 q92 0 125 -59 l13 55 l130 0 l0 -696 l-168 0 l0 218 q-40 -33 -107 -31 q-96 0 -153.5 75 q-57.5 75 -57.5 183 ZM328 148 l0 201 q-23 20 -50 20 q-99 0 -101 -118 q-1 -51 25.5 -85 q26.5 -34 70.5 -33 q25 0 55 15 Z" /><glyph glyph-name="r" unicode="r" d="M31 507 l138 0 l11 -56 q17 36 55 50.5 q38 14.5 81 7.5 q57 -9 94 -51 l-69 -125 q-21 24 -55 30.5 q-34 6.5 -61 -11 q-27 -17.5 -28 -54.5 l0 -298 l-166 0 l0 507 Z" /><glyph glyph-name="s" unicode="s" d="M202 329 q76 -10 131 -51 q55 -41 55 -116 q0 -46 -19.5 -81 q-19.5 -35 -51.5 -53.5 q-32 -18.5 -65.5 -27.5 q-33.5 -9 -67.5 -9 q-129 0 -201 97 l74 96 q49 -50 117 -54 q45 0 47 24 q2 23 -40 29 q-72 8 -125.5 52 q-53.5 44 -54.5 117 q0 78 59 121.5 q59 43.5 139 43.5 q106 0 172 -70 l-77 -97 q-42 31 -91 31 q-16 0 -26.5 -7 q-10.5 -7 -11.5 -17 q-1 -10 9 -17.5 q10 -7.5 28 -10.5 Z" /><glyph glyph-name="t" unicode="t" d="M278 124 l0 -122 q-44 -6 -64 -6 q-82 0 -134.5 45 q-52.5 45 -49.5 132 l0 207 l-67 0 l0 128 l67 0 l0 119 l164 16 l0 -135 l84 0 l0 -128 l-84 0 l0 -206 q0 -34 20.5 -44.5 q20.5 -10.5 63.5 -5.5 Z" /><glyph glyph-name="u" unicode="u" d="M522 0 l-139 0 l-11 55 q-34 -61 -123 -59 q-90 0 -153 57 q-63 57 -63 160 l0 294 l167 0 l0 -294 q0 -44 23 -66.5 q23 -22.5 57 -22.5 q40 0 74 26 l0 357 l168 0 l0 -507 Z" /><glyph glyph-name="v" unicode="v" d="M239 101 l5 0 l18 106 l85 300 l179 0 l-174 -507 l-222 0 l-172 507 l179 0 l83 -300 l19 -106 Z" /><glyph glyph-name="w" unicode="w" d="M397 322 l-1 0 l-23 -169 l-37 -155 l-232 0 l-127 509 l173 0 l51 -246 l15 -146 l4 0 l21 146 l67 236 l175 0 l67 -236 l22 -144 l4 0 l21 144 l51 246 l176 0 l-131 -509 l-235 0 l-37 154 l-24 170 Z" /><glyph glyph-name="x" unicode="x" d="M-40 2 l0 -1 l0 1 ZM542 2 l-166 252 l166 -252 ZM376 254 l166 -252 l0 -1 l-184 0 l-82 122 l-22 47 l-3 0 l-22 -47 l-83 -122 l-186 0 l0 1 l168 251 l-159 250 l0 2 l194 0 l65 -114 l24 -52 l2 0 l23 52 l67 114 l191 0 l0 -2 l-159 -249 Z" /><glyph glyph-name="y" unicode="y" d="M261 166 l4 0 l20 92 l82 249 l181 0 l-238 -587 q-23 -58 -62 -85 q-39 -27 -85.5 -26.5 q-46.5 0.5 -102.5 6.5 l1 126 q48 -14 80 -2.5 q32 11.5 39 58.5 l-214 510 l180 0 l92 -249 l23 -92 Z" /><glyph glyph-name="z" unicode="z" d="M11 0 l0 100 l150 203 l55 69 l-200 0 l0 135 l397 0 l0 -102 l-163 -208 l-48 -58 l220 0 l0 -139 l-411 0 Z" /><glyph glyph-name="braceleft" unicode="{" d="M287 797 l0 -117 q-36 1 -47.5 -9.5 q-11.5 -10.5 -11.5 -30.5 l0 -189 q0 -19 -6.5 -40 q-6.5 -21 -28 -44.5 q-21.5 -23.5 -54.5 -34.5 q50 -13 69.5 -48.5 q19.5 -35.5 19.5 -73.5 l0 -161 q0 -44 59 -34 l0 -130 l-87 0 q-67 0 -105 41.5 q-38 41.5 -38 117.5 l0 151 q0 57 -54 57 l0 157 q54 0 54 58 l0 179 q0 67 38.5 109 q38.5 42 104.5 42 l87 0 Z" /><glyph glyph-name="bar" unicode="|" d="M41 -135 l0 872 l165 0 l0 -872 l-165 0 Z" /><glyph glyph-name="braceright" unicode="}" d="M-16 680 l0 117 l87 0 q66 0 104.5 -42 q38.5 -42 38.5 -109 l0 -179 q0 -58 54 -58 l0 -157 q-54 0 -54 -57 l0 -151 q0 -76 -38 -117.5 q-38 -41.5 -105 -41.5 l-87 0 l0 130 q59 -10 59 34 l0 161 q0 38 19.5 73.5 q19.5 35.5 69.5 48.5 q-33 11 -54.5 34.5 q-21.5 23.5 -28 44.5 q-6.5 21 -6.5 40 l0 189 q0 20 -11.5 30.5 q-11.5 10.5 -47.5 9.5 Z" /><glyph glyph-name="asciitilde" unicode="~" d="M428 401 l84 -73 q-47 -96 -124 -120 q-77 -24 -168 38 q-76 52 -128 -29 l-92 77 q25 38 54.5 65 q29.5 27 65.5 44.5 q36 17.5 78.5 13 q42.5 -4.5 85.5 -33.5 q28 -19 44 -26.5 q16 -7.5 34.5 -9 q18.5 -1.5 33.5 12 q15 13.5 32 41.5 Z" /><glyph glyph-name="nonbreakingspace" unicode=" " d="" /><glyph glyph-name="exclamdown" unicode="¡" d="M36 346 l167 0 l6 -531 l-178 0 l5 531 ZM37 515 l167 0 l0 -132 l-167 0 l0 132 Z" /><glyph glyph-name="cent" unicode="¢" d="M210 0 l0 80 q-94 23 -146.5 96 q-52.5 73 -52.5 166 q1 94 53.5 169 q52.5 75 145.5 97 l0 84 l144 0 l0 -84 q70 -20 131 -87 l-94 -98 q-42 41 -92 45.5 q-50 4.5 -85 -30 q-35 -34.5 -36 -97.5 q-1 -60 37.5 -93 q38.5 -33 91.5 -28 q53 5 92 45 l92 -88 q-64 -80 -137 -97 l0 -80 l-144 0 Z" /><glyph glyph-name="sterling" unicode="£" d="M509 528 l-146 -35 q-4 27 -24 43 q-20 16 -43 16.5 q-23 0.5 -41.5 -16 q-18.5 -16.5 -18.5 -46.5 l0 -91 l178 0 l0 -128 l-178 0 l0 -128 l283 0 l0 -143 l-511 0 l0 143 l60 0 l0 128 l-58 0 l0 128 l58 0 l0 91 q0 102 65 157 q65 55 157 55 q50 0 91.5 -14 q41.5 -14 78 -55 q36.5 -41 49.5 -105 Z" /><glyph glyph-name="yen" unicode="¥" d="M40 281 l0 121 l61 0 l-166 298 l199 0 l93 -173 l43 -110 l47 113 l89 170 l201 0 l-168 -298 l57 0 l0 -121 l-131 0 l-7 -11 l0 -11 l138 0 l0 -119 l-138 0 l0 -140 l-177 0 l0 140 l-141 0 l0 119 l141 0 l0 12 l-6 10 l-135 0 Z" /><glyph glyph-name="brokenbar" unicode="¦" d="M19 -128 l0 413 l168 0 l0 -413 l-168 0 ZM187 737 l0 -407 l-168 0 l0 407 l168 0 Z" /><glyph glyph-name="section" unicode="§" d="M144 381 q-1 -5 -1 -15 q2 -19 22.5 -29 q20.5 -10 56.5 -16 q36 -6 41 -8 q1 0 0.5 3.5 q-0.5 3.5 -0.5 5.5 q-1 23 -21.5 33.5 q-20.5 10.5 -54 16 q-33.5 5.5 -43.5 9.5 ZM47 254 q-38 37 -34.5 94 q3.5 57 50.5 91 q-38 28 -38 80 q0 79 58.5 125 q58.5 46 138.5 46 q113 0 176 -91 l-92 -75 q-28 31 -81 31 q-50 0 -51 -25 q-1 -13 12 -19.5 q13 -6.5 43 -11.5 q119 -21 157 -86 q24 -38 16 -91.5 q-8 -53.5 -47 -73.5 q39 -33 38 -90 q-1 -57 -34 -98 q-51 -64 -167 -64 q-135 0 -209 104 l85 90 q50 -50 113 -53 q23 -1 38.5 5.5 q15.5 6.5 15.5 17.5 q0 26 -51 34 q-94 14 -137 60 Z" /><glyph glyph-name="dieresis" unicode="¨" d="M368 666 l-140 0 l0 125 l140 0 l0 -125 ZM159 666 l-142 0 l0 125 l142 0 l0 -125 Z" /><glyph glyph-name="copyright" unicode="©" d="M26 341 q0 147 101.5 250 q101.5 103 246.5 103 q147 0 248.5 -103 q101.5 -103 101.5 -250 q0 -149 -101.5 -251.5 q-101.5 -102.5 -248.5 -102.5 q-146 0 -247 103 q-101 103 -101 251 ZM135 341 q0 -107 69 -180.5 q69 -73.5 170 -73.5 q102 0 171.5 73.5 q69.5 73.5 69.5 180.5 q0 106 -69.5 179.5 q-69.5 73.5 -171.5 73.5 q-100 0 -169.5 -73.5 q-69.5 -73.5 -69.5 -179.5 ZM541 481 l-61 -77 q-40 40 -97 40 q-45 0 -71.5 -31.5 q-26.5 -31.5 -26.5 -73.5 q0 -41 26 -70.5 q26 -29.5 73 -29.5 q45 0 94 42 l62 -73 q-41 -41 -77 -61 q-36 -20 -79 -20 q-100 0 -157 63.5 q-57 63.5 -57 149.5 q1 85 58.5 148.5 q57.5 63.5 155.5 64.5 q85 0 157 -72 Z" /><glyph glyph-name="ordfeminine" unicode="ª" d="M295 300 l-15 47 q-25 -38 -76.5 -46 q-51.5 -8 -84.5 11 q-47 21 -75.5 71.5 q-28.5 50.5 -28.5 114.5 q0 90 63.5 146 q63.5 56 150.5 59 q89 5 171 -35 l0 -368 l-105 0 ZM400 254 l0 -128 l-362 0 l0 128 l362 0 ZM263 438 l0 142 q-46 7 -78.5 -16 q-32.5 -23 -32.5 -64 q0 -40 32.5 -60 q32.5 -20 78.5 -2 Z" /><glyph glyph-name="guillemotleft" unicode="«" d="M161 123 l-173 214 l173 215 l189 0 l-171 -215 l171 -214 l-189 0 ZM391 123 l-173 214 l173 215 l189 0 l-171 -215 l171 -214 l-189 0 Z" /><glyph glyph-name="logicalnot" unicode="¬" d="M18 279 l0 157 l489 0 l0 -314 l-153 0 l0 157 l-336 0 Z" /><glyph glyph-name="uni00AD" unicode="­" d="M18 233 l0 148 l340 0 l0 -148 l-340 0 Z" /><glyph glyph-name="registered" unicode="®" d="M28 341 q0 147 101.5 250 q101.5 103 246.5 103 q147 0 248.5 -103 q101.5 -103 101.5 -250 q0 -149 -101.5 -251.5 q-101.5 -102.5 -248.5 -102.5 q-146 0 -247 103 q-101 103 -101 251 ZM140 341 q0 -107 68 -180.5 q68 -73.5 168 -73.5 q104 0 171.5 73 q67.5 73 67.5 181 q0 106 -68.5 179.5 q-68.5 73.5 -170.5 73.5 q-100 0 -168 -73.5 q-68 -73.5 -68 -179.5 ZM348 367 l37 0 q33 0 46 18.5 q13 18.5 0 37 q-13 18.5 -46 18.5 l-37 0 l0 -74 ZM538 176 l-14 -23 l-86 0 l-81 120 l-9 0 l0 -120 l-106 0 l0 388 l131 0 q71 0 120.5 -31.5 q49.5 -31.5 49.5 -102.5 q0 -47 -24.5 -79.5 q-24.5 -32.5 -60.5 -42.5 l80 -109 Z" /><glyph glyph-name="macron" unicode="¯" d="M53 633 l0 131 l326 0 l0 -131 l-326 0 Z" /><glyph glyph-name="degree" unicode="°" d="M166 397 q-69 0 -117 46 q-48 46 -48 112 q0 69 47.5 114.5 q47.5 45.5 117.5 45.5 q69 0 117 -44.5 q48 -44.5 48 -115.5 q0 -66 -48.5 -112 q-48.5 -46 -116.5 -46 ZM166 505 q19 0 32 14 q13 14 13 36 q0 22 -13 37 q-13 15 -32 15 q-19 0 -32 -15 q-13 -15 -13 -37 q0 -22 12.5 -36 q12.5 -14 32.5 -14 Z" /><glyph glyph-name="plusminus" unicode="±" d="M20 151 l493 0 l0 -152 l-493 0 l0 152 ZM17 347 l0 159 l169 0 l0 160 l163 0 l0 -160 l161 0 l0 -159 l-161 0 l0 -164 l-163 0 l0 164 l-169 0 Z" /><glyph glyph-name="twosuperior" unicode="²" d="M296 445 l-91 -75 l52 4 l105 0 l0 -128 l-292 0 l-57 97 l187 189 q22 29 -4 48 q-25 18 -55 2 q-16 -9 -24 -27 l-103 49 q28 60 68.5 88.5 q40.5 28.5 100.5 27.5 q77 -1 125 -43 q48 -42 48 -115 q0 -59 -60 -117 Z" /><glyph glyph-name="threesuperior" unicode="³" d="M10 353 l87 65 q29 -42 83 -42 q22 -1 32.5 15.5 q10.5 16.5 2.5 33 q-8 16.5 -31 16.5 l-54 0 l0 102 l49 0 q22 0 31 15.5 q9 15.5 -0.5 31 q-9.5 15.5 -31.5 15.5 q-41 0 -61 -30 l-90 56 q58 97 155 97 q49 0 90 -19.5 q41 -19.5 62 -57.5 q23 -36 16 -85.5 q-7 -49.5 -47 -66.5 q53 -29 59.5 -89 q6.5 -60 -30.5 -103 q-49 -61 -150 -61 q-108 0 -172 107 Z" /><glyph glyph-name="acute" unicode="´" d="M293 797 l5 -7 l-110 -141 l-156 0 l76 148 l185 0 Z" /><glyph glyph-name="mu" unicode="µ" d="M336 -2 l-17 53 q-14 -35 -44 -47.5 q-30 -12.5 -58 0 q-28 12.5 -36 43.5 l0 -233 l-165 0 l0 693 l170 0 l0 -292 q0 -35 30 -48.5 q30 -13.5 60 1 q30 14.5 30 47.5 l0 292 l167 0 l0 -509 l-137 0 Z" /><glyph glyph-name="paragraph" unicode="¶" d="M177 -65 l0 330 q-86 11 -132.5 73 q-46.5 62 -46.5 137 q0 92 62 158 q62 66 175 66 l316 0 l0 -764 l-165 0 l0 611 l-50 0 l0 -611 l-159 0 Z" /><glyph glyph-name="periodcentered" unicode="·" d="M16 225 l0 166 l170 0 l0 -166 l-170 0 Z" /><glyph glyph-name="cedilla" unicode="¸" d="M234 48 l-32 -64 q65 -12 76 -64 q11 -48 -30 -89 q-43 -41 -111 -38 q-80 4 -132 45 l38 72 q27 -21 64 -24 q46 -4 46 22 q0 7 -7.5 14.5 q-7.5 7.5 -29.5 12.5 q-22 5 -53 1 l57 112 l114 0 Z" /><glyph glyph-name="onesuperior" unicode="¹" d="M66 251 l0 336 l-66 0 l0 130 l220 0 l0 -466 l-154 0 Z" /><glyph glyph-name="ordmasculine" unicode="º" d="M321 378 q-53 -50 -131 -50 q-78 0 -131 50 q-53 50 -53 128 q0 75 53 125 q53 50 130 50 q78 0 131.5 -50 q53.5 -50 53.5 -125 q0 -78 -53 -128 ZM188 453 q20 0 34.5 15 q14.5 15 14.5 39 q0 22 -14.5 37 q-14.5 15 -34.5 15 q-21 0 -35.5 -15 q-14.5 -15 -14.5 -37 q0 -24 14.5 -39 q14.5 -15 35.5 -15 ZM18 145 l0 150 l341 0 l0 -150 l-341 0 Z" /><glyph glyph-name="guillemotright" unicode="»" d="M395 551 l173 -214 l-173 -215 l-189 0 l171 215 l-171 214 l189 0 ZM165 551 l173 -214 l-173 -215 l-189 0 l171 215 l-171 214 l189 0 Z" /><glyph glyph-name="onequarter" unicode="¼" d="M314 -27 l-160 0 l353 742 l160 0 l-353 -742 ZM829 456 l0 -261 l51 0 l0 -124 l-51 0 l0 -71 l-129 0 l0 71 l-159 0 l-76 101 l174 284 l190 0 ZM701 192 l0 70 l1 70 l-88 -140 l87 0 ZM89 576 l0 -315 l151 0 l0 445 l-217 0 l0 -130 l66 0 Z" /><glyph glyph-name="onehalf" unicode="½" d="M288 -27 l-160 0 l354 742 l160 0 l-354 -742 ZM73 583 l0 -314 l147 0 l0 444 l-213 0 l0 -130 l66 0 ZM714 124 l91 75 q60 58 60 117 q0 73 -48 115 q-48 42 -125 43 q-60 1 -100.5 -27.5 q-40.5 -28.5 -68.5 -88.5 l103 -49 q17 37 56 33 q29 -3 35 -25 q3 -15 -8 -31 l-187 -189 l57 -97 l292 0 l0 128 l-105 0 l-52 -4 Z" /><glyph glyph-name="threequarters" unicode="¾" d="M386 -27 l-159 0 l354 742 l159 0 l-354 -742 ZM905 456 l0 -261 l51 0 l0 -124 l-51 0 l0 -71 l-129 0 l0 71 l-159 0 l-76 101 l174 284 l190 0 ZM777 192 l0 70 l1 70 l-88 -140 l87 0 ZM9 347 l87 65 q29 -42 83 -42 q22 -1 32.5 15.5 q10.5 16.5 2.5 33 q-8 16.5 -31 16.5 l-54 0 l0 102 l49 0 q22 0 31 15.5 q9 15.5 -0.5 31 q-9.5 15.5 -31.5 15.5 q-41 0 -61 -30 l-90 56 q58 97 155 97 q49 0 90 -19.5 q41 -19.5 62 -57.5 q23 -36 16 -85.5 q-7 -49.5 -47 -66.5 q53 -29 59.5 -89 q6.5 -60 -30.5 -103 q-49 -61 -150 -61 q-108 0 -172 107 Z" /><glyph glyph-name="questiondown" unicode="¿" d="M351 16 l107 -86 q-44 -70 -94 -95 q-50 -25 -114 -25 q-102 0 -178 59 q-76 59 -75 175 q1 78 47.5 135 q46.5 57 133.5 61 l6 104 l153 0 l5 -193 q-170 11 -172 -108 q-1 -44 36.5 -64.5 q37.5 -20.5 82 -9.5 q44.5 11 62.5 47 ZM178 515 l167 0 l0 -132 l-167 0 l0 132 Z" /><glyph glyph-name="Agrave" unicode="à" d="M477 0 l-56 171 l-223 0 l-53 -171 l-190 0 l239 707 l232 0 l242 -707 l-191 0 ZM314 579 l-7 0 l-18 -98 l-44 -151 l129 0 l-42 151 l-18 98 ZM126 903 l5 7 l185 0 l76 -148 l-156 0 l-110 141 Z" /><glyph glyph-name="Aacute" unicode="á" d="M477 0 l-56 171 l-223 0 l-53 -171 l-190 0 l239 707 l232 0 l242 -707 l-191 0 ZM314 579 l-7 0 l-18 -98 l-44 -151 l129 0 l-42 151 l-18 98 ZM482 909 l5 -7 l-110 -141 l-156 0 l76 148 l185 0 Z" /><glyph glyph-name="Acircumflex" unicode="â" d="M477 0 l-56 171 l-223 0 l-53 -171 l-190 0 l239 707 l232 0 l242 -707 l-191 0 ZM314 579 l-7 0 l-18 -98 l-44 -151 l129 0 l-42 151 l-18 98 ZM121 759 l-3 4 l129 151 l128 0 l127 -150 l-3 -5 l-129 0 l-60 55 l-62 -55 l-127 0 Z" /><glyph glyph-name="Atilde" unicode="ã" d="M477 0 l-56 171 l-223 0 l-53 -171 l-190 0 l239 707 l232 0 l242 -707 l-191 0 ZM314 579 l-7 0 l-18 -98 l-44 -151 l129 0 l-42 151 l-18 98 ZM401 900 l72 -54 q-26 -52 -52.5 -72.5 q-26.5 -20.5 -61.5 -19.5 q-22 0 -57.5 17.5 q-35.5 17.5 -40.5 18.5 q-32 7 -64 -38 l-73 58 q57 92 127 92 q23 0 59.5 -17 q36.5 -17 48.5 -17 q20 0 42 32 Z" /><glyph glyph-name="Adieresis" unicode="ä" d="M477 0 l-56 171 l-223 0 l-53 -171 l-190 0 l239 707 l232 0 l242 -707 l-191 0 ZM314 579 l-7 0 l-18 -98 l-44 -151 l129 0 l-42 151 l-18 98 ZM486 765 l-140 0 l0 125 l140 0 l0 -125 ZM277 765 l-142 0 l0 125 l142 0 l0 -125 Z" /><glyph glyph-name="Aring" unicode="å" d="M314 579 l-7 0 l-18 -98 l-44 -151 l129 0 l-42 151 l-18 98 ZM309 816 q-21 0 -30.5 -15 q-9.5 -15 -0.5 -30 q9 -15 32 -15 q21 0 30.5 15 q9.5 15 0.5 30 q-9 15 -32 15 ZM476 0 l-56 171 l-223 0 l-53 -171 l-190 0 l239 707 l17 0 q-31 33 -31 79 q0 53 37.5 85 q37.5 32 91.5 32 q53 0 91.5 -32 q38.5 -32 38.5 -85 q0 -46 -33 -79 l20 0 l242 -707 l-191 0 Z" /><glyph glyph-name="AE" unicode="æ" d="M-41 0 l319 703 l538 0 l0 -146 l-256 0 l0 -132 l254 0 l0 -149 l-254 0 l0 -128 l256 0 l0 -148 l-423 0 l0 165 l-168 0 l-73 -165 l-193 0 ZM399 559 l-17 0 l-97 -237 l108 0 l1 110 l5 127 Z" /><glyph glyph-name="Ccedilla" unicode="ç" d="M649 574 l-107 -100 q-80 84 -169 80 q-86 -2 -135 -61.5 q-49 -59.5 -49 -144.5 q0 -85 49.5 -144 q49.5 -59 134.5 -59 q107 0 179 93 l113 -94 q-114 -137 -255 -149 l-15 -29 q65 -11 77 -61 q10 -46 -32 -85 q-42 -39 -109 -36 q-79 4 -132 43 l38 68 q28 -19 64 -22 q46 -4 46 21 q0 7 -7.5 14 q-7.5 7 -29.5 11.5 q-22 4.5 -53 0.5 l42 79 q-135 22 -210.5 120.5 q-75.5 98.5 -75.5 228.5 q0 96 40 177.5 q40 81.5 124 134.5 q84 53 196 53 q81 0 147.5 -32 q66.5 -32 128.5 -107 Z" /><glyph glyph-name="Egrave" unicode="è" d="M464 700 l0 -150 l-258 0 l0 -110 l247 0 l0 -150 l-247 0 l0 -138 l258 0 l0 -152 l-430 0 l0 700 l430 0 ZM87 904 l5 7 l185 0 l76 -148 l-156 0 l-110 141 Z" /><glyph glyph-name="Eacute" unicode="é" d="M464 700 l0 -150 l-258 0 l0 -110 l247 0 l0 -150 l-247 0 l0 -138 l258 0 l0 -152 l-430 0 l0 700 l430 0 ZM433 911 l5 -7 l-110 -141 l-156 0 l76 148 l185 0 Z" /><glyph glyph-name="Ecircumflex" unicode="ê" d="M464 700 l0 -150 l-258 0 l0 -110 l247 0 l0 -150 l-247 0 l0 -138 l258 0 l0 -152 l-430 0 l0 700 l430 0 ZM69 764 l-3 4 l129 151 l128 0 l127 -150 l-3 -5 l-129 0 l-60 55 l-62 -55 l-127 0 Z" /><glyph glyph-name="Edieresis" unicode="ë" d="M464 700 l0 -150 l-258 0 l0 -110 l247 0 l0 -150 l-247 0 l0 -138 l258 0 l0 -152 l-430 0 l0 700 l430 0 ZM437 767 l-140 0 l0 125 l140 0 l0 -125 ZM228 767 l-142 0 l0 125 l142 0 l0 -125 Z" /><glyph glyph-name="Igrave" unicode="ì" d="M33 0 l0 703 l178 0 l0 -703 l-178 0 ZM-55 912 l5 7 l185 0 l76 -148 l-156 0 l-110 141 Z" /><glyph glyph-name="Iacute" unicode="í" d="M33 0 l0 703 l178 0 l0 -703 l-178 0 ZM301 916 l5 -7 l-110 -141 l-156 0 l76 148 l185 0 Z" /><glyph glyph-name="Icircumflex" unicode="î" d="M33 0 l0 703 l178 0 l0 -703 l-178 0 ZM-65 766 l-3 4 l129 151 l128 0 l127 -150 l-3 -5 l-129 0 l-60 55 l-62 -55 l-127 0 Z" /><glyph glyph-name="Idieresis" unicode="ï" d="M33 0 l0 703 l178 0 l0 -703 l-178 0 ZM294 779 l-140 0 l0 125 l140 0 l0 -125 ZM85 779 l-142 0 l0 125 l142 0 l0 -125 Z" /><glyph glyph-name="Eth" unicode="ð" d="M-11 284 l0 128 l65 0 l0 293 l239 0 q169 1 263.5 -104 q94.5 -105 94.5 -249 q0 -67 -22.5 -129.5 q-22.5 -62.5 -65.5 -112.5 q-43 -50 -113 -80 q-70 -30 -156 -30 l-240 0 l0 284 l-65 0 ZM293 159 q86 0 133.5 56.5 q47.5 56.5 47.5 133.5 q0 78 -47.5 136 q-47.5 58 -131.5 60 l-64 0 l0 -133 l118 0 l0 -128 l-118 0 l0 -125 l62 0 Z" /><glyph glyph-name="Ntilde" unicode="ñ" d="M210 533 l-9 -2 l31 -153 l0 -378 l-179 0 l0 701 l236 0 l186 -384 l63 -167 l7 2 l-27 172 l0 377 l177 0 l0 -701 l-251 0 l-180 382 l-54 151 ZM482 923 l72 -54 q-26 -52 -52.5 -72.5 q-26.5 -20.5 -61.5 -19.5 q-22 0 -57.5 17.5 q-35.5 17.5 -40.5 18.5 q-32 7 -64 -38 l-73 58 q57 92 127 92 q23 0 59.5 -17 q36.5 -17 48.5 -17 q20 0 42 32 Z" /><glyph glyph-name="Ograve" unicode="ò" d="M375 712 q151 0 256.5 -102 q105.5 -102 105.5 -261 q0 -161 -105 -261.5 q-105 -100.5 -257 -100.5 q-153 0 -258 100 q-105 100 -105 262 q0 161 105.5 262 q105.5 101 257.5 101 ZM245 498 q-53 -53 -53 -149 q0 -96 54.5 -148.5 q54.5 -52.5 128.5 -52.5 q77 0 129.5 48 q52.5 48 52.5 153 q0 101 -53.5 151.5 q-53.5 50.5 -129.5 50.5 q-76 0 -129 -53 ZM197 919 l5 7 l185 0 l76 -148 l-156 0 l-110 141 Z" /><glyph glyph-name="Oacute" unicode="ó" d="M375 712 q151 0 256.5 -102 q105.5 -102 105.5 -261 q0 -161 -105 -261.5 q-105 -100.5 -257 -100.5 q-153 0 -258 100 q-105 100 -105 262 q0 161 105.5 262 q105.5 101 257.5 101 ZM245 498 q-53 -53 -53 -149 q0 -96 54.5 -148.5 q54.5 -52.5 128.5 -52.5 q77 0 129.5 48 q52.5 48 52.5 153 q0 101 -53.5 151.5 q-53.5 50.5 -129.5 50.5 q-76 0 -129 -53 ZM551 926 l5 -7 l-110 -141 l-156 0 l76 148 l185 0 Z" /><glyph glyph-name="Ocircumflex" unicode="ô" d="M375 712 q151 0 256.5 -102 q105.5 -102 105.5 -261 q0 -161 -105 -261.5 q-105 -100.5 -257 -100.5 q-153 0 -258 100 q-105 100 -105 262 q0 161 105.5 262 q105.5 101 257.5 101 ZM245 498 q-53 -53 -53 -149 q0 -96 54.5 -148.5 q54.5 -52.5 128.5 -52.5 q77 0 129.5 48 q52.5 48 52.5 153 q0 101 -53.5 151.5 q-53.5 50.5 -129.5 50.5 q-76 0 -129 -53 ZM185 769 l-3 4 l129 151 l128 0 l127 -150 l-3 -5 l-129 0 l-60 55 l-62 -55 l-127 0 Z" /><glyph glyph-name="Otilde" unicode="õ" d="M375 712 q151 0 256.5 -102 q105.5 -102 105.5 -261 q0 -161 -105 -261.5 q-105 -100.5 -257 -100.5 q-153 0 -258 100 q-105 100 -105 262 q0 161 105.5 262 q105.5 101 257.5 101 ZM245 498 q-53 -53 -53 -149 q0 -96 54.5 -148.5 q54.5 -52.5 128.5 -52.5 q77 0 129.5 48 q52.5 48 52.5 153 q0 101 -53.5 151.5 q-53.5 50.5 -129.5 50.5 q-76 0 -129 -53 ZM474 923 l72 -54 q-26 -52 -52.5 -72.5 q-26.5 -20.5 -61.5 -19.5 q-22 0 -57.5 17.5 q-35.5 17.5 -40.5 18.5 q-32 7 -64 -38 l-73 58 q57 92 127 92 q23 0 59.5 -17 q36.5 -17 48.5 -17 q20 0 42 32 Z" /><glyph glyph-name="Odieresis" unicode="ö" d="M375 712 q151 0 256.5 -102 q105.5 -102 105.5 -261 q0 -161 -105 -261.5 q-105 -100.5 -257 -100.5 q-153 0 -258 100 q-105 100 -105 262 q0 161 105.5 262 q105.5 101 257.5 101 ZM245 498 q-53 -53 -53 -149 q0 -96 54.5 -148.5 q54.5 -52.5 128.5 -52.5 q77 0 129.5 48 q52.5 48 52.5 153 q0 101 -53.5 151.5 q-53.5 50.5 -129.5 50.5 q-76 0 -129 -53 ZM545 778 l-140 0 l0 125 l140 0 l0 -125 ZM336 778 l-142 0 l0 125 l142 0 l0 -125 Z" /><glyph glyph-name="multiply" unicode="×" d="M8 411 l112 112 l112 -113 l108 109 l110 -111 l-109 -107 l107 -109 l-110 -109 l-107 107 l-110 -111 l-111 112 l111 109 l-113 111 Z" /><glyph glyph-name="Oslash" unicode="ø" d="M375 711 q69 0 122 -18 l36 59 l181 0 l-88 -144 q51 -53 82 -121 q31 -68 31 -138 q0 -157 -106.5 -258.5 q-106.5 -101.5 -257.5 -101.5 q-72 0 -116 15 q-7 -12 -21.5 -35 q-14.5 -23 -19.5 -32 l-184 0 l93 152 q-116 108 -116 260 q0 156 106.5 259 q106.5 103 257.5 103 ZM188 349 q0 -61 33 -110 l3 7 q132 225 177 300 q-18 2 -27 2 q-74 -1 -130 -53 q-56 -52 -56 -146 ZM562 349 q0 54 -34 111 l-92 -157 q-50 -91 -86 -149 q10 -2 25 -2 q75 0 131 51 q56 51 56 146 Z" /><glyph glyph-name="Ugrave" unicode="ù" d="M42 700 l180 0 l0 -474 q0 -40 26.5 -62 q26.5 -22 62.5 -21 q36 1 62 23 q26 22 26 60 l0 474 l179 0 l0 -474 q0 -111 -80 -173 q-80 -62 -189 -62 q-69 0 -128.5 25.5 q-59.5 25.5 -99 80 q-39.5 54.5 -39.5 129.5 l0 474 ZM142 911 l5 7 l185 0 l76 -148 l-156 0 l-110 141 Z" /><glyph glyph-name="Uacute" unicode="ú" d="M42 700 l180 0 l0 -474 q0 -40 26.5 -62 q26.5 -22 62.5 -21 q36 1 62 23 q26 22 26 60 l0 474 l179 0 l0 -474 q0 -111 -80 -173 q-80 -62 -189 -62 q-69 0 -128.5 25.5 q-59.5 25.5 -99 80 q-39.5 54.5 -39.5 129.5 l0 474 ZM480 914 l5 -7 l-110 -141 l-156 0 l76 148 l185 0 Z" /><glyph glyph-name="Ucircumflex" unicode="û" d="M42 700 l180 0 l0 -474 q0 -40 26.5 -62 q26.5 -22 62.5 -21 q36 1 62 23 q26 22 26 60 l0 474 l179 0 l0 -474 q0 -111 -80 -173 q-80 -62 -189 -62 q-69 0 -128.5 25.5 q-59.5 25.5 -99 80 q-39.5 54.5 -39.5 129.5 l0 474 ZM119 765 l-3 4 l129 151 l128 0 l127 -150 l-3 -5 l-129 0 l-60 55 l-62 -55 l-127 0 Z" /><glyph glyph-name="Udieresis" unicode="ü" d="M42 700 l180 0 l0 -474 q0 -40 26.5 -62 q26.5 -22 62.5 -21 q36 1 62 23 q26 22 26 60 l0 474 l179 0 l0 -474 q0 -111 -80 -173 q-80 -62 -189 -62 q-69 0 -128.5 25.5 q-59.5 25.5 -99 80 q-39.5 54.5 -39.5 129.5 l0 474 ZM486 767 l-140 0 l0 125 l140 0 l0 -125 ZM277 767 l-142 0 l0 125 l142 0 l0 -125 Z" /><glyph glyph-name="Yacute" unicode="ý" d="M273 417 l-2 0 l2 0 ZM271 417 l2 0 l44 113 l89 170 l201 0 l-171 -304 l-78 -126 l0 -270 l-177 0 l0 271 l-80 131 l-166 298 l199 0 l93 -173 l44 -110 ZM432 914 l5 -7 l-110 -141 l-156 0 l76 148 l185 0 Z" /><glyph glyph-name="Thorn" unicode="þ" d="M200 122 l0 -122 l-174 0 l0 700 l174 0 l0 -97 l58 0 q55 0 101.5 -16.5 q46.5 -16.5 76 -44.5 q29.5 -28 50.5 -64 q21 -36 25.5 -76 q4.5 -40 0 -79.5 q-4.5 -39.5 -25 -75.5 q-20.5 -36 -50.5 -64 q-30 -28 -76 -44.5 q-46 -16.5 -101 -16.5 l-59 0 ZM258 278 q40 0 63.5 27 q23.5 27 23.5 59 q0 32 -23 59 q-23 27 -64 27 l-60 0 l0 -172 l60 0 Z" /><glyph glyph-name="germandbls" unicode="ß" d="M205 499 l0 -499 l-177 0 l0 499 q0 95 64.5 150.5 q64.5 55.5 158.5 55.5 q73 0 130.5 -32 q57.5 -32 80.5 -93 q13 -39 13 -77 q0 -38 -22 -73 q-22 -35 -62 -53 q85 -32 114.5 -115.5 q29.5 -83.5 -8.5 -156.5 q-50 -108 -219 -106 q-10 0 -42 4 l0 156 q37 -10 67.5 7.5 q30.5 17.5 30.5 59.5 q0 27 -19.5 48 q-19.5 21 -54.5 21 l-21 0 l0 149 l18 0 q21 0 33 19 q12 19 10 39 q-1 21 -14.5 33.5 q-13.5 12.5 -31.5 12.5 q-19 0 -33.5 -13.5 q-14.5 -13.5 -15.5 -35.5 Z" /><glyph glyph-name="agrave" unicode="à" d="M234 219 q-36 0 -52 -23 q-16 -23 -2 -46 q14 -23 51 -23 q50 0 77 24 l0 55 q-27 13 -74 13 ZM474 0 l-135 0 l-17 51 q-44 -58 -122 -58 q-90 0 -140 50.5 q-50 50.5 -50 122.5 q0 75 58.5 117.5 q58.5 42.5 138.5 44.5 q57 2 98 -16 l0 16 q0 27 -24 42 q-24 15 -67 15 q-74 0 -124 -34 l-50 93 q91 73 206 73 q47 0 85.5 -9.5 q38.5 -9.5 72 -30.5 q33.5 -21 52 -60 q18.5 -39 18.5 -93 l0 -324 ZM98 723 l5 7 l185 0 l76 -148 l-156 0 l-110 141 Z" /><glyph glyph-name="aacute" unicode="á" d="M234 219 q-36 0 -52 -23 q-16 -23 -2 -46 q14 -23 51 -23 q50 0 77 24 l0 55 q-27 13 -74 13 ZM474 0 l-135 0 l-17 51 q-44 -58 -122 -58 q-90 0 -140 50.5 q-50 50.5 -50 122.5 q0 75 58.5 117.5 q58.5 42.5 138.5 44.5 q57 2 98 -16 l0 16 q0 27 -24 42 q-24 15 -67 15 q-74 0 -124 -34 l-50 93 q91 73 206 73 q47 0 85.5 -9.5 q38.5 -9.5 72 -30.5 q33.5 -21 52 -60 q18.5 -39 18.5 -93 l0 -324 ZM424 720 l5 -7 l-110 -141 l-156 0 l76 148 l185 0 Z" /><glyph glyph-name="acircumflex" unicode="â" d="M234 219 q-36 0 -52 -23 q-16 -23 -2 -46 q14 -23 51 -23 q50 0 77 24 l0 55 q-27 13 -74 13 ZM474 0 l-135 0 l-17 51 q-44 -58 -122 -58 q-90 0 -140 50.5 q-50 50.5 -50 122.5 q0 75 58.5 117.5 q58.5 42.5 138.5 44.5 q57 2 98 -16 l0 16 q0 27 -24 42 q-24 15 -67 15 q-74 0 -124 -34 l-50 93 q91 73 206 73 q47 0 85.5 -9.5 q38.5 -9.5 72 -30.5 q33.5 -21 52 -60 q18.5 -39 18.5 -93 l0 -324 ZM70 569 l-3 4 l129 151 l128 0 l127 -150 l-3 -5 l-129 0 l-60 55 l-62 -55 l-127 0 Z" /><glyph glyph-name="atilde" unicode="ã" d="M234 219 q-36 0 -52 -23 q-16 -23 -2 -46 q14 -23 51 -23 q50 0 77 24 l0 55 q-27 13 -74 13 ZM474 0 l-135 0 l-17 51 q-44 -58 -122 -58 q-90 0 -140 50.5 q-50 50.5 -50 122.5 q0 75 58.5 117.5 q58.5 42.5 138.5 44.5 q57 2 98 -16 l0 16 q0 27 -24 42 q-24 15 -67 15 q-74 0 -124 -34 l-50 93 q91 73 206 73 q47 0 85.5 -9.5 q38.5 -9.5 72 -30.5 q33.5 -21 52 -60 q18.5 -39 18.5 -93 l0 -324 ZM354 727 l72 -54 q-26 -52 -52.5 -72.5 q-26.5 -20.5 -61.5 -19.5 q-22 0 -57.5 17.5 q-35.5 17.5 -40.5 18.5 q-32 7 -64 -38 l-73 58 q57 92 127 92 q23 0 59.5 -17 q36.5 -17 48.5 -17 q20 0 42 32 Z" /><glyph glyph-name="adieresis" unicode="ä" d="M234 219 q-36 0 -52 -23 q-16 -23 -2 -46 q14 -23 51 -23 q50 0 77 24 l0 55 q-27 13 -74 13 ZM474 0 l-135 0 l-17 51 q-44 -58 -122 -58 q-90 0 -140 50.5 q-50 50.5 -50 122.5 q0 75 58.5 117.5 q58.5 42.5 138.5 44.5 q57 2 98 -16 l0 16 q0 27 -24 42 q-24 15 -67 15 q-74 0 -124 -34 l-50 93 q91 73 206 73 q47 0 85.5 -9.5 q38.5 -9.5 72 -30.5 q33.5 -21 52 -60 q18.5 -39 18.5 -93 l0 -324 ZM434 594 l-140 0 l0 125 l140 0 l0 -125 ZM225 594 l-142 0 l0 125 l142 0 l0 -125 Z" /><glyph glyph-name="aring" unicode="å" d="M234 219 q-36 0 -52 -23 q-16 -23 -2 -46 q14 -23 51 -23 q50 0 77 24 l0 55 q-27 13 -74 13 ZM474 0 l-135 0 l-17 51 q-44 -58 -122 -58 q-90 0 -140 50.5 q-50 50.5 -50 122.5 q0 75 58.5 117.5 q58.5 42.5 138.5 44.5 q57 2 98 -16 l0 16 q0 27 -24 42 q-24 15 -67 15 q-74 0 -124 -34 l-50 93 q91 73 206 73 q47 0 85.5 -9.5 q38.5 -9.5 72 -30.5 q33.5 -21 52 -60 q18.5 -39 18.5 -93 l0 -324 ZM257 567 q-51 0 -86.5 28 q-35.5 28 -35.5 74 q0 46 35.5 74 q35.5 28 86.5 28 q51 0 87.5 -28 q36.5 -28 36.5 -74 q0 -46 -37 -74 q-37 -28 -87 -28 ZM257 697 q-21 0 -30.5 -13.5 q-9.5 -13.5 -0.5 -27.5 q9 -14 32 -14 q21 0 30.5 14 q9.5 14 0.5 27.5 q-9 13.5 -32 13.5 Z" /><glyph glyph-name="ae" unicode="æ" d="M810 200 l-341 0 q5 -35 36.5 -51.5 q31.5 -16.5 68.5 -16.5 q36 0 59 8.5 q23 8.5 48 32.5 l86 -74 q-53 -57 -98.5 -80.5 q-45.5 -23.5 -101.5 -23.5 q-66 0 -107 17 q-41 17 -71 60 q-19 -24 -43 -40.5 q-24 -16.5 -40 -24 q-16 -7.5 -43 -11 q-27 -3.5 -33 -3.5 q-6 0 -30 0 q-90 0 -140 50.5 q-50 50.5 -50 122.5 q0 51 31 89.5 q31 38.5 77 54.5 q46 16 98.5 18.5 q52.5 2.5 95.5 -18.5 l0 18 q0 33 -43.5 45.5 q-43.5 12.5 -96 5 q-52.5 -7.5 -82.5 -27.5 l-50 93 q40 33 93.5 51.5 q53.5 18.5 106.5 17.5 q109 -2 165 -72 q53 71 163 73 q128 1 199 -89.5 q71 -90.5 43 -224.5 ZM234 219 q-36 0 -52 -24 q-16 -24 -2 -47.5 q14 -23.5 51 -23.5 q57 0 84 24 l0 56 q-36 15 -81 15 ZM469 311 l187 0 q-5 32 -30 50 q-25 18 -58 19 q-36 1 -65 -17.5 q-29 -18.5 -34 -51.5 Z" /><glyph glyph-name="ccedilla" unicode="ç" d="M468 424 l-94 -95 q-45 41 -97 41 q-43 0 -73 -31.5 q-30 -31.5 -31 -86.5 q-1 -50 30.5 -82 q31.5 -32 74.5 -32 q55 0 103 51 l97 -92 q-73 -92 -168 -103 l-17 -34 q62 -9 70 -53 q8 -40 -32 -72 q-38 -32 -95 -29 q-72 4 -118 39 l34 61 q22 -18 57 -21 q41 -2 41 19 q0 6 -7 12 q-7 6 -26 10.5 q-19 4.5 -47 1.5 l40 70 q-96 19 -150 90.5 q-54 71.5 -54 164.5 q1 108 73 184.5 q72 76.5 194 77.5 q55 0 98.5 -19 q43.5 -19 96.5 -72 Z" /><glyph glyph-name="egrave" unicode="è" d="M520 200 l-334 0 q6 -36 34.5 -53.5 q28.5 -17.5 63.5 -17.5 q34 0 56 10 q22 10 48 35 l89 -78 q-53 -57 -98.5 -80.5 q-45.5 -23.5 -101.5 -23.5 q-124 0 -193 78.5 q-69 78.5 -68 184.5 q0 107 68 185.5 q68 78.5 192 78.5 q128 0 200 -92.5 q72 -92.5 44 -226.5 ZM184 311 l182 0 q-5 35 -32.5 54.5 q-27.5 19.5 -59 18.5 q-31.5 -1 -58.5 -20 q-27 -19 -32 -53 ZM106 719 l5 7 l185 0 l76 -148 l-156 0 l-110 141 Z" /><glyph glyph-name="eacute" unicode="é" d="M520 200 l-334 0 q6 -36 34.5 -53.5 q28.5 -17.5 63.5 -17.5 q34 0 56 10 q22 10 48 35 l89 -78 q-53 -57 -98.5 -80.5 q-45.5 -23.5 -101.5 -23.5 q-124 0 -193 78.5 q-69 78.5 -68 184.5 q0 107 68 185.5 q68 78.5 192 78.5 q128 0 200 -92.5 q72 -92.5 44 -226.5 ZM184 311 l182 0 q-5 35 -32.5 54.5 q-27.5 19.5 -59 18.5 q-31.5 -1 -58.5 -20 q-27 -19 -32 -53 ZM433 723 l5 -7 l-110 -141 l-156 0 l76 148 l185 0 Z" /><glyph glyph-name="ecircumflex" unicode="ê" d="M520 200 l-334 0 q6 -36 34.5 -53.5 q28.5 -17.5 63.5 -17.5 q34 0 56 10 q22 10 48 35 l89 -78 q-53 -57 -98.5 -80.5 q-45.5 -23.5 -101.5 -23.5 q-124 0 -193 78.5 q-69 78.5 -68 184.5 q0 107 68 185.5 q68 78.5 192 78.5 q128 0 200 -92.5 q72 -92.5 44 -226.5 ZM184 311 l182 0 q-5 35 -32.5 54.5 q-27.5 19.5 -59 18.5 q-31.5 -1 -58.5 -20 q-27 -19 -32 -53 ZM95 574 l-3 4 l129 151 l128 0 l127 -150 l-3 -5 l-129 0 l-60 55 l-62 -55 l-127 0 Z" /><glyph glyph-name="edieresis" unicode="ë" d="M520 200 l-334 0 q6 -36 34.5 -53.5 q28.5 -17.5 63.5 -17.5 q34 0 56 10 q22 10 48 35 l89 -78 q-53 -57 -98.5 -80.5 q-45.5 -23.5 -101.5 -23.5 q-124 0 -193 78.5 q-69 78.5 -68 184.5 q0 107 68 185.5 q68 78.5 192 78.5 q128 0 200 -92.5 q72 -92.5 44 -226.5 ZM184 311 l182 0 q-5 35 -32.5 54.5 q-27.5 19.5 -59 18.5 q-31.5 -1 -58.5 -20 q-27 -19 -32 -53 ZM461 594 l-140 0 l0 125 l140 0 l0 -125 ZM252 594 l-142 0 l0 125 l142 0 l0 -125 Z" /><glyph glyph-name="igrave" unicode="ì" d="M23 507 l167 0 l0 -507 l-167 0 l0 507 ZM-70 718 l5 7 l185 0 l76 -148 l-156 0 l-110 141 Z" /><glyph glyph-name="iacute" unicode="í" d="M23 507 l167 0 l0 -507 l-167 0 l0 507 ZM275 722 l5 -7 l-110 -141 l-156 0 l76 148 l185 0 Z" /><glyph glyph-name="icircumflex" unicode="î" d="M23 507 l167 0 l0 -507 l-167 0 l0 507 ZM-80 570 l-3 4 l129 151 l128 0 l127 -150 l-3 -5 l-129 0 l-60 55 l-62 -55 l-127 0 Z" /><glyph glyph-name="idieresis" unicode="ï" d="M23 507 l167 0 l0 -507 l-167 0 l0 507 ZM283 599 l-140 0 l0 125 l140 0 l0 -125 ZM74 599 l-142 0 l0 125 l142 0 l0 -125 Z" /><glyph glyph-name="eth" unicode="ð" d="M317 460 q-6 35 -43 61 l-49 -51 l-70 58 l25 31 q-48 14 -99 13 l11 131 q67 3 105 -2 q38 -5 94 -23 l50 51 l79 -59 l-46 -47 q63 -55 107.5 -154.5 q44.5 -99.5 45.5 -206.5 q1 -123 -62 -197 q-63 -74 -199 -74 q-124 0 -192 74 q-68 74 -66 172 q2 106 75 166.5 q73 60.5 175 61.5 q34 0 59 -5 ZM266 327 q-43 0 -67 -28.5 q-24 -28.5 -26 -63.5 q-1 -37 22.5 -65.5 q23.5 -28.5 70.5 -28.5 q46 0 72 28.5 q26 28.5 25 64.5 q-2 38 -27 65.5 q-25 27.5 -70 27.5 Z" /><glyph glyph-name="ntilde" unicode="ñ" d="M37 507 l139 0 l11 -55 q46 80 173 53 q71 -16 121 -73.5 q50 -57.5 50 -137.5 l0 -294 l-167 0 l0 294 q0 43 -27.5 66 q-27.5 23 -64.5 21.5 q-37 -1.5 -67 -24.5 l0 -357 l-168 0 l0 507 ZM381 736 l72 -54 q-26 -52 -52.5 -72.5 q-26.5 -20.5 -61.5 -19.5 q-22 0 -57.5 17.5 q-35.5 17.5 -40.5 18.5 q-32 7 -64 -38 l-73 58 q57 92 127 92 q23 0 59.5 -17 q36.5 -17 48.5 -17 q20 0 42 32 Z" /><glyph glyph-name="ograve" unicode="ò" d="M175 253 q0 -57 30.5 -88.5 q30.5 -31.5 72.5 -31.5 q42 0 73 31.5 q31 31.5 31 88.5 q0 57 -31 88.5 q-31 31.5 -73 31.5 q-42 0 -72.5 -32 q-30.5 -32 -30.5 -88 ZM550 253 q0 -118 -77.5 -191.5 q-77.5 -73.5 -194.5 -73.5 q-117 0 -194 72 q-77 72 -77 193 q0 118 77.5 193 q77.5 75 193.5 75 q117 0 194.5 -74 q77.5 -74 77.5 -194 ZM110 719 l5 7 l185 0 l76 -148 l-156 0 l-110 141 Z" /><glyph glyph-name="oacute" unicode="ó" d="M175 253 q0 -57 30.5 -88.5 q30.5 -31.5 72.5 -31.5 q42 0 73 31.5 q31 31.5 31 88.5 q0 57 -31 88.5 q-31 31.5 -73 31.5 q-42 0 -72.5 -32 q-30.5 -32 -30.5 -88 ZM550 253 q0 -118 -77.5 -191.5 q-77.5 -73.5 -194.5 -73.5 q-117 0 -194 72 q-77 72 -77 193 q0 118 77.5 193 q77.5 75 193.5 75 q117 0 194.5 -74 q77.5 -74 77.5 -194 ZM445 723 l5 -7 l-110 -141 l-156 0 l76 148 l185 0 Z" /><glyph glyph-name="ocircumflex" unicode="ô" d="M175 253 q0 -57 30.5 -88.5 q30.5 -31.5 72.5 -31.5 q42 0 73 31.5 q31 31.5 31 88.5 q0 57 -31 88.5 q-31 31.5 -73 31.5 q-42 0 -72.5 -32 q-30.5 -32 -30.5 -88 ZM550 253 q0 -118 -77.5 -191.5 q-77.5 -73.5 -194.5 -73.5 q-117 0 -194 72 q-77 72 -77 193 q0 118 77.5 193 q77.5 75 193.5 75 q117 0 194.5 -74 q77.5 -74 77.5 -194 ZM89 572 l-3 4 l129 151 l128 0 l127 -150 l-3 -5 l-129 0 l-60 55 l-62 -55 l-127 0 Z" /><glyph glyph-name="otilde" unicode="õ" d="M175 253 q0 -57 30.5 -88.5 q30.5 -31.5 72.5 -31.5 q42 0 73 31.5 q31 31.5 31 88.5 q0 57 -31 88.5 q-31 31.5 -73 31.5 q-42 0 -72.5 -32 q-30.5 -32 -30.5 -88 ZM550 253 q0 -118 -77.5 -191.5 q-77.5 -73.5 -194.5 -73.5 q-117 0 -194 72 q-77 72 -77 193 q0 118 77.5 193 q77.5 75 193.5 75 q117 0 194.5 -74 q77.5 -74 77.5 -194 ZM381 723 l72 -54 q-26 -52 -52.5 -72.5 q-26.5 -20.5 -61.5 -19.5 q-22 0 -57.5 17.5 q-35.5 17.5 -40.5 18.5 q-32 7 -64 -38 l-73 58 q57 92 127 92 q23 0 59.5 -17 q36.5 -17 48.5 -17 q20 0 42 32 Z" /><glyph glyph-name="odieresis" unicode="ö" d="M175 253 q0 -57 30.5 -88.5 q30.5 -31.5 72.5 -31.5 q42 0 73 31.5 q31 31.5 31 88.5 q0 57 -31 88.5 q-31 31.5 -73 31.5 q-42 0 -72.5 -32 q-30.5 -32 -30.5 -88 ZM550 253 q0 -118 -77.5 -191.5 q-77.5 -73.5 -194.5 -73.5 q-117 0 -194 72 q-77 72 -77 193 q0 118 77.5 193 q77.5 75 193.5 75 q117 0 194.5 -74 q77.5 -74 77.5 -194 ZM461 599 l-140 0 l0 125 l140 0 l0 -125 ZM252 599 l-142 0 l0 125 l142 0 l0 -125 Z" /><glyph glyph-name="divide" unicode="÷" d="M22 245 l0 154 l486 0 l0 -154 l-486 0 ZM182 75 l0 141 l156 0 l0 -141 l-156 0 ZM182 424 l0 141 l156 0 l0 -141 l-156 0 Z" /><glyph glyph-name="oslash" unicode="ø" d="M546 253 q0 -116 -76 -191 q-76 -75 -192 -75 q-43 0 -79 10 l-36 -54 l-154 0 l75 122 q-74 74 -74 188 q0 118 76.5 192.5 q76.5 74.5 191.5 74.5 q39 0 79 -10 l35 54 l157 0 l-75 -123 q72 -77 72 -188 ZM276 379 q-62 -3 -94 -54 q-32 -51 -13 -118 l107 172 ZM280 122 q64 9 92.5 61.5 q28.5 52.5 17.5 116.5 l-110 -178 Z" /><glyph glyph-name="ugrave" unicode="ù" d="M522 0 l-139 0 l-11 55 q-34 -61 -123 -59 q-90 0 -153 57 q-63 57 -63 160 l0 294 l167 0 l0 -294 q0 -44 23 -66.5 q23 -22.5 57 -22.5 q40 0 74 26 l0 357 l168 0 l0 -507 ZM109 720 l5 7 l185 0 l76 -148 l-156 0 l-110 141 Z" /><glyph glyph-name="uacute" unicode="ú" d="M522 0 l-139 0 l-11 55 q-34 -61 -123 -59 q-90 0 -153 57 q-63 57 -63 160 l0 294 l167 0 l0 -294 q0 -44 23 -66.5 q23 -22.5 57 -22.5 q40 0 74 26 l0 357 l168 0 l0 -507 ZM448 722 l5 -7 l-110 -141 l-156 0 l76 148 l185 0 Z" /><glyph glyph-name="ucircumflex" unicode="û" d="M522 0 l-139 0 l-11 55 q-34 -61 -123 -59 q-90 0 -153 57 q-63 57 -63 160 l0 294 l167 0 l0 -294 q0 -44 23 -66.5 q23 -22.5 57 -22.5 q40 0 74 26 l0 357 l168 0 l0 -507 ZM89 569 l-3 4 l129 151 l128 0 l127 -150 l-3 -5 l-129 0 l-60 55 l-62 -55 l-127 0 Z" /><glyph glyph-name="udieresis" unicode="ü" d="M522 0 l-139 0 l-11 55 q-34 -61 -123 -59 q-90 0 -153 57 q-63 57 -63 160 l0 294 l167 0 l0 -294 q0 -44 23 -66.5 q23 -22.5 57 -22.5 q40 0 74 26 l0 357 l168 0 l0 -507 ZM446 596 l-140 0 l0 125 l140 0 l0 -125 ZM237 596 l-142 0 l0 125 l142 0 l0 -125 Z" /><glyph glyph-name="yacute" unicode="ý" d="M261 166 l4 0 l20 92 l82 249 l181 0 l-238 -587 q-23 -58 -62 -85 q-39 -27 -85.5 -26.5 q-46.5 0.5 -102.5 6.5 l1 126 q48 -14 80 -2.5 q32 11.5 39 58.5 l-214 510 l180 0 l92 -249 l23 -92 ZM421 724 l5 -7 l-110 -141 l-156 0 l76 148 l185 0 Z" /><glyph glyph-name="thorn" unicode="þ" d="M37 -176 l0 874 l165 0 l0 -212 q32 28 86 28 q101 0 164 -74 q63 -74 63 -184 q0 -93 -49 -163.5 q-49 -70.5 -134 -91.5 q-80 -20 -129 13 l0 -190 l-166 0 ZM205 351 l0 -210 q23 -10 52 -10 q39 0 64.5 34.5 q25.5 34.5 25.5 90.5 q0 52 -23.5 84.5 q-23.5 32.5 -66.5 32.5 q-32 0 -52 -22 Z" /><glyph glyph-name="ydieresis" unicode="ÿ" d="M261 166 l4 0 l20 92 l82 249 l181 0 l-238 -587 q-23 -58 -62 -85 q-39 -27 -85.5 -26.5 q-46.5 0.5 -102.5 6.5 l1 126 q48 -14 80 -2.5 q32 11.5 39 58.5 l-214 510 l180 0 l92 -249 l23 -92 ZM438 602 l-140 0 l0 125 l140 0 l0 -125 ZM229 602 l-142 0 l0 125 l142 0 l0 -125 Z" /><glyph glyph-name="Amacron" unicode="&#x100;" d="M134 748 l0 123 l343 0 l0 -123 l-343 0 ZM477 0 l-56 171 l-223 0 l-53 -171 l-190 0 l239 707 l232 0 l242 -707 l-191 0 ZM314 579 l-7 0 l-18 -98 l-44 -151 l129 0 l-42 151 l-18 98 Z" /><glyph glyph-name="amacron" unicode="&#x101;" d="M113 570 l0 108 l291 0 l0 -108 l-291 0 ZM234 219 q-36 0 -52 -23 q-16 -23 -2 -46 q14 -23 51 -23 q50 0 77 24 l0 55 q-27 13 -74 13 ZM474 0 l-135 0 l-17 51 q-44 -58 -122 -58 q-90 0 -140 50.5 q-50 50.5 -50 122.5 q0 51 30 90 q30 39 74.5 55 q44.5 16 96 19 q51.5 3 94.5 -18 l0 16 q0 33 -41.5 45.5 q-41.5 12.5 -92.5 5 q-51 -7.5 -81 -27.5 l-50 93 q91 73 206 73 q98 0 163 -48 q65 -48 65 -153 l0 -316 Z" /><glyph glyph-name="Abreve" unicode="&#x102;" d="M151 867 l120 0 q0 -19 16.5 -27 q16.5 -8 33 0 q16.5 8 16.5 28 l123 0 q0 -52 -32 -87.5 q-32 -35.5 -77 -43.5 q-45 -8 -90.5 0 q-45.5 8 -77.5 43.5 q-32 35.5 -32 86.5 ZM477 0 l-56 171 l-223 0 l-53 -171 l-190 0 l239 707 l232 0 l242 -707 l-191 0 ZM314 579 l-7 0 l-18 -98 l-44 -151 l129 0 l-42 151 l-18 98 Z" /><glyph glyph-name="abreve" unicode="&#x103;" d="M234 219 q-36 0 -52 -23 q-16 -23 -2 -46 q14 -23 51 -23 q50 0 77 24 l0 55 q-27 13 -74 13 ZM474 0 l-135 0 l-17 51 q-44 -58 -122 -58 q-90 0 -140 50.5 q-50 50.5 -50 122.5 q0 51 30 90 q30 39 74.5 55 q44.5 16 96 19 q51.5 3 94.5 -18 l0 16 q0 33 -41.5 45.5 q-41.5 12.5 -92.5 5 q-51 -7.5 -81 -27.5 l-50 93 q91 73 206 73 q98 0 163 -48 q65 -48 65 -153 l0 -316 ZM99 692 l120 0 q0 -19 16.5 -27 q16.5 -8 33 0 q16.5 8 16.5 28 l123 0 q0 -52 -32 -87.5 q-32 -35.5 -77.5 -43.5 q-45.5 -8 -90.5 0 q-45 8 -77 43.5 q-32 35.5 -32 86.5 Z" /><glyph glyph-name="Aogonek" unicode="&#x104;" d="M428 -119 q-25 37 -12 77.5 q13 40.5 54 61.5 l-49 151 l-223 0 l-53 -171 l-190 0 l239 707 l232 0 l224 -656 l1 0 l17 -51 q-54 -5 -65 -34 q-10 -24 22 -38 l25 -7 l-30 -88 q-147 -20 -192 48 ZM314 579 l-7 0 l-18 -98 l-44 -151 l129 0 l-42 151 l-18 98 Z" /><glyph glyph-name="aogonek" unicode="&#x105;" d="M306 -101 q-16 26 -5.5 58 q10.5 32 37.5 45 l-16 49 q-44 -58 -122 -58 q-90 0 -140 50.5 q-50 50.5 -50 122.5 q0 51 30 90 q30 39 74.5 55 q44.5 16 96 19 q51.5 3 94.5 -18 l0 16 q0 33 -41.5 45.5 q-41.5 12.5 -92.5 5 q-51 -7.5 -81 -27.5 l-50 93 q91 73 206 73 q98 0 163 -48 q65 -48 65 -153 l0 -316 q-27 -6 -28 -26 q-1 -19 23 -23 q9 -2 21 0 l-40 -82 q-12 -4 -30.5 -7.5 q-18.5 -3.5 -57.5 3 q-39 6.5 -56 34.5 ZM234 219 q-36 0 -52 -23 q-16 -23 -2 -46 q14 -23 51 -23 q50 0 77 24 l0 55 q-27 13 -74 13 Z" /><glyph glyph-name="Cacute" unicode="&#x106;" d="M649 574 l-107 -100 q-80 84 -169 80 q-86 -2 -135 -61.5 q-49 -59.5 -49 -144.5 q0 -85 49.5 -144 q49.5 -59 134.5 -59 q107 0 179 93 l113 -94 q-130 -158 -292 -158 q-167 0 -263.5 106.5 q-96.5 106.5 -96.5 255.5 q0 96 40 177.5 q40 81.5 124 134.5 q84 53 196 53 q81 0 147.5 -32 q66.5 -32 128.5 -107 ZM537 899 l5 -7 l-110 -141 l-156 0 l76 148 l185 0 Z" /><glyph glyph-name="cacute" unicode="&#x107;" d="M468 424 l-94 -95 q-45 41 -97 41 q-43 0 -73 -31.5 q-30 -31.5 -31 -86.5 q-1 -50 30.5 -82 q31.5 -32 74.5 -32 q55 0 103 51 l97 -92 q-47 -58 -95 -81.5 q-48 -23.5 -110 -23.5 q-124 0 -195.5 76.5 q-71.5 76.5 -71.5 184.5 q1 107 73 182.5 q72 75.5 194 76.5 q57 0 100 -18 q43 -18 95 -70 ZM412 702 l5 -7 l-100 -131 l-133 0 l69 138 l159 0 Z" /><glyph glyph-name="Ccircumflex" unicode="&#x108;" d="M649 574 l-107 -100 q-80 84 -169 80 q-86 -2 -135 -61.5 q-49 -59.5 -49 -144.5 q0 -85 49.5 -144 q49.5 -59 134.5 -59 q107 0 179 93 l113 -94 q-130 -158 -292 -158 q-167 0 -263.5 106.5 q-96.5 106.5 -96.5 255.5 q0 96 40 177.5 q40 81.5 124 134.5 q84 53 196 53 q81 0 147.5 -32 q66.5 -32 128.5 -107 ZM182 751 l-3 4 l129 146 l128 0 l127 -145 l-3 -5 l-129 0 l-60 55 l-62 -55 l-127 0 Z" /><glyph glyph-name="ccircumflex" unicode="&#x109;" d="M468 424 l-94 -95 q-45 41 -97 41 q-43 0 -73 -31.5 q-30 -31.5 -31 -86.5 q-1 -50 30.5 -82 q31.5 -32 74.5 -32 q55 0 103 51 l97 -92 q-47 -58 -95 -81.5 q-48 -23.5 -110 -23.5 q-124 0 -195.5 76.5 q-71.5 76.5 -71.5 184.5 q1 107 73 182.5 q72 75.5 194 76.5 q57 0 100 -18 q43 -18 95 -70 ZM83 554 l-3 4 l124 140 l124 0 l122 -139 l-3 -5 l-124 0 l-58 53 l-60 -53 l-122 0 Z" /><glyph glyph-name="Cdotaccent" unicode="&#x10a;" d="M301 754 l0 124 l140 0 l0 -124 l-140 0 ZM649 574 l-107 -100 q-80 84 -169 80 q-86 -2 -135 -61.5 q-49 -59.5 -49 -144.5 q0 -85 49.5 -144 q49.5 -59 134.5 -59 q107 0 179 93 l113 -94 q-130 -158 -292 -158 q-167 0 -263.5 106.5 q-96.5 106.5 -96.5 255.5 q0 96 40 177.5 q40 81.5 124 134.5 q84 53 196 53 q81 0 147.5 -32 q66.5 -32 128.5 -107 Z" /><glyph glyph-name="cdotaccent" unicode="&#x10b;" d="M468 424 l-94 -95 q-45 41 -97 41 q-43 0 -73 -31.5 q-30 -31.5 -31 -86.5 q-1 -50 30.5 -82 q31.5 -32 74.5 -32 q55 0 103 51 l97 -92 q-47 -58 -95 -81.5 q-48 -23.5 -110 -23.5 q-124 0 -195.5 76.5 q-71.5 76.5 -71.5 184.5 q1 107 73 182.5 q72 75.5 194 76.5 q57 0 100 -18 q43 -18 95 -70 ZM197 566 l0 124 l140 0 l0 -124 l-140 0 Z" /><glyph glyph-name="Ccaron" unicode="&#x10c;" d="M649 574 l-108 -94 q-74 78 -168 74 q-86 -2 -135 -61.5 q-49 -59.5 -49 -144.5 q0 -85 49.5 -144 q49.5 -59 134.5 -59 q107 0 179 93 l113 -94 q-130 -158 -292 -158 q-167 0 -263.5 106.5 q-96.5 106.5 -96.5 255.5 q0 96 40 177.5 q40 81.5 124 134.5 q84 53 196 53 q81 0 147.5 -32 q66.5 -32 128.5 -107 ZM559 903 l3 -4 l-129 -146 l-128 0 l-127 145 l3 5 l129 0 l60 -55 l62 55 l127 0 Z" /><glyph glyph-name="ccaron" unicode="&#x10d;" d="M468 424 l-94 -95 q-45 41 -97 41 q-43 0 -73 -31.5 q-30 -31.5 -31 -86.5 q-1 -50 30.5 -82 q31.5 -32 74.5 -32 q55 0 103 51 l97 -92 q-47 -58 -95 -81.5 q-48 -23.5 -110 -23.5 q-124 0 -195.5 76.5 q-71.5 76.5 -71.5 184.5 q1 107 73 182.5 q72 75.5 194 76.5 q57 0 100 -18 q43 -18 95 -70 ZM441 692 l3 -4 l-120 -132 l-119 0 l-118 131 l3 5 l123 0 l52 -47 l54 47 l122 0 Z" /><glyph glyph-name="Dcaron" unicode="&#x10e;" d="M293 703 q169 1 263.5 -103 q94.5 -104 94.5 -248 q0 -67 -22.5 -129.5 q-22.5 -62.5 -65.5 -112.5 q-43 -50 -113 -80 q-70 -30 -156 -30 l-240 0 l0 703 l239 0 ZM293 153 q85 0 132.5 59 q47.5 59 47.5 137 q0 79 -47.5 139.5 q-47.5 60.5 -131.5 62.5 l-63 0 l0 -398 l62 0 ZM509 902 l3 -4 l-129 -146 l-128 0 l-127 145 l3 5 l129 0 l60 -55 l62 55 l127 0 Z" /><glyph glyph-name="dcaron" unicode="&#x10f;" d="M549 700 l146 0 q13 -131 -31 -199 l-121 0 q20 37 22.5 96 q2.5 59 -16.5 103 ZM13 251 q0 -93 43 -159.5 q43 -66.5 111 -86.5 q107 -32 189 50 l13 -55 l130 0 l0 700 l-168 0 l0 -216 q-26 19 -69.5 24 q-43.5 5 -78.5 -5 q-80 -23 -125 -92.5 q-45 -69.5 -45 -159.5 ZM331 359 l0 -199 q-25 -22 -50 -22 q-100 0 -101 117 q-1 68 43.5 102.5 q44.5 34.5 107.5 1.5 Z" /><glyph glyph-name="Dcroat" unicode="&#x110;" d="M-8 279 l0 139 l66 0 l0 287 l239 0 q169 1 263.5 -104 q94.5 -105 94.5 -249 q0 -67 -22.5 -129.5 q-22.5 -62.5 -65.5 -112.5 q-43 -50 -113 -80 q-70 -30 -156 -30 l-240 0 l0 279 l-66 0 ZM297 161 q85 -2 132.5 54.5 q47.5 56.5 47.5 133.5 q0 78 -47.5 136 q-47.5 58 -130.5 58 l-62 0 l0 -125 l113 0 l0 -139 l-113 0 l0 -118 l60 0 Z" /><glyph glyph-name="dcroat" unicode="&#x111;" d="M13 251 q0 90 45 159.5 q45 69.5 125 92.5 q35 10 78.5 5 q43.5 -5 69.5 -24 l0 66 l-78 0 l0 96 l78 0 l0 54 l168 0 l0 -54 l67 0 l0 -96 l-67 0 l0 -550 l-130 0 l-13 55 q-82 -82 -189 -50 q-68 20 -111 86.5 q-43 66.5 -43 159.5 ZM331 160 l0 199 q-63 33 -107.5 -1.5 q-44.5 -34.5 -43.5 -102.5 q1 -117 101 -117 q25 0 50 22 Z" /><glyph glyph-name="Emacron" unicode="&#x112;" d="M91 750 l0 119 l323 0 l0 -119 l-323 0 ZM464 700 l0 -150 l-258 0 l0 -124 l247 0 l0 -150 l-247 0 l0 -124 l258 0 l0 -152 l-430 0 l0 700 l430 0 Z" /><glyph glyph-name="emacron" unicode="&#x113;" d="M518 200 l-334 0 q6 -35 34 -51.5 q28 -16.5 64 -16.5 q36 0 59 8.5 q23 8.5 48 32.5 l86 -74 q-53 -57 -98.5 -80.5 q-45.5 -23.5 -101.5 -23.5 q-124 0 -193 77 q-69 77 -68 183 q0 105 69.5 181.5 q69.5 76.5 190.5 77.5 q128 1 200 -90 q72 -91 44 -224 ZM182 311 l182 0 q-5 33 -30.5 51 q-25.5 18 -58.5 18 q-34 0 -61 -18.5 q-27 -18.5 -32 -50.5 ZM124 562 l0 119 l309 0 l0 -119 l-309 0 Z" /><glyph glyph-name="Ebreve" unicode="&#x114;" d="M464 700 l0 -150 l-258 0 l0 -124 l247 0 l0 -150 l-247 0 l0 -124 l258 0 l0 -152 l-430 0 l0 700 l430 0 ZM96 870 l120 0 q0 -19 16.5 -27 q16.5 -8 33 0 q16.5 8 16.5 28 l123 0 q0 -52 -32 -87.5 q-32 -35.5 -77.5 -43.5 q-45.5 -8 -90.5 0 q-45 8 -77 43.5 q-32 35.5 -32 86.5 Z" /><glyph glyph-name="ebreve" unicode="&#x115;" d="M518 200 l-334 0 q6 -35 34 -51.5 q28 -16.5 64 -16.5 q36 0 59 8.5 q23 8.5 48 32.5 l86 -74 q-53 -57 -98.5 -80.5 q-45.5 -23.5 -101.5 -23.5 q-124 0 -193 77 q-69 77 -68 183 q0 105 69.5 181.5 q69.5 76.5 190.5 77.5 q128 1 200 -90 q72 -91 44 -224 ZM182 311 l182 0 q-5 33 -30.5 51 q-25.5 18 -58.5 18 q-34 0 -61 -18.5 q-27 -18.5 -32 -50.5 ZM128 692 l114 0 q0 -18 15.5 -25.5 q15.5 -7.5 31 0 q15.5 7.5 15.5 26.5 l117 0 q0 -36 -16 -63.5 q-16 -27.5 -42 -42 q-26 -14.5 -57 -21.5 q-31 -7 -62.5 0 q-31.5 7 -57.5 21 q-26 14 -42 42 q-16 28 -16 63 Z" /><glyph glyph-name="Edotaccent" unicode="&#x116;" d="M184 746 l0 131 l152 0 l0 -131 l-152 0 ZM464 700 l0 -150 l-258 0 l0 -124 l247 0 l0 -150 l-247 0 l0 -124 l258 0 l0 -152 l-430 0 l0 700 l430 0 Z" /><glyph glyph-name="edotaccent" unicode="&#x117;" d="M517 200 l-334 0 q6 -35 34 -51.5 q28 -16.5 64 -16.5 q36 0 59 8.5 q23 8.5 48 32.5 l86 -74 q-53 -57 -98.5 -80.5 q-45.5 -23.5 -101.5 -23.5 q-124 0 -193 77 q-69 77 -68 183 q0 105 69.5 181.5 q69.5 76.5 190.5 77.5 q128 1 200 -90 q72 -91 44 -224 ZM181 311 l182 0 q-5 33 -30.5 51 q-25.5 18 -58.5 18 q-34 0 -61 -18.5 q-27 -18.5 -32 -50.5 ZM199 572 l0 128 l152 0 l0 -128 l-152 0 Z" /><glyph glyph-name="Eogonek" unicode="&#x118;" d="M464 700 l0 -150 l-258 0 l0 -124 l247 0 l0 -150 l-247 0 l0 -124 l258 0 l0 -152 l-17 0 q-18 -18 -15.5 -37.5 q2.5 -19.5 21 -25.5 q18.5 -6 47.5 4 l-20 -79 q-34 -17 -77 -16.5 q-43 0.5 -69 19.5 q-35 26 -31.5 67 q3.5 41 38.5 68 l-307 0 l0 700 l430 0 Z" /><glyph glyph-name="eogonek" unicode="&#x119;" d="M283 -4 l98 26 q-20 -30 3 -50.5 q23 -20.5 64 -3.5 l-22 -79 q-40 -21 -91 -18 q-51 3 -69 34 q-10 14 -6.5 44 q3.5 30 23.5 47 ZM518 200 l-334 0 q6 -35 34 -51.5 q28 -16.5 64 -16.5 q36 0 59 8.5 q23 8.5 48 32.5 l86 -74 q-53 -57 -98.5 -80.5 q-45.5 -23.5 -101.5 -23.5 q-124 0 -193 77 q-69 77 -68 183 q0 105 69.5 181.5 q69.5 76.5 190.5 77.5 q128 1 200 -90 q72 -91 44 -224 ZM182 311 l182 0 q-5 33 -30.5 51 q-25.5 18 -58.5 18 q-34 0 -61 -18.5 q-27 -18.5 -32 -50.5 Z" /><glyph glyph-name="Ecaron" unicode="&#x11a;" d="M464 700 l0 -150 l-258 0 l0 -124 l247 0 l0 -150 l-247 0 l0 -124 l258 0 l0 -152 l-430 0 l0 700 l430 0 ZM450 892 l3 -4 l-128 -141 l-126 0 l-126 140 l3 5 l128 0 l59 -53 l61 53 l126 0 Z" /><glyph glyph-name="ecaron" unicode="&#x11b;" d="M522 200 l-334 0 q6 -35 34 -51.5 q28 -16.5 64 -16.5 q36 0 59 8.5 q23 8.5 48 32.5 l86 -74 q-53 -57 -98.5 -80.5 q-45.5 -23.5 -101.5 -23.5 q-124 0 -193 77 q-69 77 -68 183 q0 105 69.5 181.5 q69.5 76.5 190.5 77.5 q128 1 200 -90 q72 -91 44 -224 ZM186 311 l182 0 q-5 33 -30.5 51 q-25.5 18 -58.5 18 q-34 0 -61 -18.5 q-27 -18.5 -32 -50.5 ZM459 699 l3 -4 l-122 -136 l-121 0 l-120 135 l3 5 l122 0 l57 -49 l58 49 l120 0 Z" /><glyph glyph-name="Gcircumflex" unicode="&#x11c;" d="M375 716 q93 0 162 -33.5 q69 -33.5 137 -117.5 l-122 -89 q-36 43 -84 64 q-48 21 -95 16 q-47 -5 -88 -27.5 q-41 -22.5 -66 -70 q-25 -47.5 -25 -109.5 q0 -78 50.5 -140.5 q50.5 -62.5 133.5 -62.5 q155 0 175 114 l-265 0 l0 143 l431 0 q3 -34 3 -53 q0 -171 -94.5 -266.5 q-94.5 -95.5 -252.5 -95.5 q-84 0 -153.5 30.5 q-69.5 30.5 -113.5 82 q-44 51.5 -68 115.5 q-24 64 -24 133 q0 71 24 136 q24 65 68 117 q44 52 113.5 83 q69.5 31 153.5 31 ZM186 748 l-3 4 l129 146 l128 0 l127 -145 l-3 -5 l-129 0 l-60 55 l-62 -55 l-127 0 Z" /><glyph glyph-name="gcircumflex" unicode="&#x11d;" d="M102 -7 q70 -46 138 -45 q82 0 88 71 q-132 -51 -226 22 q-94 73 -94 212 q0 97 53.5 171 q53.5 74 136.5 85 q116 16 159 -55 l8 53 l129 0 l0 -495 q0 -101 -68 -154.5 q-68 -53.5 -167 -55.5 q-65 -1 -125 21 q-60 22 -100 64 l68 106 ZM330 146 l0 207 q-27 23 -68 17 q-34 -5 -56.5 -31 q-22.5 -26 -27.5 -60.5 q-5 -34.5 1.5 -68 q6.5 -33.5 31.5 -56.5 q25 -23 61 -24 q35 0 58 16 ZM89 553 l-3 4 l125 146 l123 0 l123 -145 l-3 -5 l-125 0 l-58 55 l-59 -55 l-123 0 Z" /><glyph glyph-name="Gbreve" unicode="&#x11e;" d="M375 716 q93 0 162 -33.5 q69 -33.5 137 -117.5 l-122 -89 q-36 43 -84 64 q-48 21 -95 16 q-47 -5 -88 -27.5 q-41 -22.5 -66 -70 q-25 -47.5 -25 -109.5 q0 -78 50.5 -140.5 q50.5 -62.5 133.5 -62.5 q155 0 175 114 l-265 0 l0 143 l431 0 q3 -34 3 -53 q0 -171 -94.5 -266.5 q-94.5 -95.5 -252.5 -95.5 q-84 0 -153.5 30.5 q-69.5 30.5 -113.5 82 q-44 51.5 -68 115.5 q-24 64 -24 133 q0 71 24 136 q24 65 68 117 q44 52 113.5 83 q69.5 31 153.5 31 ZM223 883 l120 0 q0 -21 16.5 -30 q16.5 -9 33 -0.5 q16.5 8.5 16.5 31.5 l123 0 q0 -52 -32 -87.5 q-32 -35.5 -77 -43.5 q-45 -8 -90.5 0 q-45.5 8 -77.5 43.5 q-32 35.5 -32 86.5 Z" /><glyph glyph-name="gbreve" unicode="&#x11f;" d="M102 -7 q70 -46 138 -45 q82 0 88 71 q-132 -51 -226 22 q-94 73 -94 212 q0 97 53.5 171 q53.5 74 136.5 85 q116 16 159 -55 l8 53 l129 0 l0 -495 q0 -101 -68 -154.5 q-68 -53.5 -167 -55.5 q-65 -1 -125 21 q-60 22 -100 64 l68 106 ZM330 146 l0 207 q-27 23 -68 17 q-34 -5 -56.5 -31 q-22.5 -26 -27.5 -60.5 q-5 -34.5 1.5 -68 q6.5 -33.5 31.5 -56.5 q25 -23 61 -24 q35 0 58 16 ZM118 697 l120 0 q0 -21 16.5 -30 q16.5 -9 33 -0.5 q16.5 8.5 16.5 31.5 l123 0 q0 -52 -32 -87.5 q-32 -35.5 -77.5 -43.5 q-45.5 -8 -90.5 0 q-45 8 -77 43.5 q-32 35.5 -32 86.5 Z" /><glyph glyph-name="Gdotaccent" unicode="&#x120;" d="M295 758 l0 127 l160 0 l0 -127 l-160 0 ZM375 716 q93 0 162 -33.5 q69 -33.5 137 -117.5 l-122 -89 q-36 43 -84 64 q-48 21 -95 16 q-47 -5 -88 -27.5 q-41 -22.5 -66 -70 q-25 -47.5 -25 -109.5 q0 -78 50.5 -140.5 q50.5 -62.5 133.5 -62.5 q155 0 175 114 l-265 0 l0 143 l431 0 q3 -34 3 -53 q0 -171 -94.5 -266.5 q-94.5 -95.5 -252.5 -95.5 q-84 0 -153.5 30.5 q-69.5 30.5 -113.5 82 q-44 51.5 -68 115.5 q-24 64 -24 133 q0 71 24 136 q24 65 68 117 q44 52 113.5 83 q69.5 31 153.5 31 Z" /><glyph glyph-name="gdotaccent" unicode="&#x121;" d="M102 -7 q70 -46 138 -45 q82 0 88 71 q-132 -51 -226 22 q-94 73 -94 212 q0 97 53.5 171 q53.5 74 136.5 85 q116 16 159 -55 l8 53 l129 0 l0 -495 q0 -101 -68 -154.5 q-68 -53.5 -167 -55.5 q-65 -1 -125 21 q-60 22 -100 64 l68 106 ZM330 146 l0 207 q-27 23 -68 17 q-34 -5 -56.5 -31 q-22.5 -26 -27.5 -60.5 q-5 -34.5 1.5 -68 q6.5 -33.5 31.5 -56.5 q25 -23 61 -24 q35 0 58 16 ZM193 571 l0 127 l160 0 l0 -127 l-160 0 Z" /><glyph glyph-name="Gcommaaccent" unicode="&#x122;" d="M375 716 q93 0 162 -33.5 q69 -33.5 137 -117.5 l-122 -89 q-36 43 -84 64 q-48 21 -95 16 q-47 -5 -88 -27.5 q-41 -22.5 -66 -70 q-25 -47.5 -25 -109.5 q0 -78 50.5 -140.5 q50.5 -62.5 133.5 -62.5 q155 0 175 114 l-265 0 l0 143 l431 0 q3 -34 3 -53 q0 -171 -94.5 -266.5 q-94.5 -95.5 -252.5 -95.5 q-84 0 -153.5 30.5 q-69.5 30.5 -113.5 82 q-44 51.5 -68 115.5 q-24 64 -24 133 q0 71 24 136 q24 65 68 117 q44 52 113.5 83 q69.5 31 153.5 31 ZM296 -41 l152 0 q8 -42 2.5 -92.5 q-5.5 -50.5 -33.5 -93.5 l-127 0 q20 38 22.5 90 q2.5 52 -16.5 96 Z" /><glyph glyph-name="gcommaaccent" unicode="&#x123;" d="M102 -7 q70 -46 138 -45 q82 0 88 71 q-132 -51 -226 22 q-94 73 -94 212 q0 97 53.5 171 q53.5 74 136.5 85 q116 16 159 -55 l8 53 l129 0 l0 -495 q0 -101 -68 -154.5 q-68 -53.5 -167 -55.5 q-65 -1 -125 21 q-60 22 -100 64 l68 106 ZM330 146 l0 207 q-27 23 -68 17 q-34 -5 -56.5 -31 q-22.5 -26 -27.5 -60.5 q-5 -34.5 1.5 -68 q6.5 -33.5 31.5 -56.5 q25 -23 61 -24 q35 0 58 16 ZM357 545 l-152 0 q-15 94 33 173 l124 0 q-15 -40 -16.5 -90 q-1.5 -50 11.5 -83 Z" /><glyph glyph-name="Hcircumflex" unicode="&#x124;" d="M424 0 l0 271 l-192 0 l0 -271 l-180 0 l0 700 l180 0 l0 -273 l192 0 l0 273 l179 0 l0 -700 l-179 0 ZM139 748 l-3 4 l129 146 l128 0 l127 -145 l-3 -5 l-129 0 l-60 55 l-62 -55 l-127 0 Z" /><glyph glyph-name="hcircumflex" unicode="&#x125;" d="M37 700 l168 0 l0 -215 q42 24 95.5 25.5 q53.5 1.5 89.5 -17.5 q54 -26 85 -79.5 q31 -53.5 31 -124.5 l0 -289 l-168 0 l0 290 q0 53 -43 74 q-43 21 -90 -4 l0 -360 l-168 0 l0 700 ZM-51 748 l-3 4 l127 140 l126 0 l125 -139 l-3 -5 l-127 0 l-59 53 l-61 -53 l-125 0 Z" /><glyph glyph-name="Hbar" unicode="&#x126;" d="M-3 493 l0 125 l55 0 l0 82 l180 0 l0 -82 l192 0 l0 82 l179 0 l0 -82 l59 0 l0 -125 l-59 0 l0 -493 l-179 0 l0 271 l-192 0 l0 -271 l-180 0 l0 493 l-55 0 ZM232 427 l192 0 l0 66 l-192 0 l0 -66 Z" /><glyph glyph-name="hbar" unicode="&#x127;" d="M37 700 l168 0 l0 -53 l85 0 l0 -97 l-85 0 l0 -65 q42 24 95.5 25.5 q53.5 1.5 89.5 -17.5 q54 -26 85 -79.5 q31 -53.5 31 -124.5 l0 -289 l-168 0 l0 290 q0 53 -43 74 q-43 21 -90 -4 l0 -360 l-168 0 l0 550 l-58 0 l0 97 l58 0 l0 53 Z" /><glyph glyph-name="Itilde" unicode="&#x128;" d="M33 0 l0 703 l178 0 l0 -703 l-178 0 ZM224 882 l72 -54 q-26 -52 -52.5 -72.5 q-26.5 -20.5 -61.5 -19.5 q-22 0 -57.5 17.5 q-35.5 17.5 -40.5 18.5 q-32 7 -64 -38 l-73 58 q57 92 127 92 q23 0 59.5 -17 q36.5 -17 48.5 -17 q20 0 42 32 Z" /><glyph glyph-name="itilde" unicode="&#x129;" d="M22 503 l168 0 l0 -503 l-168 0 l0 503 ZM208 691 l72 -54 q-26 -52 -52.5 -72.5 q-26.5 -20.5 -61.5 -19.5 q-22 0 -57.5 17.5 q-35.5 17.5 -40.5 18.5 q-32 7 -64 -38 l-73 58 q57 92 127 92 q23 0 59.5 -17 q36.5 -17 48.5 -17 q20 0 42 32 Z" /><glyph glyph-name="Imacron" unicode="&#x12a;" d="M-40 728 l0 119 l326 0 l0 -119 l-326 0 ZM33 0 l0 700 l179 0 l0 -700 l-179 0 Z" /><glyph glyph-name="imacron" unicode="&#x12b;" d="M22 500 l168 0 l0 -500 l-168 0 l0 500 ZM-41 568 l0 124 l294 0 l0 -124 l-294 0 Z" /><glyph glyph-name="Ibreve" unicode="&#x12c;" d="M33 0 l0 703 l179 0 l0 -703 l-179 0 ZM-34 867 l120 0 q0 -19 16.5 -27 q16.5 -8 33 0 q16.5 8 16.5 28 l123 0 q0 -52 -32 -87.5 q-32 -35.5 -77.5 -43.5 q-45.5 -8 -90.5 0 q-45 8 -77 43.5 q-32 35.5 -32 86.5 Z" /><glyph glyph-name="ibreve" unicode="&#x12d;" d="M22 505 l168 0 l0 -505 l-168 0 l0 505 ZM-45 695 l115 0 q0 -19 15.5 -27 q15.5 -8 31.5 0 q16 8 16 28 l117 0 q0 -37 -16.5 -66.5 q-16.5 -29.5 -42.5 -44.5 q-26 -15 -57 -22 q-31 -7 -62.5 0 q-31.5 7 -57.5 22 q-26 15 -42.5 44 q-16.5 29 -16.5 66 Z" /><glyph glyph-name="Iogonek" unicode="&#x12e;" d="M33 703 l179 0 l0 -699 q-50 -4 -50 -31 q0 -14 17.5 -23 q17.5 -9 44.5 -3 l-50 -98 q-20 0 -53.5 -1.5 q-33.5 -1.5 -72 14.5 q-38.5 16 -50.5 47 q-13 33 -3.5 60.5 q9.5 27.5 38.5 41.5 l0 692 Z" /><glyph glyph-name="iogonek" unicode="&#x12f;" d="M24 545 l0 158 l166 0 l0 -158 l-166 0 ZM190 4 q-50 -4 -50 -31 q0 -14 17.5 -23 q17.5 -9 44.5 -3 l-50 -98 q-16 -2 -36.5 -2 q-20.5 0 -49 4 q-28.5 4 -51.5 18.5 q-23 14.5 -32 38.5 q-12 33 -0.5 60.5 q11.5 27.5 40.5 42.5 l0 496 l167 0 l0 -503 Z" /><glyph glyph-name="Idotaccent" unicode="&#x130;" d="M33 732 l0 148 l179 0 l0 -148 l-179 0 ZM33 0 l0 700 l179 0 l0 -700 l-179 0 Z" /><glyph glyph-name="dotlessi" unicode="&#x131;" d="M23 507 l167 0 l0 -507 l-167 0 l0 507 Z" /><glyph glyph-name="IJ" unicode="&#x132;" d="M37 0 l0 703 l179 0 l0 -703 l-179 0 ZM286 -3 l0 152 q54 -13 84.5 9.5 q30.5 22.5 30.5 61.5 l0 338 l-116 0 l0 142 l292 0 l0 -480 q0 -115 -82.5 -178.5 q-82.5 -63.5 -208.5 -44.5 Z" /><glyph glyph-name="ij" unicode="&#x133;" d="M191 537 l-167 0 l0 162 l167 0 l0 -162 ZM22 497 l168 0 l0 -497 l-168 0 l0 497 ZM451 548 l-166 0 l0 155 l166 0 l0 -155 ZM202 -181 l0 129 q45 -7 63.5 4.5 q18.5 11.5 18.5 29.5 l0 521 l168 0 l0 -520 q1 -104 -75 -147 q-76 -43 -175 -17 Z" /><glyph glyph-name="Jcircumflex" unicode="&#x134;" d="M-15 220 l154 37 q16 -103 80 -108 q33 0 55 18.5 q22 18.5 22 52.5 l0 338 l-116 0 l0 142 l292 0 l0 -480 q0 -108 -71.5 -169 q-71.5 -61 -166.5 -61 q-226 0 -249 230 ZM116 748 l-3 4 l129 146 l128 0 l127 -145 l-3 -5 l-129 0 l-60 55 l-62 -55 l-127 0 Z" /><glyph glyph-name="jcircumflex" unicode="&#x135;" d="M-60 -181 l0 129 q45 -7 63.5 4.5 q18.5 11.5 18.5 29.5 l0 521 l168 0 l0 -520 q1 -104 -75 -147 q-76 -43 -175 -17 ZM-74 545 l-3 4 l122 146 l128 0 l122 -145 l-3 -5 l-129 0 l-56 52 l-54 -52 l-127 0 Z" /><glyph glyph-name="Kcommaaccent" unicode="&#x136;" d="M39 0 l0 700 l177 0 l0 -276 l41 73 l156 203 l207 0 l-262 -320 l269 -380 l-205 0 l-186 261 l-20 -21 l0 -240 l-177 0 ZM240 -21 l152 0 q8 -42 2.5 -92.5 q-5.5 -50.5 -33.5 -93.5 l-127 0 q20 38 22.5 90 q2.5 52 -16.5 96 Z" /><glyph glyph-name="kcommaaccent" unicode="&#x137;" d="M518 12 l0 -12 l-183 0 l-122 203 l-22 -19 l0 -184 l-167 0 l0 700 l167 0 l0 -364 q10 36 60 96 l67 75 l190 0 l0 -12 l-180 -185 l190 -298 ZM190 -21 l152 0 q8 -42 2.5 -92.5 q-5.5 -50.5 -33.5 -93.5 l-127 0 q20 38 22.5 90 q2.5 52 -16.5 96 Z" /><glyph glyph-name="kgreenlandic" unicode="&#x138;" d="M518 12 l0 -12 l-183 0 l-122 203 l-22 -19 l0 -184 l-167 0 l0 507 l167 0 l0 -171 q10 36 60 96 l67 75 l190 0 l0 -12 l-180 -185 l190 -298 Z" /><glyph glyph-name="Lacute" unicode="&#x139;" d="M439 160 l0 -160 l-410 0 l0 700 l179 0 l0 -540 l231 0 ZM295 899 l5 -7 l-110 -141 l-156 0 l76 148 l185 0 Z" /><glyph glyph-name="lacute" unicode="&#x13a;" d="M252 121 l0 -119 q-39 -7 -67 -7 q-76 0 -121 42.5 q-45 42.5 -45 131.5 l0 531 l168 0 l0 -531 q0 -25 13 -38.5 q13 -13.5 52 -9.5 ZM277 894 l5 -7 l-106 -139 l-151 0 l73 146 l179 0 Z" /><glyph glyph-name="Lcommaaccent" unicode="&#x13b;" d="M439 160 l0 -160 l-410 0 l0 700 l179 0 l0 -540 l231 0 ZM147 -26 l156 0 q8 -42 2.5 -92.5 q-5.5 -50.5 -33.5 -93.5 l-131 0 q20 38 22.5 90 q2.5 52 -16.5 96 Z" /><glyph glyph-name="lcommaaccent" unicode="&#x13c;" d="M252 121 l0 -119 q-34 -6 -67 -6 q-76 0 -121 42 q-45 42 -45 131 l0 531 l168 0 l0 -531 q0 -25 13 -38.5 q13 -13.5 52 -9.5 ZM79 -29 l144 0 q7 -40 1.5 -88.5 q-5.5 -48.5 -30.5 -90.5 l-121 0 q18 36 20.5 86 q2.5 50 -14.5 93 Z" /><glyph glyph-name="Lcaron" unicode="&#x13d;" d="M439 160 l0 -160 l-410 0 l0 700 l179 0 l0 -540 l231 0 ZM286 703 l156 0 q8 -42 2.5 -92.5 q-5.5 -50.5 -33.5 -93.5 l-131 0 q20 38 22.5 90 q2.5 52 -16.5 96 Z" /><glyph glyph-name="lcaron" unicode="&#x13e;" d="M252 121 l0 -119 q-39 -7 -67 -7 q-76 0 -121 42.5 q-45 42.5 -45 131.5 l0 531 l168 0 l0 -531 q0 -25 13 -38.5 q13 -13.5 52 -9.5 ZM227 700 l140 0 q13 -132 -31 -186 l-115 0 q17 32 19 87 q2 55 -13 99 Z" /><glyph glyph-name="Ldot" unicode="&#x13f;" d="M261 320 l0 150 l153 0 l0 -150 l-153 0 ZM439 160 l0 -160 l-410 0 l0 700 l179 0 l0 -540 l231 0 Z" /><glyph glyph-name="ldot" unicode="&#x140;" d="M252 121 l0 -119 q-39 -7 -67 -7 q-76 0 -121 42.5 q-45 42.5 -45 131.5 l0 531 l168 0 l0 -531 q0 -25 13 -38.5 q13 -13.5 52 -9.5 ZM229 320 l0 150 l153 0 l0 -150 l-153 0 Z" /><glyph glyph-name="Lslash" unicode="&#x141;" d="M-29 207 l0 145 l58 33 l0 315 l179 0 l0 -213 l110 63 l0 -148 l-110 -62 l0 -180 l231 0 l0 -160 l-410 0 l0 239 l-58 -32 Z" /><glyph glyph-name="lslash" unicode="&#x142;" d="M252 121 l0 -119 q-39 -7 -67 -7 q-76 0 -121 42.5 q-45 42.5 -45 131.5 l0 59 l-57 -32 l0 133 l57 32 l0 339 l168 0 l0 -243 l74 42 l0 -133 l-74 -42 l0 -155 q0 -25 13 -38.5 q13 -13.5 52 -9.5 Z" /><glyph glyph-name="Nacute" unicode="&#x143;" d="M210 533 l-9 -2 l31 -153 l0 -378 l-179 0 l0 701 l236 0 l186 -384 l63 -167 l7 2 l-27 172 l0 377 l177 0 l0 -701 l-251 0 l-180 382 l-54 151 ZM550 899 l5 -7 l-111 -145 l-158 0 l77 152 l187 0 Z" /><glyph glyph-name="nacute" unicode="&#x144;" d="M37 507 l139 0 l11 -55 q46 80 173 53 q69 -15 111.5 -72 q42.5 -57 42.5 -139 l0 -294 l-167 0 l0 294 q0 58 -48.5 78 q-48.5 20 -93.5 -15 l0 -357 l-168 0 l0 507 ZM447 702 l5 -7 l-107 -140 l-145 0 l73 147 l174 0 Z" /><glyph glyph-name="Ncommaaccent" unicode="&#x145;" d="M210 533 l-9 -2 l31 -153 l0 -378 l-179 0 l0 701 l236 0 l186 -384 l63 -167 l7 2 l-27 172 l0 377 l177 0 l0 -701 l-251 0 l-180 382 l-54 151 ZM298 -26 l168 0 q8 -42 2.5 -92.5 q-5.5 -50.5 -33.5 -93.5 l-143 0 q20 38 22.5 90 q2.5 52 -16.5 96 Z" /><glyph glyph-name="ncommaaccent" unicode="&#x146;" d="M37 507 l139 0 l11 -55 q46 80 173 53 q69 -15 111.5 -72 q42.5 -57 42.5 -139 l0 -294 l-167 0 l0 294 q0 58 -48.5 78 q-48.5 20 -93.5 -15 l0 -357 l-168 0 l0 507 ZM195 -26 l168 0 q8 -42 2.5 -92.5 q-5.5 -50.5 -33.5 -93.5 l-143 0 q20 38 22.5 90 q2.5 52 -16.5 96 Z" /><glyph glyph-name="Ncaron" unicode="&#x147;" d="M210 533 l-9 -2 l31 -153 l0 -378 l-179 0 l0 701 l236 0 l186 -384 l63 -167 l7 2 l-27 172 l0 377 l177 0 l0 -701 l-251 0 l-180 382 l-54 151 ZM572 894 l3 -4 l-141 -146 l-114 0 l-127 145 l3 5 l134 0 l55 -53 l55 53 l132 0 Z" /><glyph glyph-name="ncaron" unicode="&#x148;" d="M37 507 l139 0 l11 -55 q46 80 173 53 q69 -15 111.5 -72 q42.5 -57 42.5 -139 l0 -294 l-167 0 l0 294 q0 58 -48.5 78 q-48.5 20 -93.5 -15 l0 -357 l-168 0 l0 507 ZM469 700 l3 -4 l-143 -146 l-114 0 l-127 145 l3 5 l129 0 l60 -55 l62 55 l127 0 Z" /><glyph glyph-name="napostrophe" unicode="&#x149;" d="M91 507 l139 0 l11 -55 q46 80 173 53 q69 -15 111.5 -72 q42.5 -57 42.5 -139 l0 -294 l-167 0 l0 294 q0 58 -48.5 78 q-48.5 20 -93.5 -15 l0 -357 l-168 0 l0 507 ZM-47 703 l152 0 q22 -112 -28 -184 l-130 0 q18 37 21 88 q3 51 -15 96 Z" /><glyph glyph-name="Eng" unicode="&#x14a;" d="M210 533 l-9 -2 l31 -153 l0 -378 l-179 0 l0 701 l236 0 l186 -384 l63 -167 l7 2 l-27 172 l0 377 l177 0 l0 -702 q0 -85 -51 -139.5 q-51 -54.5 -132 -54.5 q-31 0 -74 8 l0 132 q45 -7 61.5 9 q16.5 16 17.5 46 l-73 0 l-180 382 l-54 151 Z" /><glyph glyph-name="eng" unicode="&#x14b;" d="M37 507 l139 0 l11 -55 q46 80 173 53 q69 -15 111.5 -72 q42.5 -57 42.5 -139 l0 -313 q0 -84 -48 -128 q-48 -44 -133 -44 q-14 0 -62 4 l0 118 q34 -6 52 4 q18 10 21 22 q3 12 3 30 l0 307 q0 58 -48.5 78 q-48.5 20 -93.5 -15 l0 -357 l-168 0 l0 507 Z" /><glyph glyph-name="Omacron" unicode="&#x14c;" d="M212 750 l0 134 l327 0 l0 -134 l-327 0 ZM375 712 q151 0 256.5 -102 q105.5 -102 105.5 -261 q0 -161 -105 -261.5 q-105 -100.5 -257 -100.5 q-153 0 -258 100 q-105 100 -105 262 q0 161 105.5 262 q105.5 101 257.5 101 ZM245 498 q-53 -53 -53 -149 q0 -96 54.5 -148.5 q54.5 -52.5 128.5 -52.5 q77 0 129.5 48 q52.5 48 52.5 153 q0 101 -53.5 151.5 q-53.5 50.5 -129.5 50.5 q-76 0 -129 -53 Z" /><glyph glyph-name="omacron" unicode="&#x14d;" d="M120 554 l0 133 l310 0 l0 -133 l-310 0 ZM175 253 q0 -45 21.5 -75.5 q21.5 -30.5 51.5 -37.5 q30 -7 60.5 0.5 q30.5 7.5 52 38 q21.5 30.5 21.5 74.5 q0 45 -21.5 75.5 q-21.5 30.5 -52 37.5 q-30.5 7 -60.5 -0.5 q-30 -7.5 -51.5 -38 q-21.5 -30.5 -21.5 -74.5 ZM550 253 q0 -117 -77 -188.5 q-77 -71.5 -195 -71.5 q-118 0 -194.5 70 q-76.5 70 -76.5 190 q0 117 77.5 189.5 q77.5 72.5 193.5 72.5 q118 0 195 -71.5 q77 -71.5 77 -190.5 Z" /><glyph glyph-name="Obreve" unicode="&#x14e;" d="M375 712 q151 0 256.5 -102 q105.5 -102 105.5 -261 q0 -161 -105 -261.5 q-105 -100.5 -257 -100.5 q-153 0 -258 100 q-105 100 -105 262 q0 161 105.5 262 q105.5 101 257.5 101 ZM245 498 q-53 -53 -53 -149 q0 -96 54.5 -148.5 q54.5 -52.5 128.5 -52.5 q77 0 129.5 48 q52.5 48 52.5 153 q0 101 -53.5 151.5 q-53.5 50.5 -129.5 50.5 q-76 0 -129 -53 ZM221 882 l120 0 q0 -21 16.5 -30 q16.5 -9 33 -0.5 q16.5 8.5 16.5 31.5 l123 0 q0 -52 -32 -87.5 q-32 -35.5 -77 -43.5 q-45 -8 -90.5 0 q-45.5 8 -77.5 43.5 q-32 35.5 -32 86.5 Z" /><glyph glyph-name="obreve" unicode="&#x14f;" d="M175 253 q0 -45 21.5 -75.5 q21.5 -30.5 51.5 -37.5 q30 -7 60.5 0.5 q30.5 7.5 52 38 q21.5 30.5 21.5 74.5 q0 45 -21.5 75.5 q-21.5 30.5 -52 37.5 q-30.5 7 -60.5 -0.5 q-30 -7.5 -51.5 -38 q-21.5 -30.5 -21.5 -74.5 ZM550 253 q0 -117 -77 -188.5 q-77 -71.5 -195 -71.5 q-118 0 -194.5 70 q-76.5 70 -76.5 190 q0 117 77.5 189.5 q77.5 72.5 193.5 72.5 q118 0 195 -71.5 q77 -71.5 77 -190.5 ZM124 690 l120 0 q0 -21 16.5 -30 q16.5 -9 33 -0.5 q16.5 8.5 16.5 31.5 l123 0 q0 -52 -32 -87.5 q-32 -35.5 -77.5 -43.5 q-45.5 -8 -90.5 0 q-45 8 -77 43.5 q-32 35.5 -32 86.5 Z" /><glyph glyph-name="Ohungarumlaut" unicode="&#x150;" d="M201 736 l98 155 l152 0 l-109 -155 l-141 0 ZM375 712 q151 0 256.5 -102 q105.5 -102 105.5 -261 q0 -161 -105 -261.5 q-105 -100.5 -257 -100.5 q-153 0 -258 100 q-105 100 -105 262 q0 161 105.5 262 q105.5 101 257.5 101 ZM245 498 q-53 -53 -53 -149 q0 -96 54.5 -148.5 q54.5 -52.5 128.5 -52.5 q77 0 129.5 48 q52.5 48 52.5 153 q0 101 -53.5 151.5 q-53.5 50.5 -129.5 50.5 q-76 0 -129 -53 ZM387 736 l98 155 l159 0 l-116 -155 l-141 0 Z" /><glyph glyph-name="ohungarumlaut" unicode="&#x151;" d="M175 253 q0 -45 21.5 -75.5 q21.5 -30.5 51.5 -37.5 q30 -7 60.5 0.5 q30.5 7.5 52 38 q21.5 30.5 21.5 74.5 q0 45 -21.5 75.5 q-21.5 30.5 -52 37.5 q-30.5 7 -60.5 -0.5 q-30 -7.5 -51.5 -38 q-21.5 -30.5 -21.5 -74.5 ZM550 253 q0 -117 -77 -188.5 q-77 -71.5 -195 -71.5 q-118 0 -194.5 70 q-76.5 70 -76.5 190 q0 117 77.5 189.5 q77.5 72.5 193.5 72.5 q118 0 195 -71.5 q77 -71.5 77 -190.5 ZM109 549 l94 151 l145 0 l-104 -151 l-135 0 ZM287 549 l93 151 l152 0 l-111 -151 l-134 0 Z" /><glyph glyph-name="OE" unicode="&#x152;" d="M390 711 q48 0 90 -11 l367 0 l0 -150 l-264 0 l0 -122 l261 0 l0 -154 l-261 0 l0 -117 l264 0 l0 -157 l-359 0 q-38 -9 -115 -9 q-157 0 -258 94 q-101 94 -101 264 q0 168 110.5 265 q110.5 97 265.5 97 ZM434 125 l0 448 q-100 21 -171 -47.5 q-71 -68.5 -71 -176.5 q0 -113 66 -176 q66 -63 176 -48 Z" /><glyph glyph-name="oe" unicode="&#x153;" d="M886 200 l-341 0 q5 -35 36.5 -51.5 q31.5 -16.5 68.5 -16.5 q36 0 59 8.5 q23 8.5 48 32.5 l86 -74 q-53 -57 -98.5 -80.5 q-45.5 -23.5 -101.5 -23.5 q-130 0 -188 84 q-68 -86 -177 -86 q-118 0 -194.5 70 q-76.5 70 -76.5 190 q0 117 77.5 189.5 q77.5 72.5 193.5 72.5 q122 0 188 -86 q57 83 176 85 q128 1 200 -90 q72 -91 44 -224 ZM186.5 310.5 q-11.5 -25.5 -11.5 -57.5 q0 -32 11.5 -57.5 q11.5 -25.5 30 -38.5 q18.5 -13 41 -19 q22.5 -6 45.5 0 q23 6 41.5 19 q18.5 13 30 38.5 q11.5 25.5 11.5 57.5 q0 32 -11.5 57.5 q-11.5 25.5 -30 38.5 q-18.5 13 -41 19 q-22.5 6 -45.5 0 q-23 -6 -41.5 -19 q-18.5 -13 -30 -38.5 ZM544 311 l188 0 q-3 28 -22 46 q-19 18 -44.5 22 q-25.5 4 -51.5 -1 q-26 -5 -46 -23 q-20 -18 -24 -44 Z" /><glyph glyph-name="Racute" unicode="&#x154;" d="M405 275 l174 -275 l-200 0 l-140 245 l-23 0 l0 -245 l-179 0 l0 701 l245 0 q167 0 228 -104 q31 -61 33 -123 q2 -62 -35 -118.5 q-37 -56.5 -103 -80.5 ZM211 394 l72 0 q39 0 62 24 q23 24 23 53 q0 29 -22.5 53 q-22.5 24 -62.5 24 l-72 0 l0 -154 ZM444 899 l5 -7 l-111 -145 l-158 0 l77 152 l187 0 Z" /><glyph glyph-name="racute" unicode="&#x155;" d="M31 507 l138 0 l11 -56 q17 36 55 50.5 q38 14.5 81 7.5 q57 -9 94 -51 l-69 -125 q-21 24 -55 30.5 q-34 6.5 -61 -11 q-27 -17.5 -28 -54.5 l0 -298 l-166 0 l0 507 ZM357 702 l5 -7 l-99 -142 l-135 0 l66 149 l163 0 Z" /><glyph glyph-name="Rcommaaccent" unicode="&#x156;" d="M405 275 l174 -275 l-200 0 l-140 245 l-23 0 l0 -245 l-179 0 l0 701 l245 0 q167 0 228 -104 q31 -61 33 -123 q2 -62 -35 -118.5 q-37 -56.5 -103 -80.5 ZM211 394 l72 0 q39 0 62 24 q23 24 23 53 q0 29 -22.5 53 q-22.5 24 -62.5 24 l-72 0 l0 -154 ZM217 -21 l168 0 q8 -42 2.5 -92.5 q-5.5 -50.5 -33.5 -93.5 l-143 0 q20 38 22.5 90 q2.5 52 -16.5 96 Z" /><glyph glyph-name="rcommaaccent" unicode="&#x157;" d="M31 507 l138 0 l11 -56 q17 36 55 50.5 q38 14.5 81 7.5 q57 -9 94 -51 l-69 -125 q-21 24 -55 30.5 q-34 6.5 -61 -11 q-27 -17.5 -28 -54.5 l0 -298 l-166 0 l0 507 ZM35 -23 l159 0 q13 -119 -31 -186 l-134 0 q19 35 21.5 89.5 q2.5 54.5 -15.5 96.5 Z" /><glyph glyph-name="Rcaron" unicode="&#x158;" d="M405 275 l174 -275 l-200 0 l-140 245 l-23 0 l0 -245 l-179 0 l0 701 l245 0 q167 0 228 -104 q31 -61 33 -123 q2 -62 -35 -118.5 q-37 -56.5 -103 -80.5 ZM211 394 l72 0 q39 0 62 24 q23 24 23 53 q0 29 -22.5 53 q-22.5 24 -62.5 24 l-72 0 l0 -154 ZM469 893 l3 -4 l-141 -146 l-114 0 l-127 145 l3 5 l134 0 l55 -53 l55 53 l132 0 Z" /><glyph glyph-name="rcaron" unicode="&#x159;" d="M31 507 l138 0 l11 -56 q17 36 55 50.5 q38 14.5 81 7.5 q57 -9 94 -51 l-69 -125 q-21 24 -55 30.5 q-34 6.5 -61 -11 q-27 -17.5 -28 -54.5 l0 -298 l-166 0 l0 507 ZM393 702 l3 -4 l-134 -146 l-108 0 l-121 145 l3 5 l132 0 l47 -49 l49 49 l129 0 Z" /><glyph glyph-name="Sacute" unicode="&#x15a;" d="M-7 139 l115 84 q55 -77 135 -77 q29 -1 48.5 16 q19.5 17 21.5 42 q2 34 -23.5 53 q-25.5 19 -65.5 30 l1 0 q-215 55 -213 216 q2 103 72 155 q70 52 165 52 q66 0 124.5 -33 q58.5 -33 96.5 -100 l-116 -73 q-40 52 -98 52 q-66 0 -69 -53 q-1 -19 14.5 -33 q15.5 -14 29 -18.5 q13.5 -4.5 37.5 -11.5 q48 -13 83 -28.5 q35 -15.5 70.5 -43 q35.5 -27.5 53 -71.5 q17.5 -44 15.5 -102 q-5 -100 -79 -153 q-74 -53 -171 -53 q-68 0 -135 35 q-67 35 -112 115 ZM419 899 l5 -7 l-111 -145 l-158 0 l77 152 l187 0 Z" /><glyph glyph-name="sacute" unicode="&#x15b;" d="M204 327 q76 -10 131 -50.5 q55 -40.5 55 -114.5 q0 -59 -35 -99 q-35 -40 -79 -54.5 q-44 -14.5 -92 -14.5 q-127 0 -201 98 l74 95 q50 -50 117 -53 q48 0 49 20 q2 24 -42 29 q-72 8 -125.5 52 q-53.5 44 -54.5 115 q0 77 59 119.5 q59 42.5 141 42.5 q102 0 172 -74 l-77 -93 q-46 33 -91 33 q-18 0 -28.5 -7 q-10.5 -7 -11.5 -16 q-2 -22 39 -28 ZM356 700 l5 -7 l-107 -145 l-141 0 l77 152 l166 0 Z" /><glyph glyph-name="Scircumflex" unicode="&#x15c;" d="M-7 139 l115 84 q55 -77 135 -77 q29 -1 48.5 16 q19.5 17 21.5 42 q2 34 -23.5 53 q-25.5 19 -65.5 30 l1 0 q-215 55 -213 216 q2 103 72 155 q70 52 165 52 q66 0 124.5 -33 q58.5 -33 96.5 -100 l-116 -73 q-40 52 -98 52 q-66 0 -69 -53 q-1 -19 14.5 -33 q15.5 -14 29 -18.5 q13.5 -4.5 37.5 -11.5 q48 -13 83 -28.5 q35 -15.5 70.5 -43 q35.5 -27.5 53 -71.5 q17.5 -44 15.5 -102 q-5 -100 -79 -153 q-74 -53 -171 -53 q-68 0 -135 35 q-67 35 -112 115 ZM61 748 l-3 4 l129 146 l128 0 l127 -145 l-3 -5 l-129 0 l-60 55 l-62 -55 l-127 0 Z" /><glyph glyph-name="scircumflex" unicode="&#x15d;" d="M204 327 q76 -10 131 -50.5 q55 -40.5 55 -114.5 q0 -59 -35 -99 q-35 -40 -79 -54.5 q-44 -14.5 -92 -14.5 q-127 0 -201 98 l74 95 q50 -50 117 -53 q48 0 49 20 q2 24 -42 29 q-72 8 -125.5 52 q-53.5 44 -54.5 115 q0 77 59 119.5 q59 42.5 141 42.5 q102 0 172 -74 l-77 -93 q-46 33 -91 33 q-18 0 -28.5 -7 q-10.5 -7 -11.5 -16 q-2 -22 39 -28 ZM25 553 l-3 4 l119 144 l119 0 l117 -143 l-3 -5 l-123 0 l-52 49 l-52 -49 l-122 0 Z" /><glyph glyph-name="Scedilla" unicode="&#x15e;" d="M-7 139 l115 84 q55 -77 135 -77 q29 -1 48.5 16 q19.5 17 21.5 42 q2 34 -23.5 53 q-25.5 19 -65.5 30 l1 0 q-215 55 -213 216 q2 103 72 155 q70 52 165 52 q66 0 124.5 -33 q58.5 -33 96.5 -100 l-116 -73 q-40 52 -98 52 q-66 0 -69 -53 q-1 -19 14.5 -33 q15.5 -14 29 -18.5 q13.5 -4.5 37.5 -11.5 q48 -13 83 -28.5 q35 -15.5 70.5 -43 q35.5 -27.5 53 -71.5 q17.5 -44 15.5 -102 q-5 -100 -79 -153 q-74 -53 -171 -53 q-68 0 -135 35 q-67 35 -112 115 ZM332 23 l-32 -59 q66 -11 78 -60 q10 -45 -32 -83 q-43 -39 -112 -36 q-80 4 -131 41 l39 67 q25 -17 60 -20 q42 -4 42 20 q0 7 -6 13.5 q-6 6.5 -26.5 11.5 q-20.5 5 -52.5 1 l58 104 l115 0 Z" /><glyph glyph-name="scedilla" unicode="&#x15f;" d="M204 327 q76 -10 131 -50.5 q55 -40.5 55 -114.5 q0 -67 -40 -106.5 q-40 -39.5 -101 -53.5 l-14 -26 q61 -10 69 -55 q8 -41 -33 -73 q-37 -30 -94 -28 q-71 4 -116 36 l34 59 q25 -15 54 -18 q38 -2 38 18 q0 5 -5.5 11 q-5.5 6 -24.5 10 q-19 4 -47 1 l34 60 q-99 12 -161 95 l74 95 q50 -50 117 -53 q48 0 49 20 q2 24 -42 29 q-72 8 -125.5 52 q-53.5 44 -54.5 115 q0 77 59 119.5 q59 42.5 141 42.5 q102 0 172 -74 l-77 -93 q-46 33 -91 33 q-18 0 -28.5 -7 q-10.5 -7 -11.5 -16 q-2 -22 39 -28 Z" /><glyph glyph-name="Scaron" unicode="&#x160;" d="M61 881 l2 3 l128 0 l61 -51 l62 51 l126 0 l3 -4 l-129 -135 l-126 0 l-127 136 ZM1 139 l115 84 q55 -77 135 -77 q29 -1 48.5 16 q19.5 17 21.5 42 q2 34 -23.5 53 q-25.5 19 -65.5 30 l1 0 q-215 55 -213 216 q2 103 72 155 q70 52 165 52 q66 0 124.5 -33 q58.5 -33 96.5 -100 l-116 -73 q-40 52 -98 52 q-66 0 -69 -53 q-1 -19 14.5 -33 q15.5 -14 29 -18.5 q13.5 -4.5 37.5 -11.5 q48 -13 83 -28.5 q35 -15.5 70.5 -43 q35.5 -27.5 53 -71.5 q17.5 -44 15.5 -102 q-5 -100 -79 -153 q-74 -53 -171 -53 q-68 0 -135 35 q-67 35 -112 115 Z" /><glyph glyph-name="scaron" unicode="&#x161;" d="M202 329 q76 -10 131 -51 q55 -41 55 -116 q0 -46 -19.5 -81 q-19.5 -35 -51.5 -53.5 q-32 -18.5 -65.5 -27.5 q-33.5 -9 -67.5 -9 q-129 0 -201 97 l74 96 q49 -50 117 -54 q45 0 47 24 q2 23 -40 29 q-72 8 -125.5 52 q-53.5 44 -54.5 117 q0 78 59 121.5 q59 43.5 139 43.5 q106 0 172 -70 l-77 -97 q-42 31 -91 31 q-16 0 -26.5 -7 q-10.5 -7 -11.5 -17 q-1 -10 9 -17.5 q10 -7.5 28 -10.5 ZM23 717 l2 3 l114 0 l55 -50 l56 50 l112 0 l3 -4 l-115 -134 l-113 0 l-114 135 Z" /><glyph glyph-name="Tcommaaccent" unicode="&#x162;" d="M-24 700 l503 0 l0 -154 l-163 0 l0 -539 l0 -6 l0 -1 l-1 0 l-22 -45 q66 -11 75 -61 q8 -47 -37 -87 q-45 -41 -115 -38 q-69 3 -131 48 l39 67 q27 -18 60 -21 q42 -4 42 21 q0 6 -4 13 q-4 7 -22.5 13 q-18.5 6 -49.5 2 l39 88 l-52 0 l0 546 l-161 0 l0 154 Z" /><glyph glyph-name="tcommaaccent" unicode="&#x163;" d="M278 124 l0 -122 q-2 0 -25 -2.5 q-23 -2.5 -34 -3.5 l-12 -23 q64 -10 74 -57 q9 -44 -33 -79 q-40 -35 -104 -32 q-77 4 -125 38 l37 63 q27 -17 57 -18 q40 -4 40 18 q0 7 -6 13.5 q-6 6.5 -25.5 11 q-19.5 4.5 -49.5 0.5 l48 84 q-94 43 -90 158 l0 212 l-64 0 l0 122 l64 0 l0 193 l164 0 l0 -193 l84 0 l0 -122 l-84 0 l0 -211 q0 -34 20.5 -44.5 q20.5 -10.5 63.5 -5.5 Z" /><glyph glyph-name="Tcaron" unicode="&#x164;" d="M-24 700 l503 0 l0 -154 l-163 0 l0 -546 l-179 0 l0 546 l-161 0 l0 154 ZM413 898 l3 -4 l-129 -146 l-128 0 l-127 145 l3 5 l136 0 l53 -49 l56 49 l133 0 Z" /><glyph glyph-name="tcaron" unicode="&#x165;" d="M278 2 l0 122 q-43 -5 -63.5 5.5 q-20.5 10.5 -20.5 44.5 l0 211 l84 0 l0 122 l-84 0 l0 193 l-164 0 l0 -193 l-64 0 l0 -122 l64 0 l0 -212 q-3 -87 49.5 -132 q52.5 -45 134.5 -45 q20 0 64 6 ZM248 708 l152 0 q21 -105 -28 -175 l-130 0 q19 37 21.5 83.5 q2.5 46.5 -15.5 91.5 Z" /><glyph glyph-name="Tbar" unicode="&#x166;" d="M-24 700 l503 0 l0 -154 l-163 0 l0 -153 l112 0 l0 -130 l-112 0 l0 -263 l-179 0 l0 263 l-109 0 l0 130 l109 0 l0 153 l-161 0 l0 154 Z" /><glyph glyph-name="tbar" unicode="&#x167;" d="M278 124 l0 -122 q-44 -6 -64 -6 q-82 0 -134.5 45 q-52.5 45 -49.5 132 l0 38 l-51 0 l0 104 l51 0 l0 70 l-64 0 l0 122 l64 0 l0 193 l164 0 l0 -193 l84 0 l0 -122 l-84 0 l0 -70 l61 0 l0 -104 l-61 0 l0 -37 q0 -34 20.5 -44.5 q20.5 -10.5 63.5 -5.5 Z" /><glyph glyph-name="Utilde" unicode="&#x168;" d="M42 700 l180 0 l0 -474 q0 -40 27.5 -62 q27.5 -22 61 -22 q33.5 0 61 22.5 q27.5 22.5 27.5 61.5 l0 474 l179 0 l0 -474 q0 -57 -23 -102.5 q-23 -45.5 -60.5 -74 q-37.5 -28.5 -86 -43.5 q-48.5 -15 -98.5 -15 q-50 0 -98.5 15 q-48.5 15 -86 43.5 q-37.5 28.5 -60.5 74 q-23 45.5 -23 102.5 l0 474 ZM417 877 l69 -58 q-29 -50 -56.5 -69 q-27.5 -19 -62.5 -17 q-22 1 -56 20 q-34 19 -40 21 q-31 9 -66 -35 l-70 62 q63 90 132 85 q23 -1 58.5 -20 q35.5 -19 47.5 -19 q20 -2 44 30 Z" /><glyph glyph-name="utilde" unicode="&#x169;" d="M508 0 l-139 0 l-11 55 q-46 -80 -173 -53 q-69 15 -111.5 72 q-42.5 57 -42.5 139 l0 294 l167 0 l0 -294 q0 -58 48.5 -78 q48.5 -20 93.5 15 l0 357 l168 0 l0 -507 ZM382 699 l69 -58 q-29 -50 -56.5 -69 q-27.5 -19 -62.5 -17 q-22 1 -56 20 q-34 19 -40 21 q-31 9 -66 -35 l-70 62 q63 90 132 85 q23 -1 58.5 -20 q35.5 -19 47.5 -19 q20 -2 44 30 Z" /><glyph glyph-name="Umacron" unicode="&#x16a;" d="M157 739 l0 132 l327 0 l0 -132 l-327 0 ZM42 700 l180 0 l0 -474 q0 -40 27.5 -62 q27.5 -22 61 -22 q33.5 0 61 22.5 q27.5 22.5 27.5 61.5 l0 474 l179 0 l0 -474 q0 -57 -23 -102.5 q-23 -45.5 -60.5 -74 q-37.5 -28.5 -86 -43.5 q-48.5 -15 -98.5 -15 q-50 0 -98.5 15 q-48.5 15 -86 43.5 q-37.5 28.5 -60.5 74 q-23 45.5 -23 102.5 l0 474 Z" /><glyph glyph-name="umacron" unicode="&#x16b;" d="M122 557 l0 133 l307 0 l0 -133 l-307 0 ZM508 0 l-139 0 l-11 55 q-46 -80 -173 -53 q-69 15 -111.5 72 q-42.5 57 -42.5 139 l0 294 l167 0 l0 -294 q0 -58 48.5 -78 q48.5 -20 93.5 15 l0 357 l168 0 l0 -507 Z" /><glyph glyph-name="Ubreve" unicode="&#x16c;" d="M42 700 l180 0 l0 -474 q0 -40 27.5 -62 q27.5 -22 61 -22 q33.5 0 61 22.5 q27.5 22.5 27.5 61.5 l0 474 l179 0 l0 -474 q0 -57 -23 -102.5 q-23 -45.5 -60.5 -74 q-37.5 -28.5 -86 -43.5 q-48.5 -15 -98.5 -15 q-50 0 -98.5 15 q-48.5 15 -86 43.5 q-37.5 28.5 -60.5 74 q-23 45.5 -23 102.5 l0 474 ZM159 881 l120 0 q0 -21 16.5 -30 q16.5 -9 33 -0.5 q16.5 8.5 16.5 31.5 l123 0 q0 -52 -32 -87.5 q-32 -35.5 -77 -43.5 q-45 -8 -90.5 0 q-45.5 8 -77.5 43.5 q-32 35.5 -32 86.5 Z" /><glyph glyph-name="ubreve" unicode="&#x16d;" d="M508 0 l-139 0 l-11 55 q-46 -80 -173 -53 q-69 15 -111.5 72 q-42.5 57 -42.5 139 l0 294 l167 0 l0 -294 q0 -58 48.5 -78 q48.5 -20 93.5 15 l0 357 l168 0 l0 -507 ZM118 690 l120 0 q0 -21 16.5 -30 q16.5 -9 33 -0.5 q16.5 8.5 16.5 31.5 l123 0 q0 -52 -32 -87.5 q-32 -35.5 -77.5 -43.5 q-45.5 -8 -90.5 0 q-45 8 -77 43.5 q-32 35.5 -32 86.5 Z" /><glyph glyph-name="Uring" unicode="&#x16e;" d="M42 700 l180 0 l0 -474 q0 -40 27.5 -62 q27.5 -22 61 -22 q33.5 0 61 22.5 q27.5 22.5 27.5 61.5 l0 474 l179 0 l0 -474 q0 -57 -23 -102.5 q-23 -45.5 -60.5 -74 q-37.5 -28.5 -86 -43.5 q-48.5 -15 -98.5 -15 q-50 0 -98.5 15 q-48.5 15 -86 43.5 q-37.5 28.5 -60.5 74 q-23 45.5 -23 102.5 l0 474 ZM312 713 q-51 0 -87 31 q-36 31 -36 81 q0 51 36 81.5 q36 30.5 87 30.5 q50 0 87 -31 q37 -31 37 -81 q0 -50 -37 -81 q-37 -31 -87 -31 ZM312 855 q-21 0 -30.5 -15 q-9.5 -15 -0.5 -30 q9 -15 32 -15 q21 0 30.5 15 q9.5 15 0.5 30 q-9 15 -32 15 Z" /><glyph glyph-name="uring" unicode="&#x16f;" d="M508 0 l-139 0 l-11 55 q-46 -80 -173 -53 q-69 15 -111.5 72 q-42.5 57 -42.5 139 l0 294 l167 0 l0 -294 q0 -58 48.5 -78 q48.5 -20 93.5 15 l0 357 l168 0 l0 -507 ZM273 527 q-51 0 -87 29 q-36 29 -36 76 q0 48 35.5 76.5 q35.5 28.5 87.5 28.5 q50 0 86.5 -29 q36.5 -29 36.5 -76 q0 -47 -36.5 -76 q-36.5 -29 -86.5 -29 ZM273 660 q-21 0 -30.5 -14 q-9.5 -14 -1 -28 q8.5 -14 31.5 -14 q21 0 30.5 14 q9.5 14 0.5 28 q-9 14 -31 14 Z" /><glyph glyph-name="Uhungarumlaut" unicode="&#x170;" d="M42 700 l180 0 l0 -474 q0 -40 27.5 -62 q27.5 -22 61 -22 q33.5 0 61 22.5 q27.5 22.5 27.5 61.5 l0 474 l179 0 l0 -474 q0 -57 -23 -102.5 q-23 -45.5 -60.5 -74 q-37.5 -28.5 -86 -43.5 q-48.5 -15 -98.5 -15 q-50 0 -98.5 15 q-48.5 15 -86 43.5 q-37.5 28.5 -60.5 74 q-23 45.5 -23 102.5 l0 474 ZM140 741 l98 155 l152 0 l-109 -155 l-141 0 ZM326 741 l98 155 l159 0 l-116 -155 l-141 0 Z" /><glyph glyph-name="uhungarumlaut" unicode="&#x171;" d="M508 0 l-139 0 l-11 55 q-46 -80 -173 -53 q-69 15 -111.5 72 q-42.5 57 -42.5 139 l0 294 l167 0 l0 -294 q0 -58 48.5 -78 q48.5 -20 93.5 15 l0 357 l168 0 l0 -507 ZM96 563 l98 141 l150 0 l-108 -141 l-140 0 ZM281 563 l97 141 l158 0 l-116 -141 l-139 0 Z" /><glyph glyph-name="Uogonek" unicode="&#x172;" d="M42 700 l180 0 l0 -474 q0 -40 27.5 -62 q27.5 -22 61 -22 q33.5 0 61 22.5 q27.5 22.5 27.5 61.5 l0 474 l179 0 l0 -474 q0 -77 -40 -130.5 q-40 -53.5 -106 -80.5 l2 0 q-20 -18 -17 -35 q3 -17 21.5 -20.5 q18.5 -3.5 43.5 7.5 l-35 -110 q-48 -24 -101 -16.5 q-53 7.5 -76 47.5 q-14 22 -7 55 q7 33 31 49 q-104 5 -178 66 q-74 61 -74 168 l0 474 Z" /><glyph glyph-name="uogonek" unicode="&#x173;" d="M508 0 l-10 0 q-22 -6 -25 -24 q-4 -20 23 -24 q11 -1 27 1 l-27 -94 q-13 -2 -44 -4 q-76 -3 -107 45 q-16 21 -10 52.5 q6 31.5 33 50.5 l-1 4 l-9 48 q-46 -80 -173 -53 q-69 15 -111.5 72 q-42.5 57 -42.5 139 l0 294 l167 0 l0 -294 q0 -58 48.5 -78 q48.5 -20 93.5 15 l0 357 l168 0 l0 -507 Z" /><glyph glyph-name="Wcircumflex" unicode="&#x174;" d="M523 438 l-7 0 l-16 -115 l-85 -326 l-251 0 l-181 704 l186 0 l105 -430 l20 -150 l6 0 l18 150 l105 355 l195 0 l105 -355 l21 -151 l7 0 l21 151 l106 430 l187 0 l-180 -704 l-261 0 l-85 327 l-16 114 ZM315 748 l-3 4 l137 146 l136 0 l135 -145 l-3 -5 l-137 0 l-64 55 l-66 -55 l-135 0 Z" /><glyph glyph-name="wcircumflex" unicode="&#x175;" d="M397 322 l-1 0 l-23 -169 l-37 -155 l-232 0 l-127 509 l173 0 l51 -246 l15 -146 l4 0 l21 146 l67 236 l175 0 l67 -236 l22 -144 l4 0 l21 144 l51 246 l176 0 l-131 -509 l-235 0 l-37 154 l-24 170 ZM187 556 l-3 4 l137 146 l136 0 l135 -145 l-3 -5 l-137 0 l-64 55 l-66 -55 l-135 0 Z" /><glyph glyph-name="Ycircumflex" unicode="&#x176;" d="M272 417 l-2 0 l47 113 l89 170 l201 0 l-171 -304 l-78 -126 l0 -270 l-177 0 l0 271 l-80 131 l-166 298 l199 0 l93 -173 l43 -110 l2 0 ZM61 749 l-3 4 l137 146 l136 0 l135 -145 l-3 -5 l-137 0 l-64 55 l-66 -55 l-135 0 Z" /><glyph glyph-name="ycircumflex" unicode="&#x177;" d="M269 166 l4 0 l20 92 l87 249 l181 0 l-243 -587 q-23 -58 -62 -85 q-39 -27 -85.5 -26.5 q-46.5 0.5 -102.5 6.5 l1 126 q48 -14 80 -2.5 q32 11.5 39 58.5 l-222 510 l180 0 l100 -249 l23 -92 ZM62 552 l-3 4 l137 146 l136 0 l135 -145 l-3 -5 l-137 0 l-64 55 l-66 -55 l-135 0 Z" /><glyph glyph-name="Ydieresis" unicode="&#x178;" d="M273 417 l-2 0 l2 0 ZM271 417 l2 0 l44 113 l89 170 l201 0 l-171 -304 l-78 -126 l0 -270 l-177 0 l0 271 l-80 131 l-166 298 l199 0 l93 -173 l44 -110 ZM451 769 l-145 0 l0 127 l145 0 l0 -127 ZM234 769 l-146 0 l0 127 l146 0 l0 -127 Z" /><glyph glyph-name="Zacute" unicode="&#x179;" d="M432 899 l5 -7 l-111 -145 l-148 0 l77 152 l177 0 ZM496 700 l0 -141 l-287 -401 l115 3 l180 0 l0 -161 l-498 0 l0 131 l287 418 l-112 -3 l-162 0 l0 154 l477 0 Z" /><glyph glyph-name="zacute" unicode="&#x17a;" d="M363 703 l5 -7 l-105 -143 l-133 0 l73 150 l160 0 ZM11 0 l0 100 l150 203 l55 69 l-200 0 l0 135 l397 0 l0 -102 l-163 -208 l-48 -58 l220 0 l0 -139 l-411 0 Z" /><glyph glyph-name="Zdotaccent" unicode="&#x17b;" d="M188 739 l0 140 l158 0 l0 -140 l-158 0 ZM496 700 l0 -141 l-287 -401 l115 3 l180 0 l0 -161 l-498 0 l0 131 l287 418 l-112 -3 l-162 0 l0 154 l477 0 Z" /><glyph glyph-name="zdotaccent" unicode="&#x17c;" d="M139 565 l0 131 l148 0 l0 -131 l-148 0 ZM11 0 l0 100 l150 203 l55 69 l-200 0 l0 135 l397 0 l0 -102 l-163 -208 l-48 -58 l220 0 l0 -139 l-411 0 Z" /><glyph glyph-name="Zcaron" unicode="&#x17d;" d="M496 700 l0 -141 l-287 -401 l115 3 l180 0 l0 -161 l-498 0 l0 131 l287 418 l-112 -3 l-162 0 l0 154 l477 0 ZM76 905 l2 3 l128 0 l61 -51 l62 51 l126 0 l3 -4 l-129 -135 l-126 0 l-127 136 Z" /><glyph glyph-name="zcaron" unicode="&#x17e;" d="M2 0 l0 100 l150 203 l55 69 l-200 0 l0 135 l397 0 l0 -102 l-163 -208 l-48 -58 l220 0 l0 -139 l-411 0 ZM46 708 l1 3 l119 0 l56 -50 l57 50 l117 0 l3 -4 l-120 -133 l-116 0 l-117 134 Z" /><glyph glyph-name="longs" unicode="&#x17f;" d="M284 698 l0 -129 q-45 7 -63.5 -4.5 q-18.5 -11.5 -18.5 -29.5 l0 -535 l-168 0 l0 378 l-68 0 l0 120 l68 0 l0 36 q-1 104 75 147 q76 43 175 17 Z" /><glyph glyph-name="florin" unicode="&#x192;" d="M485 699 l-26 -131 q-48 11 -68 -7.5 q-20 -18.5 -29 -57.5 l84 0 l-20 -129 l-89 0 q-12 -64 -38 -197 q-26 -133 -38 -197 q-14 -82 -68.5 -126.5 q-54.5 -44.5 -130.5 -44.5 q-56 0 -111 24 l24 109 q46 -19 75 0 q29 19 40 65 l-1 -1 q15 82 72 368 l-75 0 l22 129 l78 0 l6 27 q18 104 93 150.5 q75 46.5 200 18.5 Z" /><glyph glyph-name="Scommaaccent" unicode="&#x218;" d="M-7 139 l115 84 q55 -77 135 -77 q29 -1 48.5 16 q19.5 17 21.5 42 q2 34 -23.5 53 q-25.5 19 -65.5 30 l1 0 q-215 55 -213 216 q2 103 72 155 q70 52 165 52 q66 0 124.5 -33 q58.5 -33 96.5 -100 l-116 -73 q-40 52 -98 52 q-66 0 -69 -53 q-1 -19 14.5 -33 q15.5 -14 29 -18.5 q13.5 -4.5 37.5 -11.5 q48 -13 83 -28.5 q35 -15.5 70.5 -43 q35.5 -27.5 53 -71.5 q17.5 -44 15.5 -102 q-5 -100 -79 -153 q-74 -53 -171 -53 q-68 0 -135 35 q-67 35 -112 115 ZM165 -39 l164 0 q8 -42 2.5 -89 q-5.5 -47 -33.5 -90 l-139 0 q19 35 21.5 86 q2.5 51 -15.5 93 Z" /><glyph glyph-name="scommaaccent" unicode="&#x219;" d="M204 327 q76 -10 131 -50.5 q55 -40.5 55 -114.5 q0 -59 -35 -99 q-35 -40 -79 -54.5 q-44 -14.5 -92 -14.5 q-127 0 -201 98 l74 95 q50 -50 117 -53 q48 0 49 20 q2 24 -42 29 q-72 8 -125.5 52 q-53.5 44 -54.5 115 q0 77 59 119.5 q59 42.5 141 42.5 q102 0 172 -74 l-77 -93 q-46 33 -91 33 q-18 0 -28.5 -7 q-10.5 -7 -11.5 -16 q-2 -22 39 -28 ZM112 -32 l150 0 q7 -38 2 -81 q-5 -43 -30 -83 l-127 0 q17 32 19.5 79 q2.5 47 -14.5 85 Z" /><glyph glyph-name="uni021A" unicode="&#x21a;" d="M-24 700 l503 0 l0 -154 l-163 0 l0 -546 l-179 0 l0 546 l-161 0 l0 154 ZM146 -31 l164 0 q8 -42 2.5 -89 q-5.5 -47 -33.5 -91 l-139 0 q18 32 20.5 82 q2.5 50 -14.5 98 Z" /><glyph glyph-name="uni021B" unicode="&#x21b;" d="M278 124 l0 -122 q-44 -6 -64 -6 q-82 0 -134.5 45 q-52.5 45 -49.5 132 l0 212 l-64 0 l0 122 l64 0 l0 193 l164 0 l0 -193 l84 0 l0 -122 l-84 0 l0 -211 q0 -34 20.5 -44.5 q20.5 -10.5 63.5 -5.5 ZM104 -33 l150 0 q23 -107 -27 -180 l-133 0 q47 85 10 180 Z" /><glyph glyph-name="circumflex" unicode="&#x2c6;" d="M27 676 l-3 4 l129 151 l128 0 l127 -150 l-3 -5 l-129 0 l-60 55 l-62 -55 l-127 0 Z" /><glyph glyph-name="caron" unicode="&#x2c7;" d="M19 812 l2 3 l128 0 l61 -51 l62 51 l126 0 l3 -4 l-129 -135 l-126 0 l-127 136 Z" /><glyph glyph-name="breve" unicode="&#x2d8;" d="M45 765 l120 0 q0 -19 16.5 -27 q16.5 -8 33 0 q16.5 8 16.5 28 l123 0 q0 -52 -32 -87.5 q-32 -35.5 -77.5 -43.5 q-45.5 -8 -90.5 0 q-45 8 -77 43.5 q-32 35.5 -32 86.5 Z" /><glyph glyph-name="dotaccent" unicode="&#x2d9;" d="M146 641 l0 154 l158 0 l0 -154 l-158 0 Z" /><glyph glyph-name="ring" unicode="&#x2da;" d="M226 601 q-51 0 -87 31 q-36 31 -36 81 q0 51 36 81.5 q36 30.5 87 30.5 q50 0 87 -31 q37 -31 37 -81 q0 -50 -37 -81 q-37 -31 -87 -31 ZM226 743 q-21 0 -30.5 -15 q-9.5 -15 -0.5 -30 q9 -15 32 -15 q21 0 30.5 15 q9.5 15 0.5 30 q-9 15 -32 15 Z" /><glyph glyph-name="ogonek" unicode="&#x2db;" d="M109 -41 q-6 36 14.5 64.5 q20.5 28.5 44.5 38.5 l23 11 l115 -25 q-30 -13 -42 -31 q-12 -18 -4.5 -30.5 q7.5 -12.5 26.5 -19.5 q19 -7 51 1 l-43 -98 q-34 -5 -72 -3.5 q-38 1.5 -72 25.5 q-34 24 -41 67 Z" /><glyph glyph-name="tilde" unicode="&#x2dc;" d="M302 805 l72 -54 q-26 -52 -52.5 -72.5 q-26.5 -20.5 -61.5 -19.5 q-22 0 -57.5 17.5 q-35.5 17.5 -40.5 18.5 q-32 7 -64 -38 l-73 58 q57 92 127 92 q23 0 59.5 -17 q36.5 -17 48.5 -17 q20 0 42 32 Z" /><glyph glyph-name="hungarumlaut" unicode="&#x2dd;" d="M-2 601 l98 155 l152 0 l-109 -155 l-141 0 ZM184 601 l98 155 l159 0 l-116 -155 l-141 0 Z" /><glyph glyph-name="tonos" unicode="&#x384;" d="M363 797 l3 -5 l-116 -158 l-149 0 l90 163 l172 0 Z" /><glyph glyph-name="dieresistonos" unicode="&#x385;" d="M367 749 l3 -5 l-88 -166 l-149 0 l62 171 l172 0 ZM509 588 l-140 0 l0 125 l140 0 l0 -125 ZM117 588 l-142 0 l0 125 l142 0 l0 -125 Z" /><glyph glyph-name="Alphatonos" unicode="&#x386;" d="M477 0 l-56 171 l-223 0 l-53 -171 l-190 0 l239 707 l232 0 l242 -707 l-191 0 ZM314 579 l-7 0 l-18 -98 l-44 -151 l129 0 l-42 151 l-18 98 ZM160 702 l-3 5 l-151 0 l-70 -163 l125 0 l99 158 Z" /><glyph glyph-name="Epsilontonos" unicode="&#x388;" d="M597 700 l0 -150 l-258 0 l0 -124 l247 0 l0 -150 l-247 0 l0 -124 l258 0 l0 -152 l-430 0 l0 700 l430 0 ZM154 695 l-3 5 l-151 0 l-70 -163 l125 0 l99 158 Z" /><glyph glyph-name="Etatonos" unicode="&#x389;" d="M540 0 l0 271 l-192 0 l0 -271 l-180 0 l0 700 l180 0 l0 -273 l192 0 l0 273 l179 0 l0 -700 l-179 0 ZM146 702 l3 -5 l-99 -158 l-125 0 l70 163 l151 0 Z" /><glyph glyph-name="Iotatonos" unicode="&#x38a;" d="M173 0 l0 703 l178 0 l0 -703 l-178 0 ZM152 704 l3 -5 l-99 -158 l-125 0 l70 163 l151 0 Z" /><glyph glyph-name="Omicrontonos" unicode="&#x38c;" d="M417 712 q151 0 256.5 -102 q105.5 -102 105.5 -261 q0 -161 -105 -261.5 q-105 -100.5 -257 -100.5 q-153 0 -258 100 q-105 100 -105 262 q0 161 105.5 262 q105.5 101 257.5 101 ZM287 498 q-53 -53 -53 -149 q0 -96 54.5 -148.5 q54.5 -52.5 128.5 -52.5 q77 0 129.5 48 q52.5 48 52.5 153 q0 101 -53.5 151.5 q-53.5 50.5 -129.5 50.5 q-76 0 -129 -53 ZM156 702 l-3 5 l-151 0 l-70 -163 l125 0 l99 158 Z" /><glyph glyph-name="Upsilontonos" unicode="&#x38e;" d="M455 417 l-2 0 l46 113 l89 170 l201 0 l-171 -304 l-78 -126 l0 -270 l-177 0 l0 271 l-80 131 l-166 298 l199 0 l93 -173 l44 -110 l2 0 ZM138 702 l3 -5 l-99 -158 l-125 0 l70 163 l151 0 Z" /><glyph glyph-name="Omegatonos" unicode="&#x38f;" d="M186 136 l1 2 q-68 24 -106.5 93.5 q-38.5 69.5 -36.5 148.5 q3 143 102.5 236 q99.5 93 252.5 93 q153 0 252.5 -93 q99.5 -93 102.5 -236 q2 -79 -36 -148 q-38 -69 -106 -94 l1 -2 l70 11 l93 -1 l0 -146 l-339 0 l-14 148 q86 36 123.5 82 q37.5 46 37.5 126 q0 82 -52.5 137 q-52.5 55 -132.5 55 q-80 0 -132.5 -55 q-52.5 -55 -52.5 -137 q0 -80 37.5 -126 q37.5 -46 123.5 -82 l-14 -148 l-339 0 l0 146 l93 1 l71 -11 ZM144 702 l-3 5 l-151 0 l-70 -163 l125 0 l99 158 Z" /><glyph glyph-name="iotadieresistonos" unicode="&#x390;" d="M268 120 l0 -120 q-28 -4 -52 -4 q-76 0 -121 42 q-45 42 -45 131 l0 338 l168 0 l0 -338 q0 -11 1.5 -18.5 q1.5 -7.5 6.5 -15.5 q5 -8 15.5 -11.5 q10.5 -3.5 26.5 -3.5 ZM376 575 l-121 0 l0 125 l121 0 l0 -125 ZM54 575 l-129 0 l0 125 l129 0 l0 -125 ZM244 704 l3 -5 l-76 -151 l-115 0 l53 156 l135 0 Z" /><glyph glyph-name="Alpha" unicode="&#x391;" d="M477 0 l-56 171 l-223 0 l-53 -171 l-190 0 l239 707 l232 0 l242 -707 l-191 0 ZM314 579 l-7 0 l-18 -98 l-44 -151 l129 0 l-42 151 l-18 98 Z" /><glyph glyph-name="Beta" unicode="&#x392;" d="M217 431 l66 0 q42 0 58.5 30.5 q16.5 30.5 0 60.5 q-16.5 30 -56.5 30 l-68 0 l0 -121 ZM285 303 l-68 0 l0 -148 l68 0 q40 0 62.5 23 q22.5 23 22 51 q-0.5 28 -23 51 q-22.5 23 -61.5 23 ZM512 539 q8 -54 -13 -98 q-21 -44 -71 -66 q55 -15 85 -65 q30 -50 29 -90 q0 -111 -73.5 -165.5 q-73.5 -54.5 -181.5 -54.5 l-236 0 l0 701 l238 0 q88 0 149.5 -42 q61.5 -42 73.5 -120 Z" /><glyph glyph-name="Gamma" unicode="&#x393;" d="M474 700 l0 -149 l-251 0 l0 -551 l-178 0 l0 700 l429 0 Z" /><glyph glyph-name="Delta" unicode="&#x394;" d="M-43 0 l0 6 l237 698 l232 0 l240 -698 l0 -6 l-709 0 ZM289 478 l-100 -331 l243 0 l-100 331 l-18 98 l-7 0 l-18 -98 Z" /><glyph glyph-name="Epsilon" unicode="&#x395;" d="M464 700 l0 -150 l-258 0 l0 -124 l247 0 l0 -150 l-247 0 l0 -124 l258 0 l0 -152 l-430 0 l0 700 l430 0 Z" /><glyph glyph-name="Zeta" unicode="&#x396;" d="M496 700 l0 -141 l-287 -401 l115 3 l180 0 l0 -161 l-498 0 l0 131 l287 418 l-112 -3 l-162 0 l0 154 l477 0 Z" /><glyph glyph-name="Eta" unicode="&#x397;" d="M424 0 l0 271 l-192 0 l0 -271 l-180 0 l0 700 l180 0 l0 -273 l192 0 l0 273 l179 0 l0 -700 l-179 0 Z" /><glyph glyph-name="Theta" unicode="&#x398;" d="M235 271 l0 158 l277 0 l0 -158 l-277 0 ZM375 712 q152 0 258 -101 q106 -101 106 -262 q0 -164 -105.5 -263 q-105.5 -99 -258.5 -99 q-153 0 -258.5 99.5 q-105.5 99.5 -105.5 262.5 q0 165 105 264 q105 99 259 99 ZM191 349 q0 -96 55 -148.5 q55 -52.5 129 -52.5 q77 0 130.5 48 q53.5 48 53.5 153 q0 105 -54 153.5 q-54 48.5 -131 48.5 q-78 0 -130.5 -51 q-52.5 -51 -52.5 -151 Z" /><glyph glyph-name="Iota" unicode="&#x399;" d="M33 0 l0 703 l178 0 l0 -703 l-178 0 Z" /><glyph glyph-name="Kappa" unicode="&#x39a;" d="M36 0 l0 700 l177 0 l0 -276 l41 73 l156 203 l207 0 l-262 -320 l269 -380 l-205 0 l-186 261 l-20 -21 l0 -240 l-177 0 Z" /><glyph glyph-name="Lambda" unicode="&#x39b;" d="M474 0 l-135 443 l-25 134 l-7 0 l-25 -133 l-137 -444 l-190 0 l239 701 l232 0 l242 -701 l-194 0 Z" /><glyph glyph-name="Mu" unicode="&#x39c;" d="M436 311 l151 393 l237 0 l0 -704 l-175 0 l0 295 l27 192 l-6 2 l-73 -191 l-88 -196 l-146 0 l-88 196 l-73 191 l-6 -2 l27 -192 l0 -295 l-175 0 l0 704 l240 0 l148 -393 Z" /><glyph glyph-name="Nu" unicode="&#x39d;" d="M210 533 l-9 -2 l31 -153 l0 -378 l-179 0 l0 701 l236 0 l186 -384 l63 -167 l7 2 l-27 172 l0 377 l177 0 l0 -701 l-251 0 l-180 382 l-54 151 Z" /><glyph glyph-name="Xi" unicode="&#x39e;" d="M-5 152 l491 0 l0 -152 l-491 0 l0 152 ZM482 550 l-481 0 l0 150 l481 0 l0 -150 ZM33 275 l0 151 l423 0 l0 -151 l-423 0 Z" /><glyph glyph-name="Omicron" unicode="&#x39f;" d="M375 712 q151 0 256.5 -102 q105.5 -102 105.5 -261 q0 -161 -105 -261.5 q-105 -100.5 -257 -100.5 q-153 0 -258 100 q-105 100 -105 262 q0 161 105.5 262 q105.5 101 257.5 101 ZM245 498 q-53 -53 -53 -149 q0 -96 54.5 -148.5 q54.5 -52.5 128.5 -52.5 q77 0 129.5 48 q52.5 48 52.5 153 q0 101 -53.5 151.5 q-53.5 50.5 -129.5 50.5 q-76 0 -129 -53 Z" /><glyph glyph-name="Pi" unicode="&#x3a0;" d="M424 0 l0 548 l-192 0 l0 -548 l-180 0 l0 700 l551 0 l0 -700 l-179 0 Z" /><glyph glyph-name="Rho" unicode="&#x3a1;" d="M227 198 l0 -198 l-176 0 l0 700 l233 0 q58 0 106.5 -17.5 q48.5 -17.5 79.5 -46.5 q31 -29 52.5 -67 q21.5 -38 26 -79.5 q4.5 -41.5 -0.5 -83 q-5 -41.5 -27 -79 q-22 -37.5 -53 -66.5 q-31 -29 -79 -46 q-48 -17 -104 -17 l-58 0 ZM284 340 q44 0 69.5 33 q25.5 33 26.5 72.5 q1 39.5 -24.5 72.5 q-25.5 33 -71.5 33 l-60 0 l0 -211 l60 0 Z" /><glyph glyph-name="Sigma" unicode="&#x3a3;" d="M345 378 l0 -38 l-134 -189 l296 0 l0 -151 l-457 0 l-68 82 l185 275 l-177 257 l61 86 l450 0 l0 -151 l-276 0 l120 -171 Z" /><glyph glyph-name="Tau" unicode="&#x3a4;" d="M-24 700 l503 0 l0 -149 l-163 0 l0 -551 l-179 0 l0 551 l-161 0 l0 149 Z" /><glyph glyph-name="Upsilon" unicode="&#x3a5;" d="M273 417 l-2 0 l46 113 l89 170 l201 0 l-171 -304 l-78 -126 l0 -270 l-177 0 l0 271 l-80 131 l-166 298 l199 0 l93 -173 l44 -110 l2 0 Z" /><glyph glyph-name="Phi" unicode="&#x3a6;" d="M284 631 l0 75 l177 0 l0 -75 q85 -1 148 -42.5 q63 -41.5 91.5 -103 q28.5 -61.5 28.5 -133 q0 -71.5 -28 -133 q-28 -61.5 -91 -102.5 q-63 -41 -149 -42 l0 -80 l-177 0 l0 80 q-87 0 -150.5 41 q-63.5 41 -92 102.5 q-28.5 61.5 -28 133 q0.5 71.5 29.5 133.5 q29 62 92 103.5 q63 41.5 149 42.5 ZM285 209 l0 287 q-38 0 -64.5 -29 q-26.5 -29 -32.5 -71 q-6 -42 0.5 -83.5 q6.5 -41.5 32.5 -72 q26 -30.5 64 -31.5 ZM457 496 l0 -287 q38 1 64 31.5 q26 30.5 32.5 72 q6.5 41.5 0.5 83.5 q-6 42 -32.5 71 q-26.5 29 -64.5 29 Z" /><glyph glyph-name="Chi" unicode="&#x3a7;" d="M-43 695 l0 5 l205 0 l102 -170 l34 -69 l33 69 l103 170 l204 0 l0 -6 l-171 -272 l-50 -72 l54 -79 l170 -266 l0 -5 l-206 0 l-102 170 l-35 74 l-37 -75 l-99 -169 l-207 0 l0 5 l173 271 l53 74 l-52 73 l-172 272 Z" /><glyph glyph-name="Psi" unicode="&#x3a8;" d="M472 700 l0 -417 q51 0 77.5 32 q26.5 32 26.5 82 l0 303 l175 0 l0 -303 q0 -107 -75 -186 q-75 -79 -204 -79 l0 -132 l-177 0 l0 132 q-129 0 -204 79 q-75 79 -75 186 l0 303 l175 0 l0 -303 q0 -50 26.5 -82 q26.5 -32 77.5 -32 l0 417 l177 0 Z" /><glyph glyph-name="Omega" unicode="&#x3a9;" d="M155 136 l1 2 q-68 24 -106.5 93.5 q-38.5 69.5 -36.5 148.5 q3 143 102.5 236 q99.5 93 252.5 93 q153 0 252.5 -93 q99.5 -93 102.5 -236 q2 -79 -36 -148 q-38 -69 -106 -94 l1 -2 l70 11 l93 -1 l0 -146 l-339 0 l-14 148 q86 36 123.5 82 q37.5 46 37.5 126 q0 82 -52.5 137 q-52.5 55 -132.5 55 q-80 0 -132.5 -55 q-52.5 -55 -52.5 -137 q0 -80 37.5 -126 q37.5 -46 123.5 -82 l-14 -148 l-339 0 l0 146 l93 1 l71 -11 Z" /><glyph glyph-name="Iotadieresis" unicode="&#x3aa;" d="M33 0 l0 703 l178 0 l0 -703 l-178 0 ZM292 748 l-136 0 l0 123 l136 0 l0 -123 ZM88 748 l-137 0 l0 123 l137 0 l0 -123 Z" /><glyph glyph-name="Upsilondieresis" unicode="&#x3ab;" d="M273 417 l-2 0 l46 113 l89 170 l201 0 l-171 -304 l-78 -126 l0 -270 l-177 0 l0 271 l-80 131 l-166 298 l199 0 l93 -173 l44 -110 l2 0 ZM443 746 l-140 0 l0 125 l140 0 l0 -125 ZM234 746 l-142 0 l0 125 l142 0 l0 -125 Z" /><glyph glyph-name="alphatonos" unicode="&#x3ac;" d="M325 158 l0 193 q-21 22 -55 22 q-38 0 -64 -24.5 q-26 -24.5 -32.5 -59.5 q-6.5 -35 -1 -70.5 q5.5 -35.5 32 -60 q26.5 -24.5 65.5 -24.5 q32 0 55 24 ZM493 507 l0 -507 l-130 0 l-13 55 q-17 -31 -55 -46 q-38 -15 -77 -13.5 q-39 1.5 -70 15.5 q-67 29 -104 91 q-37 62 -37 151 q0 89 36.5 152 q36.5 63 103.5 92 q31 13 70.5 14.5 q39.5 1.5 77.5 -13.5 q38 -15 55 -46 l13 55 l130 0 ZM413 702 l5 -6 l-99 -123 l-141 0 l68 129 l167 0 Z" /><glyph glyph-name="epsilontonos" unicode="&#x3ad;" d="M334 159 l66 -100 q-94 -66 -189 -66 q-38 0 -72 7.5 q-34 7.5 -65 23.5 q-31 16 -50.5 45.5 q-19.5 29.5 -23.5 70.5 l0 -1 q-4 37 16.5 70.5 q20.5 33.5 65.5 51.5 q-35 10 -51.5 40 q-16.5 30 -16.5 55 q0 80 59.5 119.5 q59.5 39.5 143.5 39.5 q94 0 170 -62 l-67 -93 q-37 26 -93 26 q-25 0 -41 -9 q-16 -9 -16 -25 q0 -11 12.5 -20.5 q12.5 -9.5 33.5 -9.5 l111 0 l0 -122 l-113 0 q-28 1 -42 -9.5 q-14 -10.5 -14 -25.5 q0 -14 16.5 -22.5 q16.5 -8.5 43.5 -10.5 q72 -4 116 27 ZM350 697 l4 -5 l-93 -118 l-133 0 l65 123 l157 0 Z" /><glyph glyph-name="etatonos" unicode="&#x3ae;" d="M37 507 l139 0 l11 -55 q46 80 173 53 q71 -16 121 -73.5 q50 -57.5 50 -137.5 l0 -294 l-167 0 l0 294 q0 43 -27.5 66 q-27.5 23 -64.5 21.5 q-37 -1.5 -67 -24.5 l0 -357 l-168 0 l0 507 ZM429 700 l5 -6 l-100 -116 l-142 0 l69 122 l168 0 Z" /><glyph glyph-name="iotatonos" unicode="&#x3af;" d="M239 120 l0 -120 q-28 -4 -52 -4 q-76 0 -121 42 q-45 42 -45 131 l0 338 l168 0 l0 -338 q0 -11 1.5 -18.5 q1.5 -7.5 6.5 -15.5 q5 -8 15.5 -11.5 q10.5 -3.5 26.5 -3.5 ZM247 700 l5 -6 l-99 -116 l-139 0 l68 122 l165 0 Z" /><glyph glyph-name="upsilondieresistonos" unicode="&#x3b0;" d="M352 214 l0 293 l166 0 l0 -289 q0 -60 -27 -108 q-27 -48 -70 -73 q-43 -25 -95 -37 q-52 -12 -103.5 -1 q-51.5 11 -94.5 35.5 q-43 24.5 -70 73 q-27 48.5 -27 110.5 l0 289 l166 0 l0 -293 q0 -38 24 -59.5 q24 -21.5 53.5 -21.5 q29.5 0 53.5 21.5 q24 21.5 24 59.5 ZM504 575 l-131 0 l0 125 l131 0 l0 -125 ZM175 575 l-134 0 l0 125 l134 0 l0 -125 ZM362 704 l3 -5 l-73 -151 l-115 0 l53 156 l132 0 Z" /><glyph glyph-name="alpha" unicode="&#x3b1;" d="M325 158 l0 193 q-21 22 -55 22 q-38 0 -64 -24.5 q-26 -24.5 -32.5 -59.5 q-6.5 -35 -1 -70.5 q5.5 -35.5 32 -60 q26.5 -24.5 65.5 -24.5 q32 0 55 24 ZM493 507 l0 -507 l-130 0 l-13 55 q-17 -31 -55 -46 q-38 -15 -77 -13.5 q-39 1.5 -70 15.5 q-67 29 -104 91 q-37 62 -37 151 q0 89 36.5 152 q36.5 63 103.5 92 q31 13 70.5 14.5 q39.5 1.5 77.5 -13.5 q38 -15 55 -46 l13 55 l130 0 Z" /><glyph glyph-name="beta" unicode="&#x3b2;" d="M205 499 l0 -689 l-177 0 l0 689 q0 95 64.5 150.5 q64.5 55.5 158.5 55.5 q73 0 130.5 -32 q57.5 -32 80.5 -93 q25 -54 8 -115 q-17 -61 -76 -88 q84 -24 114 -106.5 q30 -82.5 -11 -165.5 q-50 -108 -219 -106 q-10 0 -42 4 l0 142 q37 -10 71 12 q34 22 33 68 q-1 28 -23 52 q-22 24 -57 24 l-21 0 l0 135 l18 0 q20 0 34.5 13 q14.5 13 18 31.5 q3.5 18.5 0.5 36.5 q-3 18 -18 30 q-15 12 -38 11 q-18 -1 -33 -18.5 q-15 -17.5 -16 -40.5 Z" /><glyph glyph-name="gamma" unicode="&#x3b3;" d="M260 174 l4 0 l27 112 l78 221 l169 0 l-200 -470 l0 -226 l-161 0 l0 226 l-130 300 q-10 25 -20 33.5 q-10 8.5 -39 8.5 l0 128 q101 4 142 -15.5 q41 -19.5 60 -81.5 l44 -124 l26 -112 Z" /><glyph glyph-name="delta" unicode="&#x3b4;" d="M527 241 q0 -107 -73 -176.5 q-73 -69.5 -187 -70.5 q-110 -1 -185 64 q-75 65 -75 179 q0 48 35 100.5 q35 52.5 101 72.5 q-40 8 -65 44.5 q-25 36.5 -22 76.5 q6 80 70 125 q64 45 149 45 q132 0 214 -79 l-74 -109 q-62 41 -140 44 q-46 2 -58 -24 q-12 -24 20 -40 q17 -9 46 -11 q106 -16 162 -65 l-1 0 q83 -71 83 -176 ZM362 241 q0 38 -27.5 66.5 q-27.5 28.5 -67.5 28.5 q-38 0 -65.5 -27 q-27.5 -27 -27.5 -68 q0 -41 25.5 -68 q25.5 -27 68.5 -27 q43 0 68.5 26.5 q25.5 26.5 25.5 68.5 Z" /><glyph glyph-name="epsilon" unicode="&#x3b5;" d="M334 159 l66 -100 q-94 -66 -189 -66 q-38 0 -72 7.5 q-34 7.5 -65 23.5 q-31 16 -50.5 45.5 q-19.5 29.5 -23.5 70.5 l0 -1 q-4 37 16.5 70.5 q20.5 33.5 65.5 51.5 q-35 10 -51.5 40 q-16.5 30 -16.5 55 q0 80 59.5 119.5 q59.5 39.5 143.5 39.5 q94 0 170 -62 l-67 -93 q-37 26 -93 26 q-25 0 -41 -9 q-16 -9 -16 -25 q0 -11 12.5 -20.5 q12.5 -9.5 33.5 -9.5 l111 0 l0 -122 l-113 0 q-28 1 -42 -9.5 q-14 -10.5 -14 -25.5 q0 -14 16.5 -22.5 q16.5 -8.5 43.5 -10.5 q72 -4 116 27 Z" /><glyph glyph-name="zeta" unicode="&#x3b6;" d="M434 699 l0 -123 q-233 -205 -263 -329 q-11 -53 22 -81.5 q33 -28.5 108 -50.5 q46 -14 75.5 -45 q29.5 -31 29.5 -76 q0 -40 -27.5 -94 q-27.5 -54 -72.5 -98 l-115 73 q13 16 20 26.5 q7 10.5 14 25 q7 14.5 7 24.5 q0 10 -8 20 q-8 10 -26 16 q-55 17 -94.5 41 q-39.5 24 -59 45.5 q-19.5 21.5 -30.5 49 q-11 27.5 -13 43.5 q-2 16 -2 38 q0 87 68 190 q68 103 188 165 l-241 0 l0 140 l420 0 Z" /><glyph glyph-name="eta" unicode="&#x3b7;" d="M37 507 l139 0 l11 -55 q46 80 173 53 q71 -16 121 -73.5 q50 -57.5 50 -137.5 l0 -294 l-167 0 l0 294 q0 43 -27.5 66 q-27.5 23 -64.5 21.5 q-37 -1.5 -67 -24.5 l0 -357 l-168 0 l0 507 Z" /><glyph glyph-name="theta" unicode="&#x3b8;" d="M536 348 q0 -61 -15 -121 q-15 -60 -44.5 -113.5 q-29.5 -53.5 -82 -86.5 q-52.5 -33 -119.5 -33 q-86 0 -147.5 52 q-61.5 52 -89 130.5 q-27.5 78.5 -27.5 171.5 q0 69 16 131.5 q16 62.5 47.5 113.5 q31.5 51 83 81.5 q51.5 30.5 116.5 30.5 q82 0 143 -50.5 q61 -50.5 90 -130.5 q29 -80 29 -176 ZM367 295 l-188 0 q0 -65 26.5 -106.5 q26.5 -41.5 68.5 -41.5 q41 0 66 40.5 q25 40.5 27 107.5 ZM183 430 l178 0 q-4 50 -28 87.5 q-24 37.5 -59 37.5 q-37 0 -62.5 -36.5 q-25.5 -36.5 -28.5 -88.5 Z" /><glyph glyph-name="iota" unicode="&#x3b9;" d="M239 120 l0 -120 q-28 -4 -52 -4 q-76 0 -121 42 q-45 42 -45 131 l0 338 l168 0 l0 -338 q0 -11 1.5 -18.5 q1.5 -7.5 6.5 -15.5 q5 -8 15.5 -11.5 q10.5 -3.5 26.5 -3.5 Z" /><glyph glyph-name="kappa" unicode="&#x3ba;" d="M518 12 l0 -12 l-183 0 l-122 190 l-22 -19 l0 -171 l-167 0 l0 507 l167 0 l0 -188 q12 42 60 100 l72 88 l185 0 l0 -12 l-180 -198 l190 -285 Z" /><glyph glyph-name="lambda" unicode="&#x3bb;" d="M-38 0 l0 4 l197 437 l-32 97 q-6 16 -12 24.5 q-6 8.5 -22 14 q-16 5.5 -42 2.5 l0 121 q72 7 118.5 -4 q46.5 -11 67.5 -32.5 q21 -21.5 36 -58.5 l185 -453 q0 -1 3 -9 q3 -8 4.5 -10.5 q1.5 -2.5 6 -9 q4.5 -6.5 9 -8.5 q4.5 -2 12 -4 q7.5 -2 17.5 -2 l0 -110 q-27 -3 -47 -3 q-72 0 -104 24.5 q-32 24.5 -53 81.5 l-37 102 l-23 105 l-4 0 l-24 -105 l-81 -204 l-175 0 Z" /><glyph glyph-name="mu.001" unicode="&#x3bc;" d="M336 -2 l-17 53 q-14 -35 -44 -47.5 q-30 -12.5 -58 0 q-28 12.5 -36 43.5 l0 -233 l-165 0 l0 693 l170 0 l0 -292 q0 -35 30 -48.5 q30 -13.5 60 1 q30 14.5 30 47.5 l0 292 l167 0 l0 -509 l-137 0 Z" /><glyph glyph-name="nu" unicode="&#x3bd;" d="M239 101 l5 0 l18 106 l85 300 l179 0 l-174 -507 l-222 0 l-172 507 l179 0 l83 -300 l19 -106 Z" /><glyph glyph-name="xi" unicode="&#x3be;" d="M213 -11 q-8 4 -41 20 q-33 16 -41.5 20.5 q-8.5 4.5 -34.5 19.5 q-26 15 -34.5 23.5 q-8.5 8.5 -25 25 q-16.5 16.5 -22.5 31.5 q-6 15 -11.5 36 q-5.5 21 -5.5 45 q0 90 95 142 q-40 22 -57.5 63 q-17.5 41 -17.5 78 q0 90 62 151 q62 61 160 61 q115 0 195 -82 l-82 -96 q-38 38 -95 38 q-56 0 -77.5 -36.5 q-21.5 -36.5 -1.5 -73.5 q20 -37 66 -37 l120 0 l0 -136 l-122 0 q-38 0 -56.5 -17 q-18.5 -17 -18.5 -43 q0 -15 7.5 -28.5 q7.5 -13.5 17 -22.5 q9.5 -9 29.5 -21 q20 -12 32 -17.5 q12 -5.5 38.5 -17.5 q26.5 -12 37.5 -17 q51 -24 71 -61 q20 -37 11 -77.5 q-9 -40.5 -35.5 -81 q-26.5 -40.5 -66.5 -74.5 l-106 76 q76 76 10 109 Z" /><glyph glyph-name="omicron" unicode="&#x3bf;" d="M175 253 q0 -57 32.5 -89.5 q32.5 -32.5 71 -32 q38.5 0.5 71 32.5 q32.5 32 32.5 89 q0 57 -32.5 89 q-32.5 32 -71 32 q-38.5 0 -71 -32.5 q-32.5 -32.5 -32.5 -88.5 ZM550 253 q0 -118 -77.5 -191.5 q-77.5 -73.5 -194.5 -73.5 q-117 0 -194 72 q-77 72 -77 193 q0 118 77.5 193 q77.5 75 193.5 75 q117 0 194.5 -74 q77.5 -74 77.5 -194 Z" /><glyph glyph-name="pi" unicode="&#x3c0;" d="M37 507 l494 0 l0 -507 l-167 0 l0 365 l-159 0 l0 -365 l-168 0 l0 507 Z" /><glyph glyph-name="rho" unicode="&#x3c1;" d="M548 259 q2 -103 -59.5 -183 q-61.5 -80 -166.5 -80 q-88 0 -121 58 l0 -244 l-164 0 l0 449 q2 103 66 178.5 q64 75.5 179 75.5 q118 0 191.5 -75.5 q73.5 -75.5 74.5 -178.5 ZM382 252 q0 56 -26.5 84.5 q-26.5 28.5 -63.5 28.5 q-37 0 -63.5 -29 q-26.5 -29 -26.5 -86 q0 -53 24 -81 q24 -28 64 -28 q41 0 66.5 28.5 q25.5 28.5 25.5 82.5 Z" /><glyph glyph-name="sigma1" unicode="&#x3c2;" d="M468 424 l-94 -95 q-45 41 -97 41 q-43 0 -73 -31.5 q-30 -31.5 -31 -86.5 q-1 -50 30.5 -82 q31.5 -32 74.5 -32 q55 0 103 51 l97 -92 q-47 -58 -95 -81.5 q-48 -23.5 -110 -23.5 q-124 0 -195.5 76.5 q-71.5 76.5 -71.5 184.5 q1 107 73 182.5 q72 75.5 194 76.5 q57 0 100 -18 q43 -18 95 -70 Z" /><glyph glyph-name="sigma" unicode="&#x3c3;" d="M483 374 q45 -35 57.5 -103 q12.5 -68 -11.5 -125 q-28 -75 -94.5 -116 q-66.5 -41 -155.5 -41 q-115 0 -192 74 q-77 74 -77 190 q0 117 76.5 188 q76.5 71 192.5 71 l306 0 l0 -138 l-102 0 ZM172 253 q0 -47 22 -79.5 q22 -32.5 53 -40.5 q31 -8 62.5 -1 q31.5 7 53.5 40 q22 33 22 81 q0 46 -22 77.5 q-22 31.5 -53.5 39 q-31.5 7.5 -62.5 0 q-31 -7.5 -53 -39 q-22 -31.5 -22 -77.5 Z" /><glyph glyph-name="tau" unicode="&#x3c4;" d="M303 115 l0 -116 q-121 -17 -180 22.5 q-59 39.5 -59 138.5 l0 222 l-88 0 l0 125 l355 0 l0 -125 l-99 0 l0 -222 q0 -54 71 -45 Z" /><glyph glyph-name="upsilon" unicode="&#x3c5;" d="M352 214 l0 293 l166 0 l0 -289 q0 -60 -27 -108 q-27 -48 -70 -73 q-43 -25 -95 -37 q-52 -12 -103.5 -1 q-51.5 11 -94.5 35.5 q-43 24.5 -70 73 q-27 48.5 -27 110.5 l0 289 l166 0 l0 -293 q0 -38 24 -59.5 q24 -21.5 53.5 -21.5 q29.5 0 53.5 21.5 q24 21.5 24 59.5 Z" /><glyph glyph-name="phi" unicode="&#x3c6;" d="M382 380 l0 -253 q50 10 70 69 q20 59 0 117 q-20 58 -70 67 ZM235 127 l0 387 q40 4 66 4 q137 0 228 -69 q91 -69 91 -197 q0 -103 -64 -172.5 q-64 -69.5 -169 -79.5 l0 -193 l-155 0 l0 191 q-107 10 -166 86.5 q-59 76.5 -57 172.5 q4 148 137 219 l69 -109 q-40 -20 -53 -74.5 q-13 -54.5 7 -105.5 q20 -51 66 -60 Z" /><glyph glyph-name="chi" unicode="&#x3c7;" d="M-28 501 l0 4 l193 0 l60 -114 l24 -52 l2 0 l23 52 l61 114 l190 0 l0 -4 l-158 -247 l165 -249 l0 -4 l-183 0 l-76 122 l-22 47 l-3 0 l-22 -47 l-78 -122 l-183 0 l0 5 l165 247 l-158 248 Z" /><glyph glyph-name="psi" unicode="&#x3c8;" d="M285 -151 l0 150 q-108 0 -181.5 72.5 q-73.5 72.5 -73.5 175.5 l0 260 l164 0 l0 -262 q0 -50 22 -80.5 q22 -30.5 69 -30.5 l0 390 l164 0 l0 -390 q47 0 69 30.5 q22 30.5 22 80.5 l0 262 l164 0 l0 -260 q0 -103 -73.5 -175.5 q-73.5 -72.5 -181.5 -72.5 l0 -150 l-164 0 Z" /><glyph glyph-name="omega" unicode="&#x3c9;" d="M339 64 q-39 -69 -111 -69 q-101 0 -155 74 q-54 74 -54 186 q0 99 51 170 q51 71 171 90 l29 -117 q-49 -3 -73.5 -44 q-24.5 -41 -23.5 -95 q1 -43 18 -76 q17 -33 39 -33 q18 0 31.5 12 q13.5 12 13.5 33 l0 171 l129 0 l0 -171 q0 -21 12.5 -33 q12.5 -12 30.5 -12 q22 0 39 33 q17 33 18 76 q1 54 -23.5 95 q-24.5 41 -73.5 44 l29 117 q54 -8 94.5 -26.5 q40.5 -18.5 64.5 -43 q24 -24.5 38.5 -57 q14.5 -32.5 19.5 -64 q5 -31.5 5 -69.5 q0 -112 -54 -186 q-54 -74 -155 -74 q-74 0 -110 69 Z" /><glyph glyph-name="iotadieresis" unicode="&#x3ca;" d="M239 0 l0 120 q-30 -1 -40 12.5 q-10 13.5 -10 36.5 l0 338 l-168 0 l0 -338 q0 -89 45 -131 q45 -42 121 -42 q24 0 52 4 ZM284 575 l-140 0 l0 125 l140 0 l0 -125 ZM79 575 l-142 0 l0 125 l142 0 l0 -125 Z" /><glyph glyph-name="upsilondieresis" unicode="&#x3cb;" d="M352 507 l0 -293 q0 -38 -24 -59.5 q-24 -21.5 -53.5 -21.5 q-29.5 0 -53.5 21.5 q-24 21.5 -24 59.5 l0 293 l-166 0 l0 -289 q0 -72 36 -124.5 q36 -52.5 90 -75.5 q54 -23 117.5 -22.5 q63.5 0.5 117.5 24.5 q54 24 90 76 q36 52 36 122 l0 289 l-166 0 ZM452 575 l-140 0 l0 125 l140 0 l0 -125 ZM243 575 l-142 0 l0 125 l142 0 l0 -125 Z" /><glyph glyph-name="omicrontonos" unicode="&#x3cc;" d="M175 253 q0 -57 32.5 -89.5 q32.5 -32.5 71 -32 q38.5 0.5 71 32.5 q32.5 32 32.5 89 q0 57 -32.5 89 q-32.5 32 -71 32 q-38.5 0 -71 -32.5 q-32.5 -32.5 -32.5 -88.5 ZM550 253 q0 -118 -77.5 -191.5 q-77.5 -73.5 -194.5 -73.5 q-117 0 -194 72 q-77 72 -77 193 q0 118 77.5 193 q77.5 75 193.5 75 q117 0 194.5 -74 q77.5 -74 77.5 -194 ZM431 694 l5 -6 l-100 -123 l-141 0 l69 129 l167 0 Z" /><glyph glyph-name="upsilontonos" unicode="&#x3cd;" d="M352 214 l0 293 l166 0 l0 -289 q0 -60 -27 -108 q-27 -48 -70 -73 q-43 -25 -95 -37 q-52 -12 -103.5 -1 q-51.5 11 -94.5 35.5 q-43 24.5 -70 73 q-27 48.5 -27 110.5 l0 289 l166 0 l0 -293 q0 -38 24 -59.5 q24 -21.5 53.5 -21.5 q29.5 0 53.5 21.5 q24 21.5 24 59.5 ZM434 695 l5 -6 l-100 -123 l-141 0 l69 129 l167 0 Z" /><glyph glyph-name="omegatonos" unicode="&#x3ce;" d="M339 64 q-39 -69 -111 -69 q-101 0 -155 74 q-54 74 -54 186 q0 99 51 170 q51 71 171 90 l29 -117 q-49 -3 -73.5 -44 q-24.5 -41 -23.5 -95 q1 -43 18 -76 q17 -33 39 -33 q18 0 31.5 12 q13.5 12 13.5 33 l0 171 l129 0 l0 -171 q0 -21 12.5 -33 q12.5 -12 30.5 -12 q22 0 39 33 q17 33 18 76 q1 54 -23.5 95 q-24.5 41 -73.5 44 l29 117 q54 -8 94.5 -26.5 q40.5 -18.5 64.5 -43 q24 -24.5 38.5 -57 q14.5 -32.5 19.5 -64 q5 -31.5 5 -69.5 q0 -112 -54 -186 q-54 -74 -155 -74 q-74 0 -110 69 ZM489 700 l4 -7 l-97 -127 l-139 0 l68 134 l164 0 Z" /><glyph glyph-name="afii10023" unicode="&#x401;" d="M464 700 l0 -150 l-258 0 l0 -124 l247 0 l0 -150 l-247 0 l0 -124 l258 0 l0 -152 l-430 0 l0 700 l430 0 ZM431 746 l-140 0 l0 125 l140 0 l0 -125 ZM222 746 l-142 0 l0 125 l142 0 l0 -125 Z" /><glyph glyph-name="afii10051" unicode="&#x402;" d="M-22 700 l513 0 l0 -144 l-173 0 l0 -77 q90 49 187 6 q58 -26 94 -80 q36 -54 36 -122 l0 -296 q0 -86 -50.5 -134 q-50.5 -48 -136.5 -48 q-16 0 -65 5 l0 120 q43 -5 63.5 13.5 q20.5 18.5 20.5 43.5 l0 297 q0 38 -25 61 q-25 23 -58 23 q-33 0 -66 -14 l0 -354 l-175 0 l0 556 l-165 0 l0 144 Z" /><glyph glyph-name="afii10052" unicode="&#x403;" d="M474 700 l0 -150 l-251 0 l0 -550 l-178 0 l0 700 l429 0 ZM417 881 l5 -7 l-101 -127 l-134 0 l71 134 l159 0 Z" /><glyph glyph-name="afii10053" unicode="&#x404;" d="M478 425 l0 -146 l-287 0 q15 -62 61.5 -92.5 q46.5 -30.5 113.5 -30.5 q102 0 178 101 l119 -94 q-61 -96 -134.5 -133.5 q-73.5 -37.5 -162.5 -37.5 q-161 0 -259.5 103.5 q-98.5 103.5 -98.5 251.5 q0 152 96 257 q96 105 262 105 q171 0 284 -150 l-107 -96 q-69 88 -185 86 q-60 -2 -106 -33 q-46 -31 -58 -91 l284 0 Z" /><glyph glyph-name="afii10054" unicode="&#x405;" d="M-7 139 l115 84 q55 -77 135 -77 q29 -1 48.5 16 q19.5 17 21.5 42 q2 34 -23.5 53 q-25.5 19 -65.5 30 l1 0 q-215 55 -213 216 q2 103 72 155 q70 52 165 52 q66 0 124.5 -33 q58.5 -33 96.5 -100 l-116 -73 q-40 52 -98 52 q-66 0 -69 -53 q-1 -19 14.5 -33 q15.5 -14 29 -18.5 q13.5 -4.5 37.5 -11.5 q48 -13 83 -28.5 q35 -15.5 70.5 -43 q35.5 -27.5 53 -71.5 q17.5 -44 15.5 -102 q-5 -100 -79 -153 q-74 -53 -171 -53 q-68 0 -135 35 q-67 35 -112 115 Z" /><glyph glyph-name="afii10055" unicode="&#x406;" d="M33 0 l0 703 l178 0 l0 -703 l-178 0 Z" /><glyph glyph-name="afii10056" unicode="&#x407;" d="M33 0 l0 703 l178 0 l0 -703 l-178 0 ZM295 755 l-140 0 l0 125 l140 0 l0 -125 ZM86 755 l-142 0 l0 125 l142 0 l0 -125 Z" /><glyph glyph-name="afii10057" unicode="&#x408;" d="M-15 220 l154 37 q16 -103 80 -108 q33 0 55 18.5 q22 18.5 22 52.5 l0 338 l-116 0 l0 142 l292 0 l0 -480 q0 -108 -71.5 -169 q-71.5 -61 -166.5 -61 q-226 0 -249 230 Z" /><glyph glyph-name="afii10058" unicode="&#x409;" d="M543 700 l0 -211 l47 0 q56 0 103.5 -16.5 q47.5 -16.5 78 -45 q30.5 -28.5 51.5 -65 q21 -36.5 25.5 -77.5 q4.5 -41 0 -81.5 q-4.5 -40.5 -26 -77 q-21.5 -36.5 -52 -65 q-30.5 -28.5 -78 -45 q-47.5 -16.5 -103.5 -16.5 l-218 0 l0 548 l-99 0 l-10 -218 q-5 -287 -225 -343 l-68 120 q49 25 74 58.5 q25 33.5 30 59.5 q5 26 10 87 q1 5 1 7.5 q0 2.5 0.5 7 q0.5 4.5 0.5 7.5 l19 366 l439 0 ZM589 344 l-50 0 l0 -195 l50 0 q46 0 71.5 30.5 q25.5 30.5 24.5 67 q-1 36.5 -26.5 67 q-25.5 30.5 -69.5 30.5 Z" /><glyph glyph-name="afii10059" unicode="&#x40a;" d="M393 0 l0 271 l-162 0 l0 -271 l-180 0 l0 700 l180 0 l0 -273 l162 0 l0 273 l176 0 l0 -211 l47 0 q56 0 103.5 -16.5 q47.5 -16.5 78 -45 q30.5 -28.5 51.5 -65 q21 -36.5 25.5 -77.5 q4.5 -41 0 -81.5 q-4.5 -40.5 -26 -77 q-21.5 -36.5 -52 -65 q-30.5 -28.5 -78 -45 q-47.5 -16.5 -103.5 -16.5 l-222 0 ZM615 347 l-53 0 l0 -201 l53 0 q46 0 71.5 31.5 q25.5 31.5 24.5 69 q-1 37.5 -26.5 69 q-25.5 31.5 -69.5 31.5 Z" /><glyph glyph-name="afii10060" unicode="&#x40b;" d="M635 0 l-168 0 l0 284 q0 38 -25 61 q-25 23 -58 23 q-33 0 -66 -14 l0 -354 l-175 0 l0 556 l-165 0 l0 144 l513 0 l0 -144 l-173 0 l0 -77 q90 49 187 6 q58 -26 94 -80 q36 -54 36 -122 l0 -283 Z" /><glyph glyph-name="afii10061" unicode="&#x40c;" d="M39 0 l0 700 l177 0 l0 -276 l41 73 l156 203 l207 0 l-262 -320 l269 -380 l-205 0 l-186 261 l-20 -21 l0 -240 l-177 0 ZM475 881 l5 -7 l-101 -127 l-134 0 l71 134 l159 0 Z" /><glyph glyph-name="afii10062" unicode="&#x40e;" d="M592 700 l0 -5 l-261 -587 q-26 -53 -71 -80.5 q-45 -27.5 -129 -27.5 l-73 0 l0 143 l56 0 q32 0 48 19 q16 19 29 64 l-242 468 l0 6 l193 0 l103 -218 l34 -113 l3 0 l36 115 l86 216 l188 0 ZM116 876 l125 0 q0 -19 17.5 -27 q17.5 -8 34.5 0 q17 8 17 28 l128 0 q0 -39 -18 -69.5 q-18 -30.5 -46 -46.5 q-28 -16 -62.5 -23 q-34.5 -7 -69 0 q-34.5 7 -62.5 23 q-28 16 -46 46.5 q-18 30.5 -18 68.5 Z" /><glyph glyph-name="afii10145" unicode="&#x40f;" d="M241 -110 l0 110 l-190 0 l0 700 l179 0 l0 -545 l192 0 l0 545 l180 0 l0 -700 l-191 0 l0 -110 l-170 0 Z" /><glyph glyph-name="bgA" unicode="&#x410;" d="M477 0 l-56 171 l-223 0 l-53 -171 l-190 0 l239 707 l232 0 l242 -707 l-191 0 ZM314 579 l-7 0 l-18 -98 l-44 -151 l129 0 l-42 151 l-18 98 Z" /><glyph glyph-name="afii10018" unicode="&#x411;" d="M224 555 l0 -99 l47 0 q55 0 101 -15.5 q46 -15.5 75.5 -42 q29.5 -26.5 49.5 -60.5 q20 -34 24 -72 q4 -38 -1 -75.5 q-5 -37.5 -26 -72 q-21 -34.5 -50.5 -60.5 q-29.5 -26 -74.5 -42 q-45 -16 -98 -16 l-225 0 l0 700 l425 0 l0 -145 l-247 0 ZM271 305 l-47 0 l0 -152 l47 0 q47 0 67 38 q20 38 1 76 q-19 38 -68 38 Z" /><glyph glyph-name="afii10019" unicode="&#x412;" d="M217 431 l66 0 q42 0 58.5 30.5 q16.5 30.5 0 60.5 q-16.5 30 -56.5 30 l-68 0 l0 -121 ZM285 303 l-68 0 l0 -148 l68 0 q40 0 62.5 23 q22.5 23 22 51 q-0.5 28 -23 51 q-22.5 23 -61.5 23 ZM512 539 q8 -54 -13 -98 q-21 -44 -71 -66 q55 -15 85 -65 q30 -50 29 -90 q0 -111 -73.5 -165.5 q-73.5 -54.5 -181.5 -54.5 l-236 0 l0 701 l238 0 q88 0 149.5 -42 q61.5 -42 73.5 -120 Z" /><glyph glyph-name="afii10020" unicode="&#x413;" d="M474 700 l0 -150 l-251 0 l0 -550 l-178 0 l0 700 l429 0 Z" /><glyph glyph-name="afii10021" unicode="&#x414;" d="M596 155 l54 0 l0 -283 l-163 0 l0 128 l-339 0 l0 -128 l-164 0 l0 262 l69 16 q38 43 43 191 l25 359 l475 0 l0 -545 ZM218 155 l201 0 l0 391 l-135 0 l-11 -194 q-6 -147 -55 -197 Z" /><glyph glyph-name="afii10022" unicode="&#x415;" d="M464 700 l0 -150 l-258 0 l0 -124 l247 0 l0 -150 l-247 0 l0 -124 l258 0 l0 -152 l-430 0 l0 700 l430 0 Z" /><glyph glyph-name="afii10024" unicode="&#x416;" d="M510 700 l0 -180 l-3 -75 l4 -1 l39 73 l138 183 l215 0 l0 -4 l-253 -310 l251 -383 l0 -3 l-203 0 l-154 238 l-36 79 l-4 -1 l4 -83 l0 -233 l-170 0 l0 233 l4 83 l-4 1 l-36 -79 l-156 -238 l-201 0 l0 3 l251 383 l-253 310 l0 4 l215 0 l138 -183 l39 -73 l4 1 l-3 75 l0 180 l174 0 Z" /><glyph glyph-name="afii10025" unicode="&#x417;" d="M-23 142 l111 90 q26 -46 67 -66.5 q41 -20.5 81 -20.5 q50 0 71.5 36.5 q21.5 36.5 2.5 73.5 q-19 37 -68 37 l-125 0 l0 147 l135 0 q23 1 36.5 16.5 q13.5 15.5 13.5 37.5 q0 28 -25 45.5 q-25 17.5 -59 17.5 q-64 0 -107 -56 l-105 78 q54 79 106.5 106 q52.5 27 126.5 27 q80 0 145.5 -41 q65.5 -41 85.5 -115 q16 -58 -5 -110.5 q-21 -52.5 -75 -75.5 q52 -17 78 -61 q26 -44 26 -91 q0 -107 -73.5 -168 q-73.5 -61 -180.5 -61 q-182 0 -263 154 Z" /><glyph glyph-name="afii10026" unicode="&#x418;" d="M545 531 l-7 2 l-54 -151 l-180 -382 l-251 0 l0 700 l177 0 l0 -376 l-25 -172 l5 -2 l63 167 l186 383 l236 0 l0 -700 l-179 0 l0 378 l29 153 Z" /><glyph glyph-name="afii10027" unicode="&#x419;" d="M538 533 l7 -2 l-29 -153 l0 -378 l179 0 l0 700 l-236 0 l-186 -383 l-63 -167 l-5 2 l25 172 l0 376 l-177 0 l0 -700 l251 0 l180 382 l54 151 ZM214 870 l125 0 q0 -19 17.5 -27 q17.5 -8 34.5 0 q17 8 17 28 l128 0 q0 -39 -18 -69.5 q-18 -30.5 -46 -46.5 q-28 -16 -62.5 -23 q-34.5 -7 -69 0 q-34.5 7 -62.5 23 q-28 16 -46 46.5 q-18 30.5 -18 68.5 Z" /><glyph glyph-name="afii10028" unicode="&#x41a;" d="M39 0 l0 700 l177 0 l0 -276 l41 73 l156 203 l207 0 l-262 -320 l269 -380 l-205 0 l-186 261 l-20 -21 l0 -240 l-177 0 Z" /><glyph glyph-name="afii10029" unicode="&#x41b;" d="M82 334 l19 366 l471 0 l0 -700 l-179 0 l0 548 l-124 0 l-10 -218 q-5 -287 -225 -343 l-68 120 q49 25 74 58.5 q25 33.5 30 59.5 q5 26 10 87 q1 5 1 7.5 q0 2.5 0.5 7 q0.5 4.5 0.5 7.5 Z" /><glyph glyph-name="afii10030" unicode="&#x41c;" d="M436 311 l151 393 l237 0 l0 -704 l-175 0 l0 295 l27 192 l-6 2 l-73 -191 l-88 -196 l-146 0 l-88 196 l-73 191 l-6 -2 l27 -192 l0 -295 l-175 0 l0 704 l240 0 l148 -393 Z" /><glyph glyph-name="afii10031" unicode="&#x41d;" d="M424 0 l0 271 l-192 0 l0 -271 l-180 0 l0 700 l180 0 l0 -273 l192 0 l0 273 l179 0 l0 -700 l-179 0 Z" /><glyph glyph-name="afii10032" unicode="&#x41e;" d="M375 712 q151 0 256.5 -102 q105.5 -102 105.5 -261 q0 -161 -105 -261.5 q-105 -100.5 -257 -100.5 q-153 0 -258 100 q-105 100 -105 262 q0 161 105.5 262 q105.5 101 257.5 101 ZM245 498 q-53 -53 -53 -149 q0 -96 54.5 -148.5 q54.5 -52.5 128.5 -52.5 q77 0 129.5 48 q52.5 48 52.5 153 q0 101 -53.5 151.5 q-53.5 50.5 -129.5 50.5 q-76 0 -129 -53 Z" /><glyph glyph-name="afii10033" unicode="&#x41f;" d="M424 0 l0 545 l-192 0 l0 -545 l-180 0 l0 700 l551 0 l0 -700 l-179 0 Z" /><glyph glyph-name="afii10034" unicode="&#x420;" d="M224 198 l0 -198 l-176 0 l0 700 l233 0 q58 0 106.5 -17.5 q48.5 -17.5 79.5 -46.5 q31 -29 52.5 -67 q21.5 -38 26 -79.5 q4.5 -41.5 -0.5 -83 q-5 -41.5 -27 -79 q-22 -37.5 -53 -66.5 q-31 -29 -79 -46 q-48 -17 -104 -17 l-58 0 ZM281 340 q44 0 69.5 33 q25.5 33 26.5 72.5 q1 39.5 -24.5 72.5 q-25.5 33 -71.5 33 l-60 0 l0 -211 l60 0 Z" /><glyph glyph-name="afii10035" unicode="&#x421;" d="M649 574 l-107 -100 q-80 84 -169 80 q-86 -2 -135 -61.5 q-49 -59.5 -49 -144.5 q0 -85 49.5 -144 q49.5 -59 134.5 -59 q107 0 179 93 l113 -94 q-130 -158 -292 -158 q-167 0 -263.5 106.5 q-96.5 106.5 -96.5 255.5 q0 96 40 177.5 q40 81.5 124 134.5 q84 53 196 53 q81 0 147.5 -32 q66.5 -32 128.5 -107 Z" /><glyph glyph-name="afii10036" unicode="&#x422;" d="M-24 700 l503 0 l0 -154 l-163 0 l0 -546 l-179 0 l0 546 l-161 0 l0 154 Z" /><glyph glyph-name="afii10037" unicode="&#x423;" d="M592 700 l0 -5 l-261 -587 q-26 -53 -71 -80.5 q-45 -27.5 -129 -27.5 l-73 0 l0 143 l56 0 q32 0 48 19 q16 19 29 64 l-242 468 l0 6 l193 0 l103 -218 l34 -113 l3 0 l36 115 l86 216 l188 0 Z" /><glyph glyph-name="afii10038" unicode="&#x424;" d="M284 631 l0 75 l177 0 l0 -75 q85 -1 148 -42.5 q63 -41.5 91.5 -103 q28.5 -61.5 28.5 -133 q0 -71.5 -28 -133 q-28 -61.5 -91 -102.5 q-63 -41 -149 -42 l0 -80 l-177 0 l0 80 q-87 0 -150.5 41 q-63.5 41 -92 102.5 q-28.5 61.5 -28 133 q0.5 71.5 29.5 133.5 q29 62 92 103.5 q63 41.5 149 42.5 ZM285 209 l0 287 q-38 0 -64.5 -29 q-26.5 -29 -32.5 -71 q-6 -42 0.5 -83.5 q6.5 -41.5 32.5 -72 q26 -30.5 64 -31.5 ZM457 209 q38 1 64 31.5 q26 30.5 32.5 72 q6.5 41.5 0.5 83.5 q-6 42 -32.5 71 q-26.5 29 -64.5 29 l0 0 l0 0 l0 0 l0 -1 l0 0 l0 0 l0 -1 l0 0 l0 -1 l0 0 l0 -1 l0 0 l0 -1 l0 -1 l0 0 l0 -1 l0 -1 l0 -1 l0 -1 l0 -1 l0 -1 l0 -1 l0 -1 l0 -1 l0 -1 l0 -1 l0 -1 l0 -1 l0 -1 l0 -1 l0 -1 l0 -1 l0 -1 l0 -1 l0 -1 l0 -1 l0 -1 l0 -1 l0 -1 l0 -1 l0 -1 l0 -1 l0 -1 l0 -1 l0 -1 l0 -1 l0 -1 l0 -1 l0 -1 l0 -1 l0 -1 l0 -1 l0 -1 l0 -1 l0 -1 l0 -1 l0 -1 l0 -1 l0 -1 l0 -1 l0 -1 l0 -1 l0 -1 l0 -1 l0 -1 l0 -1 l0 -1 l0 -1 l0 -2 l0 -1 l0 -1 l0 -1 l0 -1 l0 -1 l0 -1 l0 -2 l0 -1 l0 -1 l0 -1 l0 -1 l0 -1 l0 -2 l0 -1 l0 -1 l0 -1 l0 -2 l0 -1 l0 -1 l0 -1 l0 -2 l0 -1 l0 -1 l0 -1 l0 -2 l0 -1 l0 -1 l0 -1 l0 -2 l0 -1 l0 -1 l0 -2 l0 -1 l0 -1 l0 -2 l0 -1 l0 -1 l0 -2 l0 -1 l0 -2 l0 -1 l0 -1 l0 -2 l0 -1 l0 -1 l0 -2 l0 -1 l0 -2 l0 -1 l0 -2 l0 -1 l0 -1 l0 -2 l0 -1 l0 -2 l0 -1 l0 -2 l0 -1 l0 -2 l0 -1 l0 -2 l0 -1 l0 -2 l0 -1 l0 -2 l0 -1 l0 -2 l0 -1 l0 -2 l0 -1 l0 -2 l0 -1 l0 -2 l0 -1 l0 -2 l0 -1 l0 -2 l0 -2 l0 -1 l0 -2 l0 -1 l0 -2 l0 -2 l0 -1 l0 -2 l0 -1 l0 -2 l0 -2 l0 -1 l0 -2 l0 -1 l0 -2 l0 -2 l0 -1 l0 -2 l0 -2 l0 -1 l0 -2 l0 -2 l0 -1 l0 -2 l0 -2 l0 -1 l0 -2 l0 -2 l0 -2 l0 -1 l0 -2 l0 -2 l0 -1 l0 -2 l0 -2 l0 -2 l0 -1 l0 -2 l0 -2 l0 -2 l0 -1 l0 -2 l0 -2 l0 -2 l0 -1 l0 -2 l0 -2 l0 -2 l0 -2 l0 -1 l0 -2 l0 -2 l0 -2 l0 -2 l0 -1 l0 -2 l0 -2 l0 -2 l0 -2 l0 -2 l0 -1 l0 -2 l0 -2 l0 -2 l0 -2 l0 -2 l0 -8 Z" /><glyph glyph-name="afii10039" unicode="&#x425;" d="M-43 695 l0 5 l205 0 l102 -170 l34 -69 l33 69 l103 170 l204 0 l0 -6 l-171 -272 l-50 -72 l54 -79 l170 -266 l0 -5 l-206 0 l-102 170 l-35 74 l-37 -75 l-99 -169 l-207 0 l0 5 l173 271 l53 74 l-52 73 l-172 272 Z" /><glyph glyph-name="afii10040" unicode="&#x426;" d="M588 157 l59 0 l0 -284 l-161 0 l0 127 l-435 0 l0 700 l179 0 l0 -543 l177 0 l0 543 l181 0 l0 -543 Z" /><glyph glyph-name="afii10041" unicode="&#x427;" d="M549 700 l0 -700 l-178 0 l0 219 q-65 -18 -127.5 -9.5 q-62.5 8.5 -111 35 q-48.5 26.5 -78 79.5 q-29.5 53 -29.5 124 l0 252 l178 0 l0 -252 q1 -58 55 -79.5 q54 -21.5 113 -2.5 l0 334 l178 0 Z" /><glyph glyph-name="afii10042" unicode="&#x428;" d="M58 700 l179 0 l0 -554 l143 0 l0 554 l178 0 l0 -554 l140 0 l0 554 l180 0 l0 -700 l-820 0 l0 700 Z" /><glyph glyph-name="afii10043" unicode="&#x429;" d="M64 700 l179 0 l0 -553 l143 0 l0 553 l178 0 l0 -553 l139 0 l0 553 l181 0 l0 -554 l60 0 l0 -273 l-155 0 l0 127 l-725 0 l0 700 Z" /><glyph glyph-name="afii10044" unicode="&#x42a;" d="M-11 560 l0 140 l290 0 l0 -214 l58 0 q56 0 103.5 -16.5 q47.5 -16.5 78 -45 q30.5 -28.5 51.5 -64.5 q21 -36 25.5 -76.5 q4.5 -40.5 0 -81 q-4.5 -40.5 -26 -76.5 q-21.5 -36 -52 -64.5 q-30.5 -28.5 -78 -45 q-47.5 -16.5 -103.5 -16.5 l-233 0 l0 560 l-114 0 ZM336 341 l-61 0 l0 -192 l61 0 q46 0 71.5 30 q25.5 30 24.5 66 q-1 36 -26.5 66 q-25.5 30 -69.5 30 Z" /><glyph glyph-name="afii10045" unicode="&#x42b;" d="M227 700 l0 -211 l58 0 q56 0 103.5 -16.5 q47.5 -16.5 78 -45 q30.5 -28.5 51.5 -65 q21 -36.5 25.5 -77.5 q4.5 -41 0 -81.5 q-4.5 -40.5 -26 -77 q-21.5 -36.5 -52 -65 q-30.5 -28.5 -78 -45 q-47.5 -16.5 -103.5 -16.5 l-233 0 l0 700 l176 0 ZM284 344 l-61 0 l0 -195 l61 0 q46 0 71.5 30.5 q25.5 30.5 24.5 67 q-1 36.5 -26.5 67 q-25.5 30.5 -69.5 30.5 ZM644 0 l0 700 l176 0 l0 -700 l-176 0 Z" /><glyph glyph-name="afii10046" unicode="&#x42c;" d="M207 700 l0 -211 l58 0 q56 0 103.5 -16.5 q47.5 -16.5 78 -45 q30.5 -28.5 51.5 -65 q21 -36.5 25.5 -77.5 q4.5 -41 0 -81.5 q-4.5 -40.5 -26 -77 q-21.5 -36.5 -52 -65 q-30.5 -28.5 -78 -45 q-47.5 -16.5 -103.5 -16.5 l-233 0 l0 700 l176 0 ZM264 344 l-61 0 l0 -195 l61 0 q46 0 71.5 30.5 q25.5 30.5 24.5 67 q-1 36.5 -26.5 67 q-25.5 30.5 -69.5 30.5 Z" /><glyph glyph-name="afii10047" unicode="&#x42d;" d="M178 279 l0 146 l279 0 q-13 59 -58.5 90.5 q-45.5 31.5 -104.5 34.5 q-50 3 -98.5 -18.5 q-48.5 -21.5 -84.5 -65.5 l-105 106 q106 141 284 141 q166 0 262 -107 q96 -107 96 -259 q0 -149 -99 -255 q-99 -106 -259 -106 q-44 0 -80 6 q-36 6 -75.5 22.5 q-39.5 16.5 -76 49.5 q-36.5 33 -68.5 83 l119 104 q73 -92 167 -97 q63 -3 112.5 28.5 q49.5 31.5 71.5 96.5 l-282 0 Z" /><glyph glyph-name="afii10048" unicode="&#x42e;" d="M647 709 q160 -1 260 -103 q100 -102 100 -258 q0 -147 -102 -252 q-102 -105 -256 -105 q-133 0 -225.5 76.5 q-92.5 76.5 -123.5 202.5 l-81 0 l0 -270 l-181 0 l0 700 l181 0 l0 -271 l82 0 q25 127 116.5 203.5 q91.5 76.5 229.5 76.5 ZM647 551 q-85 0 -134.5 -59 q-49.5 -59 -50.5 -139 q-1 -82 48.5 -142.5 q49.5 -60.5 136.5 -60.5 q85 0 133 59 q48 59 48 139 q0 82 -48.5 142.5 q-48.5 60.5 -132.5 60.5 Z" /><glyph glyph-name="afii10049" unicode="&#x42f;" d="M-6 0 l169 272 q-75 19 -109.5 72.5 q-34.5 53.5 -35.5 122.5 q-2 96 72.5 164.5 q74.5 68.5 196.5 68.5 l260 0 l0 -700 l-178 0 l0 244 l-38 0 l-143 -244 l-194 0 ZM283 388 l85 0 l0 161 l-82 0 q-42 0 -65.5 -24 q-23.5 -24 -23.5 -57 q0 -32 23 -56 q23 -24 63 -24 Z" /><glyph glyph-name="bga" unicode="&#x430;" d="M234 219 q-36 0 -52 -23 q-16 -23 -2 -46 q14 -23 51 -23 q50 0 77 24 l0 55 q-27 13 -74 13 ZM474 0 l-135 0 l-17 51 q-48 -63 -126 -63 q-90 0 -138 52.5 q-48 52.5 -48 125.5 q0 51 30 90 q30 39 74.5 55 q44.5 16 96 19 q51.5 3 94.5 -18 l0 16 q0 33 -41.5 45.5 q-41.5 12.5 -92.5 5 q-51 -7.5 -81 -27.5 l-49 108 q82 66 205 66 q97 0 162.5 -52 q65.5 -52 65.5 -157 l0 -316 Z" /><glyph glyph-name="afii10066" unicode="&#x431;" d="M186 253 q0 -55 30 -85.5 q30 -30.5 68 -30.5 q38 0 68 30.5 q30 30.5 30 85.5 q-1 52 -30.5 80.5 q-29.5 28.5 -67.5 28.5 q-38 0 -68 -29 q-30 -29 -30 -80 ZM169 454 l3 -4 q60 35 127 38.5 q67 3.5 121.5 -21 q54.5 -24.5 90.5 -81 q36 -56.5 36 -133.5 q0 -117 -74.5 -189.5 q-74.5 -72.5 -188.5 -70.5 q-262 6 -262 328 q0 142 68.5 231.5 q68.5 89.5 217.5 103.5 q20 2 34.5 15.5 q14.5 13.5 13.5 35.5 l157 0 q7 -83 -37 -137 q-44 -54 -110 -52 q-128 4 -197 -64 Z" /><glyph glyph-name="afii10067" unicode="&#x432;" d="M29 0 l0 507 l232 0 q144 0 184 -85 q11 -30 12 -61 q1 -31 -15.5 -60 q-16.5 -29 -45.5 -39 q49 -20 68 -61 q19 -41 9 -90 q-7 -35 -27 -58.5 q-20 -23.5 -49.5 -34 q-29.5 -10.5 -58 -14.5 q-28.5 -4 -64.5 -4 l-245 0 ZM265 382 l-77 0 l0 -65 l76 0 q20 0 29 16.5 q9 16.5 0.5 32.5 q-8.5 16 -28.5 16 ZM264 199 l-76 0 l0 -75 l77 0 q27 0 38 19 q11 19 -0.5 37.5 q-11.5 18.5 -38.5 18.5 Z" /><glyph glyph-name="afii10068" unicode="&#x433;" d="M36 0 l0 507 l377 0 l0 -145 l-208 0 l0 -362 l-169 0 Z" /><glyph glyph-name="afii10069" unicode="&#x434;" d="M512 507 l0 -356 l56 0 l0 -248 l-147 0 l0 101 l-287 0 l0 -101 l-143 0 l0 248 q21 0 36 5.5 q15 5.5 22.5 11.5 q7.5 6 13 20 q5.5 14 6.5 21 q1 7 3 25 l13 273 l427 0 ZM198 150 l147 0 l0 225 l-102 0 l-6 -140 q-2 -65 -39 -85 Z" /><glyph glyph-name="afii10070" unicode="&#x435;" d="M520 200 l-334 0 q6 -36 34.5 -53.5 q28.5 -17.5 63.5 -17.5 q34 0 56 10 q22 10 48 35 l89 -78 q-53 -57 -98.5 -80.5 q-45.5 -23.5 -101.5 -23.5 q-124 0 -193 78.5 q-69 78.5 -68 184.5 q0 107 68 185.5 q68 78.5 192 78.5 q128 0 200 -92.5 q72 -92.5 44 -226.5 ZM366 311 q-5 35 -32.5 54.5 q-27.5 19.5 -59 18.5 q-31.5 -1 -58.5 -20 q-27 -19 -32 -53 l182 0 Z" /><glyph glyph-name="afii10072" unicode="&#x436;" d="M441 0 l-167 0 l0 106 l2 89 l-3 0 l-43 -78 l-89 -117 l-184 0 l0 9 l196 263 l-189 227 l0 8 l191 0 l78 -101 l42 -79 l3 1 l-4 87 l0 92 l167 0 l0 -92 l-4 -87 l3 -1 l42 79 l78 101 l191 0 l0 -8 l-188 -227 l195 -263 l0 -9 l-184 0 l-89 117 l-43 78 l-3 0 l2 -89 l0 -106 Z" /><glyph glyph-name="afii10073" unicode="&#x437;" d="M-15 73 l79 98 q49 -47 112 -44 q36 1 49 19 q13 18 -1.5 35.5 q-14.5 17.5 -46.5 17.5 l-89 0 l0 121 l77 0 q34 0 47 16.5 q13 16.5 -0.5 33 q-13.5 16.5 -44.5 16.5 q-63 0 -97 -28 l-65 86 q73 86 201 81 q53 -2 98 -28.5 q45 -26.5 66 -69.5 q21 -39 8.5 -92 q-12.5 -53 -54.5 -71 q56 -25 71 -83.5 q15 -58.5 -15 -108.5 q-49 -89 -191 -89 q-128 0 -204 90 Z" /><glyph glyph-name="afii10074" unicode="&#x438;" d="M403 301 l-3 1 l-54 -104 l-134 -198 l-174 0 l0 507 l164 0 l0 -170 l-6 -120 l3 -1 l44 92 l126 199 l191 0 l0 -507 l-163 0 l0 185 l6 116 Z" /><glyph glyph-name="afii10075" unicode="&#x439;" d="M403 301 l-3 1 l-54 -104 l-134 -198 l-174 0 l0 507 l164 0 l0 -170 l-6 -120 l3 -1 l44 92 l126 199 l191 0 l0 -507 l-163 0 l0 185 l6 116 ZM155 697 l119 0 q0 -19 16.5 -27 q16.5 -8 33 0 q16.5 8 16.5 28 l124 0 q0 -52 -32 -87.5 q-32 -35.5 -77 -43.5 q-45 -8 -90.5 0 q-45.5 8 -77.5 43.5 q-32 35.5 -32 86.5 Z" /><glyph glyph-name="afii10076" unicode="&#x43a;" d="M518 12 l0 -12 l-183 0 l-122 191 l-22 -19 l0 -172 l-167 0 l0 507 l167 0 l0 -183 q10 36 60 96 l67 87 l190 0 l0 -12 l-180 -197 l190 -286 Z" /><glyph glyph-name="afii10077" unicode="&#x43b;" d="M217 217 q0 -48 -12.5 -90.5 q-12.5 -42.5 -47 -82.5 q-34.5 -40 -88.5 -60 l-85 105 q33 21 49 46 q16 25 18 40.5 q2 15.5 1 42.5 l0 289 l459 0 l0 -507 l-168 0 l0 363 l-126 0 l0 -146 Z" /><glyph glyph-name="afii10078" unicode="&#x43c;" d="M342 304 l103 203 l204 0 l0 -507 l-164 0 l0 158 l17 141 l-5 1 l-59 -134 l-48 -90 l-96 0 l-48 90 l-58 134 l-5 -1 l16 -141 l0 -158 l-164 0 l0 507 l204 0 l103 -203 Z" /><glyph glyph-name="afii10079" unicode="&#x43d;" d="M34 507 l166 0 l0 -181 l140 0 l0 181 l168 0 l0 -507 l-168 0 l0 181 l-140 0 l0 -181 l-166 0 l0 507 Z" /><glyph glyph-name="afii10080" unicode="&#x43e;" d="M175 253 q0 -57 32.5 -89.5 q32.5 -32.5 71 -32 q38.5 0.5 71 32.5 q32.5 32 32.5 89 q0 57 -32.5 89 q-32.5 32 -71 32 q-38.5 0 -71 -32.5 q-32.5 -32.5 -32.5 -88.5 ZM550 253 q0 -64 -23.5 -115.5 q-23.5 -51.5 -61.5 -84 q-38 -32.5 -87 -50 q-49 -17.5 -99.5 -18 q-50.5 -0.5 -99.5 16.5 q-49 17 -87 49 q-38 32 -61.5 84.5 q-23.5 52.5 -23.5 117.5 q0 65 23.5 118 q23.5 53 61.5 86 q38 33 87 50.5 q49 17.5 99.5 17.5 q50.5 0 99.5 -17.5 q49 -17.5 87 -50 q38 -32.5 61.5 -85.5 q23.5 -53 23.5 -119 Z" /><glyph glyph-name="afii10081" unicode="&#x43f;" d="M34 507 l474 0 l0 -507 l-168 0 l0 362 l-140 0 l0 -362 l-166 0 l0 507 Z" /><glyph glyph-name="afii10082" unicode="&#x440;" d="M524 256 q0 -90 -45 -159.5 q-45 -69.5 -125 -92.5 q-35 -10 -78.5 -3 q-43.5 7 -69.5 28 l0 -218 l-168 0 l0 696 l130 0 l13 -55 q18 31 52.5 46 q34.5 15 71.5 13.5 q37 -1.5 68 -14.5 q67 -29 109 -94 q42 -65 42 -147 ZM206 347 l0 -199 q63 -33 107.5 1 q44.5 34 43.5 102 q-2 118 -101 118 q-25 0 -50 -22 Z" /><glyph glyph-name="afii10083" unicode="&#x441;" d="M478 432 l-94 -92 q-41 38 -97 38 q-40 0 -67.5 -25.5 q-27.5 -25.5 -34.5 -62 q-7 -36.5 -1 -73 q6 -36.5 34 -62 q28 -25.5 70 -25.5 q55 0 103 51 l97 -92 q-47 -58 -95 -81 q-48 -23 -110 -23 q-59 0 -108.5 18.5 q-49.5 18.5 -81 49.5 q-31.5 31 -54 71 q-22.5 40 -27.5 84.5 q-5 44.5 -0.5 89 q4.5 44.5 26.5 85 q22 40.5 53.5 71.5 q31.5 31 80 50 q48.5 19 107.5 19 q56 0 101.5 -19.5 q45.5 -19.5 97.5 -71.5 Z" /><glyph glyph-name="afii10084" unicode="&#x442;" d="M-19 365 l0 142 l433 0 l0 -142 l-132 0 l0 -365 l-168 0 l0 365 l-133 0 Z" /><glyph glyph-name="afii10085" unicode="&#x443;" d="M258 158 l5 0 l23 100 l87 249 l183 0 l-244 -588 q-65 -147 -254 -102 l0 123 q54 -7 81.5 6.5 q27.5 13.5 38.5 65.5 l-222 495 l184 0 l94 -249 l24 -100 Z" /><glyph glyph-name="afii10086" unicode="&#x444;" d="M419 -190 l-157 0 l0 190 q-86 2 -147 40 q-61 38 -87 94.5 q-26 56.5 -24 121.5 q2 65 31.5 121 q29.5 56 90 94 q60.5 38 141.5 40 l0 189 l147 0 l0 -189 q81 -2 141.5 -40 q60.5 -38 90 -94 q29.5 -56 31.5 -121 q2 -65 -24 -121.5 q-26 -56.5 -87 -94.5 q-61 -38 -147 -40 l0 -190 ZM267 132 l0 242 q-47 -3 -74.5 -39.5 q-27.5 -36.5 -29 -80 q-1.5 -43.5 26 -81 q27.5 -37.5 77.5 -41.5 ZM414 374 l0 -242 q48 2 75 39.5 q27 37.5 27 81.5 q0 44 -27 81.5 q-27 37.5 -75 39.5 Z" /><glyph glyph-name="afii10087" unicode="&#x445;" d="M542 2 l-166 252 l166 -252 ZM376 254 l166 -252 l0 -1 l-184 0 l-82 122 l-22 47 l-3 0 l-22 -47 l-83 -122 l-186 0 l0 1 l168 251 l-159 250 l0 2 l194 0 l65 -114 l24 -52 l2 0 l23 52 l67 114 l191 0 l0 -2 l-159 -249 Z" /><glyph glyph-name="afii10088" unicode="&#x446;" d="M340 507 l164 0 l0 -368 l61 0 l0 -236 l-149 0 l0 97 l-381 0 l0 507 l166 0 l0 -368 l139 0 l0 368 Z" /><glyph glyph-name="afii10089" unicode="&#x447;" d="M481 0 l-168 0 l0 135 q-71 -15 -136.5 1 q-65.5 16 -111.5 71 q-46 55 -46 142 l0 158 l166 0 l0 -157 q0 -58 37.5 -77 q37.5 -19 90.5 -3 l0 237 l168 0 l0 -507 Z" /><glyph glyph-name="afii10090" unicode="&#x448;" d="M470 138 l95 0 l0 369 l171 0 l0 -507 l-700 0 l0 507 l170 0 l0 -369 l99 0 l0 369 l165 0 l0 -369 Z" /><glyph glyph-name="afii10091" unicode="&#x449;" d="M470 138 l95 0 l0 369 l172 0 l0 -367 l53 0 l0 -237 l-153 0 l0 97 l-600 0 l0 507 l170 0 l0 -369 l98 0 l0 369 l165 0 l0 -369 Z" /><glyph glyph-name="afii10092" unicode="&#x44a;" d="M-13 369 l0 138 l259 0 l0 -137 l58 0 q56 0 100.5 -20.5 q44.5 -20.5 68 -53 q23.5 -32.5 34.5 -72 q11 -39.5 1 -79 q-10 -39.5 -33 -72 q-23 -32.5 -68 -53 q-45 -20.5 -103 -20.5 l-223 0 l0 369 l-94 0 ZM304 234 l-58 0 l0 -96 l58 0 q21 0 34 15 q13 15 13 33 q0 19 -13 33.5 q-13 14.5 -34 14.5 Z" /><glyph glyph-name="afii10093" unicode="&#x44b;" d="M205 507 l0 -137 l58 0 q56 0 100.5 -20.5 q44.5 -20.5 68 -53 q23.5 -32.5 34.5 -72 q11 -39.5 1 -79 q-10 -39.5 -33 -72 q-23 -32.5 -68 -53 q-45 -20.5 -103 -20.5 l-223 0 l0 507 l165 0 ZM263 233 l-58 0 l0 -93 l58 0 q21 0 34 14 q13 14 13 32 q0 19 -13 33 q-13 14 -34 14 ZM551 0 l0 507 l165 0 l0 -507 l-165 0 Z" /><glyph glyph-name="afii10094" unicode="&#x44c;" d="M199 507 l0 -137 l58 0 q56 0 100.5 -20.5 q44.5 -20.5 68 -53 q23.5 -32.5 34.5 -72 q11 -39.5 1 -79 q-10 -39.5 -33 -72 q-23 -32.5 -68 -53 q-45 -20.5 -103 -20.5 l-223 0 l0 507 l165 0 ZM257 233 l-58 0 l0 -93 l58 0 q21 0 34 14 q13 14 13 32 q0 19 -13 33 q-13 14 -34 14 Z" /><glyph glyph-name="afii10095" unicode="&#x44d;" d="M99 198 l0 114 l185 0 q-20 55 -94 57 q-67 2 -111 -44 l-81 84 q52 64 99.5 88 q47.5 24 100.5 24 q111 -1 183.5 -79.5 q72.5 -78.5 72.5 -191.5 q0 -110 -72 -184.5 q-72 -74.5 -184 -75.5 q-114 0 -216 108 l88 92 q22 -24 55.5 -38 q33.5 -14 68.5 -13 q30 1 56.5 16.5 q26.5 15.5 34.5 42.5 l-186 0 Z" /><glyph glyph-name="afii10096" unicode="&#x44e;" d="M440.5 329.5 q-28.5 -31.5 -28.5 -77.5 q0 -46 27 -78 q27 -32 71 -32 q43 0 70.5 32 q27.5 32 27.5 78 q0 45 -28.5 77 q-28.5 32 -69.5 32 q-41 0 -69.5 -31.5 ZM199 178 l0 -178 l-163 0 l0 507 l163 0 l0 -178 l67 0 q20 85 85 134.5 q65 49.5 159 49.5 q113 0 188 -73 q75 -73 75 -188 q0 -110 -78 -184 q-78 -74 -185 -74 q-90 0 -158 49 q-68 49 -86 135 l-67 0 Z" /><glyph glyph-name="bgq" unicode="&#x44f;" d="M-15 0 l0 8 l119 191 q-49 14 -73.5 52 q-24.5 38 -24.5 87 q0 82 60 125.5 q60 43.5 146 43.5 l225 0 l0 -507 l-165 0 l0 186 l-7 0 l-110 -186 l-170 0 ZM217 289 l55 0 l0 86 l-55 0 q-30 0 -41.5 -21.5 q-11.5 -21.5 1 -43 q12.5 -21.5 40.5 -21.5 Z" /><glyph glyph-name="afii10071" unicode="&#x451;" d="M517 200 l-334 0 q6 -36 34.5 -53.5 q28.5 -17.5 63.5 -17.5 q34 0 56 10 q22 10 48 35 l89 -78 q-53 -57 -98.5 -80.5 q-45.5 -23.5 -101.5 -23.5 q-124 0 -193 78.5 q-69 78.5 -68 184.5 q0 107 68 185.5 q68 78.5 192 78.5 q128 0 200 -92.5 q72 -92.5 44 -226.5 ZM363 311 q-5 35 -32.5 54.5 q-27.5 19.5 -59 18.5 q-31.5 -1 -58.5 -20 q-27 -19 -32 -53 l0 0 l0 0 l0 0 l1 0 l0 0 l1 0 l0 0 l1 0 l0 0 l1 0 l1 0 l1 0 l1 0 l1 0 l1 0 l1 0 l1 0 l1 0 l1 0 l1 0 l1 0 l1 0 l1 0 l1 0 l1 0 l1 0 l1 0 l1 0 l1 0 l1 0 l1 0 l1 0 l1 0 l1 0 l1 0 l1 0 l1 0 l1 0 l1 0 l1 0 l1 0 l1 0 l1 0 l1 0 l1 0 l1 0 l2 0 l1 0 l1 0 l1 0 l1 0 l2 0 l1 0 l1 0 l1 0 l1 0 l2 0 l1 0 l1 0 l1 0 l2 0 l1 0 l1 0 l2 0 l1 0 l1 0 l2 0 l1 0 l1 0 l2 0 l1 0 l2 0 l1 0 l1 0 l2 0 l1 0 l2 0 l1 0 l2 0 l1 0 l1 0 l2 0 l1 0 l2 0 l1 0 l2 0 l1 0 l2 0 l1 0 l2 0 l2 0 l1 0 l2 0 l1 0 l2 0 l1 0 l2 0 l2 0 l1 0 l2 0 l1 0 l2 0 l2 0 l1 0 l2 0 l2 0 l1 0 l2 0 l2 0 l1 0 l2 0 l2 0 l1 0 l2 0 l2 0 l2 0 l1 0 l2 0 l2 0 l2 0 l1 0 l2 0 l2 0 l2 0 l2 0 l1 0 l2 0 l2 0 l2 0 l2 0 l1 0 l2 0 l2 0 l9 0 ZM433 574 l-133 0 l0 122 l133 0 l0 -122 ZM235 574 l-135 0 l0 122 l135 0 l0 -122 Z" /><glyph glyph-name="afii10099" unicode="&#x452;" d="M37 700 l168 0 l0 -51 l96 0 l0 -105 l-96 0 l0 -59 q90 49 187 6 q58 -26 94 -80 q36 -54 36 -122 l0 -290 q0 -105 -68 -155 q-68 -50 -179 -33 l0 110 q79 0 79 78 l0 291 q0 38 -25 61 q-25 23 -58 23 q-33 0 -66 -14 l0 -360 l-168 0 l0 544 l-54 0 l0 105 l54 0 l0 51 Z" /><glyph glyph-name="afii10100" unicode="&#x453;" d="M36 0 l0 507 l377 0 l0 -148 l-208 0 l0 -359 l-169 0 ZM382 699 l5 -7 l-101 -127 l-134 0 l71 134 l159 0 Z" /><glyph glyph-name="afii10101" unicode="&#x454;" d="M362 312 l0 -114 l-186 0 q8 -27 34.5 -42.5 q26.5 -15.5 56.5 -16.5 q76 -2 122 49 l90 -92 q-97 -103 -216 -103 q-113 1 -184.5 74.5 q-71.5 73.5 -71.5 182.5 q0 113 72 188.5 q72 75.5 184 76.5 q58 0 106.5 -19 q48.5 -19 97.5 -79 l-85 -90 q-42 44 -111 42 q-74 -2 -94 -57 l185 0 Z" /><glyph glyph-name="afii10102" unicode="&#x455;" d="M202 329 q76 -10 131 -51 q55 -41 55 -116 q0 -46 -19.5 -81 q-19.5 -35 -51.5 -53.5 q-32 -18.5 -65.5 -27.5 q-33.5 -9 -67.5 -9 q-127 0 -201 100 l74 96 q53 -54 117 -57 q45 0 47 24 q2 23 -40 29 q-72 8 -125.5 52 q-53.5 44 -54.5 117 q0 78 59 121.5 q59 43.5 139 43.5 q102 0 172 -75 l-77 -95 q-46 34 -91 34 q-16 0 -26.5 -7 q-10.5 -7 -11.5 -17 q-1 -10 9 -17.5 q10 -7.5 28 -10.5 Z" /><glyph glyph-name="afii10103" unicode="&#x456;" d="M185 548 l-166 0 l0 155 l166 0 l0 -155 ZM18 505 l168 0 l0 -505 l-168 0 l0 505 Z" /><glyph glyph-name="afii10104" unicode="&#x457;" d="M23 507 l167 0 l0 -507 l-167 0 l0 507 ZM273 570 l-133 0 l0 130 l133 0 l0 -130 ZM81 570 l-136 0 l0 130 l136 0 l0 -130 Z" /><glyph glyph-name="afii10105" unicode="&#x458;" d="M189 548 l-166 0 l0 155 l166 0 l0 -155 ZM-60 -185 l0 133 q44 -7 63 7 q19 14 19 34 l0 514 l168 0 l0 -514 q1 -104 -75.5 -152 q-76.5 -48 -174.5 -22 Z" /><glyph glyph-name="afii10106" unicode="&#x459;" d="M206 363 l0 -146 q0 -48 -12.5 -90.5 q-12.5 -42.5 -47 -82.5 q-34.5 -40 -88.5 -60 l-85 105 q33 21 49 46 q16 25 18 40.5 q2 15.5 1 42.5 l0 289 l433 0 l0 -137 l43 0 q56 0 100.5 -20.5 q44.5 -20.5 68 -53 q23.5 -32.5 34.5 -72 q11 -39.5 1 -79 q-10 -39.5 -33 -72 q-23 -32.5 -68 -53 q-45 -20.5 -103 -20.5 l-204 0 l0 363 l-107 0 ZM517 233 l-43 0 l0 -93 l43 0 q21 0 34 14 q13 14 13 32 q0 19 -13 33 q-13 14 -34 14 Z" /><glyph glyph-name="afii10107" unicode="&#x45a;" d="M483 507 l0 -137 l43 0 q56 0 100.5 -20.5 q44.5 -20.5 68 -53 q23.5 -32.5 34.5 -72 q11 -39.5 1 -79 q-10 -39.5 -33 -72 q-23 -32.5 -68 -53 q-45 -20.5 -103 -20.5 l-207 0 l0 181 l-116 0 l0 -181 l-166 0 l0 507 l166 0 l0 -181 l116 0 l0 181 l164 0 ZM526 233 l-43 0 l0 -93 l43 0 q21 0 34 14 q13 14 13 32 q0 19 -13 33 q-13 14 -34 14 Z" /><glyph glyph-name="afii10108" unicode="&#x45b;" d="M522 0 l-168 0 l0 290 q0 38 -25 61 q-25 23 -58 23 q-33 0 -66 -14 l0 -360 l-168 0 l0 544 l-54 0 l0 105 l54 0 l0 51 l168 0 l0 -51 l96 0 l0 -105 l-96 0 l0 -59 q90 49 187 6 q58 -26 94 -80 q36 -54 36 -122 l0 -289 Z" /><glyph glyph-name="afii10109" unicode="&#x45c;" d="M518 12 l0 -12 l-183 0 l-122 191 l-22 -19 l0 -172 l-167 0 l0 507 l167 0 l0 -183 q10 36 60 96 l67 87 l190 0 l0 -12 l-180 -197 l190 -286 ZM405 699 l5 -7 l-101 -127 l-134 0 l71 134 l159 0 Z" /><glyph glyph-name="afii10110" unicode="&#x45e;" d="M258 158 l5 0 l23 100 l87 249 l183 0 l-244 -588 q-65 -147 -254 -102 l0 123 q54 -7 81.5 6.5 q27.5 13.5 38.5 65.5 l-222 495 l184 0 l94 -249 l24 -100 ZM104 697 l119 0 q0 -19 16.5 -27 q16.5 -8 33 0 q16.5 8 16.5 28 l124 0 q0 -52 -32 -87.5 q-32 -35.5 -77.5 -43.5 q-45.5 -8 -90.5 0 q-45 8 -77 43.5 q-32 35.5 -32 86.5 Z" /><glyph glyph-name="afii10193" unicode="&#x45f;" d="M193 -97 l0 97 l-159 0 l0 506 l168 0 l0 -362 l140 0 l0 362 l166 0 l0 -506 l-159 0 l0 -97 l-156 0 Z" /><glyph glyph-name="afii10050" unicode="&#x490;" d="M474 794 l0 -244 l-251 0 l0 -550 l-178 0 l0 700 l279 0 l0 94 l150 0 Z" /><glyph glyph-name="afii10098" unicode="&#x491;" d="M48 0 l0 507 l234 0 l0 87 l143 0 l0 -232 l-208 0 l0 -362 l-169 0 Z" /><glyph glyph-name="uni1E9E" unicode="&#x1e9e;" d="M205 499 l0 -499 l-177 0 l0 499 q0 95 64.5 150.5 q64.5 55.5 158.5 55.5 q73 0 130.5 -32 q57.5 -32 80.5 -93 q13 -39 13 -77 q0 -38 -22 -73 q-22 -35 -62 -53 q85 -32 114.5 -115.5 q29.5 -83.5 -8.5 -156.5 q-50 -108 -219 -106 q-10 0 -42 4 l0 156 q37 -10 67.5 7.5 q30.5 17.5 30.5 59.5 q0 27 -19.5 48 q-19.5 21 -54.5 21 l-21 0 l0 149 l18 0 q21 0 33 19 q12 19 10 39 q-1 21 -14.5 33.5 q-13.5 12.5 -31.5 12.5 q-19 0 -33.5 -13.5 q-14.5 -13.5 -15.5 -35.5 Z" /><glyph glyph-name="thinspace" unicode="&#x2009;" d="" /><glyph glyph-name="endash" unicode="&#x2013;" d="M9 261 l0 148 l515 0 l0 -148 l-515 0 Z" /><glyph glyph-name="emdash" unicode="&#x2014;" d="M9 261 l0 148 l643 0 l0 -148 l-643 0 Z" /><glyph glyph-name="afii00208" unicode="&#x2015;" d="M-1 232 l0 148 l660 0 l0 -148 l-660 0 Z" /><glyph glyph-name="quoteleft" unicode="&#x2018;" d="M200 700 l-48 -234 l-171 0 l86 234 l133 0 Z" /><glyph glyph-name="quoteright" unicode="&#x2019;" d="M-7 466 l48 234 l171 0 l-86 -234 l-133 0 Z" /><glyph glyph-name="quotesinglbase" unicode="&#x201a;" d="M223 138 l4 -9 l-113 -241 l-148 0 l81 250 l176 0 Z" /><glyph glyph-name="quotedblleft" unicode="&#x201c;" d="M200 700 l-48 -234 l-171 0 l86 234 l133 0 ZM405 700 l-42 -234 l-171 0 l79 234 l134 0 Z" /><glyph glyph-name="quotedblright" unicode="&#x201d;" d="M-7 466 l48 234 l171 0 l-79 -234 l-140 0 ZM189 466 l56 234 l171 0 l-86 -234 l-141 0 Z" /><glyph glyph-name="quotedblbase" unicode="&#x201e;" d="M215 138 l4 -9 l-105 -241 l-148 0 l81 250 l168 0 ZM445 138 l4 -9 l-113 -241 l-148 0 l81 250 l176 0 Z" /><glyph glyph-name="dagger" unicode="&#x2020;" d="M98 -41 l0 410 l-119 0 l0 137 l119 0 l0 194 l164 0 l0 -194 l112 0 l0 -137 l-112 0 l0 -410 l-164 0 Z" /><glyph glyph-name="daggerdbl" unicode="&#x2021;" d="M-2 130 l0 134 l117 0 l0 115 l-117 0 l0 134 l117 0 l0 187 l161 0 l0 -187 l112 0 l0 -134 l-112 0 l0 -115 l112 0 l0 -134 l-112 0 l0 -180 l-161 0 l0 180 l-117 0 Z" /><glyph glyph-name="bullet" unicode="&#x2022;" d="M145 240 q-59 0 -99.5 39.5 q-40.5 39.5 -40.5 97.5 q0 57 40.5 95.5 q40.5 38.5 99.5 38.5 q58 0 98 -38.5 q40 -38.5 40 -95.5 q0 -58 -40 -97.5 q-40 -39.5 -98 -39.5 Z" /><glyph glyph-name="ellipsis" unicode="&#x2026;" d="M195 0 l-173 0 l0 161 l173 0 l0 -161 ZM437 0 l-173 0 l0 161 l173 0 l0 -161 ZM678 0 l-173 0 l0 161 l173 0 l0 -161 Z" /><glyph glyph-name="perthousand" unicode="&#x2030;" d="M359 534 q0 -71 -51.5 -122.5 q-51.5 -51.5 -121.5 -51.5 q-70 0 -119 51.5 q-49 51.5 -49 122.5 q0 73 49 125 q49 52 119 52 q70 0 121.5 -52 q51.5 -52 51.5 -125 ZM525 706 l184 0 l-436 -737 l-182 0 l434 737 ZM231 535 q0 29 -20.5 42 q-20.5 13 -41.5 1 q-21 -12 -21 -43 q0 -27 21 -38.5 q21 -11.5 41.5 -0.5 q20.5 11 20.5 39 ZM796 165 q0 -72 -49 -123 q-49 -51 -118 -51 q-70 0 -120.5 51.5 q-50.5 51.5 -50.5 122.5 q0 73 50.5 125 q50.5 52 120.5 52 q70 0 118.5 -51.5 q48.5 -51.5 48.5 -125.5 ZM668 166 q0 29 -20 42 q-20 13 -40 1 q-20 -12 -20 -43 q0 -27 20 -38.5 q20 -11.5 40 -0.5 q20 11 20 39 ZM1169 165 q0 -72 -49 -123 q-49 -51 -118 -51 q-70 0 -120.5 51.5 q-50.5 51.5 -50.5 122.5 q0 73 50.5 125 q50.5 52 120.5 52 q70 0 118.5 -51.5 q48.5 -51.5 48.5 -125.5 ZM1041 166 q0 29 -20 42 q-20 13 -40 1 q-20 -12 -20 -43 q0 -27 20 -38.5 q20 -11.5 40 -0.5 q20 11 20 39 Z" /><glyph glyph-name="guilsinglleft" unicode="&#x2039;" d="M161 123 l-173 214 l173 215 l189 0 l-171 -215 l171 -214 l-189 0 Z" /><glyph glyph-name="guilsinglright" unicode="&#x203a;" d="M166 551 l173 -214 l-173 -215 l-189 0 l171 215 l-171 214 l189 0 Z" /><glyph glyph-name="fraction" unicode="&#x2044;" d="M-17 -38 l-171 0 l357 748 l171 0 l-357 -748 Z" /><glyph glyph-name="zerosuperior" unicode="&#x2070;" d="M140 505 q0 -33 26.5 -46 q26.5 -13 53 0 q26.5 13 26.5 46 l0 120 q0 37 -26.5 52 q-26.5 15 -53 -0.5 q-26.5 -15.5 -26.5 -51.5 l0 -120 ZM-3 617 q0 86 58 134 q58 48 138 48 q78 0 137 -48.5 q59 -48.5 59 -133.5 l0 -100 q0 -83 -59 -133.5 q-59 -50.5 -138 -50.5 q-79 0 -137.5 52 q-58.5 52 -57.5 132 l0 100 Z" /><glyph glyph-name="foursuperior" unicode="&#x2074;" d="M356 793 l0 -272 l46 0 l0 -121 l-46 0 l0 -69 l-130 0 l0 69 l-159 0 l-76 103 l174 290 l191 0 ZM227 518 l0 74 l7 84 l-97 -158 l90 0 Z" /><glyph glyph-name="fivesuperior" unicode="&#x2075;" d="M6 410 l99 57 q23 -36 70 -36 q26 0 45.5 15 q19.5 15 19.5 39 q0 29 -27 43.5 q-27 14.5 -60 9.5 q-33 -5 -49 -25 l-87 0 l39 278 l295 0 l0 -110 l-197 0 l-11 -61 q37 22 84.5 19.5 q47.5 -2.5 81.5 -24.5 q75 -48 75 -132 q0 -82 -59.5 -130.5 q-59.5 -48.5 -138.5 -48.5 q-50 0 -99 26 q-49 26 -81 80 Z" /><glyph glyph-name="sixsuperior" unicode="&#x2076;" d="M347 804 l-117 -161 l12 0 q63 0 102 -44 q39 -44 39 -104 q0 -64 -47 -114 q-55 -53 -139 -53 q-87 0 -138 53 l1 0 q-50 50 -50 119 q0 48 30 95 l146 209 l161 0 ZM197 545 q-25 0 -39 -15.5 q-14 -15.5 -14 -34.5 q0 -19 14 -34.5 q14 -15.5 39 -15.5 q24 0 37.5 16 q13.5 16 13.5 37 q0 18 -13.5 32.5 q-13.5 14.5 -37.5 14.5 Z" /><glyph glyph-name="sevensuperior" unicode="&#x2077;" d="M-6 335 l175 331 l-167 0 l0 126 l299 0 l47 -74 l-194 -383 l-160 0 Z" /><glyph glyph-name="eightsuperior" unicode="&#x2078;" d="M2 484 q-1 24 13.5 51.5 q14.5 27.5 45.5 45.5 q-29 20 -37.5 56 q-8.5 36 3.5 67 q16 44 57.5 68.5 q41.5 24.5 97.5 24.5 q57 0 100 -25.5 q43 -25.5 57 -73.5 q10 -34 -1 -68 q-11 -34 -37 -50 q60 -34 60 -94 q-1 -74 -54 -115 q-53 -41 -126 -41 q-73 0 -125.5 40 q-52.5 40 -53.5 114 ZM215 680 q-10 18 -34 18 q-24 0 -34 -18 q-10 -18 0 -36.5 q10 -18.5 34 -18.5 q24 0 34 18.5 q10 18.5 0 36.5 ZM181 534 q-20 0 -31.5 -14 q-11.5 -14 -12 -30.5 q-0.5 -16.5 11 -30.5 q11.5 -14 32.5 -14 q29 0 40 22.5 q11 22.5 -1 44.5 q-12 22 -39 22 Z" /><glyph glyph-name="ninesuperior" unicode="&#x2079;" d="M52 336 l109 155 l-13 0 q-62 0 -100.5 43.5 q-38.5 43.5 -38.5 102.5 q0 68 48 116 q53 53 138 53 q86 0 139 -53 l-1 0 q50 -52 50 -119 q0 -47 -31 -96 l-141 -202 l-159 0 ZM195 589 q25 0 39 15.5 q14 15.5 14 34.5 q0 18 -14.5 33.5 q-14.5 15.5 -38.5 15.5 q-24 0 -37.5 -16 q-13.5 -16 -13.5 -36 q0 -18 13.5 -32.5 q13.5 -14.5 37.5 -14.5 Z" /><glyph glyph-name="zeroinferior" unicode="&#x2080;" d="M138 40 q0 -33 26.5 -46 q26.5 -13 53 0 q26.5 13 26.5 46 l0 120 q0 37 -26.5 52 q-26.5 15 -53 -0.5 q-26.5 -15.5 -26.5 -51.5 l0 -120 ZM-5 152 q0 86 58 134 q58 48 138 48 q78 0 137 -48.5 q59 -48.5 59 -133.5 l0 -100 q0 -83 -59 -133.5 q-59 -50.5 -138 -50.5 q-79 0 -137.5 52 q-58.5 52 -57.5 132 l0 100 Z" /><glyph glyph-name="oneinferior" unicode="&#x2081;" d="M62 -138 l0 335 l-57 0 l0 122 l205 0 l0 -457 l-148 0 Z" /><glyph glyph-name="twoinferior" unicode="&#x2082;" d="M239 18 l-56 -27 l66 4 l105 0 l0 -125 l-292 0 l-57 95 l187 195 q11 10 11 23 q0 13 -11 23.5 q-11 10.5 -28 10.5 q-25 0 -53 -45 l-105 51 q58 126 169 125 q77 -1 125 -43 q48 -42 48 -115 q0 -65 -60 -123 l-49 -49 Z" /><glyph glyph-name="threeinferior" unicode="&#x2083;" d="M-5 -39 l85 69 q35 -45 86 -45 q26 0 36.5 17.5 q10.5 17.5 0.5 35 q-10 17.5 -32 17.5 l-58 0 l0 101 l48 0 q25 0 30 23 q5 25 -18 37 q-11 5 -23 5 q-34 0 -52 -31 l-92 51 q59 99 160 99 q70 0 119 -39 q49 -39 49 -112 q0 -48 -38 -78 q54 -32 54 -96 q-1 -76 -56 -116.5 q-55 -40.5 -128 -40.5 q-108 0 -171 103 Z" /><glyph glyph-name="fourinferior" unicode="&#x2084;" d="M356 328 l0 -272 l46 0 l0 -121 l-46 0 l0 -69 l-130 0 l0 69 l-159 0 l-76 103 l174 290 l191 0 ZM227 53 l0 74 l7 84 l-97 -158 l90 0 Z" /><glyph glyph-name="fiveinferior" unicode="&#x2085;" d="M6 -49 l99 57 q23 -36 70 -36 q26 0 45.5 15 q19.5 15 19.5 39 q0 29 -27 43.5 q-27 14.5 -60 9.5 q-33 -5 -49 -25 l-87 0 l39 278 l295 0 l0 -112 l-197 0 l-11 -59 q37 22 84.5 19.5 q47.5 -2.5 81.5 -24.5 q75 -48 75 -132 q0 -82 -59.5 -130.5 q-59.5 -48.5 -138.5 -48.5 q-50 0 -99 26 q-49 26 -81 80 Z" /><glyph glyph-name="sixinferior" unicode="&#x2086;" d="M338 335 l-117 -161 q1 1 7 0 l5 0 q63 0 102 -44 q39 -44 39 -104 q0 -64 -47 -114 q-55 -53 -139 -53 q-87 0 -138 53 l1 0 q-50 50 -50 119 q0 48 30 95 l146 209 l161 0 ZM188 76 q-25 0 -39 -15.5 q-14 -15.5 -14 -34.5 q0 -19 14 -34.5 q14 -15.5 39 -15.5 q24 0 37.5 16 q13.5 16 13.5 37 q0 18 -13.5 32.5 q-13.5 14.5 -37.5 14.5 Z" /><glyph glyph-name="seveninferior" unicode="&#x2087;" d="M-10 -137 l175 331 l-167 0 l0 126 l299 0 l47 -74 l-194 -383 l-160 0 Z" /><glyph glyph-name="eightinferior" unicode="&#x2088;" d="M-1 20 q-2 59 59 95 q-29 20 -37.5 56 q-8.5 36 3.5 67 q16 44 57.5 68.5 q41.5 24.5 97.5 24.5 q57 0 100 -25.5 q43 -25.5 57 -73.5 q10 -34 -1 -68 q-11 -34 -37 -50 q60 -34 60 -94 q-1 -74 -54 -115 q-53 -41 -126 -41 q-72 0 -125 41 q-53 41 -54 115 ZM212 214 q-10 18 -34 18 q-24 0 -34 -18 q-10 -18 0 -36.5 q10 -18.5 34 -18.5 q24 0 34 18.5 q10 18.5 0 36.5 ZM178 68 q-20 0 -31.5 -14 q-11.5 -14 -12 -30.5 q-0.5 -16.5 11 -30.5 q11.5 -14 32.5 -14 q29 0 40 22.5 q11 22.5 -1 44.5 q-12 22 -39 22 Z" /><glyph glyph-name="nineinferior" unicode="&#x2089;" d="M46 -132 l109 155 l-13 0 q-62 0 -100.5 43.5 q-38.5 43.5 -38.5 102.5 q0 68 48 116 q53 53 138 53 q86 0 139 -53 l-1 0 q50 -52 50 -119 q0 -47 -31 -96 l-141 -202 l-159 0 ZM189 121 q25 0 39 15.5 q14 15.5 14 34.5 q0 18 -14.5 33.5 q-14.5 15.5 -38.5 15.5 q-24 0 -37.5 -16 q-13.5 -16 -13.5 -36 q0 -18 13.5 -32.5 q13.5 -14.5 37.5 -14.5 Z" /><glyph glyph-name="Euro" unicode="&#x20ac;" d="M-46 365 l19 118 l73 0 q36 103 121.5 166.5 q85.5 63.5 211.5 63.5 q142 0 231 -93 l-87 -120 q-68 58 -144 54 q-103 0 -154 -71 l164 0 l-23 -118 l-179 0 l0 -17 l0 -15 l200 0 l-21 -118 l-143 0 q49 -70 156 -70 q88 0 156 67 l103 -105 q-115 -121 -259 -121 q-127 0 -213 63 q-86 63 -121 166 l-91 0 l16 118 l54 0 l0 14 l0 18 l-70 0 Z" /><glyph glyph-name="afii61352" unicode="&#x2116;" d="M68 690 l205 0 l198 -400 l-4 28 l0 372 l173 0 l0 -690 l-204 0 l-197 399 l4 -28 l0 -371 l-175 0 l0 690 ZM881 253 q0 -52 32 -82.5 q32 -30.5 71 -30.5 q40 0 71 30.5 q31 30.5 31 82.5 q0 55 -30.5 84 q-30.5 29 -71.5 29 q-39 0 -71 -30 q-32 -30 -32 -83 ZM1252 253 q0 -116 -76 -191 q-76 -75 -192 -75 q-115 0 -191.5 75 q-76.5 75 -76.5 191 q0 118 76.5 192.5 q76.5 74.5 191.5 74.5 q116 0 192 -74.5 q76 -74.5 76 -192.5 Z" /><glyph glyph-name="trademark" unicode="&#x2122;" d="M336 584 l-97 0 l0 -277 l-128 0 l0 277 l-97 0 l0 117 l322 0 l0 -117 ZM579 349 l-90 199 l-3 -1 l21 -142 l0 -98 l-124 0 l0 393 l145 0 l85 -174 l86 174 l145 0 l0 -393 l-124 0 l0 98 l21 142 l-3 1 l-90 -199 l-69 0 Z" /><glyph glyph-name="minus" unicode="&#x2212;" d="M17 229 l0 148 l471 0 l0 -148 l-471 0 Z" /><glyph glyph-name="infinity" unicode="&#x221e;" d="M197 149 q-72 0 -123 49.5 q-51 49.5 -51 119.5 q0 70 51 119.5 q51 49.5 123 49.5 q71 0 121.5 -49.5 q50.5 -49.5 50.5 -119.5 q0 -70 -50.5 -119.5 q-50.5 -49.5 -121.5 -49.5 Z" /><glyph glyph-name="approxequal" unicode="&#x2248;" d="M423 319 l80 -77 q-44 -79 -123.5 -100.5 q-79.5 -21.5 -169.5 34.5 q-75 48 -126 -28 l-90 72 q27 39 50 63 q23 24 54.5 45 q31.5 21 69 18 q37.5 -3 79.5 -29 q113 -69 176 2 ZM418 500 l82 -66 q-26 -43 -52 -70 q-26 -27 -57.5 -40.5 q-31.5 -13.5 -68.5 -6.5 q-37 7 -79 35 q-34 25 -85 24 q-51 -1 -81 -34 l-83 69 q24 34 53 58.5 q29 24.5 64 40 q35 15.5 76 11.5 q41 -4 82 -30 q35 -21 58 -28.5 q23 -7.5 46.5 0.5 q23.5 8 44.5 37 Z" /><glyph glyph-name="notequal" unicode="&#x2260;" d="M50 103 l28 43 l-64 0 l0 138 l155 0 l22 34 l-177 0 l0 142 l269 0 l72 103 l102 -56 l-30 -47 l55 0 l0 -142 l-147 0 l-22 -34 l169 0 l0 -138 l-259 0 l-74 -111 l-99 68 Z" /><glyph glyph-name="lessequal" unicode="&#x2264;" d="M14 157 l414 0 l0 -144 l-414 0 l0 144 ZM416 656 l6 -3 l0 -171 l-187 -65 l187 -68 l0 -164 l-5 -2 l-402 189 l0 93 l401 191 Z" /><glyph glyph-name="greaterequal" unicode="&#x2265;" d="M15 159 l414 0 l0 -144 l-414 0 l0 144 ZM21 655 l6 3 l401 -191 l0 -93 l-402 -189 l-5 2 l0 164 l187 68 l-187 65 l0 171 Z" /><glyph glyph-name="f_f" unicode="&#xfb00;" d="M596 698 l0 -129 q-45 7 -63.5 -4.5 q-18.5 -11.5 -18.5 -29.5 l0 -28 l82 0 l0 -126 l-82 0 l0 -381 l-168 0 l0 381 l-127 0 l0 -381 l-168 0 l0 381 l-68 0 l0 126 l68 0 l0 27 q-1 104 75 147 q76 43 175 17 l0 -129 q-45 7 -63.5 -4.5 q-18.5 -11.5 -18.5 -29.5 l0 -28 l127 0 l0 27 q-1 104 75 147 q76 43 175 17 Z" /><glyph glyph-name="fi" unicode="&#xfb01;" d="M292 698 l0 -129 q-45 7 -63.5 -4.5 q-18.5 -11.5 -18.5 -29.5 l0 -28 l295 0 l0 -507 l-168 0 l0 382 l-127 0 l0 -382 l-168 0 l0 382 l-68 0 l0 125 l68 0 l0 27 q-1 104 75 147 q76 43 175 17 ZM338 548 l166 0 l0 155 l-166 0 l0 -155 Z" /><glyph glyph-name="fl" unicode="&#xfb02;" d="M296 698 l0 -129 q-45 7 -63.5 -4.5 q-18.5 -11.5 -18.5 -29.5 l0 -28 l82 0 l0 -127 l-82 0 l0 -380 l-168 0 l0 380 l-68 0 l0 127 l68 0 l0 27 q-1 104 75 147 q76 43 175 17 ZM576 2 l0 119 q-39 -4 -52 9.5 q-13 13.5 -13 38.5 l0 531 l-168 0 l0 -531 q0 -89 45 -131.5 q45 -42.5 121 -42.5 q28 0 67 7 Z" /><glyph glyph-name="f_f_i" unicode="&#xfb03;" d="M603 698 l0 -129 q-45 7 -63.5 -4.5 q-18.5 -11.5 -18.5 -29.5 l0 -28 l295 0 l0 -507 l-168 0 l0 382 l-127 0 l0 -382 l-168 0 l0 381 l-127 0 l0 -381 l-168 0 l0 381 l-68 0 l0 126 l68 0 l0 27 q-1 104 75 147 q76 43 175 17 l0 -129 q-45 7 -63.5 -4.5 q-18.5 -11.5 -18.5 -29.5 l0 -28 l127 0 l0 27 q-1 104 75 147 q76 43 175 17 ZM649 548 l166 0 l0 155 l-166 0 l0 -155 Z" /><glyph glyph-name="f_f_l" unicode="&#xfb04;" d="M607 698 l0 -129 q-45 7 -63.5 -4.5 q-18.5 -11.5 -18.5 -29.5 l0 -28 l82 0 l0 -126 l-82 0 l0 -381 l-168 0 l0 381 l-127 0 l0 -381 l-168 0 l0 381 l-68 0 l0 126 l68 0 l0 27 q-1 104 75 147 q76 43 175 17 l0 -129 q-45 7 -63.5 -4.5 q-18.5 -11.5 -18.5 -29.5 l0 -28 l127 0 l0 27 q-1 104 75 147 q76 43 175 17 ZM887 2 l0 119 q-39 -4 -52 9.5 q-13 13.5 -13 38.5 l0 531 l-168 0 l0 -531 q0 -89 45 -131.5 q45 -42.5 121 -42.5 q28 0 67 7 Z" /></font>
</defs>
</svg>
